<?xml version="1.0" encoding="utf-8"?>
<!-- Generator: Adobe Illustrator 21.0.0, SVG Export Plug-In . SVG Version: 6.00 Build 0)  -->
<svg version="1.1" id="_x34_bb361e0-c198-4236-8a2c-16fdc74357b9"
	 xmlns="http://www.w3.org/2000/svg" xmlns:xlink="http://www.w3.org/1999/xlink" x="0px" y="0px" viewBox="0 0 1077.9 757.3"
	 style="enable-background:new 0 0 1077.9 757.3;" xml:space="preserve">
<style type="text/css">
	.st0{opacity:0.1;fill:#6C63FF;enable-background:new    ;}
	.st1{opacity:0.1;}
	.st2{fill:#F7F7FD;}
	.st3{opacity:0.2;}
	.st4{fill:#6C63FF;}
	.st5{fill:#FFFFFF;}
	.st6{opacity:0.1;enable-background:new    ;}
	.st7{fill:#FFD037;}
	.st8{fill:#A8A8A8;}
	.st9{opacity:0.2;enable-background:new    ;}
	.st10{fill:#D38884;}
	.st11{fill:#4C4981;}
	.st12{opacity:5.000000e-02;enable-background:new    ;}
	.st13{fill:#CEDDF9;}
	.st14{fill:#CC8294;}
	.st15{fill:#1E1637;}
	.st16{fill:#FFD2C6;}
	.st17{fill:#626696;}
	.st18{fill:#985C7E;}
	.st19{fill:url(#SVGID_1_);}
	.st20{fill:#DB8B8B;}
	.st21{fill:#2E3037;}
	.st22{fill:#474463;}
	.st23{fill:#FC6681;}
	.st24{fill:#472727;}
	.st25{fill:none;stroke:#565987;stroke-miterlimit:10;}
	.st26{opacity:0.2;fill:#6C63FF;enable-background:new    ;}
	.st27{fill:none;stroke:#535461;stroke-width:2;stroke-miterlimit:10;}
	.st28{opacity:0.25;enable-background:new    ;}
	.st29{opacity:0.7;}
	.st30{fill:url(#SVGID_2_);}
	.st31{fill:url(#SVGID_3_);}
	.st32{fill:url(#SVGID_4_);}
	.st33{fill:url(#SVGID_5_);}
	.st34{fill:url(#SVGID_6_);}
	.st35{fill:url(#SVGID_7_);}
	.st36{fill:url(#SVGID_8_);}
	.st37{fill:url(#SVGID_9_);}
	.st38{fill:url(#SVGID_10_);}
	.st39{fill:url(#SVGID_11_);}
	.st40{fill:url(#SVGID_12_);}
	.st41{opacity:0.1;fill:url(#SVGID_13_);enable-background:new    ;}
	.st42{opacity:0.1;fill:url(#SVGID_14_);enable-background:new    ;}
	.st43{opacity:0.1;fill:url(#SVGID_15_);enable-background:new    ;}
	.st44{fill:url(#SVGID_16_);}
	.st45{fill:url(#SVGID_17_);}
	.st46{fill:url(#SVGID_18_);}
	.st47{fill:url(#SVGID_19_);}
	.st48{fill:url(#SVGID_20_);}
	.st49{fill:url(#SVGID_21_);}
	.st50{fill:#535461;}
	.st51{fill:#E0E0E0;}
	.st52{fill:#FDA57D;}
	.st53{fill:#4D8AF0;}
	.st54{fill:#72351C;}
	.st55{fill:url(#SVGID_22_);}
	.st56{fill:#FDB797;}
	.st57{fill:#3AD29F;}
	.st58{fill:#252A62;}
	.st59{fill:url(#SVGID_23_);}
	.st60{fill:url(#SVGID_24_);}
	.st61{fill:#3E3F49;}
	.st62{opacity:0.5;}
	.st63{fill:url(#SVGID_25_);}
	.st64{fill:#F5F5F5;}
	.st65{fill:url(#SVGID_26_);}
	.st66{fill:#333333;}
	.st67{fill:#FDD835;}
	.st68{fill:url(#SVGID_27_);}
	.st69{fill:url(#SVGID_28_);}
	.st70{fill:url(#SVGID_29_);}
	.st71{fill:url(#SVGID_30_);}
	.st72{fill:#BE7C5E;}
	.st73{fill:url(#SVGID_31_);}
	.st74{fill:#69F0AE;}
	.st75{fill:url(#SVGID_32_);}
	.st76{fill:url(#SVGID_33_);}
	.st77{fill:url(#SVGID_34_);}
	.st78{fill:url(#SVGID_35_);}
	.st79{fill:url(#SVGID_36_);}
	.st80{fill:url(#SVGID_37_);}
	.st81{fill:url(#SVGID_38_);}
	.st82{fill:#FFCDE5;}
</style>
<title>product tour</title>
<path class="st0" d="M663.8,91.8c-46.2,32.4-106.2,30.3-158.8,13.4S404.2,58.4,352.9,37.1C310.2,19.3,265.3,7.6,219.3,2.3
	C154-5.2,81.1,3.9,35.7,56.3c-50.7,58.3-46.8,163.5,8,217c27.9,27.2,64.4,40.6,96.2,61.8s61.3,56.5,58.6,97.5
	c-2.5,38-31.7,67.1-61.9,85.4c-23.3,14.1-52.1,29.6-54.9,58.8c-2.7,28.3,21.4,50.5,44.5,63.1c75.3,41.2,168,40.8,243-1
	c26.7-15,51.3-34.8,79.3-46.4c73.7-30.5,154.8,0.2,232.8,11.4c66.3,9.5,133.8,4.6,198-14.4c38.6-11.4,77.4-28.8,104.5-61.3
	c19.6-23.4,31.8-53.1,43.2-82.4c12.2-31.2,23.9-62.7,35.2-94.3c6.8-19,13.4-38.4,15.2-58.7c3.2-36.9-10.2-73.3-28.3-104.4
	c-43.1-73.9-115.6-125.8-194.2-139s-161.7,12.6-222.6,68.9"/>
<g class="st1">
	<path d="M540.7,103.4l-3.8,221c0,0,137.9,0,255.3,38.1l2.3-223.3C794.4,139.2,606.2,94.2,540.7,103.4z"/>
</g>
<path class="st2" d="M537.7,99.4l-3.8,221c0,0,137.9,0,255.3,38.1l2.3-223.3C791.4,135.2,603.2,90.2,537.7,99.4z"/>
<g class="st1">
	<path d="M471.4,109.7l3.8,221c0,0-137.9,0-255.3,38.1l-2.3-223.3C217.7,145.6,405.9,100.6,471.4,109.7z"/>
</g>
<path class="st2" d="M474.4,104.7l3.8,221c0,0-137.9,0-255.3,38.1l-2.3-223.3C220.7,140.6,408.9,95.6,474.4,104.7z"/>
<g class="st3">
	<path class="st4" d="M412.5,130.5l2,118.5c0,0-74,0-136.9,20.4l-1.2-119.7C276.4,149.7,377.3,125.6,412.5,130.5z"/>
</g>
<g class="st1">
	<path d="M875.7,184.7v218.7c0,0,45-5.3,139.4,111.2l8.4-218.7C1023.5,295.9,925.2,190,875.7,184.7z"/>
</g>
<path class="st2" d="M873.7,181.7v218.7c0,0,45-5.3,139.4,111.2l8.4-218.7C1021.5,292.9,923.2,187,873.7,181.7z"/>
<g class="st1">
	<path d="M148.3,185.7v218.7c0,0-45-5.3-139.4,111.2L0.5,296.9C0.5,296.9,98.8,191,148.3,185.7z"/>
</g>
<path class="st2" d="M151.3,181.7v218.7c0,0-45-5.3-139.4,111.2L3.5,292.9C3.5,292.9,101.8,187,151.3,181.7z"/>
<g class="st3">
	<polygon class="st4" points="574.5,145.4 667.9,162.1 667.9,175.7 574.5,157.8 	"/>
</g>
<polygon class="st5" points="394.5,276.9 301.1,293.6 301.1,307.2 394.5,289.2 "/>
<polygon class="st5" points="575.7,170.7 746.5,206 746.5,219.6 575.7,183.1 "/>
<polygon class="st5" points="575.7,196.1 746.5,231.4 746.5,245 575.7,208.5 "/>
<g class="st3">
	<polygon class="st4" points="913.5,252.3 913.5,264.3 950.1,294.1 951.8,283.8 	"/>
</g>
<polygon class="st5" points="913.5,368.3 913.5,380.3 950.1,410.1 951.8,399.8 "/>
<polygon class="st5" points="914.1,272.9 913.5,284.9 982.8,350.2 981.6,336.4 "/>
<polygon class="st5" points="913.5,295.2 913.5,306.7 982.8,373.1 982.8,358.2 "/>
<g class="st3">
	<polygon class="st4" points="110.9,254.9 111.5,266.9 42.3,332.2 43.4,318.4 	"/>
</g>
<g class="st3">
	<polygon class="st4" points="111.5,277.2 111.5,288.7 42.3,355.1 42.3,340.2 	"/>
</g>
<ellipse class="st0" cx="204.6" cy="621.9" rx="57" ry="10.3"/>
<path class="st4" d="M69.4,565.5c0,0,5.5,7.2-2.5,18c-8,10.8-14.6,20-12,26.8c0,0,12.1-20.1,22-20.4S80.3,577.6,69.4,565.5z"/>
<path class="st6" d="M69.4,565.5c0.5,0.7,0.9,1.4,1.1,2.2c9.6,11.3,14.8,21.8,5.5,22.1c-8.6,0.2-19,15.7-21.4,19.5
	c0.1,0.3,0.2,0.6,0.3,0.9c0,0,12.1-20.1,22-20.4S80.3,577.6,69.4,565.5z"/>
<path class="st7" d="M79.6,574.6c0,2.5-0.3,4.6-0.6,4.6s-0.6-2-0.6-4.6s0.4-1.3,0.7-1.3S79.6,572.1,79.6,574.6z"/>
<path class="st7" d="M83.2,577.6c-2.2,1.2-4.2,1.9-4.3,1.6s1.5-1.5,3.7-2.8s1.3-0.3,1.5,0S85.4,576.4,83.2,577.6z"/>
<path class="st4" d="M40.4,565.5c0,0-5.5,7.2,2.5,18s14.7,20,12,26.8c0,0-12.1-20.1-22-20.4S29.6,577.6,40.4,565.5z"/>
<path class="st6" d="M40.4,565.5c-0.5,0.7-0.9,1.5-1.1,2.2c-9.6,11.3-14.8,21.8-5.5,22.1c8.6,0.2,19,15.7,21.4,19.5
	c-0.1,0.3-0.2,0.6-0.3,0.9c0,0-12.1-20.1-22-20.4S29.6,577.6,40.4,565.5z"/>
<path class="st7" d="M30.2,574.6c0,2.5,0.3,4.6,0.6,4.6s0.6-2,0.6-4.6s-0.4-1.3-0.7-1.3S30.2,572.1,30.2,574.6z"/>
<path class="st7" d="M26.7,577.6c2.2,1.2,4.2,1.9,4.3,1.6s-1.5-1.5-3.7-2.8s-1.3-0.3-1.5,0S24.5,576.4,26.7,577.6z"/>
<path class="st8" d="M31.9,609.3c0,0,15.4-0.5,20-3.8s23.6-7.2,24.8-1.9s23.1,26.3,5.7,26.4s-40.3-2.7-44.9-5.5
	S31.9,609.3,31.9,609.3z"/>
<path class="st9" d="M82.8,628.2c-17.3,0.1-40.3-2.7-44.9-5.5c-3.5-2.1-4.9-9.8-5.4-13.4H32c0,0,1,12.4,5.6,15.2s27.6,5.7,44.9,5.5
	c5,0,6.7-1.8,6.6-4.5C88.4,627.2,86.5,628.2,82.8,628.2z"/>
<ellipse class="st0" cx="600.5" cy="470.7" rx="94" ry="16.1"/>
<path class="st10" d="M581.5,253.4c-0.5,1-0.8,2-1,3.1c-0.1,0.3-0.1,0.5-0.2,0.8c-0.6,3.1-1,6.9-1.2,9.1c-0.1,1.1-0.2,1.8-0.2,1.8
	s-21.7-1.5-17.9-5.1c1-1,1.7-2.2,2-3.6c0.1-0.4,0.2-0.8,0.3-1.2c0.2-0.9,0.3-1.8,0.3-2.8c0-0.2,0-0.5,0-0.7c0-1.5,0-3-0.2-4.5
	c0,0,7,0,12.4,0.6C579.4,251.5,582.2,252.2,581.5,253.4z"/>
<path class="st10" d="M543.9,356.6c-7.4-0.2-1.9-15.6-1.1-17.7s-1.3-7.1-1.3-7.1s-2.5-14.7-2.5-15.6c-0.1-2-0.4-4-0.8-5.9
	c-0.3-2,0.1-4,1-5.8c0.8-1.3,0.7-6.7,0.7-6.7v-6.9l1.7-2.2l4.2,4l1.2,1.1l2.1,7.7l-0.7,11.1l-0.4,10.8l2.5,14.9
	C550.5,338.2,551.4,356.9,543.9,356.6z"/>
<polygon class="st6" points="546.3,294.5 540,291.9 540,290.9 541.6,288.7 545.8,292.7 "/>
<path class="st11" d="M543.4,278.7c-0.8,2-1.4,4.1-1.8,6.2c-0.3,2-0.9,4-1.7,5.9l7,2.9L543.4,278.7z"/>
<path class="st12" d="M543.4,278.7c-0.8,2-1.4,4.1-1.8,6.2c-0.3,2-0.9,4-1.7,5.9l7,2.9L543.4,278.7z"/>
<path class="st10" d="M599.1,431.7l-0.6,1.2c0,0-0.6,4.1-0.6,4.2s-1.8,2.8-1.8,2.8l-4.6,1l-1.9-0.2c-0.1-1.1-0.3-2.3-0.5-3.4
	c-0.1-0.3-0.1-0.6-0.2-1c-0.7-2.6-1.8-5-3.2-7.2c0,0-3.4-8.4-4.6-9.5s-5.8-12.1-5.3-14.8c0.3-1.5,0-6.4-0.2-10.4
	c-0.2-3.3-0.4-6.1-0.4-6.1l11.5-6.8l1.3,2.1l0,0l0.8,1.2c0,0,0,0.2,0,0.6v0.1c-0.1,1.7-0.5,3.4-1,5c0,0-0.9,6.2,0,7.3
	s3.6,15.7,4.2,22.4c0,0.2,0,0.4,0,0.6c0.2,3.1,2.2,5.9,4.1,7.9l0,0c0.1,0.1,0.2,0.3,0.4,0.4C597.3,430.2,598.2,431,599.1,431.7z"/>
<path class="st6" d="M589.6,440.8l1.9,0.2l4.6-1c0,0,1.8-2.8,1.8-2.8s0.6-4.2,0.6-4.2l0.6-1.2l0.1-0.1c-1.1-0.8-2.2-1.6-3.1-2.6l0,0
	c-0.1-0.1-0.2-0.2-0.3-0.3s0.7,4-2.8,5.8c-1.7,0.9-3.1,1.5-4,2L589.6,440.8z"/>
<path class="st13" d="M599.9,432.3l-0.7,1.4c0,0-0.6,4.1-0.6,4.2s-1.8,2.8-1.8,2.8l-4.6,1l-2.6-0.3c0-0.5-0.1-1.3-0.2-2.2
	c-0.1-0.5-0.2-1.2-0.3-1.8c1-0.5,2.5-1.2,4.5-2.2c3.5-1.8,2.8-5.8,2.8-5.8c0.8,0.8,1.6,1.5,2.4,2.1
	C599.3,431.9,599.7,432.1,599.9,432.3z"/>
<path class="st6" d="M599.9,432.3l-0.7,1.4c0,0-0.6,4.1-0.6,4.2s-1.8,2.8-1.8,2.8l-4.6,1l-2.6-0.3c0-0.5-0.1-1.3-0.2-2.2
	c0.6,0,1.1,0.1,1.7,0.2c0,0,6.2,1.3,6.5-3.6c0.2-2.8,0.8-3.9,1.2-4.3C599.3,431.9,599.7,432.1,599.9,432.3z"/>
<path class="st14" d="M599.5,432c0,0-1.5-0.3-1.9,4.6s-6.5,3.6-6.5,3.6s-3.1-0.8-3.1,0.5c0.1,1.2,0.4,2.3,0.8,3.4
	c0,0,0.2,2.9,0.8,3.6s0.2,3.3,0.2,3.3s0.2,1.9,5.1,0c0,0,4.3-0.9,7.9-6.2c0.1-0.2-0.4-0.7,2.7-1.8s12-8.3,11.4-11.8
	c-0.1-1.2-1-2.2-2.1-2.5c-0.9-0.3-1.9-0.1-2.8,0.4c-0.8,0.5-1.7,0.9-2.6,1.2c-1.2,0.5-2.4,0.8-3.7,0.9c-1,0.1-1.9,0.3-2.9,0.5
	C601.6,432,600.5,432.2,599.5,432z"/>
<path class="st10" d="M564.2,398c-0.7,0.6-1.3,1.2-1.8,2c-1.8,2.7-2.8,6.5-4,8.1c-1.5,2.1-2,6.2-2,6.2c-0.4,2.7-6.1,17-7.6,19.5
	s-3.7,9.5-3.7,9.5c-1.3,1.6-1.2,4.1-1.1,5.2c0,0.2,0,0.4,0.1,0.5s0,0.2,0,0.2v0.1l-2.1,3.6l-6.7-0.9l-3.5-2.3
	c0.3-0.5,0.5-0.9,0.8-1.4c1.8-4.1,3.2-11.5,3.2-11.5s1.9-8.4,1.7-10.4c0-2.7,0.2-5.3,0.5-8c0,0,5.3-16,6.9-18.6
	c0.7-1,1.1-2.2,1.3-3.5c0-0.2,0-0.5,0-0.8l2.3-2.2C548.5,393.2,567.1,395.7,564.2,398z"/>
<path class="st6" d="M544.1,448.5c0,0,0,0.2,0,0.5v0.3l-2.1,3.6l-6.7-0.9l-3.5-2.3c0.3-0.5,0.5-0.9,0.8-1.4c1.7-0.5,5.5,0.9,5.5,0.9
	S542.3,449.8,544.1,448.5C544.1,448.5,544.1,448.5,544.1,448.5z"/>
<path class="st13" d="M542.5,458l-6.8,1.6l-6.2-4.6l0.3-2.6c0.4-0.3,0.8-0.6,1.1-1c0.5-0.5,0.8-1.2,0.9-1.9c0.4-1.9,6.3,0.2,6.3,0.2
	s4.3,0.8,6-0.5c-0.1,1.3,0,2.5,0.3,3.7c0.2,0.6,0.5,1.1,1,1.5C547.2,455.6,542.5,458,542.5,458z"/>
<path class="st6" d="M542.5,458l-6.8,1.6l-6.2-4.6l0.3-2.6c0.4-0.3,0.8-0.6,1.1-1c0.5,0,0.9,0,1.4,0c1,0.1,3.5,4.5,3.5,4.5
	c6.1,0.4,8-1.6,8.6-3.1c0.2,0.6,0.5,1.1,1,1.5C547.2,455.6,542.5,458,542.5,458z"/>
<path class="st14" d="M535.8,456.7c0,0-2.5-4.5-3.5-4.5c-0.9,0-1.8,0-2.6,0c0,0-2.7,6.5-3.7,7s-2.5,3.6-2.5,3.6s7.2,7,14.2,5.6
	c2.2,0,4.4,0.6,6.4,1.6c3.2,1.7,16.7,0.4,18.3-2.5c1.2-2.2,1.7-3.8,0.6-5c-0.7-0.7-1.6-1-2.5-0.9c-1.7,0.2-5.5,0.2-8.8-3.9
	c0,0-6.1-5.6-6.6-5.6S545.4,457.4,535.8,456.7z"/>
<path class="st6" d="M588.8,385.7L588.8,385.7c-0.5,0.5-3.4,3.8-4.3,4c-1.5,0.6-2.9,1.2-4.4,1.9c0,0-1.8,2.4-3.3,2.5
	c-0.4,0.1-0.9,0.2-1.3,0.3c-0.2-3.3-0.4-6.1-0.4-6.1l11.5-6.8l1.3,2.1l0,0C588.3,384.6,588.6,385.4,588.8,385.7L588.8,385.7z"/>
<path class="st13" d="M546.9,338.9c0,0-4.5,5.8,0,13.6c2.4,4.4,5.5,8.3,9.2,11.6l15.3,31.6c0,0,4-2.2,5.5-2.3s3.3-2.5,3.3-2.5
	c1.4-0.7,2.9-1.4,4.4-1.9c1-0.2,4.3-4,4.3-4s-1.7-3.6-1.3-4.6s-1.1-3.4-1.1-3.4c-0.5-1.2-0.8-2.5-1-3.8c0-1-1.6-3.3-1.6-3.3
	s-1.6-2.4-1.6-3.8s-2.4-6.6-2.4-6.6l-0.6-23L546.9,338.9z"/>
<path class="st12" d="M588.8,385c0,0-3.4,3.8-4.3,4c-1.5,0.6-2.9,1.2-4.4,1.9c0,0-1.8,2.4-3.3,2.5c-1,0.2-2.1,0.6-3,1.1
	c-1.3,0.6-2.5,1.2-2.5,1.2l-15.3-31.6c-1.3-1.2-2.6-2.4-3.7-3.8c-2.1-2.4-3.9-5.1-5.5-7.8c-1.8-2.8-2.4-6.2-1.7-9.4
	c0.3-1.5,0.9-2.9,1.7-4.1l10.9-0.8l21.6-1.5l0.2,6.8l0.4,16.2c0,0,0.3,0.8,0.8,1.9c0.7,1.5,1.2,3.1,1.5,4.7c0,1.3,1.6,3.8,1.6,3.8
	s1.6,2.3,1.6,3.3c0.2,1.3,0.5,2.5,1,3.8c0,0,1.5,2.4,1.1,3.4S588.8,385,588.8,385z"/>
<path class="st6" d="M564.2,398c-0.7,0.6-1.3,1.2-1.8,2c-6.6,0.5-14.2-3-16.2-3.9c0-0.2,0-0.5,0-0.8l2.3-2.2
	C548.4,393.1,567.1,395.7,564.2,398z"/>
<path class="st13" d="M583.6,346.1c0,0-1,3.4-1.3,4.8s-1.1,8.6-1.1,8.6l-0.4,2l-6.9,33l-1.5,7.2c-2.7,1.5-9.3-2.4-9.3-2.4
	c-7.8,0.9-17.3-4.1-17.3-4.1s1.6-5.1,1.2-7.6s2.2-4.6,2.2-4.6c-0.6-2.3,1.6-12.4,1.6-12.4s0.5-3.8,2.3-4.7s-0.2-2.4-0.7-3.3
	c-0.2-0.7-0.1-1.5,0.2-2.2c0.2-0.6,0.3-1.1,0.6-1.6c-4.6-4.6-5.3-11.8-5.3-15.9c0-1,0-2,0.1-2.9l10-1.8l21.8-3.8l2.2,6.9l0,0
	l0.6,1.7L583.6,346.1z"/>
<path class="st6" d="M581.5,253.4c-0.5,1-0.8,2-1,3.1c-0.1,0.3-0.1,0.5-0.2,0.8c-2.1,1.4-3.4,1.4-6.1,1.4c-0.9,0-1.5-1.8-2.3-2
	c0,0-1.3-4.8-1.7-0.8c-2.5-0.5-4.7,1.5-6.5-0.3l0,0c0-0.2,0-0.5,0-0.7c0-1.5,0-3-0.2-4.5c0,0,7,0,12.4,0.6
	C579.4,251.5,582.2,252.2,581.5,253.4z"/>
<path class="st10" d="M586.5,245.3c0,7.5-6.1,13.5-13.5,13.5c-0.9,0-1.8-0.1-2.7-0.3l0,0c-7.3-1.5-12-8.6-10.5-15.9
	c1.5-7.3,8.6-12,15.9-10.5c3.8,0.8,7.1,3.2,9,6.6C586,240.7,586.6,242.9,586.5,245.3z"/>
<path class="st6" d="M579.2,266.5c-0.1,1.1-0.2,1.8-0.2,1.8s-21.7-1.5-17.9-5.1c1-1,1.7-2.2,2-3.6l9.4,1.5c0,0,2.7,2.1,4.7,4
	C577.8,265.7,578.4,266.1,579.2,266.5z"/>
<path class="st6" d="M582.4,343.6c-1,0.1-1.9,0.1-2.8-0.2c-0.4-0.1-0.8-0.3-1.2-0.5c-1.8-1.1-7.9,0.2-7.9,0.2s-16.5,1.1-17.2,0
	c-0.4-0.6-3.3-0.5-5.7-0.4c-1,0.1-1.8,0.2-2.5,0.2c0.3-1.5,0.9-2.9,1.7-4.1l10.9-0.8l21.8-3.8l2.2,6.9l0,0
	C582,342,582.2,342.8,582.4,343.6z"/>
<path class="st11" d="M572.5,261.9l-11.8-1.9c-0.4,0.9-1.2,1.7-2.2,1.9c-1.6,0.4-8.6,4-11.8,8.4l-3.2,4.4c0,0-2.5,3.1-1.7,5.7
	s1.8,11.1,1.8,11.1l1.2,9.6c0,0,2.3,6.9,1.6,9.9s0.4,15.8,0.4,15.8l-2.4,15.8c0,0,8.2-1.1,9,0s17.2,0,17.2,0s6-1.3,7.9-0.2
	c1.2,0.7,2.6,0.9,4,0.7c0,0-1.5-5-0.6-7.8s0.6-7.9,0.6-7.9s1.2-7.4,0.6-8.7s1.3-6.2,1.3-6.2l6.4-33.8c0,0-0.8-6.1-4.2-8.1
	s-7.3-2.7-9.4-4.6S572.5,261.9,572.5,261.9z"/>
<path class="st10" d="M577.9,295.2v4l3.7,10.1l1.3,9.3c0,0,2.4,6.7,2.4,9s5.9,13.5,5.9,13.5s1.6,3.8,0.8,4.5s-7.8,16.7,1,16.2
	s6.1-17.2,6.1-17.2l-1.2-7.3c0,0-1.7-18.2-1.7-19.5c0,0-2.2-7.8-2.4-9.5s-1.8-10.3-1.8-10.3l-1.3-5.6L577.9,295.2z"/>
<polygon class="st6" points="573.7,307.8 560.5,315.4 556.4,321.5 561.9,316 "/>
<path class="st6" d="M569.7,322.3c0,0-6,3.9-8.8,3.9s-9.4,6.7-9.4,6.7s9.3-6,10-5.8S569.7,322.3,569.7,322.3z"/>
<path class="st6" d="M554.3,324.4c0,0-5.6,5.1-4.2,5.6s9-5.6,9-5.6H554.3z"/>
<path class="st6" d="M579.2,306.2c0,0-4.4,5.9-3.2,5.8s4.5-3.5,4.5-3.5L579.2,306.2z"/>
<path class="st6" d="M579.9,312c0,0-4.7,5.4-4.5,6.7S579.9,312,579.9,312z"/>
<path class="st6" d="M581.1,314.7c0,0-3.2,5.7-1.8,6.9S581.1,314.7,581.1,314.7z"/>
<path class="st6" d="M576.9,300.1c0,0-2.4,4-0.6,4.3s1.9,0,1.9,0L576.9,300.1z"/>
<path class="st6" d="M577.6,285.5c-0.6,2.4-1.4,4.8-2.4,7.1c-0.4-1.2-0.7-2.4-0.9-3.6C575.2,287.7,576.4,286.5,577.6,285.5z"/>
<path class="st6" d="M584.8,238.6c-0.2,0.5-0.5,1-0.9,1.4c-0.6,0.6-1.2,1.2-1.6,1.9c-0.4,1-0.6,2.1-0.6,3.2c-0.2,1.1-0.9,2.3-2,2.3
	c-0.6,0-1.1-0.2-1.6-0.5c-0.5-0.3-1.1-0.2-1.6,0c-0.3,0.3-0.5,0.7-0.5,1.2c-0.1,0.9-0.2,1.9-0.2,2.8c0,0.4,0,0.8,0.1,1.1
	c0.3,1.2,0.2,2.4-0.2,3.6c-0.5,0.8-1.3,1.5-2.2,1.8c-1,0.4-2.1,0.7-3.1,0.9l0,0c-2.1,0.3-4.1,0.3-6.2,0.2c-0.2,0-0.4,0-0.6-0.1
	c-0.1,0-0.2-0.1-0.2-0.1c0.2-1.1,0.4-2.3,0.4-3.5c-5.3-5.2-5.5-13.7-0.3-19.1c5.2-5.3,13.7-5.5,19.1-0.3
	C583.4,236.5,584.2,237.5,584.8,238.6z"/>
<path class="st15" d="M579.2,227.2c-1.2-0.1-2.4,0.5-3.6,0.8c-2.5,0.5-5.1-0.6-7.7-0.6c-2.2,0.1-4.4,0.8-6.3,1.9
	c-1.6,0.7-3,1.7-4.2,2.9c-1.2,1.2-1.9,2.9-2,4.6c0.2,1,0.1,2-0.1,3c-0.3,0.5-0.6,1-0.9,1.4c-0.6,1-0.8,2.3-0.4,3.5
	c0.5,1.1,1.2,2.2,2.1,3.1c1.7,2.1,2.7,4.7,4.2,6.9c0.6,1,1.4,1.9,2.2,2.8c0.1,0.2,0.3,0.3,0.5,0.4c0.2,0.1,0.4,0.1,0.5,0.1
	c3.2,0.1,6.4,0.2,9.3-1.1c0.9-0.3,1.7-1,2.2-1.8c0.4-1.2,0.5-2.4,0.2-3.6c-0.1-1.3-0.1-2.7,0.1-4c0-0.4,0.2-0.9,0.5-1.2
	c0.5-0.3,1.1-0.3,1.6,0c0.5,0.3,1,0.4,1.6,0.5c1.1,0,1.8-1.2,2-2.3c-0.2-2,0.6-3.9,2.2-5.1c1.5-1.9,2-4.5,1.4-6.8
	C583.9,230.3,581.7,227.5,579.2,227.2z"/>
<path class="st6" d="M592.1,284.6c-0.3,1.7-0.3,3.3,0,5c-0.1,1.3,0,8.7,0,8.7c-4-1.2-14.2,1.2-14.2,1.2l-1.2-3.6
	c-0.7-0.9-1.2-1.9-1.5-3c-0.4-1.2-0.7-2.4-0.9-3.6c-0.5-2.5-0.9-5.1-1.2-7.6c-0.5-3.9,5.2-8,9.6-10.3s8.1,7.5,8.1,7.5
	S592.6,282.7,592.1,284.6z"/>
<path class="st11" d="M592.1,283.9c-0.3,1.7-0.3,3.3,0,5c-0.1,1.3,0,8.7,0,8.7c-4-1.2-14.2,1.2-14.2,1.2l-1.2-3.6
	c-0.7-0.9-1.2-1.9-1.5-3c-0.4-1.2-0.7-2.4-0.9-3.6c-0.5-2.5-0.9-5.1-1.2-7.6c-0.5-3.9,5.2-8,9.6-10.3s8.1,7.5,8.1,7.5
	S592.6,282,592.1,283.9z"/>
<path class="st9" d="M584.5,232.5c-0.2-0.7-0.5-1.3-0.9-2c0.1,0.2,0.1,0.3,0.2,0.5c0.7,2.4,0.1,4.9-1.4,6.8
	c-1.6,1.2-2.5,3.1-2.2,5.1c-0.2,1.1-0.9,2.3-2,2.3c-0.6,0-1.1-0.2-1.6-0.5c-0.5-0.3-1.1-0.2-1.6,0c-0.3,0.3-0.5,0.7-0.5,1.2
	c-0.2,1.3-0.2,2.7-0.1,4c0.1,1.2,0.3,2.5-0.2,3.6c-0.5,0.8-1.3,1.5-2.2,1.8c-2.9,1.2-6.2,1.2-9.3,1.1c-0.2,0-0.4,0-0.5-0.1
	c-0.2-0.1-0.3-0.2-0.5-0.4c-0.8-0.9-1.5-1.8-2.2-2.8c-1.5-2.3-2.5-4.8-4.2-6.9c-0.5-0.6-1-1.1-1.4-1.8v0.1c0.5,1.1,1.2,2.2,2.1,3.1
	c1.7,2.1,2.7,4.7,4.2,6.9c0.7,1,1.4,1.9,2.2,2.8c0.1,0.2,0.3,0.3,0.5,0.4c0.2,0.1,0.4,0.1,0.5,0.1c3.2,0.1,6.4,0.2,9.3-1.1
	c0.9-0.3,1.7-1,2.2-1.8c0.4-1.2,0.5-2.4,0.2-3.6c-0.1-1.3-0.1-2.7,0.1-4c0-0.4,0.2-0.9,0.5-1.2c0.5-0.3,1.1-0.3,1.6,0
	c0.5,0.3,1,0.4,1.6,0.5c1.1,0,1.8-1.2,2-2.3c0-1.1,0.2-2.2,0.6-3.2c0.5-0.7,1-1.3,1.6-1.9C584.6,237.4,585.1,234.9,584.5,232.5z"/>
<path class="st16" d="M646.1,365.6c0,0.3-0.1,0.6-0.3,0.9c-1,1.5-6.6,31.2-6.6,31.2c0.5,2-0.8,6-1.6,7.8s-2.6,11.3-2.6,11.3
	s-0.5,20.4-1.6,23.5s0.4,10,0.4,10c-0.1,3.1,1.8,6.5,2.9,8.1l0.2,0.3c0.4,0.5,0.6,0.8,0.6,0.8c0.3,0.6,0.7,1.1,1.3,1.6l0.3,0.2
	c1.5,1,3.3,1.8,5.1,2.2h0.2c0.7,0.2,1.2,0.2,1.2,0.2l0.5,2.5l-4.8,1l-9.2,0.6c0,0-10.8,0.8-8.4-4c0.2-0.3,0.3-0.7,0.4-1l0,0
	c0.1-0.2,0.2-0.5,0.2-0.7c1.5-4.6,0.5-10.3,0.5-10.3l-2.1-16.4c-3.5-15.3,2.7-32.3,2.7-32.3s-0.5-1.4,0.7-4.8s0-11,0-11
	s-0.6-9.7-1.5-14.5c-0.3-2-0.4-4.1-0.3-6.1c0-1.2,0.1-2.4,0.3-3.6l20.7-2.8C645.1,360.3,646.3,363.6,646.1,365.6z"/>
<path class="st6" d="M645.8,466.1l-4.8,1l-9.2,0.6c0,0-10.8,0.8-8.4-4c0.2-0.3,0.3-0.7,0.4-1l0,0c0.1-0.2,0.2-0.5,0.2-0.7
	c1.9,0.1,3.7,0.4,5.5,1.1c3.1,1.2,5.4-1.9,5.4-1.9l1.5-2.9l0.2-0.4c0.4,0.5,0.6,0.8,0.6,0.8c0.4,0.7,0.9,1.3,1.5,1.8l-0.3,0.5
	l-1.5,3.1c0,0,1.9,0.2,4.4,0.6c1,0.3,2.1-0.3,2.4-1.3h0.2c0.7,0.2,1.2,0.2,1.2,0.2L645.8,466.1z"/>
<path class="st17" d="M650.2,468.4c-0.4,1.6-10.5,2.1-10.5,2.1s-5.6-0.5-7.2,0.8s-6.2,1-6.4,1s-2.6-0.1-3.6-4.5s1.2-5,1.3-5.1l0,0
	c2,0,3.9,0.4,5.7,1.1c3.1,1.2,5.4-1.9,5.4-1.9l1.7-3.3c0.4,0.5,0.6,0.8,0.6,0.8c0.4,0.7,0.9,1.3,1.5,1.8l-1.7,3.6
	c0,0,1.9,0.2,4.4,0.6c1.1,0.3,2.3-0.5,2.5-1.6c0-0.1,0-0.3,0.1-0.4c0-0.1,0-0.2,0-0.3c0,0,1.6,0.5,3.5,1
	C649.5,464.7,650.6,466.5,650.2,468.4z"/>
<path class="st16" d="M669.3,387.2c-0.2,1.5-0.5,5.2-0.5,5.2c0.8,3.1-1.3,10.6-1.3,10.6l-1.1,4.3c0.5,5.5-3,18.8-3,18.8
	s-2.3,12.4-3.5,17.7c-0.7,3-0.5,6.1,0.6,8.9l0.1,0.2c0,0.1,0,0.2,0.1,0.3c0,0.1,0.1,0.3,0.1,0.4c0.3,0.7,0.7,1.4,1.2,2
	c0.2,0.2,0.4,0.5,0.7,0.7l0,0c1.1,1,2.4,1.8,3.9,2.4l0,0l0.6,0.2c0.6,0.2,1.3,0.4,1.9,0.6l0,0h0.2l-0.5,2.9l-6.4-1.7l-8.6-2.8
	l-4.2-2.3c0,0,0-0.2,0.1-0.7c0,0,0-0.1,0-0.1c0-0.2,0.1-0.4,0.1-0.7c0.7-3.8,2.3-14.2,1.5-22c-1-9.6,3-22.8,3.9-25.9
	c0.6-1.8,0.8-3.7,0.7-5.6c-1.6-2.3-1.9-11.5-1.9-11.5s-2.9-5.9-5.3-12.2c-0.8-2.1-1.4-4.2-1.7-6.4c-0.3-1.5-0.4-3.1-0.3-4.6
	c0,0,19.5-17.8,21.7-0.6c0.1,0.6,0.1,1.1,0.2,1.7C670.4,382.9,669.5,385.8,669.3,387.2z"/>
<path class="st6" d="M669.3,459.6l-0.5,2.9l-6.4-1.7l-8.6-2.8l-4.2-2.4c0,0,0-0.2,0.1-0.7c0,0,0-0.1,0-0.1c0-0.2,0.1-0.4,0.1-0.7
	h0.6l0,0c1.2-0.1,2.5,0,3.6,0.5c1.4,0.5,3.2,1.1,3.6,0.9c0.6-0.3,1.4-0.4,2.1-0.4l0.9-2l0.1-0.3c0.3,0.7,0.7,1.4,1.2,2
	c0.2,0.3,0.4,0.5,0.7,0.7v0.7l0,1c1,0.6,2,1.1,3.1,1.4c0.3,0.1,0.6,0.1,0.9,0l0,0l0.6,0.2c0.6,0.2,1.3,0.4,1.9,0.6l0,0L669.3,459.6z
	"/>
<path class="st17" d="M666.1,465.8c-1.8-0.5-6.1-1.3-6.8-0.7s-6.7,0-6.7,0c-1.3,0-2.4-0.7-3.1-1.8c-1.2-1.9-0.2-8.2-0.2-8.2h0.4
	l0.7-0.1l0,0c1.2-0.1,2.5,0,3.6,0.5c1.4,0.5,3.2,1.1,3.6,0.9c0.6-0.3,1.4-0.4,2.1-0.4l1-2.2c0.3,0.7,0.7,1.4,1.2,2
	c0.2,0.3,0.4,0.5,0.7,0.7l-0.1,1.7c1,0.6,2,1.1,3.1,1.4c0.5,0.2,1.2,0,1.5-0.5c0-0.1,0.1-0.2,0.1-0.2l0,0c0.8,0.4,1.7,0.7,2.5,0.8
	l0,0c2.3-0.2,4.5,1.3,5,3.6C675.7,466,667.9,466.3,666.1,465.8z"/>
<path class="st6" d="M646.1,365.6l-1.1,0.3c-0.9,0.3-1.8,0.5-2.7,0.6c-5.7,0.8-15.2,0.3-18.2,0.1c0-1.2,0.1-2.4,0.3-3.6l20.7-2.8
	C645.1,360.3,646.3,363.6,646.1,365.6z"/>
<path class="st17" d="M664.1,360.5c0,0-7.6,1.2-13.8,2.5c-2.1,0.5-4,0.9-5.4,1.4c-0.9,0.3-1.8,0.5-2.7,0.6c-6.9,1-19.1,0.1-19.1,0.1
	c-3.4-10.9,4.1-24.6,4.1-24.6c-0.2-1.1,1.5-4.4,1.5-4.4v-0.1l1.1-3.9h28.2l0.3,1.7l0.7,3.4l4.4,21.1L664.1,360.5z"/>
<path class="st6" d="M668.5,367.1l-0.2,0.1l-3.3,1.5c-3.6,1.6-14.3,2-18,2c-0.3-1.5-0.4-3.1-0.3-4.6c0,0,19.5-17.8,21.7-0.6
	C668.4,366,668.4,366.6,668.5,367.1z"/>
<path class="st17" d="M669,365.5l-0.7,0.3l-3.3,1.5c-3.6,1.7-14.7,2-18.2,2h-0.9c-1.6,0-3.3-1.6-3.3-2c0-0.2-0.2-1.3-0.3-2.2
	c-0.1-0.7-0.2-1.4-0.2-1.4c-3.8-1.6-7.5-3.5-11-5.7c-2.8-1.9-2.1-15.3-1.5-22.1c0.2-2.3,0.4-3.9,0.4-3.9l28.6,1.7l4,0.2l2.3,0.5
	l0.6,0.1c0,0,1.7,12,2.5,13s0.3,4.4,0.2,6.3c0,0.8-0.1,1.6-0.3,2.5c0,0,1.2,3.4,0.9,5.2C668.5,362.8,668.7,364.2,669,365.5z"/>
<circle class="st16" cx="638.4" cy="254.1" r="11.7"/>
<path class="st16" d="M632.7,259c0,0,0.8,11.1-1.5,13.6c-2.6,2.6-5.3,5.1-8.2,7.4l1.8,7.5l10.3,1.2l12-12.8l-2.7-3.3
	c0,0-2.1-7.1-0.4-10.6S632.7,259,632.7,259z"/>
<path class="st6" d="M657.5,283.4L657.5,283.4l-0.6,1l-3.6-1l-2.5-9.5l0.2-2.8l0.8-1.1c0,0,4,0.1,3.8,3.7
	C655.2,277,657.1,282.2,657.5,283.4z"/>
<path class="st6" d="M665.4,336c0,0-2.9,0.6-6.2,1.1s-7.1,0.7-8.7-0.3c-2.6-1.6-16.9-1.1-21-1h-0.7l1.1-3.9h28.2l0.3,1.7l4,0.2
	l2.3,0.5C665.2,335.4,665.4,336,665.4,336z"/>
<path class="st16" d="M616.5,289.7l-1.9,1.5c-1.5,3.1-2.3,6.5-2.4,9.9c-0.5,5.2-1.3,10.3-2.5,15.3l-3.8,6.8c0,0-6.3,13.2-7.1,16.7
	s-4.5,9.4-4.5,9.4s-12.6,11.4-3.8,13.4s9.1-9,9.1-9s2-2.3,2.4-3.8s11.5-21.3,11.5-21.3s3.9-5.3,3.1-8.1c0,0,5.1-12,5.1-15
	c-0.1-2.5-0.4-5-0.8-7.5l0.8-6.3L616.5,289.7z"/>
<path class="st6" d="M642.7,314.7c0,0-8.9,4.7-10.6,4.9s7.5-1,7.5-1L642.7,314.7z"/>
<path class="st6" d="M649.9,318.4c0,0-11.8,4-17,3.3C632.9,321.6,645.9,324.1,649.9,318.4z"/>
<path class="st6" d="M650.7,319.7c0,0-10.6,6.7-16.9,5.6c0,0,14.6,2.9,16.9,1.4l-6.5-1.8C644.1,324.8,651.4,321,650.7,319.7z"/>
<path class="st6" d="M638.4,233.5c-3.1-0.8-6.4-0.1-9,1.7c-1.8,1.4-3,3.6-5.1,4.7c-1.1,0.5-2.2,0.9-3.3,1.2
	c-4.1,1.7-6.5,5.9-5.8,10.3c0.3,1.8,1.2,3.5,1.6,5.2c0.7,3.2,0.1,6.5-0.7,9.6c-2.2,8.8-5.6,17.2-10.1,25c-0.4,0.5-0.5,1.1-0.5,1.7
	c0.1,0.4,0.3,0.8,0.6,1.1c4.2,4.9,11,6.5,17.5,6.7c2.4,0.2,4.8-0.2,6.9-1.1c1.3-0.8,2.5-1.8,3.4-3.1c2.2-3.1,3.3-6.8,3.1-10.6
	c-0.2-3-1.2-6.1-0.4-9.1c0.1-0.4,0.3-0.8,0.5-1.1c0.7-0.7,1.8-0.5,2.8-0.6c2.7-0.3,4.4-3.1,4.7-5.8s-0.3-5.4-0.4-8
	c0-3.5,1.1-7,3.2-9.9c0.9-1.2,2-2.4,2.3-4c0.4-1.9-0.7-3.3-1.7-4.8c-1.5-2.4-2.2-5.1-4.5-6.9C642,234.6,640.3,233.9,638.4,233.5z"/>
<path class="st18" d="M637.7,232.8c-3.1-0.8-6.3-0.1-8.9,1.7c-1.8,1.4-3,3.6-5.1,4.7c-1.1,0.5-2.2,0.8-3.3,1.2
	c-4.1,1.7-6.5,5.9-5.8,10.3c0.3,1.8,1.2,3.5,1.6,5.2c0.7,3.2,0.1,6.5-0.7,9.6c-2.2,8.7-5.6,17.2-10.1,25c-0.4,0.5-0.5,1.1-0.5,1.7
	c0.1,0.4,0.3,0.8,0.6,1.1c4.2,4.9,11,6.5,17.5,6.7c2.4,0.2,4.8-0.2,6.9-1.1c1.3-0.8,2.5-1.8,3.4-3.1c2.2-3.1,3.3-6.8,3.1-10.6
	c-0.2-3-1.2-6.1-0.4-9.1c0.1-0.4,0.3-0.8,0.5-1.1c0.7-0.7,1.8-0.5,2.8-0.6c2.7-0.3,4.4-3.1,4.7-5.8s-0.3-5.4-0.4-8
	c0-3.5,1.1-7,3.2-9.9c0.9-1.2,2-2.4,2.3-4c0.4-1.9-0.7-3.3-1.7-4.8c-1.5-2.4-2.2-5.1-4.5-6.9C641.3,233.9,639.6,233.1,637.7,232.8z"
	/>
<path class="st6" d="M633.8,346.4c0,0,2.3,10.9,6.2,13.9L633.8,346.4z"/>
<g class="st1">
	<path d="M615.2,253.1c-0.1-0.4-0.3-0.9-0.4-1.3C614.9,252.2,615,252.6,615.2,253.1z"/>
	<path d="M648.3,243.6c0,0.3,0,0.7,0,1c-0.3,1.5-1.4,2.7-2.3,4c-2.1,2.9-3.2,6.3-3.2,9.9c0,2.7,0.7,5.4,0.4,8s-2,5.5-4.7,5.8
		c-1,0.1-2.1-0.1-2.8,0.6c-0.3,0.3-0.5,0.7-0.5,1.1c-0.8,3,0.3,6,0.4,9.1c0.2,3.8-0.9,7.5-3.2,10.5c-0.9,1.3-2,2.3-3.4,3.1
		c-2.2,1-4.5,1.4-6.9,1.1c-6.3-0.2-13-1.8-17.2-6.5c-0.1,0.3-0.1,0.6-0.1,0.9c0.1,0.4,0.3,0.8,0.6,1.1c4.2,4.9,11,6.5,17.5,6.7
		c2.4,0.2,4.8-0.2,6.9-1.1c1.3-0.8,2.5-1.8,3.4-3.1c2.2-3.1,3.3-6.8,3.1-10.6c-0.2-3-1.2-6.1-0.4-9.1c0.1-0.4,0.3-0.8,0.5-1.1
		c0.7-0.7,1.8-0.5,2.8-0.6c2.7-0.3,4.4-3.1,4.7-5.8s-0.3-5.4-0.4-8c0-3.5,1.1-7,3.2-9.9c0.9-1.2,2-2.4,2.3-4
		C649.2,245.7,648.9,244.6,648.3,243.6z"/>
</g>
<ellipse class="st0" cx="129.2" cy="500.1" rx="21.2" ry="2.1"/>
<path class="st4" d="M136.6,464.7c0,0-27.6,14.3-13.3,31c0.8,2.1,2.9,3.5,5.2,3.4c0,0-0.8-1.4,2.2-2.5c1.1-0.4,2.1-0.9,3-1.6
	c1.3-0.9,2.2-2.1,2.7-3.6l0,0c0,0,5.6-7.5,1.3-21.5c0,0,0.6-4,0.1-4.6l-3.4,4.6c0,0,3.5,2.3,3.9,5.8c0,0-3.6-5.7-4.4-5.1
	c-0.2,0.1-1.7,2.5-1.7,2.5s6,4.1,6.4,9.4c0,0-3.4-7.4-7-8.5l-2.1,3.7c0,0,6.6,4,7.3,10c0,0-3.8-7.6-7.7-9.2l-1.5,3.9
	c0,0,6.3,4,6.9,9c0,0-5.3-8.4-7.2-8.1c0,0-1.2,3.7-1,4.8c0,0,4.5,3,4.6,5.9c0,0-4.1-5.2-4.8-4.9c0,0-0.3,5.2,1,8
	c-1.3-2.5-1.9-5.2-1.8-8c-1.3,1.1-2.2,2.6-2.6,4.3c0,0-1.2-2.9,2.7-5.5c0,0,0.4-4.1,0.8-4.6c0,0-4.2,2.1-6,4.6c0,0,0.7-3.8,6.4-5.7
	l1.5-4c0,0-5.7,2.4-7.5,4.6c0,0,1.3-3.8,8-5.5l2-3.7c0,0-5.1,1.7-7.6,3.7c0,0,1.9-3.2,8.2-4.7l1.6-2.3c0,0-3.7,1.3-4.7,1.8
	s-1.2,0.2-1.2,0.2c1.9-1.6,4.2-2.6,6.6-3C133.4,469.4,136.8,465,136.6,464.7z"/>
<linearGradient id="SVGID_1_" gradientUnits="userSpaceOnUse" x1="2307.064" y1="61.8033" x2="2307.064" y2="344.4097" gradientTransform="matrix(-1 0 0 -1 2504.9399 686.63)">
	<stop  offset="0" style="stop-color:#808080;stop-opacity:0.25"/>
	<stop  offset="0.54" style="stop-color:#808080;stop-opacity:0.12"/>
	<stop  offset="1" style="stop-color:#808080;stop-opacity:0.1"/>
</linearGradient>
<path class="st19" d="M163.8,490.1c2.9,1.7,7.4,2.8,13.1-0.8l-0.1,8.1c0.4,5.6,7.3,25.8,7.3,25.8l4.8,16.7c3.5,11.8,5.3,24,5.3,36.3
	c-0.1,3.9,0.4,7.7,1.5,11.4c2.6,7-1,16-2.6,19.3c-2.9,1-5.9,1.8-8,2.2c-0.2,0.1-0.5,0.1-0.7,0.2v0c0,0-7.3,2.9-10.5,2.5
	c-2.4-0.3-3.9,2.7-2,4.9c-1.6,0.5-3.2,0.7-4.9,0.6c-3.2-0.4-4.9,5.2,1.2,6.8s40.5,0,40.5,0c2-1,3.1-3.2,2.6-5.4
	c2.6-0.1,4.3-0.2,4.3-0.2s6.1-2.8,0-10.3l-0.3,0.2l-1.3-3.8v-5.2c0,0,7.7-37,5.3-41.3s-3.6-26.6-3.6-26.6l0.8-24.2
	c2.2-4.5,3.3-11.6,3.9-17.2c0.8-2.6,1.3-5.4,1.5-8.2c0.1-1.3,0.2-2.7,0.2-4.1c0-3.1-0.5-6.2-1.5-9.2c2.7-4.1,5.8-7.9,9.2-11.5
	c2.8-2.6,4.2-6.5,3.6-10.3l-2-13.5l-4.9-23c0.6-6.4-0.7-10.1-2.2-12.2c0.4-2.1,0.7-4.1,0.9-6.2c1.1-9,0.6-18.1-1.4-27
	c-0.7-3.1-1.7-6.3-3.8-8.6c-2.5-2.6-6.4-4.3-7.4-7.7c-0.1-0.9-0.3-1.8-0.6-2.6c-0.9-2.3-3.7-3.1-6.2-3.4c-4.4-0.5-10.7-0.9-14.9,0.8
	c-2.9,1.2-7,4.5-8.6,8.1c-1,1.5-1.3,3.3-1,5c0.2,0.6,0.4,1.2,0.7,1.7c-0.6,1.7-1,3.5-1,5.3c0,6.4,4,12.1,9.9,14.4
	c0.1,0.3,0.2,0.6,0.3,0.9c0.2,0.7,0.3,1.4,0.4,2.2c-0.1,1.4-0.2,2.8-0.2,4.2c0,0.2-0.1,0.4-0.1,0.6c-3.5,1.5-6.9,3.3-10.2,5.2
	c2.4,3.6-0.4,18.7-0.4,18.7c-6.1,3.6-12.1,12.7-5.7,22.2s2.8,19.8,2.8,19.8l-1,15.5l0,0l0,0l-0.2,3.1h0.1l-0.1,1.2h0.2v1.3
	c-2.9,1-7,3.1-9.5,7c-1.2,1.9-2.6,3.7-4.2,5.2c-1.3,1.1-1.6,3-0.5,4.4C163.1,489.6,163.4,489.9,163.8,490.1z M212.6,448.8
	c-0.2-2.7,0.3-5.4,1.4-7.8c1,0,1.9,0,2.9,0c0.1,0.7,0.2,1.3,0.4,1.9C218.1,446.4,214.8,448.1,212.6,448.8L212.6,448.8z"/>
<path class="st20" d="M213.4,602.8l1.6,4.7l-5,5.1l-16.7,3.9l-12.1-1.2l0.8-4.3l0,0c0.5-1.9,1.9-3.3,3.8-3.8
	c5-1.2,14.4-3.8,16.4-7.5L213.4,602.8z"/>
<path class="st6" d="M213.4,602.8l1.6,4.7l-5,5.1l-16.7,3.9l-12.1-1.2l0.8-4.3l0,0c0.5-1.9,1.9-3.3,3.8-3.8c5-1.2,14.4-3.8,16.4-7.5
	L213.4,602.8z"/>
<path class="st21" d="M185,614.1l2.3-3.1l-2.3-3.6c0,0-7,2.8-10.1,2.4s-4.7,5.1,1.2,6.6s38.9,0,38.9,0s5.8-2.7,0-10.1l-5,3.9
	c0,0-8.6,4.7-12.9,3.9L185,614.1z"/>
<path class="st20" d="M174.5,620.7l12.1,1.2l16.7-3.9l5.1-5.1l-0.4-1.2l-0.6-1.7l-0.6-1.7l-11.3-3.1c-0.6,0.9-1.4,1.7-2.3,2.3
	c-3.7,2.5-10.3,4.3-14.1,5.2l-0.5,0.1c-0.8,0.2-1.4,0.7-2,1.2c-0.7,0.7-1.2,1.5-1.4,2.4L174.5,620.7z"/>
<path class="st6" d="M174.5,620.7l12.1,1.2l16.7-3.9l5.1-5.1l-0.4-1.2l-4.6,3.6c0,0-8.6,4.7-12.9,3.9h-12.1l2.3-3.1l-2.1-3.2
	c-0.8,0.2-1.4,0.7-2,1.2c-0.7,0.7-1.2,1.5-1.4,2.4L174.5,620.7z"/>
<path class="st21" d="M178.4,619.6l2.3-3.1l-2.3-3.6c0,0-7,2.8-10.1,2.4s-4.7,5.1,1.2,6.6s38.9,0,38.9,0s5.8-2.7,0-10.1l-5.1,3.8
	c0,0-8.6,4.7-12.9,3.9L178.4,619.6z"/>
<path class="st20" d="M188.1,393.8c0,0,18.7,1.9,16-5.8c-0.8-2.2-1-4.6-0.6-6.9c0.5-2.9,1.6-5.6,3.3-7.9l-17.5,2.7
	c1,1.8,1.8,3.6,2.4,5.6C193.8,389.7,188.1,393.8,188.1,393.8z"/>
<path class="st22" d="M220,482.5c0,0-0.4,16.7-4.3,24.9l-0.8,23.7c0,0,1.2,21.8,3.5,26.1s-5.1,40.5-5.1,40.5v6.2
	c0,0-12.5,4.7-16-0.8l3.6-46.3l-1.5-64.3L220,482.5z"/>
<path class="st6" d="M220,482.5c0,0-0.4,16.7-4.3,24.9l-0.8,23.7c0,0,1.2,21.8,3.5,26.1s-5.1,40.5-5.1,40.5v6.2c0,0-12.5,4.7-16-0.8
	l3.6-46.3l-1.5-64.3L220,482.5z"/>
<path class="st23" d="M227.8,428.8l2.3,6.2l2,13.2c0.5,3.7-0.8,7.5-3.5,10.1c-4.7,4.7-10.9,14.4-10.9,14.4l-7.4-22.2
	c0,0,7.4-1.2,6.2-6.2s-0.8-14.4-0.8-14.4L227.8,428.8z"/>
<path class="st12" d="M227.8,428.8l2.3,6.2l2,13.2c0.5,3.7-0.8,7.5-3.5,10.1c-4.7,4.7-10.9,14.4-10.9,14.4l-7.4-22.2
	c0,0,7.4-1.2,6.2-6.2s-0.8-14.4-0.8-14.4L227.8,428.8z"/>
<path class="st6" d="M193.2,607.5c5,7.9,12.8,3.4,14.1,2.5l-0.6-1.7l-11.3-3.1C194.9,606.1,194.2,606.9,193.2,607.5z"/>
<path class="st22" d="M177.6,497.7c0.4,5.5,7,25.3,7,25.3l4.7,16.3c3.4,11.6,5.1,23.5,5.1,35.5c-0.1,3.8,0.4,7.6,1.5,11.2
	c3.1,8.6-3.1,20.2-3.1,20.2c5.4,9.7,14.8,3.1,14.8,3.1v-6.2c0,0,7.4-33.9,5.5-40.5s-2.7-24.5-2.7-24.5v-32.3
	c6.2-6.2,10-14.5,10.6-23.3c0.1-1.3,0.2-2.6,0.2-4c0.3-8.8-5.7-19.1-8-22.8c-0.6-0.9-0.9-1.4-0.9-1.4l-34.4,13.6h-0.1v1.3v3
	L177.6,497.7z"/>
<path class="st6" d="M189.3,375.9c1,1.8,1.8,3.6,2.4,5.6c3.8,1.5,8.1,1.3,11.8-0.4c0.5-2.9,1.6-5.6,3.3-7.9L189.3,375.9z"/>
<circle class="st20" cx="197.1" cy="366.5" r="15.2"/>
<path class="st6" d="M177.6,472.4h0.2c16.3,3.3,36.8-13.7,36.8-13.7c-0.5-0.9-1-1.9-1.4-2.9c-0.6-0.9-0.9-1.4-0.9-1.4l-34.4,13.7
	l-0.1,1.4L177.6,472.4z"/>
<path class="st23" d="M181.9,393.4c0,0,21.8-13.2,28.8-7.8l9.7,12.5c0,0,6.2,1.9,5.1,14.4l4.7,22.6l-14,3.5c0,0-8.3,7.8-1.6,19.1
	c0,0-20.6,17.1-37,13.6l1.2-18.3c0,0,3.5-10.1-2.7-19.5s-0.4-18.3,5.4-21.8C181.5,411.6,184.2,396.9,181.9,393.4z"/>
<path class="st20" d="M180.7,472.8c0,0-8.2,1.5-12.1,7.8c-1.1,1.9-2.5,3.6-4.1,5.1c-1.3,1.1-1.4,3.1-0.2,4.4
	c0.2,0.2,0.4,0.4,0.7,0.6c3.1,1.8,8.1,3,14.5-2.2C190.4,479.4,180.7,472.8,180.7,472.8z"/>
<path class="st6" d="M192.8,400.8c0,0,7.8-0.8,9.7,19.5s5.1,24.9,5.1,24.9s2,10.5-2.7,16.7s-13.6,19.5-13.6,19.5s-9.7,2.7-11.7-7
	l12.1-22.6c0,0,1.9-7.8-2.7-13.2S180.7,396.9,192.8,400.8z"/>
<path class="st23" d="M192,399.6c0,0,7.8-0.8,9.7,19.5s5.1,24.9,5.1,24.9s1.9,10.5-2.7,16.7s-13.6,19.5-13.6,19.5s-9.7,2.7-11.7-7
	l12.1-22.6c0,0,1.9-7.8-2.7-13.2S179.9,395.7,192,399.6z"/>
<path class="st6" d="M185.6,414.2c0,0-0.8,12.1,2.7,18.7s3.5,15.2,0,19.9"/>
<path class="st6" d="M183.6,399.4c0,0,3.1-3.1,12.1-3.5c8.9-0.4,12.9-3.1,12.9-3.1"/>
<path class="st6" d="M205.3,346.9c2.4,0.3,5.1,1.1,5.9,3.3c0.2,0.8,0.4,1.7,0.5,2.6c0.9,3.4,4.7,5,7.1,7.6c2.1,2.3,3,5.4,3.7,8.4
	c1.9,8.7,2.4,17.6,1.4,26.5c-0.8,6.5-2.3,12.8-2.8,19.3s0.4,13.3,3.9,18.8c1.5,2.3,3.5,4.4,4.6,7c-2.2,1.8-5.3,2.1-8.2,2.2
	c-3.3,0.1-6.7,0.1-10,0c-1.8,0.1-3.5-0.3-5.1-1.1c-1.1-0.7-2-1.7-2.7-2.9c-1.9-3.2-2.4-7.1-2.3-10.9s0.7-7.5,0.8-11.3
	c0-2.1-0.1-4.2-1.3-5.9c-1-1.1-2.1-2.1-3.3-3c-4.2-3.7-5.6-9.6-5.7-15.2s0.8-11.1,0.3-16.7c-0.2-2.2-1-4.8-3.1-5.2
	c-0.7,0-1.3-0.1-2-0.3c-1.7-0.7-1.6-3.1-2-4.9c-0.6-2-2.2-3.5-2.7-5.5c-1.1-4.7,4.9-10.3,8.8-12S201.1,346.4,205.3,346.9z"/>
<path class="st24" d="M205.7,346.1c2.4,0.3,5.1,1.1,5.9,3.3c0.2,0.8,0.4,1.7,0.5,2.6c0.9,3.4,4.7,5,7.1,7.6c2.1,2.3,3,5.4,3.7,8.4
	c1.9,8.7,2.4,17.6,1.4,26.5c-0.8,6.5-2.3,12.8-2.8,19.3s0.4,13.3,3.9,18.8c1.5,2.3,3.5,4.4,4.6,7c-2.2,1.8-5.3,2.1-8.2,2.2
	c-3.3,0.1-6.7,0.1-10,0c-1.8,0.1-3.5-0.3-5.1-1.1c-1.1-0.7-2-1.7-2.7-2.9c-1.9-3.3-2.4-7.2-2.3-10.9s0.7-7.5,0.8-11.3
	c0-2-0.1-4.2-1.3-5.9c-1-1.1-2.1-2.1-3.3-3c-4.2-3.7-5.6-9.6-5.7-15.2s0.8-11.1,0.3-16.7c-0.2-2.2-1-4.8-3.1-5.2
	c-0.7,0-1.3-0.1-2-0.3c-1.7-0.7-1.6-3.1-2-4.9c-0.6-2-2.2-3.5-2.7-5.5c-1.1-4.7,4.9-10.3,8.8-12
	C195.3,345.2,201.5,345.6,205.7,346.1z"/>
<ellipse class="st0" cx="961.1" cy="692.7" rx="24" ry="3.3"/>
<ellipse class="st0" cx="869.2" cy="702" rx="24" ry="3.3"/>
<ellipse class="st0" cx="760.9" cy="689.4" rx="24" ry="3.3"/>
<ellipse class="st0" cx="906" cy="728.5" rx="17.1" ry="2.3"/>
<ellipse class="st0" cx="810.6" cy="726.2" rx="17.1" ry="2.3"/>
<path class="st4" d="M868.7,701.2c0,0,33.7-110.3-5.3-154.5c-29.1-33.1-62.2-29.1-77-25c-7.8,2.1-14.2,7.4-17.7,14.7
	c-5.2,11.2-4.2,29.3,32.3,50.4c61.2,35.4,65,84,65,84L868.7,701.2z"/>
<path class="st25" d="M791.7,537.3c0,0,99.2,31,77,163.9"/>
<path class="st25" d="M849.7,548.5c0,0-13.7,9.2-9.3,23"/>
<path class="st25" d="M801.7,556.6c0,0,8.4-8.5,18.5-3.8"/>
<path class="st25" d="M840.9,599.4c0,0,14.7-7.4,18.5,1.9"/>
<path class="st25" d="M877.2,614.9c0,0-11-0.9-11.2,4.4"/>
<path class="st4" d="M870,702.1c0,0-39.4-80.2-50.2-78.4c-5.1,0.8-7.5,5.9-8.6,11c-1.3,6.6-0.6,13.4,2.2,19.5
	C818.9,667,833.9,691.4,870,702.1z"/>
<path class="st25" d="M820.1,638.9c0,0,41.4,60,49.4,62.6"/>
<line class="st25" x1="816.3" y1="648.3" x2="825.9" y2="648.3"/>
<line class="st25" x1="827.8" y1="670.2" x2="843" y2="670.9"/>
<line class="st25" x1="837.1" y1="652.7" x2="835.4" y2="660.6"/>
<line class="st25" x1="853.2" y1="676.7" x2="852.9" y2="683.8"/>
<path class="st4" d="M868.9,702.1c0,0,39.4-80.2,50.2-78.4c5.2,0.8,7.5,5.9,8.6,11c1.3,6.6,0.6,13.4-2.2,19.5
	C919.9,667,904.9,691.4,868.9,702.1z"/>
<path class="st25" d="M918.8,638.9c0,0-41.4,60-49.4,62.6"/>
<line class="st25" x1="922.6" y1="648.3" x2="913" y2="648.3"/>
<line class="st25" x1="911.1" y1="670.2" x2="895.9" y2="670.9"/>
<line class="st25" x1="901.9" y1="652.7" x2="903.5" y2="660.6"/>
<line class="st25" x1="885.8" y1="676.7" x2="886" y2="683.8"/>
<path class="st4" d="M801.2,720.9c-1.1-0.9-1.9-2.1-2.2-3.4c-0.4-1.4,0.3-2.8,1.6-3.5c1.4-0.5,3,0.5,4.1,1.5s2.5,2.2,4,2
	c-1.6-1.5-2.3-3.6-1.9-5.8c0.1-0.4,0.3-0.8,0.5-1.2c0.8-0.9,2.2-0.5,3.2,0.2c3,2.1,3.9,6.3,3.9,10c0.2-1.4,0.2-2.8,0-4.1
	c-0.1-1.4,0.5-2.8,1.5-3.6c0.7-0.4,1.5-0.6,2.4-0.6c1.4-0.2,2.8,0.2,3.8,1.1c1.2,1.2,0.9,3.3-0.2,4.7c-1.1,1.3-2.5,2.4-4,3.2
	c-1.1,0.7-2.1,1.6-2.8,2.7c-0.1,0.2-0.2,0.3-0.2,0.5h-8.6C804.5,723.5,802.8,722.3,801.2,720.9z"/>
<path class="st4" d="M951.4,688.6c-1.1-0.9-1.9-2.1-2.2-3.4c-0.4-1.4,0.3-2.8,1.6-3.4c1.4-0.6,3,0.4,4.2,1.5s2.5,2.2,4,2
	c-1.6-1.5-2.3-3.6-1.9-5.8c0.1-0.4,0.3-0.8,0.5-1.2c0.8-0.9,2.2-0.5,3.2,0.2c3,2.1,3.9,6.3,3.9,10c0.2-1.4,0.2-2.8,0-4.1
	c-0.1-1.4,0.5-2.8,1.6-3.6c0.7-0.4,1.5-0.6,2.4-0.6c1.4-0.2,2.8,0.2,3.8,1.1c1.2,1.2,0.9,3.3-0.2,4.7c-1.1,1.3-2.5,2.4-4,3.2
	c-1.1,0.7-2.1,1.6-2.8,2.7c-0.1,0.2-0.2,0.3-0.2,0.5h-8.6C954.7,691.3,953,690,951.4,688.6z"/>
<path class="st4" d="M901.3,720.9c-1.1-0.9-1.9-2.1-2.2-3.4c-0.4-1.4,0.3-2.8,1.6-3.5c1.4-0.5,3,0.5,4.2,1.5s2.5,2.2,4,2
	c-1.6-1.4-2.3-3.6-1.9-5.8c0.1-0.4,0.2-0.8,0.5-1.2c0.8-0.9,2.2-0.5,3.2,0.2c3,2.1,3.9,6.3,3.9,10c0.2-1.4,0.2-2.7,0.1-4.1
	c-0.1-1.4,0.5-2.8,1.5-3.6c0.7-0.4,1.5-0.6,2.4-0.6c1.4-0.2,2.8,0.2,3.8,1.1c1.2,1.2,0.9,3.3-0.2,4.7c-1.1,1.3-2.5,2.4-4,3.2
	c-1.1,0.7-2.1,1.6-2.8,2.7c-0.1,0.2-0.2,0.3-0.2,0.5h-8.6C904.7,723.5,902.9,722.3,901.3,720.9z"/>
<path class="st4" d="M759.4,655.6c0,0-3.2,4.2,1.5,10.5s8.6,11.7,7,15.7c0,0-7.1-11.8-12.9-12S753,662.6,759.4,655.6z"/>
<path class="st6" d="M759.4,655.6c-0.3,0.4-0.5,0.8-0.7,1.3c-5.6,6.6-8.6,12.8-3.2,12.9c5,0.2,11.1,9.2,12.5,11.4
	c0,0.2-0.1,0.4-0.2,0.5c0,0-7.1-11.8-12.9-12S753,662.6,759.4,655.6z"/>
<path class="st7" d="M753.4,660.9c0,1.5,0.2,2.7,0.4,2.7s0.4-1.2,0.4-2.7s-0.2-0.8-0.4-0.8S753.4,659.5,753.4,660.9z"/>
<path class="st7" d="M751.3,662.7c1.3,0.7,2.4,1.1,2.5,1s-0.9-0.9-2.2-1.6s-0.8-0.2-0.9,0S750,662,751.3,662.7z"/>
<path class="st4" d="M776.3,655.6c0,0,3.2,4.2-1.5,10.5s-8.6,11.7-7,15.7c0,0,7.1-11.8,12.9-12S782.7,662.6,776.3,655.6z"/>
<path class="st6" d="M776.3,655.6c0.3,0.4,0.5,0.9,0.7,1.3c5.6,6.6,8.6,12.8,3.2,12.9c-5,0.2-11.1,9.2-12.5,11.4
	c0,0.2,0.1,0.3,0.2,0.5c0,0,7.1-11.8,12.9-12S782.7,662.6,776.3,655.6z"/>
<path class="st7" d="M782.3,660.9c0,1.5-0.2,2.7-0.4,2.7s-0.4-1.2-0.4-2.7s0.2-0.8,0.4-0.8S782.3,659.5,782.3,660.9z"/>
<path class="st7" d="M784.4,662.7c-1.3,0.7-2.4,1.1-2.5,1s0.9-0.9,2.2-1.6s0.8-0.2,0.9,0S785.7,662,784.4,662.7z"/>
<path class="st8" d="M781.3,681.2c0,0-9-0.3-11.7-2.2s-13.8-4.2-14.5-1.1s-13.5,15.4-3.4,15.5s23.6-1.6,26.3-3.2
	S781.3,681.2,781.3,681.2z"/>
<path class="st9" d="M751.5,692.3c10.2,0.1,23.6-1.6,26.3-3.2c2-1.2,2.9-5.8,3.2-7.8h0.3c0,0-0.6,7.2-3.3,8.9s-16.1,3.3-26.3,3.2
	c-2.9,0-4-1.1-3.9-2.6C748.3,691.7,749.4,692.3,751.5,692.3z"/>
<ellipse class="st0" cx="167.3" cy="706.1" rx="34.7" ry="5.1"/>
<ellipse class="st0" cx="251.4" cy="752.1" rx="34.7" ry="5.1"/>
<ellipse class="st0" cx="622.3" cy="632.2" rx="23" ry="2.6"/>
<ellipse class="st0" cx="514.8" cy="706.1" rx="23" ry="2.6"/>
<ellipse class="st0" cx="466.3" cy="752.1" rx="23" ry="2.6"/>
<path class="st26" d="M605.7,675.4h-25.6V661h25.6V675.4z M581.1,674.3h23.5V662h-23.5V674.3z"/>
<path class="st26" d="M631.3,674.7h-25.6v-14.4h25.6V674.7z M606.8,673.6h23.5v-12.3h-23.5V673.6z"/>
<path class="st26" d="M657,674.7h-25.6v-14.4H657V674.7z M632.4,673.6h23.5v-12.3h-23.5V673.6z"/>
<path class="st26" d="M657,660.2h-25.6v-14.4H657V660.2z M632.4,659.1h23.5v-12.3h-23.5V659.1z"/>
<path class="st26" d="M631.3,660.2h-25.6v-14.4h25.6V660.2z M606.8,659.1h23.5v-12.3h-23.5V659.1z"/>
<path class="st26" d="M419.4,675.4h-25.6V661h25.6V675.4z M394.8,674.3h23.5V662h-23.5V674.3z"/>
<path class="st27" d="M631.8,630c0,0-4.7-16.1,0.9-28c2.4-5,3.1-10.6,2.1-16c-0.5-2.6-1.3-5.1-2.3-7.5"/>
<path class="st4" d="M636,571.1c0,2-3.6,7.7-3.6,7.7s-3.6-5.7-3.6-7.7c0-2,1.6-3.6,3.6-3.6C634.4,567.5,636,569.1,636,571.1
	L636,571.1z"/>
<path class="st4" d="M641.9,582c-1.1,1.7-7.2,4.5-7.2,4.5s0.1-6.8,1.2-8.4c1.1-1.7,3.3-2.1,4.9-1.1C642.5,578.2,643,580.4,641.9,582
	L641.9,582z"/>
<path class="st4" d="M641.6,600.7c-1.8,0.9-8.5,0.3-8.5,0.3s3.5-5.8,5.3-6.7c1.8-0.9,3.9-0.2,4.8,1.6
	C644.1,597.7,643.4,599.8,641.6,600.7L641.6,600.7z"/>
<path class="st4" d="M638.3,614.8c-1.6,1.2-8.3,1.7-8.3,1.7s2.5-6.3,4.1-7.5c1.6-1.2,3.8-0.8,5,0.7S639.9,613.7,638.3,614.8
	L638.3,614.8z"/>
<path class="st4" d="M627.2,586.9c1.4,1.4,8,2.8,8,2.8s-1.6-6.6-3-7.9c-1.4-1.4-3.7-1.3-5.1,0.1
	C625.7,583.3,625.8,585.6,627.2,586.9L627.2,586.9L627.2,586.9z"/>
<path class="st4" d="M623.5,603.5c1.8,0.9,8.5,0.3,8.5,0.3s-3.5-5.8-5.3-6.7c-1.8-0.9-3.9-0.2-4.8,1.6
	C621,600.4,621.7,602.6,623.5,603.5L623.5,603.5z"/>
<path class="st4" d="M622,620.1c1.6,1.2,8.3,1.7,8.3,1.7s-2.5-6.3-4.1-7.5c-1.6-1.2-3.8-0.8-5,0.7
	C620.1,616.6,620.4,618.9,622,620.1L622,620.1L622,620.1z"/>
<path class="st28" d="M636,571.1c0,2-3.6,7.7-3.6,7.7s-3.6-5.7-3.6-7.7c0-2,1.6-3.6,3.6-3.6C634.4,567.5,636,569.1,636,571.1
	L636,571.1z"/>
<path class="st28" d="M641.9,582c-1.1,1.7-7.2,4.5-7.2,4.5s0.1-6.8,1.2-8.4c1.1-1.7,3.3-2.1,4.9-1.1
	C642.5,578.2,643,580.4,641.9,582L641.9,582z"/>
<path class="st28" d="M641.6,600.7c-1.8,0.9-8.5,0.3-8.5,0.3s3.5-5.8,5.3-6.7c1.8-0.9,3.9-0.2,4.8,1.6
	C644.1,597.7,643.4,599.8,641.6,600.7L641.6,600.7z"/>
<path class="st28" d="M638.3,614.8c-1.6,1.2-8.3,1.7-8.3,1.7s2.5-6.3,4.1-7.5c1.6-1.2,3.8-0.8,5,0.7S639.9,613.7,638.3,614.8
	L638.3,614.8z"/>
<path class="st28" d="M627.2,586.9c1.4,1.4,8,2.8,8,2.8s-1.6-6.6-3-7.9c-1.4-1.4-3.7-1.3-5.1,0.1
	C625.7,583.3,625.8,585.6,627.2,586.9L627.2,586.9L627.2,586.9z"/>
<path class="st28" d="M623.5,603.5c1.8,0.9,8.5,0.3,8.5,0.3s-3.5-5.8-5.3-6.7c-1.8-0.9-3.9-0.2-4.8,1.6
	C621,600.4,621.7,602.6,623.5,603.5L623.5,603.5z"/>
<path class="st28" d="M622,620.1c1.6,1.2,8.3,1.7,8.3,1.7s-2.5-6.3-4.1-7.5c-1.6-1.2-3.8-0.8-5,0.7
	C620.1,616.6,620.4,618.9,622,620.1L622,620.1L622,620.1z"/>
<g class="st29">
	
		<linearGradient id="SVGID_2_" gradientUnits="userSpaceOnUse" x1="510.8775" y1="8.4227" x2="556.2999" y2="8.4227" gradientTransform="matrix(1 0 0 -1 -105 687.11)">
		<stop  offset="0" style="stop-color:#808080;stop-opacity:0.25"/>
		<stop  offset="0.54" style="stop-color:#808080;stop-opacity:0.12"/>
		<stop  offset="1" style="stop-color:#808080;stop-opacity:0.1"/>
	</linearGradient>
	<path class="st30" d="M441.4,653.3c0,0-31.3-11.4-35.6,4.7l12,30.5l1.3,19.5h26.1v-16.5c0,0-3.9-16.5,6-26.7L441.4,653.3z"/>
	<g class="st1">
		
			<linearGradient id="SVGID_3_" gradientUnits="userSpaceOnUse" x1="524.249" y1="72.9804" x2="587.1132" y2="72.9804" gradientTransform="matrix(1 0 0 -1 -105 687.11)">
			<stop  offset="0" style="stop-color:#808080;stop-opacity:0.25"/>
			<stop  offset="0.54" style="stop-color:#808080;stop-opacity:0.12"/>
			<stop  offset="1" style="stop-color:#808080;stop-opacity:0.1"/>
		</linearGradient>
		<path class="st31" d="M446.7,562.6c-1.3-0.4-2.9-0.8-4,0c-0.6,0.5-0.9,1.3-1.4,2c-1.6,2.1-4.9,1.7-7.5,2.5
			c-3.8,1.1-6.1,4.9-7.5,8.6c-5.9,16.2,0.7,34.8-4.5,51.3c-1.5,4.9-4,10.2-1.6,14.7c0.8,1.5,2.2,2.7,2.6,4.4
			c0.6,2.2-0.5,5.2,1.4,6.5c0.6,0.4,1.3,0.6,2,0.7c4.2,1.1,7.4,4.4,10.6,7.3c3.2,2.9,7.1,5.7,11.4,5.5c1.4-0.1,2.8-0.4,4.1-0.8
			l21.6-6c2.2-0.6,4.5-1.3,5.8-3.2c0.8-1.1,1-2.5,1.2-3.9c0.7-5.1,1.1-10.3,1.1-15.5c0-1.7-0.1-3.5-0.7-5.1c-0.7-1.8-2.2-3.3-3.2-5
			c-2-3.2-2.6-7.2-3.1-10.9c-0.8-6-1.6-12.2-0.5-18.1c0.5-2.6,1.3-5.1,1.8-7.6c0.9-4.1,1-8.4,0.4-12.6c-0.5-3.5-1.6-7-4-9.6
			c-1.6-1.7-3.7-2.9-6-3.2c-2.9-0.4-4.4,1.3-7,1.9C456,567.5,450.4,563.8,446.7,562.6z"/>
	</g>
	
		<linearGradient id="SVGID_4_" gradientUnits="userSpaceOnUse" x1="524.249" y1="73.832" x2="587.1132" y2="73.832" gradientTransform="matrix(1 0 0 -1 -105 687.11)">
		<stop  offset="0" style="stop-color:#808080;stop-opacity:0.25"/>
		<stop  offset="0.54" style="stop-color:#808080;stop-opacity:0.12"/>
		<stop  offset="1" style="stop-color:#808080;stop-opacity:0.1"/>
	</linearGradient>
	<path class="st32" d="M446.7,561.7c-1.3-0.4-2.9-0.8-4,0c-0.6,0.5-0.9,1.3-1.4,2c-1.6,2.1-4.9,1.7-7.5,2.5
		c-3.8,1.1-6.1,4.9-7.5,8.6c-5.9,16.2,0.7,34.8-4.5,51.3c-1.5,4.9-4,10.2-1.6,14.7c0.8,1.5,2.2,2.7,2.6,4.4c0.6,2.2-0.5,5.2,1.4,6.5
		c0.6,0.4,1.3,0.6,2,0.7c4.2,1.1,7.4,4.4,10.6,7.3s7.1,5.8,11.4,5.6c1.4-0.1,2.8-0.4,4.1-0.8l21.6-6c2.2-0.6,4.5-1.3,5.8-3.2
		c0.8-1.1,1-2.5,1.2-3.9c0.7-5.1,1.1-10.3,1.1-15.5c0-1.7-0.1-3.5-0.7-5.1c-0.7-1.8-2.2-3.3-3.2-5c-2-3.2-2.6-7.2-3.1-10.9
		c-0.8-6-1.6-12.2-0.5-18.1c0.5-2.6,1.3-5.1,1.8-7.6c0.9-4.1,1-8.4,0.4-12.6c-0.5-3.5-1.6-7-4-9.6c-1.6-1.7-3.7-2.9-6-3.2
		c-2.9-0.4-4.4,1.3-7,1.9C456,566.6,450.4,562.9,446.7,561.7z"/>
	
		<linearGradient id="SVGID_5_" gradientUnits="userSpaceOnUse" x1="540.0189" y1="136.3527" x2="572.1399" y2="136.3527" gradientTransform="matrix(1 0 0 -1 -105 687.11)">
		<stop  offset="0" style="stop-color:#808080;stop-opacity:0.25"/>
		<stop  offset="0.54" style="stop-color:#808080;stop-opacity:0.12"/>
		<stop  offset="1" style="stop-color:#808080;stop-opacity:0.1"/>
	</linearGradient>
	<path class="st33" d="M440.6,529.6c0,0,0.4,16.1-4.7,15.7c-5.1-0.4,14.6,26.7,14.6,26.7l16.7-8.9c0,0-9.8-15.7-3-25.4
		S440.6,529.6,440.6,529.6z"/>
	<g class="st1">
		
			<linearGradient id="SVGID_6_" gradientUnits="userSpaceOnUse" x1="497.5218" y1="67.2037" x2="552.8553" y2="67.2037" gradientTransform="matrix(1 0 0 -1 -105 687.11)">
			<stop  offset="0" style="stop-color:#808080;stop-opacity:0.25"/>
			<stop  offset="0.54" style="stop-color:#808080;stop-opacity:0.12"/>
			<stop  offset="1" style="stop-color:#808080;stop-opacity:0.1"/>
		</linearGradient>
		<path class="st34" d="M411.9,666.5c0,0-3.4,23.3-12,16.9c-8.6-6.4-7.3-16.9-7.3-16.9s16.7-44.9,15.9-51.7
			c-0.9-6.8,28.5-59.5,28.5-59.5l10.9,86.6C447.9,641.9,415.3,653.8,411.9,666.5z"/>
	</g>
	
		<linearGradient id="SVGID_7_" gradientUnits="userSpaceOnUse" x1="496.666" y1="67.2037" x2="551.9959" y2="67.2037" gradientTransform="matrix(1 0 0 -1 -105 687.11)">
		<stop  offset="0" style="stop-color:#808080;stop-opacity:0.25"/>
		<stop  offset="0.54" style="stop-color:#808080;stop-opacity:0.12"/>
		<stop  offset="1" style="stop-color:#808080;stop-opacity:0.1"/>
	</linearGradient>
	<path class="st35" d="M411,666.5c0,0-3.4,23.3-12,16.9c-8.6-6.4-7.3-16.9-7.3-16.9s16.7-44.9,15.9-51.7
		c-0.9-6.8,28.5-59.5,28.5-59.5l10.9,86.6C447,641.9,414.4,653.8,411,666.5z"/>
	
		<linearGradient id="SVGID_8_" gradientUnits="userSpaceOnUse" x1="495.0194" y1="89.489" x2="546.4427" y2="89.489" gradientTransform="matrix(1 0 0 -1 -105 687.11)">
		<stop  offset="0" style="stop-color:#808080;stop-opacity:0.25"/>
		<stop  offset="0.54" style="stop-color:#808080;stop-opacity:0.12"/>
		<stop  offset="1" style="stop-color:#808080;stop-opacity:0.1"/>
	</linearGradient>
	<path class="st36" d="M441.4,539.8c0,0-16.7,11.4-23.1,11l-5,1.4c-10.1,2.7-17.7,10.9-19.8,21.1l-0.1,0.4
		c-2.6,13.6-3.4,50.8-3.4,50.8s0.4,9.7,4.7,12.3l27.4,18.6c0,0-0.9-20.3,9.4-22.5s-2.6-0.8-2.6-0.8l-18.9-11c0,0,0.4-16.5,5.6-22
		s23.1-34.3,23.1-34.3l-5.1-17.8L441.4,539.8z"/>
	<g class="st1">
		
			<linearGradient id="SVGID_9_" gradientUnits="userSpaceOnUse" x1="562.3788" y1="85.0389" x2="617.9919" y2="85.0389" gradientTransform="matrix(1 0 0 -1 -105 687.11)">
			<stop  offset="0" style="stop-color:#808080;stop-opacity:0.25"/>
			<stop  offset="0.54" style="stop-color:#808080;stop-opacity:0.12"/>
			<stop  offset="1" style="stop-color:#808080;stop-opacity:0.1"/>
		</linearGradient>
		<path class="st37" d="M459.9,550.8c0,0,10.5,2.8,17.9,4.1c2.3,0.4,4.3,1.9,5.4,4c2.2,4.6,5.6,12.9,5,19.8l6.4,25l18.4,22
			l-16.7,7.6l-18.8-20.8l15.4,39.4l-28.7,1.3c0,0-8.6-63.5-6.4-74.1L459.9,550.8z"/>
	</g>
	
		<linearGradient id="SVGID_10_" gradientUnits="userSpaceOnUse" x1="563.2382" y1="85.0389" x2="618.8477" y2="85.0389" gradientTransform="matrix(1 0 0 -1 -105 687.11)">
		<stop  offset="0" style="stop-color:#808080;stop-opacity:0.25"/>
		<stop  offset="0.54" style="stop-color:#808080;stop-opacity:0.12"/>
		<stop  offset="1" style="stop-color:#808080;stop-opacity:0.1"/>
	</linearGradient>
	<path class="st38" d="M460.7,550.8c0,0,10.5,2.8,17.9,4.1c2.3,0.4,4.3,1.9,5.4,4c2.2,4.6,5.6,12.9,5,19.8l6.4,25l18.4,22l-16.7,7.6
		l-18.9-20.8l15.4,39.4l-28.7,1.3c0,0-8.6-63.5-6.4-74.1L460.7,550.8z"/>
	
		<linearGradient id="SVGID_11_" gradientUnits="userSpaceOnUse" x1="431.0187" y1="202.7774" x2="445.9416" y2="202.7774" gradientTransform="matrix(1 0 0 -1 0 758)">
		<stop  offset="0" style="stop-color:#808080;stop-opacity:0.25"/>
		<stop  offset="0.54" style="stop-color:#808080;stop-opacity:0.12"/>
		<stop  offset="1" style="stop-color:#808080;stop-opacity:0.1"/>
	</linearGradient>
	<polygon class="st39" points="440,538.5 445.9,567.1 436.3,572 431,546.2 	"/>
	
		<linearGradient id="SVGID_12_" gradientUnits="userSpaceOnUse" x1="456.2248" y1="197.3362" x2="466.5117" y2="197.3362" gradientTransform="matrix(1 0 0 -1 0 758)">
		<stop  offset="0" style="stop-color:#808080;stop-opacity:0.25"/>
		<stop  offset="0.54" style="stop-color:#808080;stop-opacity:0.12"/>
		<stop  offset="1" style="stop-color:#808080;stop-opacity:0.1"/>
	</linearGradient>
	<polygon class="st40" points="456.2,569.2 460.7,550.8 466.5,561.6 463.5,570.5 	"/>
	
		<linearGradient id="SVGID_13_" gradientUnits="userSpaceOnUse" x1="577.509" y1="96.8999" x2="581.3652" y2="96.8999" gradientTransform="matrix(1 0 0 -1 -105 687.11)">
		<stop  offset="0" style="stop-color:#808080;stop-opacity:0.25"/>
		<stop  offset="0.54" style="stop-color:#808080;stop-opacity:0.12"/>
		<stop  offset="1" style="stop-color:#808080;stop-opacity:0.1"/>
	</linearGradient>
	<path class="st41" d="M472.5,574.7c0,0,0,28.8,3.9,30.9"/>
	
		<linearGradient id="SVGID_14_" gradientUnits="userSpaceOnUse" x1="515.4044" y1="89.4908" x2="522.2295" y2="89.4908" gradientTransform="matrix(1 0 0 -1 -105 687.11)">
		<stop  offset="0" style="stop-color:#808080;stop-opacity:0.25"/>
		<stop  offset="0.54" style="stop-color:#808080;stop-opacity:0.12"/>
		<stop  offset="1" style="stop-color:#808080;stop-opacity:0.1"/>
	</linearGradient>
	<path class="st42" d="M417.2,581.9c0,0-8.9,28.4-6.4,31.3"/>
	
		<linearGradient id="SVGID_15_" gradientUnits="userSpaceOnUse" x1="520.518" y1="60.5657" x2="540.0157" y2="60.5657" gradientTransform="matrix(1 0 0 -1 -105 687.11)">
		<stop  offset="0" style="stop-color:#808080;stop-opacity:0.25"/>
		<stop  offset="0.54" style="stop-color:#808080;stop-opacity:0.12"/>
		<stop  offset="1" style="stop-color:#808080;stop-opacity:0.1"/>
	</linearGradient>
	<path class="st43" d="M415.5,620.9c0,0,17.1,11.1,19.5,11.3"/>
	<g class="st1">
		
			<linearGradient id="SVGID_16_" gradientUnits="userSpaceOnUse" x1="545.8469" y1="147.1482" x2="570.5864" y2="147.1482" gradientTransform="matrix(1 0 0 -1 -105 687.11)">
			<stop  offset="0" style="stop-color:#808080;stop-opacity:0.25"/>
			<stop  offset="0.54" style="stop-color:#808080;stop-opacity:0.12"/>
			<stop  offset="1" style="stop-color:#808080;stop-opacity:0.1"/>
		</linearGradient>
		<path class="st44" d="M441,531.3c0,0,0.1,2.5-0.2,5.5c3.1,7.2,10.3,11.9,18.2,11.9c1.1,0,2.1-0.1,3.2-0.3
			c-0.1-3.2,0.5-6.4,2.4-9.1C471.4,529.6,441,531.3,441,531.3z"/>
	</g>
	
		<linearGradient id="SVGID_17_" gradientUnits="userSpaceOnUse" x1="438.8719" y1="230.4822" x2="478.2933" y2="230.4822" gradientTransform="matrix(1 0 0 -1 0 758)">
		<stop  offset="0" style="stop-color:#808080;stop-opacity:0.25"/>
		<stop  offset="0.54" style="stop-color:#808080;stop-opacity:0.12"/>
		<stop  offset="1" style="stop-color:#808080;stop-opacity:0.1"/>
	</linearGradient>
	<ellipse class="st45" cx="458.6" cy="527.5" rx="19.7" ry="19.5"/>
	<g class="st1">
		
			<linearGradient id="SVGID_18_" gradientUnits="userSpaceOnUse" x1="534.8998" y1="170.4351" x2="582.0366" y2="170.4351" gradientTransform="matrix(1 0 0 -1 -105 687.11)">
			<stop  offset="0" style="stop-color:#808080;stop-opacity:0.25"/>
			<stop  offset="0.54" style="stop-color:#808080;stop-opacity:0.12"/>
			<stop  offset="1" style="stop-color:#808080;stop-opacity:0.1"/>
		</linearGradient>
		<path class="st46" d="M471.1,519.3c2.4,0.3,5.4-0.5,5.9-2.8c0.6-3-3.4-4.9-4-7.8c-0.2-1.1,0-2.3-0.1-3.4c-0.3-2.3-2.1-4-4-5.3
			c-6-4.1-13.2-6-20.4-5.4c-0.9,0.1-1.8,0.2-2.5,0.8c-0.8,0.6-1.1,1.7-1.6,2.5c-1.8,3-6,3.3-9,5.1c-3.5,2.2-5.2,6.4-5.4,10.4
			c-0.2,4.1,1,8,2.2,11.9c1,3.3,2,6.7,4.2,9.4c2.2,2.7,5.8,4.6,9.1,3.8c-1.6-1.1-0.4-3.7,1.3-4.6c1.7-0.9,3.8-1.1,5.2-2.3
			c1.4-1.2,1.9-3.3,2.3-5.1c0.6-2.3,1.4-4.7,3.2-6.4C460.8,516.9,466.9,518.8,471.1,519.3z"/>
	</g>
	
		<linearGradient id="SVGID_19_" gradientUnits="userSpaceOnUse" x1="534.4738" y1="170.8604" x2="581.5961" y2="170.8604" gradientTransform="matrix(1 0 0 -1 -105 687.11)">
		<stop  offset="0" style="stop-color:#808080;stop-opacity:0.25"/>
		<stop  offset="0.54" style="stop-color:#808080;stop-opacity:0.12"/>
		<stop  offset="1" style="stop-color:#808080;stop-opacity:0.1"/>
	</linearGradient>
	<path class="st47" d="M470.6,518.9c2.4,0.3,5.4-0.5,5.9-2.8c0.6-3-3.4-4.9-4-7.8c-0.2-1.1,0-2.3-0.1-3.4c-0.3-2.3-2.1-4-4-5.3
		c-6-4.1-13.2-6-20.4-5.4c-0.9,0.1-1.8,0.2-2.5,0.8c-0.8,0.6-1.1,1.7-1.6,2.5c-1.8,3-6,3.3-9,5.1c-3.5,2.2-5.2,6.4-5.4,10.4
		c-0.2,4.1,1,8,2.2,11.9c1,3.3,2,6.7,4.2,9.4c2.2,2.7,5.8,4.6,9.1,3.8c-1.6-1.1-0.4-3.7,1.3-4.6s3.8-1.1,5.2-2.3
		c1.4-1.2,1.9-3.3,2.3-5.1c0.6-2.3,1.4-4.7,3.2-6.4C460.4,516.5,466.5,518.3,470.6,518.9z"/>
	<g class="st1">
		
			<linearGradient id="SVGID_20_" gradientUnits="userSpaceOnUse" x1="553.9421" y1="142.8935" x2="580.382" y2="142.8935" gradientTransform="matrix(1 0 0 -1 -105 687.11)">
			<stop  offset="0" style="stop-color:#808080;stop-opacity:0.25"/>
			<stop  offset="0.54" style="stop-color:#808080;stop-opacity:0.12"/>
			<stop  offset="1" style="stop-color:#808080;stop-opacity:0.1"/>
		</linearGradient>
		<path class="st48" d="M455.2,530.1c-0.3,2-0.9,5.5-2.1,7.7c-1.6,2.9-3,5.9-4.1,8.9l0,0c0,0,7.9,6,11.9,10.2
			c2.5,2.6,6.4,3.6,9.8,2.4c2.1-0.8,3.9-2.2,4.4-4.9c0.8-4.3-0.1-7.5-1-9.4c-0.8-1.8-0.8-3.9,0-5.8c0.3-0.6,0.6-1.2,1-1.3
			c0,0-7.7-1.7-8.1,0.4c-0.4,2.1-6.4,4.2-7.7,0.4l-0.4-8.4c0-1-0.9-1.8-1.9-1.8l0,0C456.1,528.6,455.3,529.2,455.2,530.1z"/>
	</g>
	
		<linearGradient id="SVGID_21_" gradientUnits="userSpaceOnUse" x1="553.9421" y1="142.4674" x2="580.382" y2="142.4674" gradientTransform="matrix(1 0 0 -1 -105 687.11)">
		<stop  offset="0" style="stop-color:#808080;stop-opacity:0.25"/>
		<stop  offset="0.54" style="stop-color:#808080;stop-opacity:0.12"/>
		<stop  offset="1" style="stop-color:#808080;stop-opacity:0.1"/>
	</linearGradient>
	<path class="st49" d="M455.2,530.6c-0.3,2-0.9,5.5-2.1,7.7c-1.6,2.9-3,5.9-4.1,8.9l0,0c0,0,7.9,6,11.9,10.2
		c2.5,2.6,6.4,3.6,9.8,2.4c2.1-0.8,3.9-2.2,4.4-4.9c0.8-4.3-0.1-7.5-1-9.4c-0.8-1.8-0.8-3.9,0-5.8c0.3-0.6,0.6-1.2,1-1.3
		c0,0-7.7-1.7-8.1,0.4c-0.4,2.1-6.4,4.2-7.7,0.4l-0.4-8.4c0-1-0.9-1.8-1.9-1.8l0,0C456.1,529,455.3,529.7,455.2,530.6z"/>
</g>
<path class="st50" d="M441.9,653.1c0,0-30-11.1-34.1,4.5l11.5,29.6l1.2,18.9h25.1v-16c0,0-3.7-16,5.8-25.9L441.9,653.1z"/>
<path class="st6" d="M446.9,564.9c-1.3-0.4-2.8-0.8-3.8,0c-0.6,0.5-0.9,1.3-1.3,1.9c-1.6,2.1-4.7,1.7-7.2,2.4
	c-3.6,1.1-5.9,4.7-7.2,8.3c-5.7,15.8,0.7,33.8-4.3,49.8c-1.4,4.7-3.9,10-1.5,14.3c0.8,1.4,2.1,2.7,2.5,4.3c0.5,2.2-0.5,5,1.3,6.3
	c0.6,0.4,1.3,0.5,1.9,0.7c4,1.1,7.1,4.3,10.2,7.1s6.8,5.6,11,5.4c1.4-0.1,2.7-0.4,4-0.8l20.8-5.8c2.1-0.6,4.3-1.3,5.5-3.1
	c0.7-1.1,1-2.4,1.2-3.8c0.7-5,1.1-10,1-15.1c0-1.7-0.1-3.4-0.7-4.9c-0.7-1.8-2.1-3.2-3.1-4.8c-1.9-3.1-2.5-6.9-3-10.6
	c-0.8-5.8-1.5-11.8-0.5-17.6c0.5-2.5,1.2-4.9,1.8-7.4c0.8-4,1-8.2,0.4-12.2c-0.5-3.4-1.5-6.8-3.8-9.4c-1.5-1.7-3.5-2.8-5.8-3.2
	c-2.8-0.4-4.2,1.3-6.7,1.9C455.9,569.7,450.5,566.1,446.9,564.9z"/>
<path class="st51" d="M446.9,564.1c-1.3-0.4-2.8-0.8-3.8,0c-0.6,0.5-0.9,1.3-1.3,1.9c-1.6,2.1-4.7,1.7-7.2,2.4
	c-3.6,1.1-5.9,4.7-7.2,8.3c-5.7,15.8,0.7,33.8-4.3,49.8c-1.4,4.7-3.9,10-1.5,14.3c0.8,1.4,2.1,2.7,2.5,4.3c0.5,2.2-0.5,5,1.3,6.3
	c0.6,0.4,1.3,0.5,1.9,0.7c4,1.1,7.1,4.3,10.2,7.1c3.1,2.8,6.8,5.6,11,5.4c1.4-0.1,2.7-0.4,4-0.8l20.8-5.8c2.1-0.6,4.3-1.3,5.5-3.1
	c0.7-1.1,1-2.4,1.2-3.8c0.7-5,1.1-10,1-15.1c0-1.7-0.1-3.4-0.7-4.9c-0.7-1.8-2.1-3.2-3.1-4.8c-1.9-3.1-2.5-6.9-3-10.6
	c-0.8-5.8-1.5-11.8-0.5-17.6c0.5-2.5,1.2-4.9,1.8-7.4c0.8-4,1-8.2,0.4-12.2c-0.5-3.4-1.5-6.8-3.8-9.4c-1.5-1.7-3.5-2.8-5.7-3.2
	c-2.8-0.4-4.2,1.3-6.7,1.9C455.9,568.8,450.5,565.3,446.9,564.1z"/>
<path class="st52" d="M441,532.9c0,0,0.4,15.6-4.5,15.2c-4.9-0.4,14,25.9,14,25.9l16-8.6c0,0-9.5-15.2-2.9-24.7
	C470.2,531.3,441,532.9,441,532.9z"/>
<path class="st6" d="M413.5,665.8c0,0-3.3,22.6-11.5,16.5c-8.2-6.2-7-16.5-7-16.5s16-43.6,15.2-50.2c-0.8-6.6,27.4-57.8,27.4-57.8
	l10.4,84.1C448,641.9,416.8,653.5,413.5,665.8z"/>
<path class="st53" d="M412.7,665.8c0,0-3.3,22.6-11.5,16.5c-8.2-6.2-7-16.5-7-16.5s16-43.6,15.2-50.2s27.4-57.8,27.4-57.8l10.4,84.1
	C447.2,641.9,415.9,653.5,412.7,665.8z"/>
<path class="st53" d="M441.9,542.8c0,0-16,11.1-22.2,10.7l-4.8,1.3c-9.7,2.7-17.1,10.6-19,20.5l-0.1,0.4
	c-2.5,13.2-3.3,49.4-3.3,49.4s0.4,9.5,4.5,11.9l26.3,18.1c0,0-0.8-19.7,9.1-21.8c9.9-2.1-2.5-0.8-2.5-0.8l-18.1-10.7
	c0,0,0.4-16,5.3-21.4c4.9-5.3,22.2-33.3,22.2-33.3l-4.9-17.3L441.9,542.8z"/>
<path class="st6" d="M459.6,553.5c0,0,10.1,2.7,17.2,4c2.2,0.4,4.2,1.9,5.1,3.9c2.1,4.5,5.4,12.5,4.8,19.2l6.2,24.3l17.7,21.4
	l-16,7.4l-18.1-20.2l14.8,38.3l-27.6,1.2c0,0-8.2-61.7-6.2-72L459.6,553.5z"/>
<path class="st53" d="M460.4,553.5c0,0,10.1,2.7,17.2,4c2.2,0.4,4.2,1.9,5.1,3.9c2.1,4.5,5.4,12.5,4.8,19.2l6.2,24.3l17.7,21.4
	l-16,7.4l-18.1-20.2l14.8,38.3l-27.6,1.2c0,0-8.2-61.7-6.2-72L460.4,553.5z"/>
<polygon class="st51" points="440.5,541.5 446.2,569.3 436.9,574.1 431.9,549 "/>
<polygon class="st51" points="456.1,571.4 460.4,553.5 465.9,564 463,572.6 "/>
<path class="st6" d="M471.7,576.7c0,0,0,28,3.7,30"/>
<path class="st6" d="M418.6,583.7c0,0-8.5,27.5-6.1,30.4"/>
<path class="st6" d="M417,621.6c0,0,16.5,10.8,18.7,10.9"/>
<path class="st6" d="M441.4,534.6c0,0,0.1,2.4-0.2,5.3c3.4,8,11.9,12.7,20.5,11.3c-0.1-3.1,0.5-6.2,2.3-8.8
	C470.6,532.9,441.4,534.6,441.4,534.6z"/>
<circle class="st52" cx="458.3" cy="530.9" r="18.9"/>
<path class="st6" d="M470.3,522.9c2.3,0.3,5.2-0.5,5.7-2.7c0.6-2.9-3.3-4.7-3.9-7.6c-0.2-1.1,0-2.2-0.1-3.3c-0.3-2.2-2-3.9-3.8-5.2
	c-5.7-4-12.7-5.9-19.6-5.2c-0.9,0.1-1.8,0.2-2.4,0.8c-0.8,0.6-1,1.6-1.6,2.5c-1.8,2.9-5.8,3.2-8.6,5c-3.3,2.1-5,6.2-5.2,10.1
	s1,7.8,2.1,11.6c0.9,3.2,1.9,6.5,4,9.2c2.1,2.6,5.5,4.5,8.8,3.7c-1.5-1.1-0.4-3.6,1.2-4.5c1.6-0.9,3.6-1,5-2.2
	c1.4-1.2,1.8-3.2,2.2-5c0.6-2.3,1.4-4.6,3.1-6.2C460.5,520.5,466.3,522.4,470.3,522.9z"/>
<path class="st54" d="M469.9,522.5c2.3,0.3,5.2-0.5,5.7-2.7c0.6-2.9-3.3-4.7-3.9-7.6c-0.2-1.1,0-2.2-0.1-3.3
	c-0.3-2.2-2.1-3.9-3.9-5.2c-5.7-4-12.7-5.9-19.6-5.2c-0.9,0.1-1.8,0.2-2.4,0.8c-0.8,0.6-1,1.6-1.6,2.5c-1.8,2.9-5.8,3.2-8.6,5
	c-3.3,2.1-5,6.2-5.2,10.1s1,7.8,2.1,11.6c0.9,3.2,1.9,6.5,4,9.2c2.1,2.6,5.5,4.5,8.8,3.7c-1.5-1.1-0.4-3.6,1.2-4.5
	c1.6-0.9,3.6-1,5-2.2c1.4-1.2,1.8-3.2,2.2-5c0.6-2.3,1.4-4.6,3.1-6.2C460,520.1,465.9,522,469.9,522.5z"/>
<path class="st6" d="M455,533.4c-0.3,2-0.9,5.3-2.1,7.5c-1.5,2.8-2.8,5.7-3.9,8.7l0,0c0,0,7.6,5.9,11.4,9.9c2.4,2.6,6.1,3.5,9.4,2.3
	c2-0.7,3.8-2.1,4.2-4.8c0.7-4.2-0.1-7.3-1-9.2c-0.8-1.8-0.8-3.8,0-5.6c0.3-0.6,0.6-1.1,1-1.2c0,0-7.4-1.6-7.8,0.4
	c-0.4,2.1-6.2,4.1-7.4,0.4l-0.3-8.2c0-1-0.8-1.7-1.8-1.7l0,0C455.9,531.9,455.2,532.5,455,533.4z"/>
<path class="st54" d="M455,533.8c-0.3,2-0.9,5.3-2.1,7.5c-1.5,2.8-2.8,5.7-3.9,8.7l0,0c0,0,7.6,5.9,11.4,9.9
	c2.4,2.6,6.1,3.5,9.4,2.3c2-0.7,3.8-2.1,4.2-4.8c0.7-4.2-0.1-7.3-1-9.2c-0.8-1.8-0.8-3.8,0-5.6c0.3-0.6,0.6-1.1,1-1.2
	c0,0-7.4-1.6-7.8,0.4s-6.2,4.1-7.4,0.4l-0.3-8.2c0-1-0.8-1.7-1.8-1.7l0,0C455.9,532.3,455.2,533,455,533.8z"/>
<linearGradient id="SVGID_22_" gradientUnits="userSpaceOnUse" x1="653.8649" y1="33.782" x2="653.8649" y2="181.1248" gradientTransform="matrix(1 0 0 -1 -105 687.11)">
	<stop  offset="0" style="stop-color:#808080;stop-opacity:0.25"/>
	<stop  offset="0.54" style="stop-color:#808080;stop-opacity:0.12"/>
	<stop  offset="1" style="stop-color:#808080;stop-opacity:0.1"/>
</linearGradient>
<path class="st55" d="M602.1,650.9c0,0-7.4-7.4-10.2-17.3h0.6l-0.3-0.9h0.3l-1-2.8c2.7-2.7,4.8-5.3,5.1-6.8c0.6-2.5,1.1-16,1.4-25.4
	l0.3,0.1c0.7-1.2,0.9-2.8,0.8-4.2c0-1.6-0.2-3.2-0.6-4.7l-1.3-13.4c-0.3-2.5-1.5-4.8-3.5-6.3l-13.6-10.5c0.7-1,1.6-1.8,2.7-2.4
	c0.8-0.4,1.7-0.7,2.2-1.4c0.9-1.3,0.1-3.2,0.8-4.6c0.5-1.1,1.7-1.7,2.4-2.7c1.4-2,0.4-4.7-0.7-6.9l-6.2-12.8
	c-1.7-3.5-3.4-7.1-5.8-10.2c-7.3-9.6-21.5-14.3-33-10.2c-3.3,1.2-6.3,3.4-7.7,6.6c-0.5,1.1-0.8,2.3-1.5,3.3
	c-1.6,2.2-4.7,2.6-6.9,4.2c-2.8,2-3.9,5.9-3.5,9.3c0.4,3.4,2,6.6,3.5,9.7c1.6,3.2,3.3,6.6,6,9.1c1.3,1.2,2.8,2.2,3.2,3.9
	c0.3,1.4-0.3,2.9-0.1,4.4c0.1,0.6,0.2,1.2,0.5,1.7c-6.1,0.8-10.4,5.8-12.3,13.3c-0.1,0.5-0.2,0.7-0.2,0.7l-0.9,7.8c0,0.3,0,0.7,0,1
	c-0.1,1.7,0.3,3.5,1.1,5.1v27.3l-26,16.5c-3.9,1.7-3,15.6,4.8,18.2s14.7-13.8,14.7-13.8c4.7-0.3,12.7-6.7,17-11.6
	c0.6,0.9,1.4,1.7,2.3,2.4c-3.1,7-9.2,21.4-8.2,24.4c0.6,1.8,15.8,1.9,32.3,1.6c0.4,0.2,0.9,0.4,1.3,0.6c1.8,0.6,3.5,0.2,5.1-0.7
	C584.9,651.8,602.1,650.9,602.1,650.9z M580.1,597.9c0.4-1,1.5-1.5,3.1-1.8v10.5L580.1,597.9z M578.6,560.9L578.6,560.9L578.6,560.9
	L578.6,560.9z"/>
<path class="st56" d="M539.6,584.8c0,0-0.8,29.2-1.6,32.9c-0.8,3.7-12.7,14.8-18.9,15.2c0,0-6.6,15.6-14,13.2s-8.2-15.6-4.5-17.3
	l24.7-15.6v-31.3L539.6,584.8z"/>
<path class="st57" d="M538.9,620.6c0,0-10.7,23-9.5,26.7c1.2,3.7,69.9,0,69.9,0s-12.8-12.8-10.3-26.7H538.9z"/>
<path class="st56" d="M547.2,552.3c0,0,1.6,16-1.2,19.7c-2.9,3.7,11.5,5.8,12.8,5.8s14.4-4.5,16.9-5.8c2.5-1.3,4.5-10.3,4.5-10.3
	s-12.3,2.5-16-11.9L547.2,552.3z"/>
<path class="st4" d="M542.9,511.1c-3.1,1.1-6,3.3-7.3,6.3c-0.5,1.1-0.7,2.2-1.4,3.1c-1.5,2.1-4.4,2.5-6.5,4
	c-2.7,1.9-3.7,5.6-3.3,8.8c0.4,3.3,1.9,6.3,3.4,9.2c1.6,3.1,3.2,6.3,5.7,8.6c1.2,1.1,2.7,2.1,3,3.7c0.3,1.4-0.2,2.8-0.1,4.1
	c0.3,3.4,4.4,5,7.8,5.4c1.5,0.2,3.2,0.2,4.2-0.9c0.5-0.5,0.8-1.3,1.1-2c2.3-4.7,8-6.6,12.7-4.3c1.8,0.9,3.3,2.3,4.2,4.1
	c0.8,1.5,1.3,3.4,2.7,4.3c2.2,1.4,5.2-0.2,6.9-2.3s2.8-4.7,5.2-5.9c0.7-0.4,1.6-0.7,2.1-1.3c0.9-1.2,0.1-3,0.7-4.4
	c0.5-1,1.6-1.6,2.3-2.5c1.4-1.9,0.4-4.5-0.6-6.6l-5.9-12.1c-1.6-3.4-3.3-6.8-5.5-9.7C567.2,511.7,553.8,507.2,542.9,511.1z"/>
<path class="st6" d="M557.9,574.9c0,0,16,0,20.2-14.8l13.5,10.5c1.9,1.5,3.1,3.6,3.3,6l1.3,12.7c0,0,1.4,4.7-0.2,7.6
	c0,0-17.1-4.3-17.5,0.6l11.9,33.3c0,0-18.5,0.4-23.4-2.9c0,0-20.2,4.1-25.1-0.4s-9.9-4.1-5.8-14.4c0,0-8.2-8.2-4.5-19.7
	c3.7-11.5,0.2,0.2,0.2,0.2s-8-3.9-7.6-11.3l0.8-7.4c0,0,0-0.2,0.2-0.7c2.5-9.7,9.2-15.2,18.7-11.7c2.8,1,5.6-0.1,5.6-0.1
	S546.4,575.7,557.9,574.9z"/>
<path class="st58" d="M557.9,574.1c0,0,16,0,20.2-14.8l13.5,10.5c1.9,1.5,3.1,3.6,3.3,6l1.3,12.7c0,0,1.4,4.7-0.2,7.6
	c0,0-17.1-4.3-17.5,0.6l11.9,33.3c0,0-18.5,0.4-23.4-2.9c0,0-20.2,4.1-25.1-0.4s-9.9-4.1-5.8-14.4c0,0-8.2-8.2-4.5-19.7
	c3.7-11.5,0.2,0.2,0.2,0.2s-8-3.9-7.6-11.3l0.8-7.4c0,0,0-0.2,0.2-0.7c2.5-9.7,9.2-15.2,18.7-11.7c2.8,1,5.6-0.1,5.6-0.1
	S546.4,574.9,557.9,574.1z"/>
<path class="st56" d="M595.9,588.1c0,0-0.8,29.2-1.6,32.9c-0.8,3.7-12.8,14.8-18.9,15.2c0,0-6.6,15.6-14,13.2
	c-7.4-2.5-8.2-15.6-4.5-17.3l24.7-15.6v-31.3L595.9,588.1z"/>
<path class="st6" d="M578.2,589.1c0,0,9.5,6.4,17.7,5.9c0,0,0.8-11-1.6-11.6C591.8,582.7,581.1,583.3,578.2,589.1z"/>
<path class="st58" d="M578.2,588.7c0,0,9.5,6.4,17.7,5.9c0,0,0.8-11-1.6-11.6C591.8,582.3,581.1,582.9,578.2,588.7z"/>
<path class="st6" d="M564.9,550.6l-16.9,2.5c0,0,0.4,3.7,0.5,8c6.7,2.8,14.4,1.6,19.9-3.2C566.9,556.1,565.7,553.8,564.9,550.6z"/>
<circle class="st56" cx="555" cy="542.8" r="18.9"/>
<path class="st6" d="M560,539.2c-0.8,0.3-1.7,0.4-2.5,0.4c-3.3,0-6.7-0.1-10-0.4c-2.5-0.2-5.2-0.5-7.2-2.1c-2.6-2.2-3-6.3-1.7-9.4
	c1.4-3.1,4.1-5.4,7.1-7.2c1.7-1,3.4-1.8,5.3-2.4c5.4-1.5,11.4,0.3,15.7,3.9c4.3,3.6,7.1,8.8,8.5,14.3c0.5,1.9,1.1,4.1,3,4.7
	c-1.2,2.1-4.3,2.4-6.4,1.4c-3.2-1.5-4.8-7.3-7.7-8.3C560.8,533,562.7,537.9,560,539.2z"/>
<path class="st4" d="M560,538.8c-0.8,0.3-1.7,0.4-2.5,0.4c-3.3,0-6.7-0.1-10-0.4c-2.5-0.2-5.2-0.5-7.2-2.1c-2.6-2.2-3-6.3-1.7-9.4
	c1.4-3.1,4.1-5.4,7.1-7.2c1.7-1,3.4-1.8,5.3-2.4c5.4-1.5,11.4,0.3,15.7,3.9c4.3,3.6,7.1,8.8,8.5,14.3c0.5,1.9,1.1,4.1,3,4.7
	c-1.2,2.1-4.3,2.4-6.4,1.4c-3.2-1.5-4.8-7.3-7.7-8.3C560.8,532.6,562.7,537.5,560,538.8z"/>
<path class="st6" d="M535.9,612.1c6.2-1.6,12.5-2.5,18.9-2.5"/>
<path class="st6" d="M578.2,589.9c0,0-6.2,4.5-4.5,7"/>
<g class="st29">
	
		<linearGradient id="SVGID_23_" gradientUnits="userSpaceOnUse" x1="519.6121" y1="50.0276" x2="519.6121" y2="123.2522" gradientTransform="matrix(1 0 0 -1 0 758)">
		<stop  offset="0" style="stop-color:#808080;stop-opacity:0.25"/>
		<stop  offset="0.54" style="stop-color:#808080;stop-opacity:0.12"/>
		<stop  offset="1" style="stop-color:#808080;stop-opacity:0.1"/>
	</linearGradient>
	<polygon class="st59" points="620.6,634.7 418.6,634.7 418.6,652.4 430.4,652.4 430.4,655.9 430.4,708 609.3,708 609.3,655.9 
		609.3,652.4 620.6,652.4 	"/>
</g>
<rect x="432.2" y="645" class="st51" width="175.2" height="62.9"/>
<rect x="432.2" y="648.3" class="st6" width="175.2" height="9.9"/>
<rect x="420.7" y="638" class="st51" width="197.9" height="16.9"/>
<path class="st50" d="M451.4,633.9h33.2c1.3,0,2.3,1.1,2.3,2.3v0.7c0,1.3-1.1,2.3-2.3,2.3h-33.2c-1.3,0-2.3-1.1-2.3-2.3v-0.7
	C449,634.9,450.1,633.9,451.4,633.9z"/>
<g class="st29">
	
		<linearGradient id="SVGID_24_" gradientUnits="userSpaceOnUse" x1="519.1048" y1="118.6955" x2="519.1048" y2="183.7347" gradientTransform="matrix(1 0 0 -1 0 758)">
		<stop  offset="0" style="stop-color:#808080;stop-opacity:0.25"/>
		<stop  offset="0.54" style="stop-color:#808080;stop-opacity:0.12"/>
		<stop  offset="1" style="stop-color:#808080;stop-opacity:0.1"/>
	</linearGradient>
	<path class="st60" d="M482.3,574.3h73.7c5.6,0,10.2,4.6,10.2,10.2v44.7c0,5.6-4.6,10.2-10.2,10.2h-73.7c-5.6,0-10.2-4.6-10.2-10.2
		v-44.7C472.1,578.8,476.6,574.3,482.3,574.3z"/>
</g>
<path class="st61" d="M483.4,575.5h69.7c5.4,0,9.7,4.3,9.7,9.7v44.5c0,5.4-4.3,9.7-9.7,9.7h-69.7c-5.4,0-9.7-4.3-9.7-9.7v-44.5
	C473.7,579.8,478.1,575.5,483.4,575.5z"/>
<path class="st50" d="M484.7,575.5h69.7c5.4,0,9.7,4.3,9.7,9.7v44.5c0,5.4-4.3,9.7-9.7,9.7h-69.7c-5.4,0-9.7-4.3-9.7-9.7v-44.5
	C475,579.8,479.3,575.5,484.7,575.5z"/>
<g>
	<g class="st62">
		
			<linearGradient id="SVGID_25_" gradientUnits="userSpaceOnUse" x1="780.28" y1="62.2223" x2="780.28" y2="101.1913" gradientTransform="matrix(0.941 0.3385 0.3385 -0.941 -58.8498 84.3173)">
			<stop  offset="0" style="stop-color:#808080;stop-opacity:0.25"/>
			<stop  offset="0.54" style="stop-color:#808080;stop-opacity:0.12"/>
			<stop  offset="1" style="stop-color:#808080;stop-opacity:0.1"/>
		</linearGradient>
		<polygon class="st63" points="683.2,285.1 696.4,248.4 722.9,258 709.7,294.6 		"/>
	</g>
	
		<rect x="684" y="257.7" transform="matrix(0.3385 -0.941 0.941 0.3385 209.7182 841.1202)" class="st64" width="38.1" height="27.5"/>
	
		<rect x="703" y="259.6" transform="matrix(0.3385 -0.941 0.941 0.3385 211.8054 840.3526)" class="st51" width="1.2" height="19.8"/>
	
		<rect x="702" y="262.4" transform="matrix(0.3385 -0.941 0.941 0.3385 208.4713 841.2662)" class="st51" width="1.2" height="19.8"/>
	
		<rect x="710.8" y="257" transform="matrix(0.3385 -0.941 0.941 0.3385 223.9375 842.7632)" class="st51" width="1.2" height="10.2"/>
	
		<rect x="709.7" y="260.7" transform="matrix(0.3385 -0.941 0.941 0.3385 220.6028 843.6776)" class="st4" width="1.2" height="8.4"/>
	
		<rect x="699.8" y="266.1" transform="matrix(0.3385 -0.941 0.941 0.3385 204.7712 840.8459)" class="st51" width="1.2" height="17.4"/>
	
		<rect x="697.7" y="269.7" transform="matrix(0.3385 -0.941 0.941 0.3385 201.0709 840.4254)" class="st51" width="1.2" height="15"/>
	
		<rect x="695.8" y="273.1" transform="matrix(0.3385 -0.941 0.941 0.3385 197.4625 840.3389)" class="st51" width="1.2" height="13.2"/>
	
		<rect x="696.5" y="274.8" transform="matrix(0.3385 -0.941 0.941 0.3385 194.6761 843.2532)" class="st51" width="1.2" height="16.8"/>
	<rect x="690.6" y="281" transform="matrix(0.3385 -0.941 0.941 0.3385 189.789 838.4987)" class="st4" width="1.2" height="6.6"/>
	<g class="st62">
		
			<linearGradient id="SVGID_26_" gradientUnits="userSpaceOnUse" x1="774.2581" y1="88.0782" x2="774.2581" y2="96.128" gradientTransform="matrix(0.941 0.3385 0.3385 -0.941 -58.9563 84.3027)">
			<stop  offset="0" style="stop-color:#808080;stop-opacity:0.25"/>
			<stop  offset="0.54" style="stop-color:#808080;stop-opacity:0.12"/>
			<stop  offset="1" style="stop-color:#808080;stop-opacity:0.1"/>
		</linearGradient>
		<path class="st65" d="M704.6,261c0.7-2.1-0.3-4.4-2.4-5.1s-4.4,0.3-5.1,2.4c-0.5,1.3-0.2,2.7,0.5,3.7c0,0,0,0,0,0
			c0.1,0.2,0.2,0.3,0.3,0.4l0,0c0.1,0.2,0.8,0.7,1.6,1l0,0c0.5,0.2,1.2,0.3,1.8,0.2c0,0,0,0,0,0c0.2,0,0.3-0.1,0.4-0.1l0,0
			C703.1,263.2,704.1,262.3,704.6,261z"/>
	</g>
	
		<ellipse transform="matrix(0.3385 -0.941 0.941 0.3385 219.3644 831.1218)" class="st64" cx="700.8" cy="259.5" rx="3.9" ry="3.9"/>
	<path class="st52" d="M698.8,260.5c0,0-0.9-0.2-1.2,1.4c0.1,0.2,0.2,0.3,0.3,0.4l1.1-1.5L698.8,260.5z"/>
	<path class="st52" d="M701.6,261.5c0,0,0.8,0.4,0,1.9c-0.2,0.1-0.3,0.1-0.5,0.1l0.1-1.8L701.6,261.5z"/>
	<path class="st66" d="M699.8,257.9c0,0-0.8,1.1-1,0.9c0,0,1.5,2.7,4.1,1.5c-0.1-0.5-0.2-0.9-0.4-1.4L699.8,257.9z"/>
	
		<ellipse transform="matrix(0.3385 -0.941 0.941 0.3385 220.8583 830.6767)" class="st66" cx="701.2" cy="258.3" rx="1.7" ry="1.7"/>
	<path class="st6" d="M701.6,261.5l-2.8-1l-0.7,1c0,0-0.3,0.5-0.2,0.8c0.1,0.3,1.7,1.5,3.3,1.2c0.2-0.3,0.4-0.6,0.4-0.9
		c0-0.6,0-0.1,0-0.1L701.6,261.5z"/>
	<path class="st6" d="M701.7,261.5l-2.8-1l-0.7,1c0,0-0.3,0.5-0.2,0.8c0.1,0.3,1.7,1.5,3.3,1.2c0.2-0.3,0.4-0.6,0.4-0.9
		c0-0.6,0-0.1,0-0.1L701.7,261.5z"/>
	<path class="st67" d="M701.6,261.5l-2.8-1l-0.7,1c0,0-0.3,0.5-0.2,0.8c0.1,0.3,1.7,1.5,3.3,1.2c0.2-0.3,0.4-0.6,0.4-0.9
		c0-0.6,0-0.1,0-0.1L701.6,261.5z"/>
	<path class="st6" d="M700,259.8l1.1,0.4l0,0l-0.4,1c-0.1,0.2-0.4,0.4-0.6,0.3l-0.2-0.1c-0.2-0.1-0.4-0.4-0.3-0.6L700,259.8
		L700,259.8z"/>
	<path class="st52" d="M700,259.8l1.1,0.4l0,0l-0.4,1c-0.1,0.2-0.4,0.4-0.6,0.3l-0.2-0.1c-0.2-0.1-0.4-0.4-0.3-0.6L700,259.8
		L700,259.8z"/>
	<path class="st6" d="M700,260c0.3,0.3,0.7,0.4,1.1,0.4l0.1-0.1l-1.1-0.4L700,260z"/>
	
		<ellipse transform="matrix(0.3385 -0.941 0.941 0.3385 220.4432 830.7904)" class="st52" cx="701.1" cy="258.6" rx="1.7" ry="1.7"/>
	<path class="st66" d="M699.8,257.4l3.1,1.1c0,0,0.2-1.3-1-1.7C700.6,256.5,699.8,257.4,699.8,257.4z"/>
	<ellipse transform="matrix(0.3385 -0.941 0.941 0.3385 220.0117 828.8931)" class="st52" cx="699.5" cy="258" rx="0.3" ry="0.2"/>
	<ellipse transform="matrix(0.3385 -0.941 0.941 0.3385 221.036 832.6324)" class="st52" cx="702.7" cy="259.1" rx="0.3" ry="0.2"/>
	<path class="st6" d="M699.7,257.5l3.1,1.1c0,0,0.2-1.3-1-1.7C700.6,256.6,699.7,257.5,699.7,257.5z"/>
	<g class="st62">
		
			<linearGradient id="SVGID_27_" gradientUnits="userSpaceOnUse" x1="968.2768" y1="642.2604" x2="968.2768" y2="681.2294" gradientTransform="matrix(1.0022 3.541055e-02 3.541055e-02 -1.0022 -319.7079 900.5697)">
			<stop  offset="0" style="stop-color:#808080;stop-opacity:0.25"/>
			<stop  offset="0.54" style="stop-color:#808080;stop-opacity:0.12"/>
			<stop  offset="1" style="stop-color:#808080;stop-opacity:0.1"/>
		</linearGradient>
		<polygon class="st68" points="660.7,251.6 689,252.6 687.6,291.7 659.3,290.7 		"/>
	</g>
	
		<rect x="655.1" y="257.6" transform="matrix(3.305189e-02 -0.9995 0.9995 3.305189e-02 380.6776 936.16)" class="st64" width="38.1" height="27.5"/>
	
		<rect x="673.5" y="259.5" transform="matrix(3.305189e-02 -0.9995 0.9995 3.305189e-02 382.5179 934.1959)" class="st51" width="1.2" height="19.8"/>
	
		<rect x="673.4" y="262.5" transform="matrix(3.305189e-02 -0.9995 0.9995 3.305189e-02 379.4191 937.0015)" class="st51" width="1.2" height="19.8"/>
	
		<rect x="678.6" y="254.8" transform="matrix(3.305189e-02 -0.9995 0.9995 3.305189e-02 396.9224 930.1766)" class="st51" width="1.2" height="10.2"/>
	
		<rect x="678.5" y="258.8" transform="matrix(3.305189e-02 -0.9995 0.9995 3.305189e-02 393.8233 932.9818)" class="st4" width="1.2" height="8.4"/>
	
		<rect x="672.1" y="266.7" transform="matrix(3.305189e-02 -0.9995 0.9995 3.305189e-02 375.1984 938.5679)" class="st51" width="1.2" height="17.4"/>
	
		<rect x="670.8" y="270.8" transform="matrix(3.305189e-02 -0.9995 0.9995 3.305189e-02 370.9782 940.1332)" class="st51" width="1.2" height="15"/>
	
		<rect x="669.8" y="274.7" transform="matrix(3.305189e-02 -0.9995 0.9995 3.305189e-02 367.0374 942.0097)" class="st51" width="1.2" height="13.2"/>
	
		<rect x="671.5" y="276" transform="matrix(3.305189e-02 -0.9995 0.9995 3.305189e-02 365.6228 946.6738)" class="st51" width="1.2" height="16.8"/>
	
		<rect x="666.3" y="283.9" transform="matrix(3.305189e-02 -0.9995 0.9995 3.305189e-02 357.7546 944.2126)" class="st4" width="1.2" height="6.6"/>
	<g class="st62">
		
			<linearGradient id="SVGID_28_" gradientUnits="userSpaceOnUse" x1="965.0031" y1="665.7311" x2="965.0031" y2="674.008" gradientTransform="matrix(0.9995 3.305189e-02 3.305189e-02 -0.9995 -317.9467 898.338)">
			<stop  offset="0" style="stop-color:#808080;stop-opacity:0.25"/>
			<stop  offset="0.54" style="stop-color:#808080;stop-opacity:0.12"/>
			<stop  offset="1" style="stop-color:#808080;stop-opacity:0.1"/>
		</linearGradient>
		<path class="st69" d="M672.8,260.9c0.1-2.3-1.7-4.2-4-4.3s-4.2,1.7-4.3,4c0,1.4,0.6,2.7,1.7,3.5l0,0c0.1,0.1,0.3,0.2,0.5,0.3l0,0
			c0.2,0.2,1,0.5,1.9,0.5l0,0c0.6,0,1.2-0.1,1.8-0.4c0,0,0,0,0,0c0.1-0.1,0.3-0.1,0.4-0.3c0,0,0,0,0,0
			C672,263.5,672.7,262.2,672.8,260.9z"/>
	</g>
	
		<ellipse transform="matrix(3.305189e-02 -0.9995 0.9995 3.305189e-02 385.9985 920.4032)" class="st64" cx="668.7" cy="260.7" rx="4" ry="4"/>
	<path class="st53" d="M666.9,262.2c0,0-1,0-0.8,1.8c0.1,0.1,0.3,0.2,0.4,0.3l0.6-1.8L666.9,262.2z"/>
	<path class="st53" d="M670,262.3c0,0,1,0.1,0.6,1.8c-0.1,0.1-0.3,0.2-0.5,0.3l-0.5-1.8L670,262.3z"/>
	
		<ellipse transform="matrix(3.305189e-02 -0.9995 0.9995 3.305189e-02 387.2982 918.9274)" class="st66" cx="668.6" cy="259.3" rx="1.8" ry="1.8"/>
	<path class="st53" d="M670,262.3l-3.1-0.1l-0.3,1.2c0,0-0.2,0.6,0,0.8s2.2,0.9,3.6,0.2c0.1-0.3,0.2-0.7,0.1-1c-0.1-0.6,0,0,0,0
		L670,262.3z"/>
	<path class="st53" d="M670,262.3l-3.1-0.1l-0.3,1.2c0,0-0.2,0.6,0,0.8c0.2,0.3,2.2,0.9,3.6,0.2c0.1-0.3,0.2-0.7,0.1-1
		c-0.1-0.6,0,0,0,0L670,262.3z"/>
	<path class="st53" d="M670,262.3l-3.1-0.1l-0.3,1.2c0,0-0.2,0.6,0,0.8c0.2,0.3,2.2,0.9,3.6,0.2c0.1-0.3,0.2-0.7,0.1-1
		c-0.1-0.6,0,0,0,0L670,262.3z"/>
	<path class="st6" d="M667.9,261.2l1.2,0l0,0l0,1.1c0,0.3-0.2,0.5-0.5,0.5c0,0,0,0,0,0l-0.3,0c-0.3,0-0.5-0.2-0.5-0.5c0,0,0,0,0,0
		L667.9,261.2L667.9,261.2z"/>
	<path class="st52" d="M667.9,261.2l1.2,0l0,0l0,1.1c0,0.3-0.2,0.5-0.5,0.5c0,0,0,0,0,0l-0.3,0c-0.3,0-0.5-0.2-0.5-0.5c0,0,0,0,0,0
		L667.9,261.2L667.9,261.2z"/>
	<path class="st6" d="M667.9,261.4c0.4,0.2,0.8,0.2,1.2,0l0-0.2l-1.2,0L667.9,261.4z"/>
	
		<ellipse transform="matrix(3.305189e-02 -0.9995 0.9995 3.305189e-02 386.9017 919.2874)" class="st52" cx="668.5" cy="259.7" rx="1.8" ry="1.8"/>
	<path class="st6" d="M666.9,259l3.4,0.1c0,0-0.2-1.4-1.5-1.3C667.4,257.8,666.9,259,666.9,259z"/>
	<path class="st66" d="M666.9,259l3.4,0.1c0,0-0.2-1.4-1.5-1.3C667.5,257.8,666.9,259,666.9,259z"/>
	
		<ellipse transform="matrix(3.531006e-02 -0.9994 0.9994 3.531006e-02 383.7675 916.8914)" class="st52" cx="666.8" cy="259.7" rx="0.3" ry="0.2"/>
	
		<ellipse transform="matrix(3.305189e-02 -0.9995 0.9995 3.305189e-02 388.5926 920.997)" class="st52" cx="670.3" cy="259.7" rx="0.3" ry="0.2"/>
	<g class="st62">
		
			<linearGradient id="SVGID_29_" gradientUnits="userSpaceOnUse" x1="691.0948" y1="459.9554" x2="691.0948" y2="498.9244" gradientTransform="matrix(0.9809 0.1943 0.1943 -0.9809 -80.946 615.0901)">
			<stop  offset="0" style="stop-color:#808080;stop-opacity:0.25"/>
			<stop  offset="0.54" style="stop-color:#808080;stop-opacity:0.12"/>
			<stop  offset="1" style="stop-color:#808080;stop-opacity:0.1"/>
		</linearGradient>
		<polygon class="st70" points="680.1,257.2 707.8,262.7 700.2,300.9 672.5,295.4 		"/>
	</g>
	
		<rect x="671.1" y="265.2" transform="matrix(0.1943 -0.9809 0.9809 0.1943 282.4478 901.7412)" class="st5" width="38.1" height="27.5"/>
	<g class="st62">
		
			<linearGradient id="SVGID_30_" gradientUnits="userSpaceOnUse" x1="-1000.0099" y1="409.6454" x2="-1000.0099" y2="418.1055" gradientTransform="matrix(-0.9809 -0.1943 0.1943 -0.9809 -374.944 479.3481)">
			<stop  offset="0" style="stop-color:#808080;stop-opacity:0.25"/>
			<stop  offset="0.54" style="stop-color:#808080;stop-opacity:0.12"/>
			<stop  offset="1" style="stop-color:#808080;stop-opacity:0.1"/>
		</linearGradient>
		<path class="st71" d="M682.3,266.8c0.5-2.3,2.7-3.8,5-3.3c2.3,0.5,3.8,2.7,3.3,5c-0.3,1.4-1.2,2.5-2.5,3.1l0,0
			c-0.2,0.1-0.3,0.2-0.5,0.2l0,0c-0.2,0.1-1.1,0.2-2,0l0,0c-0.6-0.1-1.2-0.3-1.7-0.8c0,0,0,0,0,0c-0.1-0.1-0.2-0.2-0.3-0.3l0,0
			C682.4,269.6,682,268.2,682.3,266.8z"/>
	</g>
	
		<ellipse transform="matrix(0.1943 -0.9809 0.9809 0.1943 290.4984 888.9918)" class="st64" cx="686.4" cy="267.7" rx="4.1" ry="4.1"/>
	<path class="st72" d="M684.5,268.9c0,0-1-0.1-1.1,1.7c0.1,0.2,0.2,0.3,0.4,0.4l0.9-1.7L684.5,268.9z"/>
	<path class="st72" d="M687.7,269.5c0,0,0.9,0.3,0.3,2c-0.2,0.1-0.3,0.2-0.5,0.2l-0.2-1.9L687.7,269.5z"/>
	<path class="st66" d="M685.2,266c0,0-0.1,0.2-0.3,0.4c-0.3,0.5-0.5,2.6,0,3c0.6,0.4,1.3,0.7,2.2,0.5c0.8-0.1,1.5-2.4,1.1-3.1
		c0-0.1-0.1-0.2-0.1-0.2L685.2,266z"/>
	
		<ellipse transform="matrix(0.1943 -0.9809 0.9809 0.1943 292.1545 888.1082)" class="st66" cx="686.7" cy="266.2" rx="1.8" ry="1.8"/>
	<path class="st6" d="M687.6,269.5l-3.1-0.6l-0.5,1.2c0,0-0.3,0.5-0.1,0.8c0.2,0.3,2,1.3,3.6,0.8c0.2-0.3,0.3-0.7,0.2-1
		c-0.1-0.6,0,0,0,0L687.6,269.5z"/>
	<path class="st6" d="M687.7,269.5l-3.1-0.6l-0.5,1.2c0,0-0.3,0.5-0.1,0.8c0.2,0.3,2,1.3,3.6,0.8c0.2-0.3,0.3-0.7,0.2-1
		c-0.1-0.6,0,0,0,0L687.7,269.5z"/>
	<path class="st57" d="M687.7,269.5l-3.1-0.6l-0.5,1.2c0,0-0.3,0.5-0.1,0.8c0.2,0.3,2,1.3,3.6,0.8c0.2-0.3,0.3-0.7,0.2-1
		c-0.1-0.6,0,0,0,0L687.7,269.5z"/>
	<path class="st6" d="M685.7,268l1.2,0.2l0,0l-0.2,1.1c-0.1,0.3-0.3,0.4-0.6,0.4c0,0,0,0,0,0l-0.3-0.1c-0.3-0.1-0.4-0.3-0.4-0.6
		c0,0,0,0,0,0L685.7,268L685.7,268L685.7,268z"/>
	<path class="st72" d="M685.7,268l1.2,0.2l0,0l-0.2,1.1c-0.1,0.3-0.3,0.4-0.6,0.4c0,0,0,0,0,0l-0.3-0.1c-0.3-0.1-0.4-0.3-0.4-0.6
		c0,0,0,0,0,0L685.7,268L685.7,268L685.7,268z"/>
	<path class="st6" d="M685.7,268.2c0.4,0.2,0.8,0.3,1.2,0.2l0-0.2l-1.2-0.2L685.7,268.2z"/>
	
		<ellipse transform="matrix(0.1943 -0.9809 0.9809 0.1943 291.714 888.3442)" class="st72" cx="686.6" cy="266.6" rx="1.8" ry="1.8"/>
	<path class="st66" d="M685.1,265.6l3.4,0.7c0,0,0-1.4-1.3-1.6S685.1,265.6,685.1,265.6z"/>
	
		<ellipse transform="matrix(0.1943 -0.9809 0.9809 0.1943 290.7352 886.3116)" class="st72" cx="684.9" cy="266.2" rx="0.3" ry="0.2"/>
	
		<ellipse transform="matrix(0.1943 -0.9809 0.9809 0.1943 292.8598 890.2751)" class="st72" cx="688.4" cy="266.9" rx="0.3" ry="0.2"/>
	<path class="st6" d="M685.1,265.6l3.4,0.7c0,0,0-1.4-1.3-1.6S685.1,265.6,685.1,265.6z"/>
	
		<rect x="689.8" y="267.1" transform="matrix(0.1943 -0.9809 0.9809 0.1943 284.5101 900.4065)" class="st51" width="1.2" height="19.8"/>
	
		<rect x="689.2" y="270" transform="matrix(0.1943 -0.9809 0.9809 0.1943 281.1473 902.2092)" class="st51" width="1.2" height="19.8"/>
	
		<rect x="696.4" y="263.4" transform="matrix(0.1943 -0.9809 0.9809 0.1943 298.1556 900.0193)" class="st51" width="1.2" height="10.2"/>
	
		<rect x="695.8" y="267.2" transform="matrix(0.1943 -0.9809 0.9809 0.1943 294.7925 901.8216)" class="st4" width="1.2" height="8.4"/>
	
		<rect x="687.4" y="274" transform="matrix(0.1943 -0.9809 0.9809 0.1943 277.0635 902.667)" class="st51" width="1.2" height="17.4"/>
	
		<rect x="685.7" y="277.9" transform="matrix(0.1943 -0.9809 0.9809 0.1943 272.9795 903.1243)" class="st51" width="1.2" height="15"/>
	
		<rect x="684.2" y="281.5" transform="matrix(0.1943 -0.9809 0.9809 0.1943 269.075 903.9187)" class="st51" width="1.2" height="13.2"/>
	
		<rect x="685.4" y="283" transform="matrix(0.1943 -0.9809 0.9809 0.1943 266.7937 907.739)" class="st51" width="1.2" height="16.8"/>
	
		<rect x="679.8" y="290.1" transform="matrix(0.1943 -0.9809 0.9809 0.1943 260.3663 903.8247)" class="st4" width="1.2" height="6.6"/>
	<g class="st62">
		
			<linearGradient id="SVGID_31_" gradientUnits="userSpaceOnUse" x1="703.2946" y1="457.4558" x2="703.2946" y2="469.4718" gradientTransform="matrix(0.9809 0.1943 0.1943 -0.9809 -80.946 615.0901)">
			<stop  offset="0" style="stop-color:#808080;stop-opacity:0.25"/>
			<stop  offset="0.54" style="stop-color:#808080;stop-opacity:0.12"/>
			<stop  offset="1" style="stop-color:#808080;stop-opacity:0.1"/>
		</linearGradient>
		<circle class="st73" cx="699" cy="297.1" r="6"/>
	</g>
	
		<ellipse transform="matrix(0.1943 -0.9809 0.9809 0.1943 271.7295 925.0579)" class="st74" cx="699" cy="297.1" rx="5.7" ry="5.7"/>
	<polygon class="st5" points="696.7,295.9 698.4,298.2 702.2,294.5 703.1,295.5 698.1,299.9 695.8,296.1 	"/>
</g>
<circle class="st51" cx="523.7" cy="606.9" r="2.9"/>
<path class="st6" d="M405.9,646.3c0,0,2.4,3.6,9.7,4.7"/>
<g>
	<g class="st62">
		
			<linearGradient id="SVGID_32_" gradientUnits="userSpaceOnUse" x1="501.8627" y1="-37.5295" x2="501.8627" y2="16.5232" gradientTransform="matrix(0.9954 9.611052e-02 9.611052e-02 -0.9954 -136.3916 134.7183)">
			<stop  offset="0" style="stop-color:#808080;stop-opacity:0.25"/>
			<stop  offset="0.54" style="stop-color:#808080;stop-opacity:0.12"/>
			<stop  offset="1" style="stop-color:#808080;stop-opacity:0.1"/>
		</linearGradient>
		<polygon class="st75" points="340.1,218.4 345.3,164.6 384.2,168.4 379,222.2 		"/>
	</g>
	
		<rect x="335.7" y="174.1" transform="matrix(9.611052e-02 -0.9954 0.9954 9.611052e-02 135.0363 535.121)" class="st64" width="52.9" height="38.1"/>
	
		<rect x="361.4" y="176.8" transform="matrix(9.611048e-02 -0.9954 0.9954 9.611048e-02 137.7329 532.7274)" class="st51" width="1.7" height="27.5"/>
	
		<rect x="361" y="180.9" transform="matrix(9.611048e-02 -0.9954 0.9954 9.611048e-02 133.2404 536.0792)" class="st51" width="1.7" height="27.5"/>
	
		<rect x="369.3" y="170.8" transform="matrix(9.611048e-02 -0.9954 0.9954 9.611048e-02 157.4733 529.1879)" class="st51" width="1.7" height="14.2"/>
	
		<rect x="368.9" y="176.2" transform="matrix(9.611048e-02 -0.9954 0.9954 9.611048e-02 152.9803 532.5413)" class="st4" width="1.7" height="11.7"/>
	
		<rect x="358.9" y="186.6" transform="matrix(9.611048e-02 -0.9954 0.9954 9.611048e-02 127.4062 537.6343)" class="st51" width="1.7" height="24.2"/>
	
		<rect x="356.8" y="192.2" transform="matrix(9.611048e-02 -0.9954 0.9954 9.611048e-02 121.5716 539.1887)" class="st51" width="1.7" height="20.8"/>
	
		<rect x="355.2" y="197.5" transform="matrix(9.611048e-02 -0.9954 0.9954 9.611048e-02 116.0733 541.1932)" class="st51" width="1.7" height="18.3"/>
	
		<rect x="357.3" y="199.4" transform="matrix(9.611048e-02 -0.9954 0.9954 9.611048e-02 113.5915 547.2412)" class="st51" width="1.7" height="23.3"/>
	
		<rect x="349.8" y="210" transform="matrix(9.611048e-02 -0.9954 0.9954 9.611048e-02 103.4009 542.9557)" class="st4" width="1.7" height="9.2"/>
	<g class="st62">
		
			<linearGradient id="SVGID_33_" gradientUnits="userSpaceOnUse" x1="493.469" y1="-1.6742" x2="493.469" y2="9.4913" gradientTransform="matrix(0.9954 9.611048e-02 9.611048e-02 -0.9954 -136.4984 134.7305)">
			<stop  offset="0" style="stop-color:#808080;stop-opacity:0.25"/>
			<stop  offset="0.54" style="stop-color:#808080;stop-opacity:0.12"/>
			<stop  offset="1" style="stop-color:#808080;stop-opacity:0.1"/>
		</linearGradient>
		<path class="st76" d="M360.6,178.8c0.3-3.1-1.9-5.8-5-6.1s-5.8,1.9-6.1,5c-0.2,1.8,0.6,3.7,2,4.8c0,0,0,0,0,0
			c0.2,0.2,0.4,0.3,0.6,0.5l0,0c0.2,0.2,1.3,0.7,2.6,0.8l0,0c0.8,0.1,1.7,0,2.5-0.3c0,0,0,0,0,0c0.2-0.1,0.4-0.2,0.6-0.3l0-0.1
			C359.4,182.2,360.4,180.6,360.6,178.8z"/>
	</g>
	
		<ellipse transform="matrix(9.611052e-02 -0.9954 0.9954 9.611052e-02 143.6818 514.3206)" class="st64" cx="355" cy="178" rx="5.4" ry="5.4"/>
	<path class="st52" d="M352.7,180c0,0-1.3,0-1.2,2.3c0.2,0.2,0.4,0.3,0.6,0.4l1-2.4L352.7,180z"/>
	<path class="st52" d="M356.8,180.4c0,0,1.3,0.2,0.7,2.5c-0.2,0.2-0.4,0.3-0.6,0.3l-0.5-2.5L356.8,180.4z"/>
	<path class="st66" d="M353.1,176.1c0,0-0.8,1.7-1.1,1.5c0,0,2.9,3.1,6,0.6c-0.3-0.6-0.6-1.2-1.1-1.7L353.1,176.1z"/>
	
		<ellipse transform="matrix(9.611052e-02 -0.9954 0.9954 9.611052e-02 145.6736 512.7646)" class="st66" cx="355.2" cy="176.2" rx="2.4" ry="2.4"/>
	<path class="st6" d="M356.8,180.4l-4.2-0.4l-0.5,1.6c0,0-0.3,0.7-0.1,1.1c0.3,0.4,2.8,1.4,4.9,0.5c0.2-0.4,0.3-0.9,0.2-1.4
		c-0.1-0.8,0-0.1,0-0.1L356.8,180.4z"/>
	<path class="st6" d="M356.9,180.4l-4.2-0.4l-0.5,1.6c0,0-0.3,0.7-0.1,1.1c0.3,0.4,2.8,1.4,4.9,0.5c0.2-0.4,0.3-0.9,0.2-1.4
		c-0.1-0.8,0-0.1,0-0.1L356.9,180.4z"/>
	<path class="st67" d="M356.8,180.4l-4.2-0.4l-0.5,1.6c0,0-0.3,0.7-0.1,1.1c0.3,0.4,2.8,1.4,4.9,0.5c0.2-0.4,0.3-0.9,0.2-1.4
		c-0.1-0.8,0-0.1,0-0.1L356.8,180.4z"/>
	<path class="st6" d="M354.1,178.7l1.7,0.2l0,0l-0.1,1.5c0,0.4-0.4,0.6-0.7,0.6l-0.3,0c-0.4,0-0.6-0.4-0.6-0.7L354.1,178.7
		L354.1,178.7z"/>
	<path class="st52" d="M354.1,178.6l1.7,0.2l0,0l-0.1,1.5c0,0.4-0.4,0.6-0.7,0.6l-0.3,0c-0.4,0-0.6-0.4-0.6-0.7L354.1,178.6
		L354.1,178.6z"/>
	<path class="st6" d="M354.1,178.9c0.5,0.3,1.1,0.3,1.7,0.2l0-0.2l-1.7-0.2L354.1,178.9z"/>
	
		<ellipse transform="matrix(9.611052e-02 -0.9954 0.9954 9.611052e-02 145.1142 513.1819)" class="st52" cx="355.1" cy="176.7" rx="2.4" ry="2.4"/>
	<path class="st66" d="M352.9,175.6l4.5,0.4c0,0-0.2-1.9-1.9-1.9S352.9,175.6,352.9,175.6z"/>
	
		<ellipse transform="matrix(9.611052e-02 -0.9954 0.9954 9.611052e-02 143.3403 510.5731)" class="st52" cx="352.8" cy="176.4" rx="0.4" ry="0.2"/>
	
		<ellipse transform="matrix(9.611052e-02 -0.9954 0.9954 9.611052e-02 147.0991 515.6117)" class="st52" cx="357.4" cy="176.8" rx="0.4" ry="0.2"/>
	<path class="st6" d="M352.9,175.6l4.5,0.4c0,0-0.2-1.9-1.9-1.9S352.9,175.6,352.9,175.6z"/>
	<g class="st62">
		
			<linearGradient id="SVGID_34_" gradientUnits="userSpaceOnUse" x1="664.6958" y1="631.4066" x2="664.6958" y2="685.4592" gradientTransform="matrix(0.98 -0.2127 -0.2127 -0.98 -188.0188 990.0835)">
			<stop  offset="0" style="stop-color:#808080;stop-opacity:0.25"/>
			<stop  offset="0.54" style="stop-color:#808080;stop-opacity:0.12"/>
			<stop  offset="1" style="stop-color:#808080;stop-opacity:0.1"/>
		</linearGradient>
		<polygon class="st77" points="298.4,181.1 336.8,172.8 348.3,225.7 309.9,234.1 		"/>
	</g>
	
		<rect x="304.2" y="176.6" transform="matrix(0.9768 -0.2143 0.2143 0.9768 -35.9968 73.9916)" class="st64" width="38.1" height="52.9"/>
	
		<rect x="308.7" y="199.6" transform="matrix(0.9768 -0.2143 0.2143 0.9768 -35.4651 73.763)" class="st51" width="27.5" height="1.7"/>
	
		<rect x="309.6" y="203.7" transform="matrix(0.9768 -0.2143 0.2143 0.9768 -36.3171 74.0491)" class="st51" width="27.5" height="1.7"/>
	
		<rect x="319" y="185.2" transform="matrix(0.9768 -0.2143 0.2143 0.9768 -32.2811 74.2108)" class="st51" width="14.2" height="1.7"/>
	
		<rect x="321.2" y="189.2" transform="matrix(0.9768 -0.2143 0.2143 0.9768 -33.1331 74.4968)" class="st4" width="11.7" height="1.7"/>
	
		<rect x="310.5" y="208.1" transform="matrix(0.9768 -0.2143 0.2143 0.9768 -37.2835 73.9945)" class="st51" width="24.2" height="1.7"/>
	
		<rect x="311.5" y="212.5" transform="matrix(0.9768 -0.2143 0.2143 0.9768 -38.2498 73.9397)" class="st51" width="20.8" height="1.7"/>
	
		<rect x="312.4" y="216.9" transform="matrix(0.9768 -0.2143 0.2143 0.9768 -39.1877 73.9702)" class="st51" width="18.3" height="1.7"/>
	
		<rect x="313.2" y="220.4" transform="matrix(0.9768 -0.2143 0.2143 0.9768 -39.8679 74.7674)" class="st51" width="23.3" height="1.7"/>
	
		<rect x="314.3" y="226" transform="matrix(0.9768 -0.2143 0.2143 0.9768 -41.2063 73.6053)" class="st4" width="9.2" height="1.7"/>
	<g class="st62">
		
			<linearGradient id="SVGID_35_" gradientUnits="userSpaceOnUse" x1="658.291" y1="665.6474" x2="658.291" y2="677.1279" gradientTransform="matrix(0.9768 -0.2143 -0.2143 -0.9768 -186.8621 987.4865)">
			<stop  offset="0" style="stop-color:#808080;stop-opacity:0.25"/>
			<stop  offset="0.54" style="stop-color:#808080;stop-opacity:0.12"/>
			<stop  offset="1" style="stop-color:#808080;stop-opacity:0.1"/>
		</linearGradient>
		<path class="st78" d="M317.8,189.4c-0.7-3.1-3.7-5-6.8-4.4c-3.1,0.7-5,3.7-4.4,6.8c0.4,1.9,1.7,3.4,3.5,4.1l0,0
			c0.2,0.1,0.5,0.2,0.7,0.3l0,0c0.3,0.2,1.5,0.3,2.8,0l0,0c0.8-0.2,1.6-0.5,2.3-1.1c0,0,0,0,0,0c0.2-0.1,0.3-0.3,0.4-0.5
			c0,0,0,0,0-0.1C317.7,193.1,318.2,191.2,317.8,189.4z"/>
	</g>
	
		<ellipse transform="matrix(0.9768 -0.2143 0.2143 0.9768 -33.5922 71.345)" class="st64" cx="312.2" cy="190.6" rx="5.5" ry="5.5"/>
	<path class="st53" d="M310.4,193.2c0,0-1.3,0.4-0.4,2.7c0.2,0.1,0.5,0.2,0.7,0.3l0.2-2.6L310.4,193.2z"/>
	<path class="st53" d="M314.6,192.3c0,0,1.3-0.2,1.5,2.3c-0.1,0.2-0.3,0.4-0.5,0.5l-1.3-2.3L314.6,192.3z"/>
	
		<ellipse transform="matrix(0.9768 -0.2143 0.2143 0.9768 -33.2091 71.1661)" class="st66" cx="311.6" cy="188.7" rx="2.5" ry="2.5"/>
	<path class="st53" d="M314.5,192.3l-4.2,0.9l0,1.8c0,0-0.1,0.8,0.3,1.1c0.4,0.3,3.2,0.5,4.9-1c0.1-0.5,0-1-0.3-1.4
		c-0.4-0.7-0.1,0-0.1,0L314.5,192.3z"/>
	<path class="st53" d="M314.6,192.3l-4.2,0.9l0,1.8c0,0-0.1,0.8,0.3,1.1c0.4,0.3,3.2,0.5,4.9-1c0.1-0.5,0-1-0.3-1.4
		c-0.4-0.7-0.1,0-0.1,0L314.6,192.3z"/>
	<path class="st53" d="M314.6,192.3l-4.2,0.9l0,1.8c0,0-0.1,0.8,0.3,1.1c0.4,0.3,3.2,0.5,4.9-1c0.1-0.5,0-1-0.3-1.4
		c-0.4-0.7-0.1,0-0.1,0L314.6,192.3z"/>
	<path class="st6" d="M311.3,191.6l1.7-0.4l0,0l0.3,1.5c0.1,0.4-0.1,0.7-0.5,0.8c0,0,0,0,0,0l-0.4,0.1c-0.4,0.1-0.7-0.1-0.8-0.5
		c0,0,0,0,0,0L311.3,191.6L311.3,191.6z"/>
	<path class="st52" d="M311.3,191.5l1.7-0.4l0,0l0.3,1.5c0.1,0.4-0.1,0.7-0.5,0.8c0,0,0,0,0,0l-0.4,0.1c-0.4,0.1-0.7-0.1-0.8-0.5
		c0,0,0,0,0,0L311.3,191.5L311.3,191.5z"/>
	<path class="st6" d="M311.4,191.7c0.6,0.1,1.2,0,1.7-0.4l0-0.2l-1.7,0.4L311.4,191.7z"/>
	
		<ellipse transform="matrix(0.9768 -0.2143 0.2143 0.9768 -33.3183 71.2029)" class="st52" cx="311.7" cy="189.3" rx="2.5" ry="2.5"/>
	<path class="st6" d="M309.2,188.9l4.6-1c0,0-0.8-1.8-2.5-1.3S309.2,188.9,309.2,188.9z"/>
	<path class="st66" d="M309.2,188.9l4.6-1c0,0-0.8-1.8-2.5-1.3S309.2,188.9,309.2,188.9z"/>
	
		<ellipse transform="matrix(0.9772 -0.2121 0.2121 0.9772 -33.2217 69.9402)" class="st52" cx="309.4" cy="189.8" rx="0.2" ry="0.4"/>
	<ellipse transform="matrix(0.9768 -0.2143 0.2143 0.9768 -33.1322 71.6853)" class="st52" cx="314" cy="188.6" rx="0.2" ry="0.4"/>
	<g class="st62">
		
			<linearGradient id="SVGID_36_" gradientUnits="userSpaceOnUse" x1="397.7068" y1="398.9435" x2="397.7068" y2="452.9962" gradientTransform="matrix(0.9986 -5.346468e-02 -5.346468e-02 -0.9986 -26.9855 654.5629)">
			<stop  offset="0" style="stop-color:#808080;stop-opacity:0.25"/>
			<stop  offset="0.54" style="stop-color:#808080;stop-opacity:0.12"/>
			<stop  offset="1" style="stop-color:#808080;stop-opacity:0.1"/>
		</linearGradient>
		<polygon class="st79" points="326.4,182 365.5,179.9 368.4,233.9 329.3,236 		"/>
	</g>
	
		<rect x="328.3" y="181.3" transform="matrix(0.9986 -5.346468e-02 5.346468e-02 0.9986 -10.6099 18.869)" class="st5" width="38.1" height="52.9"/>
	<g class="st62">
		
			<linearGradient id="SVGID_37_" gradientUnits="userSpaceOnUse" x1="-704.3556" y1="358.5888" x2="-704.3556" y2="370.3237" gradientTransform="matrix(-0.9986 5.346468e-02 -5.346468e-02 -0.9986 -345.3702 595.4708)">
			<stop  offset="0" style="stop-color:#808080;stop-opacity:0.25"/>
			<stop  offset="0.54" style="stop-color:#808080;stop-opacity:0.12"/>
			<stop  offset="1" style="stop-color:#808080;stop-opacity:0.1"/>
		</linearGradient>
		<path class="st80" d="M332.6,194.2c-0.2-3.2,2.3-6,5.5-6.2c3.2-0.2,6,2.3,6.2,5.5c0.1,1.9-0.8,3.8-2.3,5l0,0
			c-0.2,0.2-0.4,0.3-0.6,0.5l0,0c-0.3,0.2-1.4,0.7-2.7,0.8l0,0c-0.8,0-1.8-0.1-2.6-0.4c0,0,0,0,0,0c-0.2-0.1-0.4-0.2-0.6-0.3l0-0.1
			C333.8,197.8,332.8,196.1,332.6,194.2z"/>
	</g>
	
		<ellipse transform="matrix(0.9986 -5.346468e-02 5.346468e-02 0.9986 -9.8805 18.3746)" class="st64" cx="338.5" cy="193.9" rx="5.7" ry="5.7"/>
	<path class="st72" d="M336.4,196.1c0,0-1.3,0.2-0.9,2.6c0.2,0.2,0.4,0.3,0.7,0.4l0.6-2.6L336.4,196.1z"/>
	<path class="st72" d="M340.8,195.9c0,0,1.4,0,1.1,2.5c-0.2,0.2-0.4,0.3-0.6,0.4l-0.9-2.5L340.8,195.9z"/>
	<path class="st66" d="M336.2,192.1c0,0-0.1,0.3-0.2,0.7c-0.3,0.8,0.2,3.7,1,4c0.9,0.3,2,0.5,3.2,0c1-0.4,1.1-3.8,0.4-4.6
		c-0.1-0.1-0.2-0.2-0.3-0.3L336.2,192.1z"/>
	
		<ellipse transform="matrix(0.9986 -5.346468e-02 5.346468e-02 0.9986 -9.7712 18.366)" class="st66" cx="338.4" cy="191.8" rx="2.5" ry="2.5"/>
	<path class="st6" d="M340.7,195.9l-4.4,0.2l-0.3,1.8c0,0-0.2,0.8,0.1,1.2c0.3,0.3,3.2,1,5.1-0.2c0.2-0.5,0.1-1,0-1.5
		c-0.3-0.8-0.1-0.1-0.1-0.1L340.7,195.9z"/>
	<path class="st6" d="M340.8,195.9l-4.4,0.2l-0.3,1.8c0,0-0.2,0.8,0.1,1.2c0.3,0.3,3.2,1,5.1-0.2c0.2-0.5,0.1-1,0-1.5
		c-0.3-0.8-0.1-0.1-0.1-0.1L340.8,195.9z"/>
	<path class="st57" d="M340.8,195.9l-4.4,0.2l-0.3,1.8c0,0-0.2,0.8,0.1,1.2c0.3,0.3,3.2,1,5.1-0.2c0.2-0.5,0.1-1,0-1.5
		c-0.3-0.8-0.1-0.1-0.1-0.1L340.8,195.9z"/>
	<path class="st6" d="M337.6,194.6l1.8-0.1l0,0l0.1,1.6c0,0.4-0.3,0.7-0.6,0.7c0,0,0,0,0,0l-0.4,0c-0.4,0-0.7-0.3-0.7-0.6
		c0,0,0,0,0,0L337.6,194.6L337.6,194.6L337.6,194.6z"/>
	<path class="st72" d="M337.6,194.5l1.8-0.1l0,0l0.1,1.6c0,0.4-0.3,0.7-0.6,0.7c0,0,0,0,0,0l-0.4,0c-0.4,0-0.7-0.3-0.7-0.6
		c0,0,0,0,0,0L337.6,194.5L337.6,194.5L337.6,194.5z"/>
	<path class="st6" d="M337.7,194.8c0.6,0.2,1.2,0.1,1.8-0.1l0-0.2l-1.8,0.1L337.7,194.8z"/>
	
		<ellipse transform="matrix(0.9986 -5.346468e-02 5.346468e-02 0.9986 -9.8003 18.3683)" class="st72" cx="338.4" cy="192.4" rx="2.5" ry="2.5"/>
	<path class="st66" d="M336,191.5l4.8-0.3c0,0-0.5-1.9-2.3-1.7S336,191.5,336,191.5z"/>
	
		<ellipse transform="matrix(0.9986 -5.346468e-02 5.346468e-02 0.9986 -9.8051 18.2366)" class="st72" cx="335.9" cy="192.4" rx="0.2" ry="0.4"/>
	
		<ellipse transform="matrix(0.9986 -5.346468e-02 5.346468e-02 0.9986 -9.7841 18.4985)" class="st72" cx="340.9" cy="192.1" rx="0.2" ry="0.4"/>
	<path class="st6" d="M336,191.6l4.8-0.3c0,0-0.5-1.9-2.3-1.7S336,191.6,336,191.6z"/>
	
		<rect x="333.2" y="204.2" transform="matrix(0.9986 -5.346468e-02 5.346468e-02 0.9986 -10.4682 18.8458)" class="st51" width="27.5" height="1.7"/>
	
		<rect x="333.5" y="208.4" transform="matrix(0.9986 -5.346468e-02 5.346468e-02 0.9986 -10.6905 18.8636)" class="st51" width="27.5" height="1.7"/>
	
		<rect x="345.9" y="190.6" transform="matrix(0.9986 -5.346468e-02 5.346468e-02 0.9986 -9.7284 19.1443)" class="st51" width="14.2" height="1.7"/>
	
		<rect x="347.3" y="194.7" transform="matrix(0.9986 -5.346468e-02 5.346468e-02 0.9986 -9.9507 19.1621)" class="st4" width="11.7" height="1.7"/>
	
		<rect x="333.7" y="212.7" transform="matrix(0.9986 -5.346468e-02 5.346468e-02 0.9986 -10.9199 18.7926)" class="st51" width="24.2" height="1.7"/>
	
		<rect x="333.9" y="216.9" transform="matrix(0.9986 -5.346468e-02 5.346468e-02 0.9986 -11.1494 18.7216)" class="st51" width="20.8" height="1.7"/>
	
		<rect x="334.1" y="221.1" transform="matrix(0.9986 -5.346468e-02 5.346468e-02 0.9986 -11.377 18.6728)" class="st51" width="18.3" height="1.7"/>
	
		<rect x="334.4" y="225.2" transform="matrix(0.9986 -5.346468e-02 5.346468e-02 0.9986 -11.5886 18.824)" class="st51" width="23.3" height="1.7"/>
	
		<rect x="334.6" y="229.7" transform="matrix(0.9986 -5.346468e-02 5.346468e-02 0.9986 -11.8412 18.464)" class="st4" width="9.2" height="1.7"/>
	<g class="st62">
		
			<linearGradient id="SVGID_38_" gradientUnits="userSpaceOnUse" x1="414.6285" y1="395.4764" x2="414.6285" y2="412.1434" gradientTransform="matrix(0.9986 -5.346468e-02 -5.346468e-02 -0.9986 -26.9855 654.5629)">
			<stop  offset="0" style="stop-color:#808080;stop-opacity:0.25"/>
			<stop  offset="0.54" style="stop-color:#808080;stop-opacity:0.12"/>
			<stop  offset="1" style="stop-color:#808080;stop-opacity:0.1"/>
		</linearGradient>
		<circle class="st81" cx="365.5" cy="229.2" r="8.3"/>
	</g>
	
		<ellipse transform="matrix(0.9986 -5.346468e-02 5.346468e-02 0.9986 -11.7294 19.867)" class="st74" cx="365.5" cy="229.2" rx="7.8" ry="7.8"/>
	<polygon class="st5" points="362,228.3 365.1,230.8 368.9,224.5 370.5,225.6 365.2,233.3 360.8,228.9 	"/>
</g>
<path class="st82" d="M650.9,270.8c0,0,4,0.1,3.8,3.7s2.2,9.9,2.2,9.9l-0.9,2.1c0,0-1.3,5.1-0.3,6.4s4.6,1.3,2.5,11.7
	c0,0-0.5,7.8,0.6,10.4s1.1,8.6,2.7,11.2c1.5,2.7,2.8,5.5,3.8,8.5c0,0-11.8,2.6-14.9,0.8s-22.1-0.9-22.1-0.9s0.1-3.2,0-3.5
	c-0.2-0.8,0-1.6,0.5-2.3c0.6-0.9,1.6-2.3,1.1-3.6s1.4-3.1,0.4-5.1s-2.2-2.4-2-3.4c0.1-1.3-0.3-2.5-1.1-3.4
	c-0.7-0.9-5.6-10.5-5.6-10.5l-0.8-4.5c0,0-6.3-4.6-6.2-6.8s2.4-5.2,2.4-5.2l6.1-6c0,0,3.4,3.6,6.6,2.4S640,275,640,275
	s2.5-1.4,2.7-2.4s1.7-0.1,1.7-0.1s2.3-1.2,2.7-0.8c0.8,0.4,1.6,0.7,2.5,0.8L650.9,270.8z"/>
<path class="st16" d="M681.9,235.1l-8.6,18.4c0,0-1.3,3.5-2.1,4.1s-4.5,11.5-4.5,11.5l-9.3,14.3l0,0l-0.6,1l-3.6-1l-2.5-9.5l0.2-2.8
	v-0.4c0,0,5.7-6,7-6.5c0,0,1,0.1,2.9-4.5s3.6-5.6,3.6-5.6l1-3.4l10.7-17.1c0,0,9-12.9,11.5-7.2S681.9,235.1,681.9,235.1z"/>
</svg>
