<?xml version="1.0" encoding="utf-8"?>
<!-- Generator: Adobe Illustrator 21.0.0, SVG Export Plug-In . SVG Version: 6.00 Build 0)  -->
<svg version="1.1" id="_x37_40546cb-34ca-4331-8221-ac3d3fc9ee67"
	 xmlns="http://www.w3.org/2000/svg" xmlns:xlink="http://www.w3.org/1999/xlink" x="0px" y="0px" viewBox="0 0 1120.6 481.4"
	 style="enable-background:new 0 0 1120.6 481.4;" xml:space="preserve">
<style type="text/css">
	.st0{opacity:0.1;fill:#6C63FF;enable-background:new    ;}
	.st1{fill:#D6D6E3;}
	.st2{fill:#AEBEE1;}
	.st3{fill:#535461;}
	.st4{opacity:0.1;enable-background:new    ;}
	.st5{fill:#E3EDF9;}
	.st6{fill:url(#SVGID_1_);}
	.st7{fill:#F8B9BF;}
	.st8{fill:#D9DFE8;}
	.st9{fill:#6C63FF;}
	.st10{opacity:0.1;}
	.st11{fill:#68739D;}
	.st12{fill:#6394E2;}
	.st13{fill:#B96B6B;}
	.st14{fill:none;stroke:#535461;stroke-width:2;stroke-miterlimit:10;}
	.st15{fill:url(#SVGID_2_);}
	.st16{fill:#FA595F;}
	.st17{fill:#F37291;}
	.st18{fill:#96A2D0;}
	.st19{fill:url(#SVGID_3_);}
	.st20{fill:url(#SVGID_4_);}
	.st21{fill:#EEEEEE;}
	.st22{fill:#BDBDBD;}
	.st23{fill:#F5F5F5;}
	.st24{fill:#69F0AE;}
	.st25{fill:#FFFFFF;}
	.st26{opacity:0.2;enable-background:new    ;}
	.st27{fill:#E0E0E0;}
	.st28{fill:url(#SVGID_5_);}
	.st29{fill:#FFFFFF;stroke:#FFFFFF;stroke-miterlimit:10;}
	.st30{fill:url(#SVGID_6_);}
	.st31{fill:url(#SVGID_7_);}
	.st32{fill:url(#SVGID_8_);}
	.st33{fill:url(#SVGID_9_);}
	.st34{fill:url(#SVGID_10_);}
	.st35{fill:url(#SVGID_11_);}
	.st36{fill:url(#SVGID_12_);}
	.st37{fill:url(#SVGID_13_);}
	.st38{fill:url(#SVGID_14_);}
	.st39{fill:url(#SVGID_15_);}
	.st40{fill:#3F3D56;}
	.st41{fill:#C8C8CE;}
</style>
<title>co-working</title>
<path class="st0" d="M1078.1,210.8c-19.5,29.3-14.5,69.9-4.7,102.2c3.3,10.8,7,22.2,4.8,34.1c-2.7,14.6-13.8,25.8-25.1,32.1
	c-20.6,11.5-44.6,10.5-62.4-2.4c-15.4-11.2-25.8-30.3-41.5-41c-26.2-17.8-61.2-8.3-91.4,7c-21.4,10.8-44.8,24.6-65.1,15.9
	c-14.2-6.1-23.5-22.4-28.1-40.1c-2.2-8.5-3.7-17.8-8.4-24.4c-2.8-3.9-6.6-6.6-10.5-8.8c-35.7-20.1-82.7-5.3-117.3-27.9
	c-23.3-15.3-37.2-46-42.3-78.5c-5.2-32.6-2.6-67.2,0.8-101.3c2.5-24.2,6-50.2,19.5-69.6c14.3-20.5,37.5-29.3,58-26.8
	S703-4.2,718.7,10.6c19.6,18.4,37.4,41.7,62.2,48.1c16.9,4.4,35.2,0.3,52.9-1.9c29.7-3.6,59.2-1.6,88.5,0.8
	c28,2.3,56.2,4.9,82.5,14.5c18.6,6.8,33.1,20.3,50.6,29.3c11.4,5.9,24.1,6.9,34.7,14.6c13.1,9.5,24.7,26.7,20.2,48
	C1106,184.2,1088.4,195.3,1078.1,210.8z"/>
<path class="st0" d="M451.5,45.9c11.7,33.1,47.2,53.6,78.8,65.2c10.6,3.8,22,7.7,30.2,16.6c10,10.9,12.4,26.5,10.6,39.3
	c-3.2,23.4-18.4,42-39.4,48.4c-18.2,5.5-39.7,2.4-57.7,8.5c-29.9,10.3-43.4,43.9-49.3,77.3c-4.2,23.6-7.3,50.6-26.4,61.6
	c-13.4,7.7-32.1,5.3-48.9-1.7c-8.2-3.4-16.5-7.8-24.6-8c-4.8-0.1-9.2,1.3-13.3,3.1c-37.5,16.4-53.9,63-92.7,77
	c-26.2,9.4-59.1,2.1-88.2-13.3c-29.2-15.4-55.3-38.3-80.5-61.5C32.1,341.9,13.5,323.5,6.1,301c-7.8-23.8-0.9-47.6,13.4-62.5
	c14.3-14.9,34.8-21.9,56-25.6c26.4-4.6,55.8-4.9,75.8-20.9c13.6-10.9,21.3-27.9,30.3-43.5c15-25.9,34.3-48.3,53.8-70.3
	c18.6-21.1,37.7-42,61.2-57.3c16.6-10.8,36.2-14.3,53.8-22.8c11.5-5.6,20-15.1,32.5-19c15.5-4.8,36.2-3.7,50.5,12.7
	C447,7.6,445.2,28.3,451.5,45.9z"/>
<rect x="998.4" y="101.6" class="st0" width="19.3" height="29.2"/>
<rect x="1000.2" y="104.4" class="st0" width="15.5" height="23.5"/>
<rect x="959.3" y="81.3" class="st0" width="29.6" height="29.2"/>
<rect x="962.1" y="84.2" class="st0" width="23.8" height="23.5"/>
<rect x="613.8" y="37.9" class="st0" width="90.4" height="2.4"/>
<rect x="613.8" y="49.7" class="st0" width="90.4" height="2.4"/>
<rect x="766.4" y="194.1" class="st1" width="9.2" height="103.3"/>
<path class="st2" d="M1045.5,204.9v-95.3c0-5.5,4.5-10,10-10l0,0c5.5,0,10,4.5,10,10v115.3c0,5.5-4.5,10-10,10l0,0h-62
	c-5.5,0-10-4.5-10-10l0,0l0,0c0-5.5,4.5-10,10-10l0,0h42C1041,214.9,1045.5,210.4,1045.5,204.9z"/>
<path class="st3" d="M1045.5,204.9v-95.3c0-5.5,4.5-10,10-10l0,0c5.5,0,10,4.5,10,10v115.3c0,5.5-4.5,10-10,10l0,0h-62
	c-5.5,0-10-4.5-10-10l0,0l0,0c0-5.5,4.5-10,10-10l0,0h42C1041,214.9,1045.5,210.4,1045.5,204.9z"/>
<path class="st1" d="M983.5,224.4c0.3-5.3,4.7-9.5,10-9.5h42c5.5,0,10-4.5,10-10l0,0v-95.3c0-5.3,4.2-9.8,9.5-10v124.7H983.5z"/>
<path class="st2" d="M674,208.1v-95.3c0-5.5-4.5-10-10-10l0,0c-5.5,0-10,4.5-10,10v115.3c0,5.5,4.5,10,10,10c0,0,0,0,0,0h62
	c5.5,0,10-4.5,10-10l0,0c0-5.5-4.5-10-10-10h-42C678.5,218.2,674,213.7,674,208.1C674,208.1,674,208.1,674,208.1z"/>
<path class="st3" d="M674,208.1v-95.3c0-5.5-4.5-10-10-10l0,0c-5.5,0-10,4.5-10,10v115.3c0,5.5,4.5,10,10,10c0,0,0,0,0,0h62
	c5.5,0,10-4.5,10-10l0,0c0-5.5-4.5-10-10-10h-42C678.5,218.2,674,213.7,674,208.1C674,208.1,674,208.1,674,208.1z"/>
<path class="st1" d="M736.1,227.6c-0.3-5.3-4.7-9.5-10-9.5h-42c-5.5,0-10-4.5-10-10c0,0,0,0,0,0v-95.3c0-5.3-4.2-9.7-9.5-10v124.7
	H736.1z"/>
<rect x="949.2" y="194.1" class="st1" width="9.2" height="105.7"/>
<rect x="766.4" y="194.1" class="st4" width="9.2" height="7.6"/>
<rect x="949.2" y="194.1" class="st4" width="9.2" height="7.6"/>
<path class="st4" d="M799.4,131.2c-0.1,1.6-0.3,3.3-0.6,4.9h-1.3v-4.9H799.4z"/>
<path class="st3" d="M837.2,182.6c0,1.7-1.2,3-2.7,3h-28.2v-2.9h23.5c1,0,1.6-1.2,1.1-2.2l-21.3-43.3c-0.3-0.6-0.9-1-1.6-1.1h-10.5
	v-4.9h13.3c0.5,0,0.9,0.3,1.2,0.7l24.4,47.1C836.9,180.1,837.2,181.3,837.2,182.6z"/>
<path class="st3" d="M785.4,174.7l-0.4,0.7l-3.6-2.4l11.2-86h2.9c0,0,0.1,0.4,0.3,1.1C797.7,95.6,807.2,137.6,785.4,174.7z"/>
<path class="st4" d="M795.8,88.1l-10.4,86.6l-0.4,0.7l-3.6-2.4l11.2-86h2.9C795.5,87,795.6,87.4,795.8,88.1z"/>
<rect x="742.3" y="127.4" transform="matrix(0.1189 -0.9929 0.9929 0.1189 563.4261 896.4925)" class="st1" width="89.2" height="6.8"/>
<path class="st5" d="M754.9,182.6c0,0.4-0.4,0.8-0.8,0.8h-1.2c-0.4,0-0.8-0.4-0.8-0.8c0,0,0-0.1,0-0.1c0-0.4,0.4-0.7,0.8-0.7h1.2
	c0.4,0,0.7,0.3,0.8,0.6C754.9,182.5,754.9,182.5,754.9,182.6z"/>
<path class="st5" d="M758.5,182.6c0,0.4-0.4,0.8-0.8,0.8h-1.2c-0.4,0-0.8-0.4-0.8-0.8c0-0.1,0-0.1,0-0.2c0-0.1,0.1-0.2,0.2-0.3
	c0.1-0.2,0.4-0.2,0.6-0.2h1.2c0.3,0,0.6,0.2,0.7,0.5C758.5,182.4,758.5,182.5,758.5,182.6z"/>
<path class="st5" d="M761.7,182.6c0,0.4-0.4,0.8-0.8,0.8h-1.2c-0.4,0-0.8-0.4-0.8-0.8c0-0.1,0-0.2,0.1-0.3c0.1-0.3,0.4-0.5,0.7-0.5
	h1.2C761.4,181.8,761.7,182.2,761.7,182.6C761.7,182.6,761.7,182.6,761.7,182.6L761.7,182.6z"/>
<path class="st5" d="M765.4,182.6c0,0.4-0.4,0.8-0.8,0.8h-1.2c-0.4,0-0.8-0.4-0.8-0.8c0-0.2,0.1-0.3,0.1-0.5l0.1-0.1
	c0.1-0.2,0.4-0.2,0.6-0.2h1.2c0.2,0,0.4,0.1,0.6,0.3C765.3,182.2,765.4,182.4,765.4,182.6z"/>
<path class="st4" d="M754.9,182.4c0,0.1,0,0.1,0,0.2c0,0.4-0.4,0.8-0.8,0.8h-1.2c-0.4,0-0.8-0.4-0.8-0.8c0,0,0-0.1,0-0.1
	L754.9,182.4z"/>
<path class="st4" d="M758.5,182.3c0,0.1,0.1,0.2,0.1,0.3c0,0.4-0.4,0.8-0.8,0.8h-1.2c-0.4,0-0.8-0.4-0.8-0.8c0-0.1,0-0.1,0-0.2
	L758.5,182.3z"/>
<path class="st4" d="M761.6,182.2c0.1,0.1,0.1,0.3,0.1,0.4c0,0.4-0.4,0.8-0.8,0.8h-1.2c-0.4,0-0.8-0.4-0.8-0.8c0-0.1,0-0.2,0.1-0.3
	L761.6,182.2z"/>
<path class="st4" d="M765.4,182.6c0,0.4-0.4,0.8-0.8,0.8h-1.2c-0.4,0-0.8-0.4-0.8-0.8c0-0.2,0.1-0.3,0.1-0.5l2.5-0.1
	C765.3,182.2,765.4,182.4,765.4,182.6z"/>
<path class="st1" d="M772.6,185.8h-23.3v-1.1c0-1,0.8-1.8,1.8-1.8l18.7-0.6c1.5-0.1,2.8,1.1,2.9,2.7c0,0,0,0.1,0,0.1L772.6,185.8z"
	/>
<path class="st3" d="M887.5,182.6c0,1.7,1.2,3,2.7,3h28.2v-2.9h-23.5c-1,0-1.6-1.2-1.1-2.2l21.3-43.3c0.3-0.6,0.9-1,1.6-1.1h10.5
	v-4.9H914c-0.5,0-0.9,0.3-1.1,0.7L888.4,179C887.9,180.1,887.6,181.3,887.5,182.6z"/>
<path class="st3" d="M939.3,174.7l0.4,0.7l3.6-2.4l-11.2-86h-2.9c0,0-0.1,0.4-0.3,1.1C927,95.6,917.6,137.6,939.3,174.7z"/>
<path class="st4" d="M929,88.1l10.4,86.6l0.4,0.7l3.6-2.4l-11.2-86h-2.9C929.3,87,929.2,87.4,929,88.1z"/>
<rect x="934.5" y="86.2" transform="matrix(0.9929 -0.1189 0.1189 0.9929 -8.8955 112.4694)" class="st1" width="6.8" height="89.2"/>
<path class="st5" d="M969.9,182.6c0,0.4,0.4,0.8,0.8,0.8h1.2c0.4,0,0.8-0.4,0.8-0.8l0,0c0,0,0-0.1,0-0.1c0-0.4-0.4-0.7-0.8-0.7h-1.2
	c-0.4,0-0.7,0.3-0.8,0.6C969.9,182.5,969.9,182.5,969.9,182.6z"/>
<path class="st5" d="M966.2,182.6c0,0.4,0.4,0.8,0.8,0.8h1.2c0.4,0,0.8-0.4,0.8-0.8l0,0c0-0.1,0-0.1,0-0.2c0-0.1-0.1-0.2-0.2-0.3
	c-0.1-0.2-0.4-0.2-0.6-0.2H967c-0.3,0-0.6,0.2-0.7,0.5C966.3,182.4,966.2,182.5,966.2,182.6z"/>
<path class="st5" d="M963,182.6c0,0.4,0.4,0.8,0.8,0.8h1.2c0.4,0,0.8-0.4,0.8-0.8l0,0c0-0.1,0-0.2-0.1-0.3c-0.1-0.3-0.4-0.5-0.7-0.5
	h-1.2C963.4,181.8,963,182.2,963,182.6C963,182.6,963,182.6,963,182.6L963,182.6z"/>
<path class="st5" d="M959.4,182.6c0,0.4,0.4,0.8,0.8,0.8h1.2c0.4,0,0.8-0.4,0.8-0.8c0-0.2-0.1-0.3-0.1-0.5L962,182
	c-0.1-0.2-0.4-0.2-0.6-0.2h-1.2c-0.2,0-0.4,0.1-0.6,0.3C959.5,182.2,959.4,182.4,959.4,182.6z"/>
<path class="st4" d="M969.9,182.4c0,0.1,0,0.1,0,0.2c0,0.4,0.4,0.8,0.8,0.8h1.2c0.4,0,0.8-0.4,0.8-0.8l0,0c0,0,0-0.1,0-0.1
	L969.9,182.4z"/>
<path class="st4" d="M966.3,182.3c0,0.1-0.1,0.2-0.1,0.3c0,0.4,0.4,0.8,0.8,0.8h1.2c0.4,0,0.8-0.4,0.8-0.8l0,0c0-0.1,0-0.1,0-0.2
	L966.3,182.3z"/>
<path class="st4" d="M963.1,182.2c-0.1,0.1-0.1,0.3-0.1,0.4c0,0.4,0.4,0.8,0.8,0.8h1.2c0.4,0,0.8-0.4,0.8-0.8l0,0
	c0-0.1,0-0.2-0.1-0.3L963.1,182.2z"/>
<path class="st4" d="M959.4,182.6c0,0.4,0.4,0.8,0.8,0.8h1.2c0.4,0,0.8-0.4,0.8-0.8c0-0.2-0.1-0.3-0.1-0.5l-2.5-0.1
	C959.5,182.2,959.4,182.4,959.4,182.6z"/>
<path class="st1" d="M952.2,185.8h23.3v-1.1c0-1-0.8-1.8-1.8-1.8l-18.7-0.6c-1.5-0.1-2.8,1.1-2.9,2.7c0,0,0,0.1,0,0.1L952.2,185.8z"
	/>
<linearGradient id="SVGID_1_" gradientUnits="userSpaceOnUse" x1="1032.9891" y1="220.7321" x2="1032.9891" y2="463.3182" gradientTransform="matrix(1 9.000000e-02 9.000000e-02 -1 -64.5721 435.3525)">
	<stop  offset="0" style="stop-color:#808080;stop-opacity:0.25"/>
	<stop  offset="0.54" style="stop-color:#808080;stop-opacity:0.12"/>
	<stop  offset="1" style="stop-color:#808080;stop-opacity:0.1"/>
</linearGradient>
<path class="st6" d="M1049.7,198.6c10.9-18.4,6.9-55.6,7.4-56.3c0.4-0.6-1.1-18.1-11.1-22.4c-1.8-3.6-3.6-7.6-3.6-7.6
	c-0.2,0.2-0.4,0.3-0.6,0.4c-0.1-0.2-0.2-0.4-0.2-0.7c-0.1-0.4-0.2-0.8-0.4-1.1c0.3,0.1,0.6,0.2,0.9,0.2c0.8,0.2,1.6,0.1,2.3-0.2
	c0.2-0.1,0.5-0.3,0.7-0.5c0.8-0.5,1.2-1.5,1.6-2.4l2.9-7c1.3-3.1,2.6-6.3,3.3-9.6c1-5,0.6-10.2-1.2-15c-0.7-1.8-1.6-3.7-3.3-4.7
	c-3.2-2.2-7.7-0.7-11.4-2c-1.2-0.4-2.3-1.1-3.5-1.6c-2.6-0.9-5.6-0.4-8.1,0.7c-2.5,1.2-4.6,3-6.8,4.7c-1.1,0.8-2.8,1.7-4.1,2.8
	c-1.2,1-2.2,2.1-2,3.7c0.2,1.8,2.1,2.8,3.8,3.2c0.3,0.1,0.6,0.1,0.9,0.2c-6.6,6.7-6.5,17.4,0.2,24c2,2,4.4,3.4,7.1,4.2
	c0.9,1.7,1.6,3.4,2.3,5.2c0.1,0.2,0.2,0.5,0.2,0.7c-2.9,0.8-5.1,1.5-5.5,1.9c-1.4,1.1,1.5,10.9,1.5,10.9c-0.7,0.9-1.5,2-2.2,3.1
	c-5.6,8.6-9.2,18.3-10.4,28.5c-0.5,3.7-1.1,7.5-1.9,11.2l-33.8-6.8l-0.1,0.8l-0.8-0.2l0,0l-2.5-0.6l-0.1,0.6l-0.4-0.2
	c-6.3-2.9-16.9-6.7-24-2.8c-7.6,4.1,8.8,9.5,19.2,12.4c-3.5,0.2-6.8,1-9.4,3c-7.6,5.7,13.9,8.7,24,9.7l0.4,0v0.2l3.5,0.3l0.8,0.1
	l0.1,1.3c0,0,5,0.8,11.8,1.8c-7.7,1.9-17.2,3.2-23.7,4c-7,0.8-12.9,5.7-14.8,12.5c-0.6,1.9-0.7,4-0.2,6c2,6.8-0.4,57.2-1,68.1
	l-12.4,7.1c0,0-19.3,2.4-6.5,6.9c1.2,0.4,2.3,0.7,3.5,0.9c-1.7,1.1-1.6,2.5,3.4,4.3c12.9,4.5,42.8-0.2,42.8-0.2s-0.7-5.3-1.7-9.7
	l0.3,0c0,0-3.1-11.5,1.6-17.3c4.7-5.8-0.8-49.9-0.8-49.9s8.2-3.4,32.7-3.6c19.8,5.1,29.4-13.1,29.3-22.5
	C1049.7,199,1049.7,198.8,1049.7,198.6z"/>
<path class="st7" d="M976.6,170l-2.1,8.5c0,0-1.9-0.4-4.7-1.1c-9.6-2.5-29.8-8.4-21.7-12.8c7-3.8,17.3-0.1,23.4,2.8
	c2.2,1.1,3.9,2,4.7,2.4C976.4,169.9,976.6,170,976.6,170z"/>
<path class="st4" d="M976,172.4l-1.5,6.1c0,0-1.9-0.4-4.7-1.1l1.7-10c2.2,1.1,3.9,2,4.7,2.4L976,172.4z"/>
<polygon class="st8" points="976,179.1 970.1,177.7 972,166.9 976.6,168.1 "/>
<polygon class="st4" points="976,179.1 973.5,178.5 974.4,167.6 976.6,168.1 "/>
<path class="st9" d="M1032.5,134.7c0,0-11.2-6.5-16.2,12.1c-5,18.6-5.5,27.2-5.5,27.2l-35.5-7.1l-1.1,13c0,0,37.9,12.3,42.7,11.4
	c4.8-0.9,20.3-26.9,20.3-26.9S1051.2,144.3,1032.5,134.7z"/>
<g class="st10">
	<path d="M976.6,170l-2.1,8.5c0,0-1.9-0.4-4.7-1.1c-9.6-2.5-29.8-8.4-21.7-12.8c7-3.8,17.3-0.1,23.4,2.8c2.2,1.1,3.9,2,4.7,2.4
		C976.4,169.9,976.6,170,976.6,170z"/>
	<path class="st4" d="M976,172.4l-1.5,6.1c0,0-1.9-0.4-4.7-1.1l1.7-10c2.2,1.1,3.9,2,4.7,2.4L976,172.4z"/>
	<polygon points="976,179.1 970.1,177.7 972,166.9 976.6,168.1 	"/>
	<polygon class="st4" points="976,179.1 973.5,178.5 974.4,167.6 976.6,168.1 	"/>
	<path d="M1032.5,135.2c0,0-11.2-6.5-16.2,12.1c-5,18.6-5.5,27.2-5.5,27.2l-35.5-7.1l-1.1,13c0,0,37.9,12.3,42.7,11.4
		c4.8-0.9,20.3-26.9,20.3-26.9S1051.2,144.8,1032.5,135.2z"/>
</g>
<path class="st11" d="M961,279l-14.5,8.3c0,0-18.8,2.3-6.3,6.7c12.5,4.4,41.6-0.2,41.6-0.2s-1.6-13.1-3.9-14.9
	C975.7,277.2,961,279,961,279z"/>
<path class="st12" d="M1017.5,185.4c0,0-7.2,3.8-20,7c-7.5,1.9-16.9,3.2-23.4,4c-6.8,0.7-12.5,5.5-14.4,12.1
	c-0.6,1.9-0.7,3.9-0.2,5.8c2.1,7.5-1.1,68.1-1.1,68.1l22,2c0,0-3-11.2,1.6-16.8c4.6-5.6-0.8-48.5-0.8-48.5s8-3.3,31.8-3.5
	c22.1,5.7,31.2-18.5,27.8-25.3C1037.4,183.6,1017.5,185.4,1017.5,185.4z"/>
<g class="st10">
	<path d="M961,279l-14.5,8.3c0,0-18.8,2.3-6.3,6.7c12.5,4.4,41.6-0.2,41.6-0.2s-1.6-13.1-3.9-14.9C975.7,277.2,961,279,961,279z"/>
	<path d="M1017.5,185.4c0,0-7.2,3.8-20,7c-7.5,1.9-16.9,3.2-23.4,4c-6.8,0.7-12.5,5.5-14.4,12.1c-0.6,1.9-0.7,3.9-0.2,5.8
		c2.1,7.5-1.1,68.1-1.1,68.1l22,2c0,0-3-11.2,1.6-16.8c4.6-5.6-0.8-48.5-0.8-48.5s8-3.3,31.8-3.5c22.1,5.7,31.2-18.5,27.8-25.3
		C1037.4,183.6,1017.5,185.4,1017.5,185.4z"/>
</g>
<path class="st11" d="M967.8,284.1l-14.5,8.3c0,0-18.8,2.3-6.3,6.7c12.5,4.4,41.6-0.2,41.6-0.2s-1.6-13.1-3.9-14.9
	C982.5,282.2,967.8,284.1,967.8,284.1z"/>
<path class="st12" d="M1019.8,220.7c-23.8,0.2-31.8,3.5-31.8,3.5s5.3,42.9,0.8,48.5s-1.6,16.8-1.6,16.8l-22-2c0,0,0-0.7,0.1-2
	c0.5-10.5,2.9-59.4,0.9-66.1c-0.5-1.9-0.4-3.9,0.2-5.8c1.9-6.6,7.6-11.4,14.4-12.1c6.5-0.8,15.9-2.1,23.4-4l0.4-0.1
	c12.6-3.2,19.6-6.9,19.6-6.9s19.9-1.8,23.3,5c0.5,1.1,0.7,2.2,0.7,3.4C1048.4,208,1039,225.7,1019.8,220.7z"/>
<path class="st7" d="M986.6,180.6l-0.8,8.7c0,0-1.9-0.1-4.8-0.4c-9.8-1-30.7-3.9-23.3-9.4c6.3-4.7,17-2.7,23.5-0.8
	c2.4,0.7,4.2,1.4,5,1.7C986.5,180.5,986.6,180.6,986.6,180.6z"/>
<path class="st7" d="M1045.2,123.6c0,0-2.9,2.3-6.6,4.8c-4,0.9-8.5,1.6-11.9,2.1c1.2-3.8,0.5-8-0.9-11.7c-1.5-3.9-3.4-7.5-5.9-10.9
	l19.9-6.2c-1.6,4-0.9,8.5,0.5,12.4C1041.6,117.5,1043.2,120.7,1045.2,123.6z"/>
<path class="st4" d="M986.4,183l-0.6,6.3c0,0-1.9-0.1-4.8-0.4l0.2-10.2c2.4,0.7,4.2,1.4,5,1.7L986.4,183z"/>
<polygon class="st8" points="987.4,189.7 981.4,189.1 981.6,178.2 986.4,178.7 "/>
<path class="st4" d="M1045.2,123.6c0,0-2.9,2.3-6.6,4.8c-4,0.9-8.5,1.6-11.9,2.1c1.2-3.8,0.5-8-0.9-11.7c4.9-1.4,11.8-3.2,14.5-4.7
	C1041.6,117.5,1043.2,120.7,1045.2,123.6z"/>
<path class="st8" d="M1041.2,114.4c0,0,3.3,7.6,5.4,11c2.1,3.4-24.4,6.6-24.4,6.6s-2.8-9.5-1.4-10.6S1038.9,116.6,1041.2,114.4z"/>
<path class="st4" d="M1048.3,198.9c-1.1,2-2.5,3.8-4.1,5.3c-11.7,11.1-30.9-0.5-39.6-6.8c12.6-3.2,19.6-6.9,19.6-6.9
	s19.9-1.8,23.3,5C1048.1,196.5,1048.3,197.7,1048.3,198.9z"/>
<path class="st9" d="M1044.2,203.4c-13.3,12.6-36.3-4.1-42.5-9c-1-0.8-1.6-1.3-1.6-1.3c2.4-2.3,4.6-7.1,6.3-13.1
	c1.6-5.7,2.7-11.5,3.4-17.3c1.2-9.9,4.7-19.4,10.1-27.7c0.7-1.1,1.4-2.1,2.1-3c5-6.4,13.5-10.5,13.5-10.5
	c17.8-5.2,20.2,21.2,19.8,22C1054.9,144.3,1059.7,188.7,1044.2,203.4z"/>
<path class="st4" d="M1046,167.3c0,0-11.5,28-16,29.6c-2.6,0.9-16.6-0.8-28.2-2.5c-1-0.8-1.6-1.3-1.6-1.3c2.4-2.3,4.6-7.1,6.3-13.1
	l14.8,0.7c0,0-0.8-8.5,1.4-27.7s14.2-14.4,14.2-14.4C1056.9,145.3,1046,167.3,1046,167.3z"/>
<polygon class="st4" points="987.4,189.7 984.8,189.4 984.1,178.5 986.4,178.7 "/>
<path class="st9" d="M1036.6,137.3c0,0-12.1-4.7-14.2,14.4c-2.2,19.2-1.4,27.7-1.4,27.7l-36.2-1.7l0.8,13c0,0,39.4,6.5,43.9,4.9
	c4.6-1.6,16-29.6,16-29.6S1056.6,144,1036.6,137.3z"/>
<path class="st4" d="M1037.4,109c-0.5-2.9,2.5-2.8,3.5-5.5l-19.9,6.2c1.4,1.9,2.6,3.8,3.7,5.9c1,0.3,2.1,0.5,3.2,0.6
	C1032.6,116.6,1034.1,111.9,1037.4,109z"/>
<ellipse transform="matrix(9.202299e-02 -0.9958 0.9958 9.202299e-02 836.0916 1112.981)" class="st7" cx="1028.3" cy="98" rx="16.5" ry="16.5"/>
<path class="st4" d="M1012.1,83.1c0.2,1.7,2,2.8,3.7,3.1s3.5,0.4,5,1.3c2.4,1.5,3,4.7,2.7,7.4c-0.2,1.6-0.4,3.5,0.9,4.4
	c0.4,0.2,0.9,0.4,1.3,0.5c1.3,0.3,2.7,0.3,4.1,0.1c0.8-0.1,1.6-0.3,2.4-0.1c1.2,0.4,2,1.7,2.2,2.9c0.2,1.3,0.1,2.6,0.3,3.8
	c0.6,3.2,3,5.8,6.3,6.5c0.7,0.2,1.5,0.1,2.2-0.2c0.9-0.5,1.4-1.5,1.7-2.4l2.8-6.8c1.3-3,2.6-6.1,3.2-9.4c1-4.9,0.6-9.9-1.1-14.6
	c-0.7-1.8-1.6-3.5-3.2-4.6c-3.1-2.1-7.5-0.7-11.1-1.9c-1.2-0.4-2.2-1.1-3.4-1.5c-2.5-0.9-5.4-0.4-7.9,0.7c-2.5,1.1-4.4,2.9-6.6,4.6
	C1015.7,78.6,1011.7,80.2,1012.1,83.1z"/>
<path class="st13" d="M1012.5,82.8c0.2,1.7,2,2.8,3.7,3.1c1.7,0.4,3.5,0.4,5,1.3c2.4,1.5,3,4.7,2.7,7.4c-0.2,1.6-0.4,3.5,0.9,4.4
	c0.4,0.2,0.9,0.4,1.3,0.5c1.3,0.3,2.7,0.3,4.1,0.1c0.8-0.1,1.6-0.3,2.4-0.1c1.2,0.4,2,1.7,2.2,2.9c0.2,1.3,0.1,2.6,0.3,3.8
	c0.6,3.2,3,5.8,6.3,6.5c0.7,0.2,1.5,0.1,2.2-0.2c0.9-0.5,1.4-1.5,1.7-2.4l2.8-6.8c1.3-3,2.6-6.1,3.2-9.4c1-4.9,0.6-9.9-1.1-14.6
	c-0.7-1.8-1.6-3.5-3.2-4.6c-3.1-2.1-7.5-0.7-11.1-1.9c-1.2-0.4-2.2-1.1-3.4-1.5c-2.5-0.9-5.4-0.4-7.9,0.7c-2.5,1.1-4.4,2.9-6.6,4.6
	C1016.1,78.3,1012.2,79.8,1012.5,82.8z"/>
<path class="st4" d="M1026.2,147.9c0,0-6.3,24.4-12.6,26.7s-3.5,2.9-3.5,2.9"/>
<rect x="1019.6" y="237.4" class="st1" width="6.8" height="44.9"/>
<rect x="1019.6" y="237.4" class="st4" width="6.8" height="3.3"/>
<path class="st1" d="M1005.9,237.2v0.9c0,1.2,1,2.2,2.2,2.2l0,0h29.8c1.2,0,2.2-1,2.2-2.2l0,0v-0.9c0-1.2-1-2.2-2.2-2.2l0,0h-29.8
	C1006.9,234.9,1005.9,235.9,1005.9,237.2L1005.9,237.2z"/>
<path class="st4" d="M1006.4,235.7h33.2c-0.4-0.5-1-0.8-1.7-0.8h-29.8C1007.5,234.9,1006.9,235.2,1006.4,235.7z"/>
<path class="st1" d="M997.5,279.9h51c1.4,0,2.6,1.2,2.6,2.6v0.2c0,1.4-1.2,2.6-2.6,2.6h-51c-1.4,0-2.6-1.2-2.6-2.6v-0.2
	C995,281,996.1,279.9,997.5,279.9z"/>
<circle class="st3" cx="1048" cy="288.7" r="3.4"/>
<circle class="st3" cx="998.1" cy="288.7" r="3.4"/>
<circle class="st3" cx="1023" cy="288.7" r="3.4"/>
<path class="st1" d="M1019.8,182.2h45.7c2.2,0,4,1.8,4,4v0.3c0,2.2-1.8,4-4,4h-45.7c-2.2,0-4-1.8-4-4v-0.3
	C1015.8,184,1017.6,182.2,1019.8,182.2z"/>
<path class="st4" d="M1026.5,279.9c0,0-2.7,2.7-6.8,0"/>
<path class="st4" d="M1069.5,186.4v0.7c0,1.9-1.5,3.4-3.4,3.4h-46.9c-1.9,0-3.4-1.5-3.4-3.4v-0.7H1069.5z"/>
<rect x="970.9" y="194.1" class="st1" width="9.2" height="117.7"/>
<rect x="970.9" y="194.1" class="st4" width="9.2" height="7.6"/>
<rect x="693.1" y="240.6" class="st1" width="6.8" height="44.9"/>
<rect x="693.1" y="240.6" class="st4" width="6.8" height="3.3"/>
<path class="st1" d="M713.6,240.4v0.9c0,1.2-1,2.2-2.2,2.2l0,0h-29.8c-1.2,0-2.2-1-2.2-2.2l0,0v-0.9c0-1.2,1-2.2,2.2-2.2h29.8
	C712.6,238.2,713.6,239.2,713.6,240.4L713.6,240.4L713.6,240.4z"/>
<path class="st4" d="M713.1,239h-33.2c0.4-0.5,1-0.8,1.7-0.8h29.8C712,238.2,712.7,238.5,713.1,239z"/>
<path class="st1" d="M671,283.1h51c1.4,0,2.6,1.2,2.6,2.6v0.2c0,1.4-1.2,2.6-2.6,2.6h-51c-1.4,0-2.6-1.2-2.6-2.6v-0.2
	C668.4,284.3,669.6,283.1,671,283.1z"/>
<circle class="st3" cx="671.6" cy="291.9" r="3.4"/>
<circle class="st3" cx="721.4" cy="291.9" r="3.4"/>
<circle class="st3" cx="696.5" cy="291.9" r="3.4"/>
<path class="st4" d="M693.1,283.1c0,0,2.7,2.7,6.8,0"/>
<path class="st14" d="M867.5,147.8c0,0-7.7-13.9-4.9-26.1c1.2-5.1,0.7-10.4-1.3-15.2c-1-2.3-2.2-4.4-3.6-6.5"/>
<path class="st9" d="M859.4,92.4c0.4,1.8-1.7,7.9-1.7,7.9s-4.5-4.6-4.9-6.4c-0.5-1.8,0.5-3.7,2.3-4.2c1.8-0.5,3.7,0.5,4.2,2.3
	C859.3,92.1,859.4,92.3,859.4,92.4L859.4,92.4z"/>
<path class="st9" d="M867.1,101.3c-0.7,1.8-5.7,5.7-5.7,5.7s-1.3-6.3-0.6-8c0.6-1.8,2.5-2.8,4.3-2.2c1.8,0.6,2.8,2.5,2.2,4.3
	C867.2,101.2,867.1,101.3,867.1,101.3L867.1,101.3z"/>
<path class="st9" d="M870.7,118.7c-1.5,1.2-7.8,2-7.8,2s2.1-6.1,3.5-7.2c1.4-1.2,3.6-1,4.8,0.4C872.4,115.3,872.2,117.5,870.7,118.7
	C870.7,118.7,870.7,118.7,870.7,118.7z"/>
<path class="st9" d="M870.4,132.4c-1.2,1.4-7.4,3.3-7.4,3.3s1-6.3,2.2-7.7c1.2-1.4,3.3-1.7,4.8-0.5c1.4,1.2,1.7,3.3,0.5,4.8
	C870.5,132.3,870.5,132.4,870.4,132.4L870.4,132.4z"/>
<path class="st9" d="M854.5,108.9c1.6,1,8,0.9,8,0.9s-2.8-5.7-4.4-6.7c-1.6-1-3.7-0.6-4.7,1c-1,1.6-0.6,3.7,1,4.7
	C854.4,108.8,854.5,108.8,854.5,108.9L854.5,108.9z"/>
<path class="st9" d="M854.4,124.9c1.8,0.5,7.9-1.5,7.9-1.5s-4.4-4.6-6.2-5.1c-1.8-0.4-3.6,0.8-4,2.6
	C851.7,122.7,852.7,124.4,854.4,124.9z"/>
<path class="st9" d="M856.5,140.6c1.7,0.8,8-0.1,8-0.1s-3.6-5.3-5.3-6.1c-1.7-0.8-3.7,0-4.5,1.7C854,137.8,854.7,139.8,856.5,140.6
	L856.5,140.6z"/>
<path class="st9" d="M859.4,92.4c0.4,1.8-1.7,7.9-1.7,7.9s-4.5-4.6-4.9-6.4c-0.5-1.8,0.5-3.7,2.3-4.2c1.8-0.5,3.7,0.5,4.2,2.3
	C859.3,92.1,859.4,92.3,859.4,92.4L859.4,92.4z"/>
<path class="st9" d="M867.1,101.3c-0.7,1.8-5.7,5.7-5.7,5.7s-1.3-6.3-0.6-8c0.6-1.8,2.5-2.8,4.3-2.2c1.8,0.6,2.8,2.5,2.2,4.3
	C867.2,101.2,867.1,101.3,867.1,101.3L867.1,101.3z"/>
<path class="st9" d="M870.7,118.7c-1.5,1.2-7.8,2-7.8,2s2.1-6.1,3.5-7.2c1.4-1.2,3.6-1,4.8,0.4C872.4,115.3,872.2,117.5,870.7,118.7
	C870.7,118.7,870.7,118.7,870.7,118.7z"/>
<path class="st9" d="M870.4,132.4c-1.2,1.4-7.4,3.3-7.4,3.3s1-6.3,2.2-7.7c1.2-1.4,3.3-1.7,4.8-0.5c1.4,1.2,1.7,3.3,0.5,4.8
	C870.5,132.3,870.5,132.4,870.4,132.4L870.4,132.4z"/>
<path class="st9" d="M854.5,108.9c1.6,1,8,0.9,8,0.9s-2.8-5.7-4.4-6.7c-1.6-1-3.7-0.6-4.7,1c-1,1.6-0.6,3.7,1,4.7
	C854.4,108.8,854.5,108.8,854.5,108.9L854.5,108.9z"/>
<path class="st9" d="M854.4,124.9c1.8,0.5,7.9-1.5,7.9-1.5s-4.4-4.6-6.2-5.1c-1.8-0.4-3.6,0.8-4,2.6
	C851.7,122.7,852.7,124.4,854.4,124.9z"/>
<path class="st9" d="M856.5,140.6c1.7,0.8,8-0.1,8-0.1s-3.6-5.3-5.3-6.1c-1.7-0.8-3.7,0-4.5,1.7C854,137.8,854.7,139.8,856.5,140.6
	L856.5,140.6z"/>
<path class="st9" d="M864.4,186.5L864.4,186.5c-4.5,0-8.1-3.6-8.1-8.1c0-0.2,0-0.3,0-0.5l2.3-35.8h11.6l2.3,35.8
	c0.3,4.5-3.1,8.3-7.6,8.6C864.7,186.5,864.6,186.5,864.4,186.5z"/>
<rect x="622.7" y="10.7" class="st0" width="6.6" height="27.3"/>
<rect x="631.2" y="10.7" class="st0" width="6.6" height="27.3"/>
<rect x="639.7" y="10.7" class="st0" width="6.6" height="27.3"/>
<rect x="648.2" y="10.7" class="st0" width="6.6" height="27.3"/>
<rect x="665.1" y="10.7" class="st0" width="6.6" height="27.3"/>
<rect x="673.6" y="10.7" class="st0" width="6.6" height="27.3"/>
<rect x="622.7" y="15.8" class="st0" width="6.6" height="1.4"/>
<rect x="622.7" y="32.8" class="st0" width="6.6" height="1.4"/>
<rect x="631.2" y="15.8" class="st0" width="6.6" height="1.4"/>
<rect x="631.2" y="32.8" class="st0" width="6.6" height="1.4"/>
<rect x="639.7" y="15.8" class="st0" width="6.6" height="1.4"/>
<rect x="639.7" y="32.8" class="st0" width="6.6" height="1.4"/>
<rect x="648.2" y="15.8" class="st0" width="6.6" height="1.4"/>
<rect x="648.2" y="32.8" class="st0" width="6.6" height="1.4"/>
<rect x="656.6" y="15.8" class="st0" width="6.6" height="1.4"/>
<rect x="656.6" y="32.8" class="st0" width="6.6" height="1.4"/>
<rect x="665.1" y="15.8" class="st0" width="6.6" height="1.4"/>
<rect x="665.1" y="32.8" class="st0" width="6.6" height="1.4"/>
<rect x="673.6" y="15.8" class="st0" width="6.6" height="1.4"/>
<rect x="673.6" y="32.8" class="st0" width="6.6" height="1.4"/>
<rect x="656.6" y="10.7" class="st0" width="6.6" height="27.3"/>
<rect x="685.9" y="10.7" transform="matrix(0.9075 -0.4201 0.4201 0.9075 53.5419 291.754)" class="st0" width="6.6" height="27.3"/>
<rect x="682.6" y="16.6" transform="matrix(0.9075 -0.4201 0.4201 0.9075 56.202 289.7303)" class="st0" width="6.6" height="1.4"/>
<rect x="689.7" y="32" transform="matrix(0.9075 -0.4201 0.4201 0.9075 50.3947 294.1465)" class="st0" width="6.6" height="1.4"/>
<linearGradient id="SVGID_2_" gradientUnits="userSpaceOnUse" x1="759.5731" y1="207.1058" x2="759.5731" y2="448.1456" gradientTransform="matrix(1 0 0 -1 -39.7 512.8625)">
	<stop  offset="0" style="stop-color:#808080;stop-opacity:0.25"/>
	<stop  offset="0.54" style="stop-color:#808080;stop-opacity:0.12"/>
	<stop  offset="1" style="stop-color:#808080;stop-opacity:0.1"/>
</linearGradient>
<path class="st15" d="M766.7,292.5l-12-7.6c-0.1-10.8-0.2-60.7,2-67.4c0.6-1.9,0.6-4,0.1-5.9c-1.6-6.8-7.2-11.9-14.1-13
	c-6.5-1.1-15.8-2.8-23.3-5c6.7-0.7,11.7-1.3,11.7-1.3l0.1-1.2l4.3-0.2v-0.2l0.4,0c10.1-0.6,31.5-2.6,24.2-8.6c-2.5-2-5.7-3-9.2-3.3
	c10.5-2.4,26.9-7,19.6-11.4c-6.9-4.1-17.6-0.9-23.9,1.8l-0.4,0.2l-0.1-0.6l-2.5,0.5l0,0l-0.8,0.2l0-0.8l-35.6,5.5
	c-0.3-4.1-0.8-8.1-1.5-12.2c0.8-5.3,4.5-13,3.2-17.2c-1.5-4.8-7.7-6.4-10.4-10.8c-0.7-1.1-1.4-2.2-2-3.1c-1.5-2-3.1-3.8-5-5.4
	c0.1-2.8,0.7-5.6,1.8-8.1c0.7-1.7,1.5-3.4,2.5-5c8.6-2.1,14.1-10.6,12.5-19.3c2.3,1,5,1.1,6.4-0.8l-0.7-0.3c0.1-0.1,0.1-0.1,0.2-0.2
	c-1.4-0.5-2.8-1.1-3.9-2.1c-0.3-0.3-0.5-0.6-0.7-1c-0.7-1.3-0.6-2.9-1.2-4.2c-0.3-0.6-0.7-1.2-1.2-1.6c-1.1-1.1-2.5-1.9-4-2.3
	c-1.7-0.5-3.5-0.7-5.1-1.4c-4.5-5.3-11.8-7.3-18.4-5.2l-0.6,0.2c0.9-4.2-1.8-8.2-6-9.1c-4.1-0.8-8,1.7-9,5.7
	c0.1-1.7,0.9-3.3,2.1-4.6c-0.1,0.1-0.2,0.2-0.4,0.3c-3.1,2.9-3.2,7.8-0.3,10.9c0,0,0,0,0,0l0.1,0.1c0.5,0.7,1.2,1.2,1.9,1.7
	c-2.7-1-4.7-3.4-5.1-6.3c0,0.2,0,0.3,0,0.5c0.2,4.2,3.9,7.5,8.1,7.2c0,0,0,0,0.1,0l0.2,0l-0.1,0.2c-4.5,6.6-3.9,15.5,1.6,21.4
	c0.3,0.7,0.7,1.4,1.2,2c0.2,0.2,0.4,0.4,0.6,0.6c1.3,1.4,3.1,2.2,4.9,2.3c0.3,0.4,0.6,0.7,1,1.1c-0.3,1.3-0.7,2.6-1.2,3.9
	c-1,2.5-2.3,4.9-3.7,7.2c-10.2,2.9-11.1,20.2-10.7,20.8c0.4,0.8-1.5,27.9,6,60.7c-0.3,9.4,5.2,24.9,24.6,20.8
	c24.3,1.3,32.2,5,32.2,5s-2.3,42.2,1,48.4c2.1,3.8,0.6,9.5-0.9,13.5c-0.6,1-1,2-1.4,3.1c-0.5,1-0.8,1.6-0.8,1.6h0.3
	c-1.2,4.3-2.1,9.5-2.1,9.5s29.4,6,42.4,2.1c5-1.5,5.2-2.9,3.6-4.1c1.2-0.2,2.4-0.4,3.6-0.8C785.7,295.7,766.7,292.5,766.7,292.5z"/>
<path class="st16" d="M702.7,92.1c0,9.4-7.6,17-17,17s-17-7.6-17-17s7.6-17,17-17S702.7,82.7,702.7,92.1z"/>
<path class="st7" d="M740.9,171.8l1.7,8.6c0,0,1.9-0.3,4.7-0.9c9.7-2,30.1-7.1,22.2-11.8c-6.8-4.1-17.2-0.9-23.5,1.7
	c-2.3,0.9-4,1.8-4.8,2.2C741,171.7,740.9,171.8,740.9,171.8z"/>
<path class="st4" d="M741.4,174.2l1.2,6.2c0,0,1.9-0.3,4.7-0.9l-1.3-10.1c-2.3,0.9-4,1.8-4.8,2.2L741.4,174.2z"/>
<polygon class="st8" points="741.1,180.9 747,179.7 745.7,168.9 740.9,169.9 "/>
<polygon class="st4" points="741.1,180.9 743.6,180.4 743.2,169.4 740.9,169.9 "/>
<path class="st9" d="M686.6,134c0,0,11.5-6,15.7,12.8s4.2,27.4,4.2,27.4l35.8-5.5l0.6,13c0,0-38.5,10.6-43.2,9.5
	c-4.7-1.1-19.1-27.7-19.1-27.7S667.5,142.8,686.6,134z"/>
<g class="st10">
	<path d="M740.9,171.8l1.7,8.6c0,0,1.9-0.3,4.7-0.9c9.7-2,30.1-7.1,22.2-11.8c-6.8-4.1-17.2-0.9-23.5,1.7c-2.3,0.9-4,1.8-4.8,2.2
		C741,171.7,740.9,171.8,740.9,171.8z"/>
	<path class="st4" d="M741.4,174.2l1.2,6.2c0,0,1.9-0.3,4.7-0.9l-1.3-10.1c-2.3,0.9-4,1.8-4.8,2.2L741.4,174.2z"/>
	<polygon points="741.1,180.9 747,179.7 745.7,168.9 740.9,169.9 	"/>
	<polygon class="st4" points="741.1,180.9 743.6,180.4 743.2,169.4 740.9,169.9 	"/>
	<path d="M687.6,135c0,0,11.5-6,15.7,12.8s4.2,27.4,4.2,27.4l35.8-5.5l0.6,13c0,0-38.5,10.6-43.2,9.5c-4.7-1.1-19.1-27.7-19.1-27.7
		S668.4,143.7,687.6,135z"/>
</g>
<path class="st17" d="M751.7,281.4l14.1,9c0,0,18.7,3.1,6,7c-12.7,3.8-41.5-2-41.5-2s2.2-13,4.5-14.7
	C737.1,278.9,751.7,281.4,751.7,281.4z"/>
<path class="st18" d="M699.4,185.4c0,0,7,4.1,19.7,7.9c7.4,2.2,16.7,4,23.2,5c6.8,1,12.2,6.1,13.8,12.7c0.5,1.9,0.5,3.9-0.1,5.8
	c-2.5,7.4-2,68.1-2,68.1L732,286c0,0,3.5-11-0.8-16.9c-4.3-5.8,2.9-48.4,2.9-48.4s-7.8-3.6-31.6-4.9c-22.3,4.7-30.3-19.9-26.6-26.5
	C679.5,182.7,699.4,185.4,699.4,185.4z"/>
<g class="st10">
	<path d="M751.7,281.4l14.1,9c0,0,18.7,3.1,6,7c-12.7,3.8-41.5-2-41.5-2s2.2-13,4.5-14.7C737.1,278.9,751.7,281.4,751.7,281.4z"/>
	<path d="M699.4,185.4c0,0,7,4.1,19.7,7.9c7.4,2.2,16.7,4,23.2,5c6.8,1,12.2,6.1,13.8,12.7c0.5,1.9,0.5,3.9-0.1,5.8
		c-2.5,7.4-2,68.1-2,68.1L732,286c0,0,3.5-11-0.8-16.9c-4.3-5.8,2.9-48.4,2.9-48.4s-7.8-3.6-31.6-4.9c-22.3,4.7-30.3-19.9-26.6-26.5
		C679.5,182.7,699.4,185.4,699.4,185.4z"/>
</g>
<path class="st17" d="M744.7,286.2l14.1,9c0,0,18.7,3.1,6,7c-12.7,3.8-41.5-2-41.5-2s2.2-13,4.5-14.7
	C730.1,283.6,744.7,286.2,744.7,286.2z"/>
<path class="st18" d="M695.4,220.5c23.8,1.3,31.6,4.9,31.6,4.9s-2.3,41.4,0.9,47.4c3.4,6.4-3.1,17.9-3.1,17.9l22.1-1.1
	c0,0,0-0.7,0-2c-0.1-10.5-0.2-59.5,2-66.1c0.6-1.9,0.6-3.9,0.1-5.8c-1.6-6.7-7.1-11.7-13.8-12.7c-6.5-1-15.8-2.8-23.2-5l-0.4-0.1
	c-12.4-3.8-19.3-7.8-19.3-7.8s-14.7-1-18.4,5.6c-0.5,0.9-2.5,2.5-2.6,3.9C670.9,208.7,676,224.6,695.4,220.5z"/>
<path class="st7" d="M730.4,181.9l0.4,8.7c0,0,1.9-0.1,4.8-0.2c9.9-0.6,30.8-2.5,23.7-8.4c-6.1-5-16.9-3.4-23.5-1.8
	c-2.4,0.6-4.2,1.2-5,1.5C730.6,181.9,730.4,181.9,730.4,181.9z"/>
<path class="st7" d="M674.4,122.4c0,0,2.8,2.4,6.3,5.1c3.9,1.1,8.5,2,11.7,2.6c-1-3.8-0.1-8,1.4-11.7c1.6-3.8,3.8-7.4,6.4-10.6
	l-19.6-7.1c1.4,4,0.5,8.5-1,12.4C678.3,116.4,676.5,119.6,674.4,122.4z"/>
<path class="st4" d="M730.5,184.4l0.3,6.3c0,0,1.9-0.1,4.8-0.2l0.3-10.2c-2.4,0.6-4.2,1.2-5,1.5L730.5,184.4z"/>
<polygon class="st8" points="729.2,191 735.2,190.7 735.5,179.8 730.7,180 "/>
<path class="st9" d="M671.8,202.2c12.7,13.2,36.4-2.5,42.8-7.1c1-0.8,1.6-1.2,1.6-1.2c-2.4-2.4-6.1-4.6-7.6-10.6
	c-1.4-6.1-2.3-12.4-2.8-18.6c-0.4-5,4.7-14.4,3.3-19.2c-1.5-4.7-7.6-6.3-10.2-10.5c-0.7-1.1-1.3-2.2-2-3.1c-4.7-6.6-13-11-13-11
	c-17.6-6-19,19.1-18.5,19.9C665.9,141.4,663.9,169.1,671.8,202.2z"/>
<path class="st4" d="M671.7,166c0,0,10.2,28.5,14.7,30.3c2.6,1,16.7-0.1,28.2-1.2c1-0.8,1.6-1.2,1.6-1.2c-2.4-2.4-4.3-7.3-5.7-13.3
	l-14.8,0.1c0,0,1.2-8.5-0.1-27.7c-1.3-19.3-13.6-15-13.6-15C661.8,143.5,671.7,166,671.7,166z"/>
<polygon class="st4" points="729.2,191 731.8,190.8 733,179.9 730.7,180 "/>
<path class="st9" d="M682.3,136.5c0,0,12.3-4.2,13.6,15c1.3,19.2,0.1,27.7,0.1,27.7l36.2-0.1l-1.4,12.9c0,0-39.6,4.7-44.1,2.9
	s-14.7-30.3-14.7-30.3S662.1,142.3,682.3,136.5z"/>
<path class="st4" d="M682.8,108.1c0.7-2.8-2.4-2.9-3.3-5.7l19.7,7.1c-1.5,1.8-2.8,3.7-3.9,5.7c-1,0.3-2.1,0.4-3.2,0.5
	C687.2,115.9,686,111.2,682.8,108.1z"/>
<ellipse transform="matrix(0.9988 -4.797813e-02 4.797813e-02 0.9988 -3.8858 33.3298)" class="st7" cx="692.3" cy="97.6" rx="16.5" ry="16.5"/>
<path class="st4" d="M683.8,148.7c0,0,5.2,24.7,11.4,27.2c6.2,2.5,3.4,3.1,3.4,3.1"/>
<path class="st4" d="M705.3,162.7c0,0-4.4,1.4-9.4-5.1"/>
<circle class="st16" cx="672.5" cy="74.7" r="7.5"/>
<path class="st16" d="M667.2,78.6c-2.7-2.9-2.7-7.4,0-10.3c-0.1,0.1-0.2,0.2-0.4,0.3c-3,2.9-3.2,7.6-0.3,10.7s7.6,3.2,10.7,0.3l0,0
	c0.1-0.1,0.2-0.2,0.3-0.3C674.5,81.8,670,81.5,667.2,78.6z"/>
<path class="st16" d="M671.5,81.5c-4,0.2-7.4-2.6-7.9-6.6c0,0.2,0,0.3,0,0.5c0.3,4.2,3.8,7.3,8,7.1c4.2-0.3,7.3-3.8,7.1-8
	c0-0.2,0-0.3-0.1-0.5C678.6,77.9,675.5,81.2,671.5,81.5z"/>
<path class="st4" d="M698.4,81.2c1.8,0.9,3.8,1.1,5.7,1.7c1.9,0.5,3.8,1.5,4.6,3.3c0.6,1.3,0.5,2.9,1.2,4.2c0.9,1.9,3,2.8,5,3.5
	c-1.7,2.2-5.2,1.6-7.6,0.1c-2.3-1.5-4.3-3.8-7.1-4.4c-2.7-0.5-5.5,0.7-7,3.1c-0.7,1.3-1,2.8-1.4,4.3c-0.9,3.8-2.8,7.6-6.1,9.8
	c-3.3,2.2-8.2,2.2-10.8-0.8c-1.5-1.7-2-4.1-2.5-6.3c-0.3-1.1-0.4-2.1-0.4-3.2c0.2-2.7,2-5,3.8-7c2.1-2.4,4.4-4.6,6.7-6.9
	c2-1.9,4.2-5.2,7.2-5.5C693.2,76.8,695.6,79.9,698.4,81.2z"/>
<path class="st16" d="M697.9,80.8c1.8,0.9,3.8,1.1,5.7,1.7c1.9,0.5,3.8,1.5,4.6,3.3c0.6,1.3,0.5,2.9,1.2,4.2c0.9,1.9,3,2.8,5,3.5
	c-1.7,2.2-5.2,1.6-7.6,0.1c-2.3-1.5-4.3-3.8-7.1-4.4c-2.7-0.5-5.5,0.7-7,3.1c-0.7,1.3-1,2.8-1.4,4.3c-0.9,3.8-2.8,7.6-6.1,9.8
	c-3.3,2.2-8.2,2.2-10.8-0.8c-1.5-1.7-2-4.1-2.5-6.3c-0.3-1.1-0.4-2.1-0.4-3.2c0.2-2.7,2-5,3.8-7c2.1-2.4,4.4-4.6,6.7-6.9
	c2-1.9,4.2-5.2,7.2-5.5C692.7,76.3,695.1,79.4,697.9,80.8z"/>
<path class="st1" d="M654,185.4h45.7c2.2,0,4,1.8,4,4v0.3c0,2.2-1.8,4-4,4H654c-2.2,0-4-1.8-4-4v-0.3
	C650,187.2,651.8,185.4,654,185.4z"/>
<path class="st4" d="M650,189.6v0.7c0,1.9,1.5,3.4,3.4,3.4h46.9c1.9,0,3.4-1.5,3.4-3.4v-0.7H650z"/>
<rect x="744.7" y="194.1" class="st1" width="9.2" height="117.7"/>
<rect x="744.7" y="194.1" class="st4" width="9.2" height="7.6"/>
<rect x="740.2" y="185.6" class="st1" width="244.3" height="15.3"/>
<linearGradient id="SVGID_3_" gradientUnits="userSpaceOnUse" x1="350.7113" y1="209.7283" x2="350.7113" y2="337.9134" gradientTransform="matrix(0.96 -0.27 -0.27 -0.96 -129.941 509.6696)">
	<stop  offset="0" style="stop-color:#808080;stop-opacity:0.25"/>
	<stop  offset="0.54" style="stop-color:#808080;stop-opacity:0.12"/>
	<stop  offset="1" style="stop-color:#808080;stop-opacity:0.1"/>
</linearGradient>
<polygon class="st19" points="68.7,103.7 162.3,77.4 196.9,200.5 103.3,226.8 "/>
<linearGradient id="SVGID_4_" gradientUnits="userSpaceOnUse" x1="352.0517" y1="291.8557" x2="352.0517" y2="340.7143" gradientTransform="matrix(0.9642 -0.2651 -0.2651 -0.9642 -133.3557 513.18)">
	<stop  offset="0" style="stop-color:#B3B3B3;stop-opacity:0.25"/>
	<stop  offset="0.54" style="stop-color:#B3B3B3;stop-opacity:0.1"/>
	<stop  offset="1" style="stop-color:#B3B3B3;stop-opacity:5.000000e-02"/>
</linearGradient>
<polygon class="st20" points="68.7,104.3 162.9,78.4 175.9,125.5 81.6,151.4 "/>
<rect x="85.2" y="90.2" transform="matrix(0.9642 -0.2651 0.2651 0.9642 -35.7479 40.6332)" class="st21" width="95" height="125.2"/>
<rect x="74.8" y="91.4" transform="matrix(0.9642 -0.2651 0.2651 0.9642 -26.1848 36.5627)" class="st9" width="95.2" height="47.7"/>
<rect x="105.5" y="155.1" transform="matrix(0.9642 -0.2651 0.2651 0.9642 -37.1484 36.9652)" class="st22" width="25.8" height="2"/>
<rect x="107.6" y="162.7" transform="matrix(0.9642 -0.2651 0.2651 0.9642 -39.0883 37.7908)" class="st23" width="25.8" height="2"/>
<rect x="105.8" y="153.4" transform="matrix(0.9642 -0.2651 0.2651 0.9642 -35.9403 42.496)" class="st24" width="67.4" height="2"/>
<rect x="110.7" y="108.8" transform="matrix(0.9642 -0.2651 0.2651 0.9642 -24.6708 36.6815)" class="st25" width="25.8" height="2"/>
<rect x="111.5" y="110.9" transform="matrix(0.9642 -0.2651 0.2651 0.9642 -24.9225 39.0793)" class="st25" width="41.6" height="2"/>
<path class="st26" d="M122,119.6l23.1-6.4c0.5-0.1,1,0.2,1.1,0.6l0.1,0.3c0.1,0.5-0.2,1-0.6,1.1l-23.1,6.4c-0.5,0.1-1-0.2-1.1-0.6
	l-0.1-0.3C121.2,120.3,121.5,119.7,122,119.6z"/>
<ellipse transform="matrix(0.9642 -0.2651 0.2651 0.9642 -39.9824 31.2049)" class="st24" cx="95.6" cy="163.8" rx="4.6" ry="4.6"/>
<rect x="110.5" y="173.5" transform="matrix(0.9642 -0.2651 0.2651 0.9642 -41.8352 38.9612)" class="st22" width="25.8" height="2"/>
<rect x="112.6" y="181.1" transform="matrix(0.9642 -0.2651 0.2651 0.9642 -43.7752 39.786)" class="st23" width="25.8" height="2"/>
<rect x="110.8" y="171.8" transform="matrix(0.9642 -0.2651 0.2651 0.9642 -40.6272 44.4912)" class="st27" width="67.4" height="2"/>
<ellipse transform="matrix(0.9642 -0.2651 0.2651 0.9642 -44.6696 33.1993)" class="st27" cx="100.7" cy="182.1" rx="4.6" ry="4.6"/>
<rect x="115.6" y="191.9" transform="matrix(0.9642 -0.2651 0.2651 0.9642 -46.5217 40.9552)" class="st22" width="25.8" height="2"/>
<rect x="117.7" y="199.5" transform="matrix(0.9642 -0.2651 0.2651 0.9642 -48.4608 41.7808)" class="st23" width="25.8" height="2"/>
<rect x="115.9" y="190.2" transform="matrix(0.9642 -0.2651 0.2651 0.9642 -45.3137 46.4855)" class="st27" width="67.4" height="2"/>
<ellipse transform="matrix(0.9642 -0.2651 0.2651 0.9642 -49.3565 35.1945)" class="st27" cx="105.7" cy="200.5" rx="4.6" ry="4.6"/>
<linearGradient id="SVGID_5_" gradientUnits="userSpaceOnUse" x1="770.3329" y1="551.0225" x2="771.3704" y2="526.262" gradientTransform="matrix(-0.96 0.28 0.28 0.96 682.1956 -609.3779)">
	<stop  offset="0" style="stop-color:#000000;stop-opacity:0.12"/>
	<stop  offset="0.55" style="stop-color:#000000;stop-opacity:9.000000e-02"/>
	<stop  offset="1" style="stop-color:#000000;stop-opacity:2.000000e-02"/>
</linearGradient>
<path class="st28" d="M80.4,126c1.9,6.7,9,10.6,15.7,8.7c6.7-1.9,10.6-9,8.7-15.7c-1.5-5.1-6-8.8-11.4-9.1l0.9,3.1
	c0.6,2.3-0.7,4.7-2.9,5.3l0,0c-2.3,0.6-4.7-0.7-5.3-2.9l-0.9-3.1C80.9,115.3,79,120.8,80.4,126z"/>
<path class="st9" d="M104.5,118c-1.9-6.7-8.8-10.7-15.6-8.9c-6.7,1.9-10.7,8.8-8.9,15.6c1.4,5.2,5.9,8.9,11.2,9.3l-0.9-3.1
	c-0.6-2.3,0.7-4.6,3-5.3l0,0c2.3-0.6,4.6,0.7,5.3,3l0.9,3.1C104,128.6,106,123.1,104.5,118z"/>
<ellipse transform="matrix(0.9642 -0.2651 0.2651 0.9642 -28.4256 28.626)" class="st29" cx="91.9" cy="119.6" rx="4.9" ry="4.9"/>
<path class="st29" d="M93.5,125.5L93.5,125.5c-2.3,0.6-3.6,3-3,5.3l0.9,3.1c2.9,0.2,5.9-0.6,8.3-2.3l-0.9-3.1
	C98.1,126.2,95.8,124.9,93.5,125.5z"/>
<path class="st29" d="M87.1,120.7c-0.6-0.6-1-1.4-1.2-2.2c-0.2-0.8,0-1.7,0.5-2.4c0.5-0.8,1.4-1.2,2.3-1.5c0.9-0.3,1.8-0.5,2.6-0.9
	c1.4-0.7,2.4-1.9,2.9-3.4c0.3,0.7,0.5,1.4,0.5,2.1c0.1,0.7-0.1,1.4-0.6,2c0.6-0.5,0.8,0.3,0.7,0.8c0.5,0.3,1.3,0.2,1.5,0.7
	c0.2,0.5,0.3,1.1,0.3,1.7c-0.1,0.6,0.4,1.4-0.1,1.6"/>
<path class="st25" d="M94.3,114c0,0,3.4-0.6,2.4,4.9"/>
<linearGradient id="SVGID_6_" gradientUnits="userSpaceOnUse" x1="257.7716" y1="254.5508" x2="257.7716" y2="382.9906" gradientTransform="matrix(1 0 0 -1 0 531.6025)">
	<stop  offset="0" style="stop-color:#808080;stop-opacity:0.25"/>
	<stop  offset="0.54" style="stop-color:#808080;stop-opacity:0.12"/>
	<stop  offset="1" style="stop-color:#808080;stop-opacity:0.1"/>
</linearGradient>
<polygon class="st30" points="259.9,277.1 228.3,277.1 228.3,148.6 287.3,148.6 "/>
<polygon class="st22" points="258.3,277.1 227.3,277.1 227.3,148.6 285.2,148.6 "/>
<linearGradient id="SVGID_7_" gradientUnits="userSpaceOnUse" x1="440.2127" y1="236.2824" x2="440.2127" y2="364.4675" gradientTransform="matrix(0.9944 -0.1054 -0.1054 -0.9944 -182.1436 522.65)">
	<stop  offset="0" style="stop-color:#808080;stop-opacity:0.25"/>
	<stop  offset="0.54" style="stop-color:#808080;stop-opacity:0.12"/>
	<stop  offset="1" style="stop-color:#808080;stop-opacity:0.1"/>
</linearGradient>
<polygon class="st31" points="168.7,119 265.7,108.7 279.2,236.1 182.2,246.4 "/>
<linearGradient id="SVGID_8_" gradientUnits="userSpaceOnUse" x1="440.2071" y1="315.7288" x2="440.2071" y2="364.5873" gradientTransform="matrix(0.9944 -0.1054 -0.1054 -0.9944 -182.1377 522.6493)">
	<stop  offset="0" style="stop-color:#B3B3B3;stop-opacity:0.25"/>
	<stop  offset="0.54" style="stop-color:#B3B3B3;stop-opacity:0.1"/>
	<stop  offset="1" style="stop-color:#B3B3B3;stop-opacity:5.000000e-02"/>
</linearGradient>
<polygon class="st32" points="168.6,118.8 265.8,108.5 270.9,157.1 173.8,167.4 "/>
<rect x="176.4" y="114.5" transform="matrix(0.9944 -0.1054 0.1054 0.9944 -17.4138 24.5851)" class="st23" width="95" height="125.2"/>
<rect x="172.2" y="114.6" transform="matrix(0.9944 -0.1054 0.1054 0.9944 -13.3637 23.9381)" class="st9" width="95.2" height="47.7"/>
<rect x="196.3" y="177.1" transform="matrix(0.9944 -0.1054 0.1054 0.9944 -17.6005 23.0474)" class="st22" width="25.8" height="2"/>
<rect x="197.2" y="184.9" transform="matrix(0.9944 -0.1054 0.1054 0.9944 -18.4219 23.1785)" class="st23" width="25.8" height="2"/>
<rect x="196.6" y="178.8" transform="matrix(0.9944 -0.1054 0.1054 0.9944 -17.665 25.2803)" class="st24" width="67.4" height="2"/>
<rect x="209" y="132.1" transform="matrix(0.9944 -0.1054 0.1054 0.9944 -12.7953 24.1282)" class="st25" width="25.8" height="2"/>
<rect x="209.4" y="135.7" transform="matrix(0.9944 -0.1054 0.1054 0.9944 -13.1206 25.0222)" class="st25" width="41.6" height="2"/>
<path class="st26" d="M218.8,142.6l23.8-2.5c0.5-0.1,1,0.3,1,0.8l0,0.3c0.1,0.5-0.3,1-0.8,1l-23.8,2.5c-0.5,0.1-1-0.3-1-0.8l0-0.3
	C217.9,143.1,218.3,142.6,218.8,142.6z"/>
<ellipse transform="matrix(0.9944 -0.1054 0.1054 0.9944 -18.1365 20.571)" class="st24" cx="185.6" cy="181.9" rx="4.6" ry="4.6"/>
<rect x="198.4" y="196" transform="matrix(0.9944 -0.1054 0.1054 0.9944 -19.5852 23.3646)" class="st22" width="25.8" height="2"/>
<rect x="199.2" y="203.8" transform="matrix(0.9944 -0.1054 0.1054 0.9944 -20.4065 23.4957)" class="st23" width="25.8" height="2"/>
<rect x="198.7" y="197.7" transform="matrix(0.9944 -0.1054 0.1054 0.9944 -19.6497 25.5975)" class="st27" width="67.4" height="2"/>
<ellipse transform="matrix(0.9944 -0.1054 0.1054 0.9944 -20.1212 20.8882)" class="st27" cx="187.6" cy="200.8" rx="4.6" ry="4.6"/>
<rect x="200.4" y="214.9" transform="matrix(0.9944 -0.1054 0.1054 0.9944 -21.5699 23.6814)" class="st22" width="25.8" height="2"/>
<rect x="201.2" y="222.8" transform="matrix(0.9944 -0.1054 0.1054 0.9944 -22.3912 23.8126)" class="st23" width="25.8" height="2"/>
<rect x="200.7" y="216.7" transform="matrix(0.9944 -0.1054 0.1054 0.9944 -21.6344 25.9143)" class="st27" width="67.4" height="2"/>
<ellipse transform="matrix(0.9944 -0.1054 0.1054 0.9944 -22.1059 21.2051)" class="st27" cx="189.6" cy="219.8" rx="4.6" ry="4.6"/>
<linearGradient id="SVGID_9_" gradientUnits="userSpaceOnUse" x1="682.7156" y1="530.2257" x2="683.7532" y2="505.4649" gradientTransform="matrix(-0.9931 0.1174 0.1174 0.9931 807.0599 -453.5128)">
	<stop  offset="0" style="stop-color:#000000;stop-opacity:0.12"/>
	<stop  offset="0.55" style="stop-color:#000000;stop-opacity:9.000000e-02"/>
	<stop  offset="1" style="stop-color:#000000;stop-opacity:2.000000e-02"/>
</linearGradient>
<path class="st33" d="M176.7,142.1c0.8,7,7.1,11.9,14.1,11.1s11.9-7.1,11.1-14.1c-0.6-5.3-4.5-9.7-9.7-10.9l0.4,3.2
	c0.3,2.3-1.4,4.5-3.8,4.8l0,0c-2.4,0.3-4.5-1.4-4.8-3.8l-0.4-3.2C178.8,131.7,176.1,136.8,176.7,142.1z"/>
<path class="st9" d="M201.8,138.1c-0.7-7-7-12-13.9-11.3c-7,0.7-12,7-11.3,13.9c0.6,5.3,4.4,9.7,9.6,11l-0.3-3.2
	c-0.2-2.4,1.5-4.5,3.8-4.7l0,0c2.4-0.2,4.5,1.5,4.7,3.8l0.3,3.2C199.5,148.6,202.3,143.5,201.8,138.1z"/>
<ellipse transform="matrix(0.9944 -0.1054 0.1054 0.9944 -13.4651 20.6855)" class="st29" cx="189" cy="137.7" rx="4.9" ry="4.9"/>
<path class="st29" d="M189.6,143.8L189.6,143.8c-2.4,0.3-4.1,2.4-3.8,4.7l0.3,3.2c2.9,0.7,5.9,0.4,8.5-0.9l-0.3-3.2
	C194.1,145.3,192,143.6,189.6,143.8z"/>
<path class="st29" d="M184.1,138c-0.5-0.7-0.7-1.5-0.8-2.4c0-0.9,0.3-1.7,0.8-2.3c0.6-0.7,1.6-1,2.5-1.2c0.9-0.2,1.8-0.2,2.7-0.5
	c1.5-0.5,2.7-1.5,3.4-2.9c0.2,0.7,0.2,1.4,0.2,2.1c0,0.7-0.4,1.4-0.9,1.9c0.7-0.4,0.7,0.4,0.6,0.9c0.4,0.4,1.3,0.4,1.4,0.9
	c0.1,0.6,0.1,1.1,0,1.7c-0.2,0.5,0.2,1.5-0.4,1.5"/>
<path class="st25" d="M192.4,132.6c0,0,3.4-0.1,1.5,5.2"/>
<linearGradient id="SVGID_10_" gradientUnits="userSpaceOnUse" x1="183.4736" y1="340.3522" x2="183.4736" y2="468.5372" gradientTransform="matrix(1 0 0 -1 0 531.6025)">
	<stop  offset="0" style="stop-color:#808080;stop-opacity:0.25"/>
	<stop  offset="0.54" style="stop-color:#808080;stop-opacity:0.12"/>
	<stop  offset="1" style="stop-color:#808080;stop-opacity:0.1"/>
</linearGradient>
<rect x="134.7" y="63.1" class="st34" width="97.5" height="128.2"/>
<linearGradient id="SVGID_11_" gradientUnits="userSpaceOnUse" x1="183.4721" y1="419.7986" x2="183.4721" y2="468.6571" gradientTransform="matrix(1 0 0 -1 0 531.6025)">
	<stop  offset="0" style="stop-color:#B3B3B3;stop-opacity:0.25"/>
	<stop  offset="0.54" style="stop-color:#B3B3B3;stop-opacity:0.1"/>
	<stop  offset="1" style="stop-color:#B3B3B3;stop-opacity:5.000000e-02"/>
</linearGradient>
<rect x="134.6" y="62.9" class="st35" width="97.7" height="48.9"/>
<rect x="136" y="64.1" class="st23" width="95" height="125.2"/>
<rect x="135.9" y="63.9" class="st9" width="95.2" height="47.7"/>
<rect x="155.9" y="125.1" class="st22" width="25.8" height="2"/>
<rect x="155.9" y="133" class="st23" width="25.8" height="2"/>
<rect x="155.9" y="129.1" class="st24" width="67.4" height="2"/>
<rect x="173.2" y="81.8" class="st25" width="25.8" height="2"/>
<rect x="173.2" y="86.2" class="st25" width="41.6" height="2"/>
<path class="st26" d="M182,91.9h24c0.5,0,0.9,0.4,0.9,0.9v0.3c0,0.5-0.4,0.9-0.9,0.9h-24c-0.5,0-0.9-0.4-0.9-0.9v-0.3
	C181.1,92.3,181.5,91.9,182,91.9z"/>
<circle class="st24" cx="144.8" cy="127.4" r="4.6"/>
<rect x="155.9" y="144.2" class="st22" width="25.8" height="2"/>
<rect x="155.9" y="152" class="st23" width="25.8" height="2"/>
<rect x="155.9" y="148.1" class="st27" width="67.4" height="2"/>
<circle class="st27" cx="144.8" cy="146.5" r="4.6"/>
<rect x="155.9" y="163.2" class="st22" width="25.8" height="2"/>
<rect x="155.9" y="171.1" class="st23" width="25.8" height="2"/>
<rect x="155.9" y="167.2" class="st27" width="67.4" height="2"/>
<circle class="st27" cx="144.8" cy="165.5" r="4.6"/>
<linearGradient id="SVGID_12_" gradientUnits="userSpaceOnUse" x1="704.293" y1="503.9868" x2="705.3272" y2="479.2323" gradientTransform="matrix(-1 1.000000e-02 1.000000e-02 1 852.7719 -412.01)">
	<stop  offset="0" style="stop-color:#000000;stop-opacity:0.12"/>
	<stop  offset="0.55" style="stop-color:#000000;stop-opacity:9.000000e-02"/>
	<stop  offset="1" style="stop-color:#000000;stop-opacity:2.000000e-02"/>
</linearGradient>
<path class="st36" d="M140.2,87c0.1,7,5.8,12.6,12.8,12.5c7-0.1,12.6-5.8,12.5-12.8c-0.1-5.3-3.5-10.1-8.5-11.8l0,3.3
	c0,2.4-1.9,4.3-4.3,4.4l0,0c-2.4,0-4.3-1.9-4.3-4.2l0-3.3C143.4,76.8,140.2,81.6,140.2,87z"/>
<path class="st9" d="M165.6,85.6c0-7-5.7-12.7-12.7-12.7c-7,0-12.7,5.7-12.7,12.7c0,5.3,3.4,10.1,8.4,11.9v-3.3
	c0-2.4,1.9-4.3,4.3-4.3l0,0c2.4,0,4.3,1.9,4.3,4.3v3.3C162.2,95.7,165.6,91,165.6,85.6z"/>
<circle class="st29" cx="152.9" cy="83.9" r="4.9"/>
<path class="st29" d="M152.9,90L152.9,90c-2.4,0-4.3,1.9-4.3,4.3v3.3c2.8,1,5.8,1,8.6,0v-3.3C157.2,91.9,155.2,90,152.9,90z"/>
<path class="st29" d="M148,83.6c-0.4-0.8-0.6-1.6-0.5-2.5c0.1-0.9,0.4-1.7,1.1-2.2c0.7-0.6,1.7-0.8,2.6-0.9c0.9-0.1,1.9,0,2.8-0.2
	c1.5-0.3,2.9-1.2,3.7-2.5c0.1,0.7,0.1,1.4,0,2.1c-0.1,0.7-0.5,1.4-1.1,1.8c0.7-0.3,0.7,0.5,0.5,0.9c0.4,0.4,1.3,0.5,1.3,1.1
	c0.1,0.6,0,1.2-0.2,1.7c-0.2,0.5,0,1.5-0.6,1.5"/>
<path class="st25" d="M156.8,79.1c0,0,3.4,0.3,1,5.3"/>
<linearGradient id="SVGID_13_" gradientUnits="userSpaceOnUse" x1="167.2519" y1="244.9913" x2="167.2519" y2="392.2443" gradientTransform="matrix(1 0 0 -1 0 531.6025)">
	<stop  offset="0" style="stop-color:#808080;stop-opacity:0.25"/>
	<stop  offset="0.54" style="stop-color:#808080;stop-opacity:0.12"/>
	<stop  offset="1" style="stop-color:#808080;stop-opacity:0.1"/>
</linearGradient>
<polygon class="st37" points="125.8,154.3 104.5,139.4 74.9,139.4 74.9,154.3 74.9,161.6 74.9,286.6 259.6,286.6 259.6,154.3 "/>
<polyline class="st25" points="76.5,155.8 76.5,162.9 76.5,284.2 258.3,284.2 258.3,155.8 126.6,155.8 "/>
<polyline class="st22" points="126.6,155.8 105.6,141.3 76.5,141.3 76.5,155.8 "/>
<linearGradient id="SVGID_14_" gradientUnits="userSpaceOnUse" x1="167.4108" y1="266.3135" x2="167.4108" y2="356.8422" gradientTransform="matrix(1 0 0 -1 0 531.6025)">
	<stop  offset="0" style="stop-color:#808080;stop-opacity:0.25"/>
	<stop  offset="0.54" style="stop-color:#808080;stop-opacity:0.12"/>
	<stop  offset="1" style="stop-color:#808080;stop-opacity:0.1"/>
</linearGradient>
<rect x="117.4" y="174.8" class="st38" width="100.1" height="90.5"/>
<rect x="118.7" y="175.4" class="st25" width="97.8" height="88.2"/>
<rect x="149.1" y="241.5" class="st22" width="38.5" height="3.2"/>
<rect x="125.6" y="247.8" class="st27" width="84.1" height="3.2"/>
<rect x="125.6" y="254.1" class="st27" width="84.1" height="3.2"/>
<linearGradient id="SVGID_15_" gradientUnits="userSpaceOnUse" x1="690.3013" y1="637.4434" x2="692.2546" y2="590.7367" gradientTransform="matrix(-1 1.000000e-02 1.000000e-02 1 852.7719 -412.01)">
	<stop  offset="0" style="stop-color:#000000;stop-opacity:0.12"/>
	<stop  offset="0.55" style="stop-color:#000000;stop-opacity:9.000000e-02"/>
	<stop  offset="1" style="stop-color:#000000;stop-opacity:2.000000e-02"/>
</linearGradient>
<path class="st39" d="M143.7,209.2c0.2,13.2,11,23.8,24.2,23.6c13.2-0.2,23.8-11,23.6-24.2c-0.1-10.1-6.6-19-16.1-22.3l0.1,6.2
	c0,4.5-3.5,8.1-8,8.2l0,0c-4.5,0-8.1-3.5-8.2-8l-0.1-6.2C149.8,190,143.6,199.1,143.7,209.2z"/>
<path class="st22" d="M191.6,206.6c0-13.2-10.7-23.9-23.9-23.9c-13.2,0-23.9,10.7-23.9,23.9c0,10.1,6.3,19.1,15.8,22.5V223
	c0-4.5,3.6-8.1,8.1-8.1l0,0c4.5,0,8.1,3.6,8.1,8.1v6.2C185.2,225.7,191.6,216.7,191.6,206.6z"/>
<path class="st29" d="M167,209.2L167,209.2c0.8,0,1.4,0.6,1.4,1.4v7.3c0,0.8-0.6,1.4-1.4,1.4l0,0c-0.8,0-1.4-0.6-1.4-1.4v-7.3
	C165.6,209.9,166.2,209.2,167,209.2z"/>
<circle class="st29" cx="167" cy="201.4" r="9.2"/>
<path class="st29" d="M167,212.9L167,212.9c-4.5,0-8.1,3.6-8.1,8.1v6.2c5.2,1.9,11,1.9,16.2,0V221
	C175.1,216.6,171.5,212.9,167,212.9z"/>
<path class="st29" d="M157.7,200.9c-0.7-1.4-1.1-3-1-4.6c0.1-1.6,0.8-3.1,2-4.2c1.3-1.1,3.2-1.5,4.9-1.7c1.8-0.1,3.5-0.1,5.3-0.4
	c2.9-0.6,5.4-2.3,7-4.8c0.1,1.3,0.2,2.7,0,4c-0.3,1.3-0.9,2.6-2.1,3.3c1.4-0.6,1.2,0.9,0.9,1.8c0.7,0.8,2.4,1,2.5,2.1
	c0.1,1.1,0.1,2.2-0.4,3.2c-0.4,1,0,2.8-1,2.8"/>
<path class="st25" d="M174.4,192.4c0,0,6.4,0.6,1.8,10.1"/>
<path class="st0" d="M304,297.2h267.6c0,0,23.5-30.4-4.2-61.6c-10.2-11.6-11-25.9-8-39.3c8.3-36.3-24.9-68.4-60.9-59
	c-0.7,0.2-1.4,0.4-2.1,0.6c-54.3,14.8-98.8-0.1-115.9-7.4c-6.8-2.9-14.2-4.3-21.6-4c-19.2,0.9-48.3,8.3-21.3,49
	C375.8,232.9,304,297.2,304,297.2z"/>
<ellipse class="st40" cx="368.5" cy="281.2" rx="5.4" ry="7"/>
<ellipse class="st40" cx="368.5" cy="272.6" rx="5.4" ry="7"/>
<ellipse class="st40" cx="368.5" cy="264.1" rx="5.4" ry="7"/>
<ellipse class="st40" cx="368.5" cy="255.5" rx="5.4" ry="7"/>
<ellipse class="st40" cx="368.5" cy="246.9" rx="5.4" ry="7"/>
<ellipse class="st40" cx="368.5" cy="238.3" rx="5.4" ry="7"/>
<ellipse class="st40" cx="368.5" cy="229.7" rx="5.4" ry="7"/>
<ellipse class="st40" cx="413" cy="283.4" rx="3" ry="3.9"/>
<ellipse class="st40" cx="413" cy="278.6" rx="3" ry="3.9"/>
<ellipse class="st40" cx="413" cy="273.8" rx="3" ry="3.9"/>
<ellipse class="st40" cx="413" cy="269.1" rx="3" ry="3.9"/>
<ellipse class="st40" cx="413" cy="264.3" rx="3" ry="3.9"/>
<ellipse class="st40" cx="413" cy="259.5" rx="3" ry="3.9"/>
<ellipse class="st40" cx="413" cy="254.8" rx="3" ry="3.9"/>
<path class="st9" d="M388.5,191c0.7-0.9,1.4-1.9,2-2.9l-14.1-2.3l15.2,0.1c3-6.4,3.1-13.8,0.5-20.3l-20.4,10.6l18.8-13.9
	c-7.1-12.3-22.8-16.5-35.1-9.4c-12.3,7.1-16.5,22.8-9.4,35.1c0.6,1.1,1.3,2.1,2,3c-1.1,1.5-2.1,3-2.9,4.7l18.3,9.5l-19.5-6.5
	c-2.8,8.2-1.2,17.3,4.1,24.1c-8.8,11.1-6.8,27.3,4.3,36.1c11.1,8.8,27.3,6.8,36.1-4.3c7.3-9.3,7.3-22.4,0-31.7
	C395.9,213.5,395.9,200.4,388.5,191L388.5,191z"/>
<path class="st4" d="M342.7,206.9c0,5.8,1.9,11.4,5.5,15.9c-8.8,11.1-6.8,27.3,4.3,36.1c11.1,8.8,27.3,6.8,36.1-4.3
	c7.3-9.3,7.3-22.4,0-31.7C392,218.4,342.7,204,342.7,206.9z"/>
<path class="st9" d="M399.6,231.5c-0.5-0.6-0.9-1.3-1.3-2l9.4-1.5l-10.2,0.1c-2-4.3-2.1-9.2-0.3-13.6l13.6,7.1l-12.6-9.2
	c4.7-8.2,15.2-11,23.4-6.2c8.2,4.7,11,15.2,6.2,23.4c-0.4,0.7-0.9,1.4-1.3,2c0.8,1,1.4,2,2,3.1l-12.2,6.3l13-4.4
	c1.9,5.5,0.8,11.5-2.8,16.1c5.8,7.4,4.5,18.2-2.9,24s-18.2,4.5-24-2.9c-4.9-6.2-4.9-14.9,0-21.2
	C394.7,246.5,394.7,237.8,399.6,231.5L399.6,231.5z"/>
<path class="st4" d="M430.2,242.1c0,3.8-1.3,7.6-3.7,10.6c5.8,7.4,4.5,18.2-2.9,24c-7.4,5.8-18.2,4.5-24-2.9
	c-4.9-6.2-4.9-14.9,0-21.2C397.3,249.8,430.2,240.2,430.2,242.1z"/>
<path class="st41" d="M304,295.2c0,0,28.7-27.9,38.7-18.5c9.9,9.4,51.9,11.9,55.8,11.3c3.9-0.6,26.5-1.7,39.2-0.3
	c12.7,1.4,129.2-3.9,133.9,7.5H304z"/>
<path class="st0" d="M490.1,156.8h-12.9c0.3-0.4,0.5-0.9,0.5-1.4c0-0.3-0.1-0.6-0.2-0.8h6c1.2,0,2.2-1,2.2-2.2c0-1.2-1-2.2-2.2-2.2
	h-35.6c-1.2,0-2.2,1-2.2,2.2c0,0.3,0.1,0.6,0.2,0.8h-6c-1.2,0-2.2,1.1-2.1,2.3c0,1.2,1,2.1,2.1,2.1h12.9c-0.3,0.4-0.5,0.9-0.5,1.4
	c0,1.2,1,2.2,2.2,2.2h35.6c1.2,0,2.2-1,2.2-2.2S491.3,156.8,490.1,156.8z"/>
<path class="st0" d="M548.4,188.6h-12.9c0.3-0.4,0.5-0.9,0.5-1.4c0-0.3-0.1-0.6-0.2-0.8h6c1.2,0,2.2-1,2.2-2.2s-1-2.2-2.2-2.2l0,0
	h-35.6c-1.2,0-2.2,1-2.2,2.2c0,0.3,0.1,0.6,0.2,0.8h-6c-1.2,0-2.2,1.1-2.1,2.3c0,1.2,1,2.1,2.1,2.1H511c-0.3,0.4-0.5,0.9-0.5,1.4
	c0,1.2,1,2.2,2.2,2.2h35.6c1.2,0,2.2-1,2.2-2.2S549.6,188.6,548.4,188.6L548.4,188.6L548.4,188.6z"/>
<path class="st0" d="M431.9,175.1h-7.6c0.2-0.2,0.3-0.5,0.3-0.8c0-0.2,0-0.3-0.1-0.5h3.5c0.7,0,1.3-0.6,1.3-1.3
	c0-0.7-0.6-1.3-1.3-1.3h-20.9c-0.7,0-1.3,0.6-1.3,1.3c0,0.2,0,0.3,0.1,0.5h-3.5c-0.7,0-1.3,0.6-1.3,1.3c0,0.7,0.6,1.3,1.3,1.3
	c0,0,0,0,0,0h7.6c-0.2,0.2-0.3,0.5-0.3,0.8c0,0.7,0.6,1.3,1.3,1.3h20.9c0.7,0,1.3-0.6,1.2-1.4C433.1,175.7,432.6,175.2,431.9,175.1z
	"/>
</svg>
