<?xml version="1.0" encoding="utf-8"?>
<!-- Generator: Adobe Illustrator 21.0.0, SVG Export Plug-In . SVG Version: 6.00 Build 0)  -->
<svg version="1.1" id="_x37_40546cb-34ca-4331-8221-ac3d3fc9ee67"
	 xmlns="http://www.w3.org/2000/svg" xmlns:xlink="http://www.w3.org/1999/xlink" x="0px" y="0px" viewBox="0 0 1120.6 481.4"
	 style="enable-background:new 0 0 1120.6 481.4;" xml:space="preserve">
<style type="text/css">
	.st0{opacity:0.1;fill:#6C63FF;enable-background:new    ;}
	.st1{fill:#D6D6E3;}
	.st2{fill:#AEBEE1;}
	.st3{fill:#535461;}
	.st4{opacity:0.1;enable-background:new    ;}
	.st5{fill:#E3EDF9;}
	.st6{fill:url(#SVGID_1_);}
	.st7{fill:#F8B9BF;}
	.st8{fill:#D9DFE8;}
	.st9{fill:#6C63FF;}
	.st10{opacity:0.1;}
	.st11{fill:#68739D;}
	.st12{fill:#6394E2;}
	.st13{fill:#B96B6B;}
	.st14{fill:none;stroke:#535461;stroke-width:2;stroke-miterlimit:10;}
	.st15{fill:url(#SVGID_2_);}
	.st16{fill:#FA595F;}
	.st17{fill:#F37291;}
	.st18{fill:#96A2D0;}
</style>
<title>co-working</title>
<path class="st0" d="M790.1,193.1c-19.5,29.3-14.5,69.9-4.7,102.2c3.3,10.8,7,22.2,4.8,34.1c-2.7,14.6-13.8,25.8-25.1,32.1
	c-20.6,11.5-44.6,10.5-62.4-2.4c-15.4-11.2-25.8-30.3-41.5-41c-26.2-17.8-61.2-8.3-91.4,7c-21.4,10.8-44.8,24.6-65.1,15.9
	c-14.2-6.1-23.5-22.4-28.1-40.1c-2.2-8.5-3.7-17.8-8.4-24.4c-2.8-3.9-6.6-6.6-10.5-8.8c-35.7-20.1-82.7-5.3-117.3-27.9
	c-23.3-15.3-37.2-46-42.3-78.5c-5.2-32.6-2.6-67.2,0.8-101.3c2.5-24.2,6-50.2,19.5-69.6c14.3-20.5,37.5-29.3,58-26.8
	C397-34.1,415-21.9,430.7-7.1c19.6,18.4,37.4,41.7,62.2,48.1c16.9,4.4,35.2,0.3,52.9-1.9c29.7-3.6,59.2-1.6,88.5,0.8
	c28,2.3,56.2,4.9,82.5,14.5c18.6,6.8,33.1,20.3,50.6,29.3c11.4,5.9,24.1,6.9,34.7,14.6c13.1,9.5,24.7,26.7,20.2,48
	C818,166.5,800.4,177.6,790.1,193.1z"/>
<rect x="710.4" y="83.9" class="st0" width="19.3" height="29.2"/>
<rect x="712.2" y="86.7" class="st0" width="15.5" height="23.5"/>
<rect x="671.3" y="63.6" class="st0" width="29.6" height="29.2"/>
<rect x="674.1" y="66.5" class="st0" width="23.8" height="23.5"/>
<rect x="325.8" y="20.2" class="st0" width="90.4" height="2.4"/>
<rect x="325.8" y="32" class="st0" width="90.4" height="2.4"/>
<rect x="478.4" y="176.4" class="st1" width="9.2" height="103.3"/>
<path class="st2" d="M757.5,187.2V91.9c0-5.5,4.5-10,10-10l0,0c5.5,0,10,4.5,10,10v115.3c0,5.5-4.5,10-10,10l0,0h-62
	c-5.5,0-10-4.5-10-10l0,0l0,0c0-5.5,4.5-10,10-10l0,0h42C753,197.2,757.5,192.7,757.5,187.2z"/>
<path class="st3" d="M757.5,187.2V91.9c0-5.5,4.5-10,10-10l0,0c5.5,0,10,4.5,10,10v115.3c0,5.5-4.5,10-10,10l0,0h-62
	c-5.5,0-10-4.5-10-10l0,0l0,0c0-5.5,4.5-10,10-10l0,0h42C753,197.2,757.5,192.7,757.5,187.2z"/>
<path class="st1" d="M695.5,206.7c0.3-5.3,4.7-9.5,10-9.5h42c5.5,0,10-4.5,10-10l0,0V91.9c0-5.3,4.2-9.8,9.5-10v124.7H695.5z"/>
<path class="st2" d="M386,190.4V95.2c0-5.5-4.5-10-10-10l0,0c-5.5,0-10,4.5-10,10v115.3c0,5.5,4.5,10,10,10c0,0,0,0,0,0h62
	c5.5,0,10-4.5,10-10l0,0c0-5.5-4.5-10-10-10h-42C390.5,200.4,386,196,386,190.4C386,190.4,386,190.4,386,190.4z"/>
<path class="st3" d="M386,190.4V95.2c0-5.5-4.5-10-10-10l0,0c-5.5,0-10,4.5-10,10v115.3c0,5.5,4.5,10,10,10c0,0,0,0,0,0h62
	c5.5,0,10-4.5,10-10l0,0c0-5.5-4.5-10-10-10h-42C390.5,200.4,386,196,386,190.4C386,190.4,386,190.4,386,190.4z"/>
<path class="st1" d="M448.1,209.9c-0.3-5.3-4.7-9.5-10-9.5h-42c-5.5,0-10-4.5-10-10c0,0,0,0,0,0V95.2c0-5.3-4.2-9.7-9.5-10v124.7
	H448.1z"/>
<rect x="661.2" y="176.4" class="st1" width="9.2" height="105.7"/>
<rect x="478.4" y="176.4" class="st4" width="9.2" height="7.6"/>
<rect x="661.2" y="176.4" class="st4" width="9.2" height="7.6"/>
<path class="st4" d="M511.4,113.5c-0.1,1.6-0.3,3.3-0.6,4.9h-1.3v-4.9H511.4z"/>
<path class="st3" d="M549.2,164.9c0,1.7-1.2,3-2.7,3h-28.2V165h23.5c1,0,1.6-1.2,1.1-2.2l-21.3-43.3c-0.3-0.6-0.9-1-1.6-1.1h-10.5
	v-4.9h13.3c0.5,0,0.9,0.3,1.2,0.7l24.4,47.1C548.9,162.4,549.2,163.6,549.2,164.9z"/>
<path class="st3" d="M497.4,157l-0.4,0.7l-3.6-2.4l11.2-86h2.9c0,0,0.1,0.4,0.3,1.1C509.7,77.9,519.2,119.9,497.4,157z"/>
<path class="st4" d="M507.8,70.4L497.4,157l-0.4,0.7l-3.6-2.4l11.2-86h2.9C507.5,69.3,507.6,69.7,507.8,70.4z"/>
<rect x="454.3" y="109.7" transform="matrix(0.1189 -0.9929 0.9929 0.1189 327.2644 594.9459)" class="st1" width="89.2" height="6.8"/>
<path class="st5" d="M466.9,164.9c0,0.4-0.4,0.8-0.8,0.8h-1.2c-0.4,0-0.8-0.4-0.8-0.8c0,0,0-0.1,0-0.1c0-0.4,0.4-0.7,0.8-0.7h1.2
	c0.4,0,0.7,0.3,0.8,0.6C466.9,164.8,466.9,164.8,466.9,164.9z"/>
<path class="st5" d="M470.5,164.9c0,0.4-0.4,0.8-0.8,0.8h-1.2c-0.4,0-0.8-0.4-0.8-0.8c0-0.1,0-0.1,0-0.2c0-0.1,0.1-0.2,0.2-0.3
	c0.1-0.2,0.4-0.2,0.6-0.2h1.2c0.3,0,0.6,0.2,0.7,0.5C470.5,164.7,470.5,164.8,470.5,164.9z"/>
<path class="st5" d="M473.7,164.9c0,0.4-0.4,0.8-0.8,0.8h-1.2c-0.4,0-0.8-0.4-0.8-0.8c0-0.1,0-0.2,0.1-0.3c0.1-0.3,0.4-0.5,0.7-0.5
	h1.2C473.4,164.1,473.7,164.5,473.7,164.9C473.7,164.9,473.7,164.9,473.7,164.9L473.7,164.9z"/>
<path class="st5" d="M477.4,164.9c0,0.4-0.4,0.8-0.8,0.8h-1.2c-0.4,0-0.8-0.4-0.8-0.8c0-0.2,0.1-0.3,0.1-0.5l0.1-0.1
	c0.1-0.2,0.4-0.2,0.6-0.2h1.2c0.2,0,0.4,0.1,0.6,0.3C477.3,164.5,477.4,164.7,477.4,164.9z"/>
<path class="st4" d="M466.9,164.7c0,0.1,0,0.1,0,0.2c0,0.4-0.4,0.8-0.8,0.8h-1.2c-0.4,0-0.8-0.4-0.8-0.8c0,0,0-0.1,0-0.1
	L466.9,164.7z"/>
<path class="st4" d="M470.5,164.6c0,0.1,0.1,0.2,0.1,0.3c0,0.4-0.4,0.8-0.8,0.8h-1.2c-0.4,0-0.8-0.4-0.8-0.8c0-0.1,0-0.1,0-0.2
	L470.5,164.6z"/>
<path class="st4" d="M473.6,164.5c0.1,0.1,0.1,0.3,0.1,0.4c0,0.4-0.4,0.8-0.8,0.8h-1.2c-0.4,0-0.8-0.4-0.8-0.8c0-0.1,0-0.2,0.1-0.3
	L473.6,164.5z"/>
<path class="st4" d="M477.4,164.9c0,0.4-0.4,0.8-0.8,0.8h-1.2c-0.4,0-0.8-0.4-0.8-0.8c0-0.2,0.1-0.3,0.1-0.5l2.5-0.1
	C477.3,164.5,477.4,164.7,477.4,164.9z"/>
<path class="st1" d="M484.6,168.1h-23.3v-1.1c0-1,0.8-1.8,1.8-1.8l18.7-0.6c1.5-0.1,2.8,1.1,2.9,2.7c0,0,0,0.1,0,0.1L484.6,168.1z"
	/>
<path class="st3" d="M599.6,164.9c0,1.7,1.2,3,2.7,3h28.2V165h-23.5c-1,0-1.6-1.2-1.1-2.2l21.3-43.3c0.3-0.6,0.9-1,1.6-1.1h10.5
	v-4.9H626c-0.5,0-0.9,0.3-1.1,0.7l-24.4,47.1C599.9,162.4,599.6,163.6,599.6,164.9z"/>
<path class="st3" d="M651.4,157l0.4,0.7l3.6-2.4l-11.2-86h-2.9c0,0-0.1,0.4-0.3,1.1C639,77.9,629.6,119.9,651.4,157z"/>
<path class="st4" d="M641,70.4l10.4,86.6l0.4,0.7l3.6-2.4l-11.2-86h-2.9C641.3,69.3,641.2,69.7,641,70.4z"/>
<rect x="646.5" y="68.5" transform="matrix(0.9929 -0.1189 0.1189 0.9929 -8.8336 78.0948)" class="st1" width="6.8" height="89.2"/>
<path class="st5" d="M681.9,164.9c0,0.4,0.4,0.8,0.8,0.8h1.2c0.4,0,0.8-0.4,0.8-0.8l0,0c0,0,0-0.1,0-0.1c0-0.4-0.4-0.7-0.8-0.7h-1.2
	c-0.4,0-0.7,0.3-0.8,0.6C681.9,164.8,681.9,164.8,681.9,164.9z"/>
<path class="st5" d="M678.3,164.9c0,0.4,0.4,0.8,0.8,0.8h1.2c0.4,0,0.8-0.4,0.8-0.8l0,0c0-0.1,0-0.1,0-0.2c0-0.1-0.1-0.2-0.2-0.3
	c-0.1-0.2-0.4-0.2-0.6-0.2H679c-0.3,0-0.6,0.2-0.7,0.5C678.3,164.7,678.2,164.8,678.3,164.9z"/>
<path class="st5" d="M675,164.9c0,0.4,0.4,0.8,0.8,0.8h1.2c0.4,0,0.8-0.4,0.8-0.8l0,0c0-0.1,0-0.2-0.1-0.3c-0.1-0.3-0.4-0.5-0.7-0.5
	h-1.2C675.4,164.1,675,164.5,675,164.9C675,164.9,675,164.9,675,164.9L675,164.9z"/>
<path class="st5" d="M671.4,164.9c0,0.4,0.4,0.8,0.8,0.8h1.2c0.4,0,0.8-0.4,0.8-0.8c0-0.2-0.1-0.3-0.1-0.5l-0.1-0.1
	c-0.1-0.2-0.4-0.2-0.6-0.2h-1.2c-0.2,0-0.4,0.1-0.6,0.3C671.5,164.5,671.4,164.7,671.4,164.9z"/>
<path class="st4" d="M681.9,164.7c0,0.1,0,0.1,0,0.2c0,0.4,0.4,0.8,0.8,0.8h1.2c0.4,0,0.8-0.4,0.8-0.8l0,0c0,0,0-0.1,0-0.1
	L681.9,164.7z"/>
<path class="st4" d="M678.3,164.6c0,0.1-0.1,0.2-0.1,0.3c0,0.4,0.4,0.8,0.8,0.8h1.2c0.4,0,0.8-0.4,0.8-0.8l0,0c0-0.1,0-0.1,0-0.2
	L678.3,164.6z"/>
<path class="st4" d="M675.2,164.5c-0.1,0.1-0.1,0.3-0.1,0.4c0,0.4,0.4,0.8,0.8,0.8h1.2c0.4,0,0.8-0.4,0.8-0.8l0,0
	c0-0.1,0-0.2-0.1-0.3L675.2,164.5z"/>
<path class="st4" d="M671.4,164.9c0,0.4,0.4,0.8,0.8,0.8h1.2c0.4,0,0.8-0.4,0.8-0.8c0-0.2-0.1-0.3-0.1-0.5l-2.5-0.1
	C671.5,164.5,671.4,164.7,671.4,164.9z"/>
<path class="st1" d="M664.2,168.1h23.3v-1.1c0-1-0.8-1.8-1.8-1.8l-18.7-0.6c-1.5-0.1-2.8,1.1-2.9,2.7c0,0,0,0.1,0,0.1L664.2,168.1z"
	/>
<linearGradient id="SVGID_1_" gradientUnits="userSpaceOnUse" x1="745.7319" y1="212.5844" x2="745.7319" y2="455.1706" gradientTransform="matrix(1 9.000000e-02 9.000000e-02 -1 -64.5721 435.3525)">
	<stop  offset="0" style="stop-color:#808080;stop-opacity:0.25"/>
	<stop  offset="0.54" style="stop-color:#808080;stop-opacity:0.12"/>
	<stop  offset="1" style="stop-color:#808080;stop-opacity:0.1"/>
</linearGradient>
<path class="st6" d="M761.7,180.9c10.9-18.4,6.9-55.6,7.4-56.3c0.4-0.6-1.1-18.1-11.1-22.4c-1.8-3.6-3.6-7.6-3.6-7.6
	c-0.2,0.2-0.4,0.3-0.6,0.4c-0.1-0.2-0.2-0.4-0.2-0.7c-0.1-0.4-0.2-0.8-0.4-1.1c0.3,0.1,0.6,0.2,0.9,0.2c0.8,0.2,1.6,0.1,2.3-0.2
	c0.2-0.1,0.5-0.3,0.7-0.5c0.8-0.5,1.2-1.5,1.6-2.4l2.9-7c1.3-3.1,2.6-6.3,3.3-9.6c1-5,0.6-10.2-1.2-15c-0.7-1.8-1.6-3.7-3.3-4.7
	c-3.2-2.2-7.7-0.7-11.4-2c-1.2-0.4-2.3-1.1-3.5-1.6c-2.6-0.9-5.6-0.4-8.1,0.7s-4.6,3-6.8,4.7c-1.1,0.8-2.8,1.7-4.1,2.8
	c-1.2,1-2.2,2.1-2,3.7c0.2,1.8,2.1,2.8,3.8,3.2c0.3,0.1,0.6,0.1,0.9,0.2c-6.6,6.7-6.5,17.4,0.2,24c2,2,4.4,3.4,7.1,4.2
	c0.9,1.7,1.6,3.4,2.3,5.2c0.1,0.2,0.2,0.5,0.2,0.7c-2.9,0.8-5.1,1.5-5.5,1.9c-1.4,1.1,1.5,10.9,1.5,10.9c-0.7,0.9-1.5,2-2.2,3.1
	c-5.6,8.6-9.2,18.3-10.4,28.5c-0.5,3.7-1.1,7.5-1.9,11.2l-33.8-6.8l-0.1,0.8l-0.8-0.2l0,0l-2.5-0.6l-0.1,0.6l-0.4-0.2
	c-6.3-2.9-16.9-6.7-24-2.8c-7.6,4.1,8.8,9.5,19.2,12.4c-3.5,0.2-6.8,1-9.4,3c-7.6,5.7,13.9,8.7,24,9.7l0.4,0v0.2l3.5,0.3l0.8,0.1
	l0.1,1.3c0,0,5,0.8,11.8,1.8c-7.7,1.9-17.2,3.2-23.7,4c-7,0.8-12.9,5.7-14.8,12.5c-0.6,1.9-0.7,4-0.2,6c2,6.8-0.4,57.2-1,68.1
	l-12.4,7.1c0,0-19.3,2.4-6.5,6.9c1.2,0.4,2.3,0.7,3.5,0.9c-1.7,1.1-1.6,2.5,3.4,4.3c12.9,4.5,42.8-0.2,42.8-0.2s-0.7-5.3-1.7-9.7
	l0.3,0c0,0-3.1-11.5,1.6-17.3s-0.8-49.9-0.8-49.9s8.2-3.4,32.7-3.6c19.8,5.1,29.4-13.1,29.3-22.5
	C761.7,181.3,761.7,181.1,761.7,180.9z"/>
<path class="st7" d="M688.6,152.3l-2.1,8.5c0,0-1.9-0.4-4.7-1.1c-9.6-2.5-29.8-8.4-21.7-12.8c7-3.8,17.3-0.1,23.4,2.8
	c2.2,1.1,3.9,2,4.7,2.4C688.4,152.2,688.6,152.3,688.6,152.3z"/>
<path class="st4" d="M688,154.7l-1.5,6.1c0,0-1.9-0.4-4.7-1.1l1.7-10c2.2,1.1,3.9,2,4.7,2.4L688,154.7z"/>
<polygon class="st8" points="688,161.4 682.1,160 684,149.2 688.6,150.4 "/>
<polygon class="st4" points="688,161.4 685.5,160.8 686.4,149.9 688.6,150.4 "/>
<path class="st9" d="M744.5,117c0,0-11.2-6.5-16.2,12.1s-5.5,27.2-5.5,27.2l-35.5-7.1l-1.1,13c0,0,37.9,12.3,42.7,11.4
	c4.8-0.9,20.3-26.9,20.3-26.9S763.2,126.6,744.5,117z"/>
<g class="st10">
	<path d="M688.6,152.3l-2.1,8.5c0,0-1.9-0.4-4.7-1.1c-9.6-2.5-29.8-8.4-21.7-12.8c7-3.8,17.3-0.1,23.4,2.8c2.2,1.1,3.9,2,4.7,2.4
		C688.4,152.2,688.6,152.3,688.6,152.3z"/>
	<path class="st4" d="M688,154.7l-1.5,6.1c0,0-1.9-0.4-4.7-1.1l1.7-10c2.2,1.1,3.9,2,4.7,2.4L688,154.7z"/>
	<polygon points="688,161.4 682.1,160 684,149.2 688.6,150.4 	"/>
	<polygon class="st4" points="688,161.4 685.5,160.8 686.4,149.9 688.6,150.4 	"/>
	<path d="M744.5,117.5c0,0-11.2-6.5-16.2,12.1s-5.5,27.2-5.5,27.2l-35.5-7.1l-1.1,13c0,0,37.9,12.3,42.7,11.4
		c4.8-0.9,20.3-26.9,20.3-26.9S763.2,127,744.5,117.5z"/>
</g>
<path class="st11" d="M673,261.3l-14.5,8.3c0,0-18.8,2.3-6.3,6.7s41.6-0.2,41.6-0.2s-1.6-13.1-3.9-14.9
	C687.7,259.5,673,261.3,673,261.3z"/>
<path class="st12" d="M729.5,167.7c0,0-7.2,3.8-20,7c-7.5,1.9-16.9,3.2-23.4,4c-6.8,0.7-12.5,5.5-14.4,12.1
	c-0.6,1.9-0.7,3.9-0.2,5.8c2.1,7.5-1.1,68.1-1.1,68.1l22,2c0,0-3-11.2,1.6-16.8c4.6-5.6-0.8-48.5-0.8-48.5s8-3.3,31.8-3.5
	c22.1,5.7,31.2-18.5,27.8-25.3C749.4,165.9,729.5,167.7,729.5,167.7z"/>
<g class="st10">
	<path d="M673,261.3l-14.5,8.3c0,0-18.8,2.3-6.3,6.7s41.6-0.2,41.6-0.2s-1.6-13.1-3.9-14.9C687.7,259.5,673,261.3,673,261.3z"/>
	<path d="M729.5,167.7c0,0-7.2,3.8-20,7c-7.5,1.9-16.9,3.2-23.4,4c-6.8,0.7-12.5,5.5-14.4,12.1c-0.6,1.9-0.7,3.9-0.2,5.8
		c2.1,7.5-1.1,68.1-1.1,68.1l22,2c0,0-3-11.2,1.6-16.8c4.6-5.6-0.8-48.5-0.8-48.5s8-3.3,31.8-3.5c22.1,5.7,31.2-18.5,27.8-25.3
		C749.4,165.9,729.5,167.7,729.5,167.7z"/>
</g>
<path class="st11" d="M679.8,266.4l-14.5,8.3c0,0-18.8,2.3-6.3,6.7s41.6-0.2,41.6-0.2s-1.6-13.1-3.9-14.9
	C694.5,264.5,679.8,266.4,679.8,266.4z"/>
<path class="st12" d="M731.8,203c-23.8,0.2-31.8,3.5-31.8,3.5s5.3,42.9,0.8,48.5s-1.6,16.8-1.6,16.8l-22-2c0,0,0-0.7,0.1-2
	c0.5-10.5,2.9-59.4,0.9-66.1c-0.5-1.9-0.4-3.9,0.2-5.8c1.9-6.6,7.6-11.4,14.4-12.1c6.5-0.8,15.9-2.1,23.4-4l0.4-0.1
	c12.6-3.2,19.6-6.9,19.6-6.9s19.9-1.8,23.3,5c0.5,1.1,0.7,2.2,0.7,3.4C760.4,190.3,751,207.9,731.8,203z"/>
<path class="st7" d="M698.6,162.9l-0.8,8.7c0,0-1.9-0.1-4.8-0.4c-9.8-1-30.7-3.9-23.3-9.4c6.3-4.7,17-2.7,23.5-0.8
	c2.4,0.7,4.2,1.4,5,1.7C698.5,162.8,698.6,162.9,698.6,162.9z"/>
<path class="st7" d="M757.2,105.9c0,0-2.9,2.3-6.6,4.8c-4,0.9-8.5,1.6-11.9,2.1c1.2-3.8,0.5-8-0.9-11.7c-1.5-3.9-3.4-7.5-5.9-10.9
	l19.9-6.2c-1.6,4-0.9,8.5,0.5,12.4C753.6,99.8,755.2,103,757.2,105.9z"/>
<path class="st4" d="M698.4,165.3l-0.6,6.3c0,0-1.9-0.1-4.8-0.4l0.2-10.2c2.4,0.7,4.2,1.4,5,1.7L698.4,165.3z"/>
<polygon class="st8" points="699.4,172 693.4,171.4 693.6,160.5 698.4,161 "/>
<path class="st4" d="M757.2,105.9c0,0-2.9,2.3-6.6,4.8c-4,0.9-8.5,1.6-11.9,2.1c1.2-3.8,0.5-8-0.9-11.7c4.9-1.4,11.8-3.2,14.5-4.7
	C753.6,99.8,755.2,103,757.2,105.9z"/>
<path class="st8" d="M753.2,96.6c0,0,3.3,7.6,5.4,11c2.1,3.4-24.4,6.6-24.4,6.6s-2.8-9.5-1.4-10.6S751,98.9,753.2,96.6z"/>
<path class="st4" d="M760.3,181.2c-1.1,2-2.5,3.8-4.1,5.3c-11.7,11.1-30.9-0.5-39.6-6.8c12.6-3.2,19.6-6.9,19.6-6.9s19.9-1.8,23.3,5
	C760.1,178.8,760.3,180,760.3,181.2z"/>
<path class="st9" d="M756.2,185.7c-13.3,12.6-36.3-4.1-42.5-9c-1-0.8-1.6-1.3-1.6-1.3c2.4-2.3,4.6-7.1,6.3-13.1
	c1.6-5.7,2.7-11.5,3.4-17.3c1.2-9.9,4.7-19.4,10.1-27.7c0.7-1.1,1.4-2.1,2.1-3c5-6.4,13.5-10.5,13.5-10.5
	c17.8-5.2,20.2,21.2,19.8,22C767,126.6,771.7,171,756.2,185.7z"/>
<path class="st4" d="M758,149.5c0,0-11.5,28-16,29.6c-2.6,0.9-16.6-0.8-28.2-2.5c-1-0.8-1.6-1.3-1.6-1.3c2.4-2.3,4.6-7.1,6.3-13.1
	l14.8,0.7c0,0-0.8-8.5,1.4-27.7s14.2-14.4,14.2-14.4C768.9,127.6,758,149.5,758,149.5z"/>
<polygon class="st4" points="699.4,172 696.8,171.7 696.1,160.8 698.4,161 "/>
<path class="st9" d="M748.6,119.6c0,0-12.1-4.7-14.2,14.4c-2.2,19.2-1.4,27.7-1.4,27.7l-36.2-1.7l0.8,13c0,0,39.4,6.5,43.9,4.9
	c4.6-1.6,16-29.6,16-29.6S768.6,126.3,748.6,119.6z"/>
<path class="st4" d="M749.4,91.3c-0.5-2.9,2.5-2.8,3.5-5.5L733,92c1.4,1.9,2.6,3.8,3.7,5.9c1,0.3,2.1,0.5,3.2,0.6
	C744.7,98.9,746.1,94.2,749.4,91.3z"/>
<ellipse transform="matrix(9.202299e-02 -0.9958 0.9958 9.202299e-02 592.2331 810.1363)" class="st7" cx="740.3" cy="80.3" rx="16.5" ry="16.5"/>
<path class="st4" d="M724.1,65.4c0.2,1.7,2,2.8,3.7,3.1c1.7,0.4,3.5,0.4,5,1.3c2.4,1.5,3,4.7,2.7,7.4c-0.2,1.6-0.4,3.5,0.9,4.4
	c0.4,0.2,0.9,0.4,1.3,0.5c1.3,0.3,2.7,0.3,4.1,0.1c0.8-0.1,1.6-0.3,2.4-0.1c1.2,0.4,2,1.7,2.2,2.9s0.1,2.6,0.3,3.8
	c0.6,3.2,3,5.8,6.3,6.5c0.7,0.2,1.5,0.1,2.2-0.2c0.9-0.5,1.4-1.5,1.7-2.4l2.8-6.8c1.3-3,2.6-6.1,3.2-9.4c1-4.9,0.6-9.9-1.1-14.6
	c-0.7-1.8-1.6-3.5-3.2-4.6c-3.1-2.1-7.5-0.7-11.1-1.9c-1.2-0.4-2.2-1.1-3.4-1.5c-2.5-0.9-5.4-0.4-7.9,0.7c-2.5,1.1-4.4,2.9-6.6,4.6
	C727.7,60.9,723.7,62.5,724.1,65.4z"/>
<path class="st13" d="M724.5,65.1c0.2,1.7,2,2.8,3.7,3.1s3.5,0.4,5,1.3c2.4,1.5,3,4.7,2.7,7.4c-0.2,1.6-0.4,3.5,0.9,4.4
	c0.4,0.2,0.9,0.4,1.3,0.5c1.3,0.3,2.7,0.3,4.1,0.1c0.8-0.1,1.6-0.3,2.4-0.1c1.2,0.4,2,1.7,2.2,2.9c0.2,1.3,0.1,2.6,0.3,3.8
	c0.6,3.2,3,5.8,6.3,6.5c0.7,0.2,1.5,0.1,2.2-0.2c0.9-0.5,1.4-1.5,1.7-2.4l2.8-6.8c1.3-3,2.6-6.1,3.2-9.4c1-4.9,0.6-9.9-1.1-14.6
	c-0.7-1.8-1.6-3.5-3.2-4.6c-3.1-2.1-7.5-0.7-11.1-1.9c-1.2-0.4-2.2-1.1-3.4-1.5c-2.5-0.9-5.4-0.4-7.9,0.7c-2.5,1.1-4.4,2.9-6.6,4.6
	C728.1,60.6,724.2,62.1,724.5,65.1z"/>
<path class="st4" d="M738.2,130.2c0,0-6.3,24.4-12.6,26.7c-6.3,2.3-3.5,2.9-3.5,2.9"/>
<rect x="731.6" y="219.7" class="st1" width="6.8" height="44.9"/>
<rect x="731.6" y="219.7" class="st4" width="6.8" height="3.3"/>
<path class="st1" d="M718,219.4v0.9c0,1.2,1,2.2,2.2,2.2l0,0h29.8c1.2,0,2.2-1,2.2-2.2l0,0v-0.9c0-1.2-1-2.2-2.2-2.2l0,0h-29.8
	C718.9,217.2,718,218.2,718,219.4L718,219.4z"/>
<path class="st4" d="M718.5,218h33.2c-0.4-0.5-1-0.8-1.7-0.8h-29.8C719.5,217.2,718.9,217.5,718.5,218z"/>
<path class="st1" d="M709.6,262.2h51c1.4,0,2.6,1.2,2.6,2.6v0.2c0,1.4-1.2,2.6-2.6,2.6h-51c-1.4,0-2.6-1.2-2.6-2.6v-0.2
	C707,263.3,708.1,262.2,709.6,262.2z"/>
<circle class="st3" cx="760" cy="271" r="3.4"/>
<circle class="st3" cx="710.1" cy="271" r="3.4"/>
<circle class="st3" cx="735.1" cy="271" r="3.4"/>
<path class="st1" d="M731.8,164.5h45.7c2.2,0,4,1.8,4,4v0.3c0,2.2-1.8,4-4,4h-45.7c-2.2,0-4-1.8-4-4v-0.3
	C727.8,166.3,729.6,164.5,731.8,164.5z"/>
<path class="st4" d="M738.5,262.2c0,0-2.7,2.7-6.8,0"/>
<path class="st4" d="M781.5,168.7v0.7c0,1.9-1.5,3.4-3.4,3.4h-46.9c-1.9,0-3.4-1.5-3.4-3.4v-0.7H781.5z"/>
<rect x="682.9" y="176.4" class="st1" width="9.2" height="117.7"/>
<rect x="682.9" y="176.4" class="st4" width="9.2" height="7.6"/>
<rect x="405.1" y="222.9" class="st1" width="6.8" height="44.9"/>
<rect x="405.1" y="222.9" class="st4" width="6.8" height="3.3"/>
<path class="st1" d="M425.6,222.7v0.9c0,1.2-1,2.2-2.2,2.2l0,0h-29.8c-1.2,0-2.2-1-2.2-2.2l0,0v-0.9c0-1.2,1-2.2,2.2-2.2h29.8
	C424.6,220.5,425.6,221.5,425.6,222.7L425.6,222.7L425.6,222.7z"/>
<path class="st4" d="M425.1,221.3h-33.2c0.4-0.5,1-0.8,1.7-0.8h29.8C424.1,220.5,424.7,220.8,425.1,221.3z"/>
<path class="st1" d="M383,265.4h51c1.4,0,2.6,1.2,2.6,2.6v0.2c0,1.4-1.2,2.6-2.6,2.6h-51c-1.4,0-2.6-1.2-2.6-2.6V268
	C380.4,266.5,381.6,265.4,383,265.4z"/>
<circle class="st3" cx="383.6" cy="274.2" r="3.4"/>
<circle class="st3" cx="433.4" cy="274.2" r="3.4"/>
<circle class="st3" cx="408.5" cy="274.2" r="3.4"/>
<path class="st4" d="M405.1,265.4c0,0,2.7,2.7,6.8,0"/>
<path class="st14" d="M579.5,130.1c0,0-7.7-13.9-4.9-26.1c1.2-5.1,0.7-10.4-1.3-15.2c-1-2.3-2.2-4.4-3.6-6.5"/>
<path class="st9" d="M571.4,74.7c0.4,1.8-1.7,7.9-1.7,7.9s-4.5-4.6-4.9-6.4c-0.5-1.8,0.5-3.7,2.3-4.2c1.8-0.5,3.7,0.5,4.2,2.3
	C571.3,74.4,571.4,74.5,571.4,74.7L571.4,74.7z"/>
<path class="st9" d="M579.1,83.6c-0.7,1.8-5.7,5.7-5.7,5.7s-1.3-6.3-0.6-8c0.6-1.8,2.5-2.8,4.3-2.2c1.8,0.6,2.8,2.5,2.2,4.3
	C579.2,83.5,579.2,83.6,579.1,83.6L579.1,83.6z"/>
<path class="st9" d="M582.7,101c-1.5,1.2-7.8,2-7.8,2s2.1-6.1,3.5-7.2c1.4-1.2,3.6-1,4.8,0.4C584.4,97.6,584.2,99.8,582.7,101
	C582.7,101,582.7,101,582.7,101z"/>
<path class="st9" d="M582.4,114.7c-1.2,1.4-7.4,3.3-7.4,3.3s1-6.3,2.2-7.7c1.2-1.4,3.3-1.7,4.8-0.5c1.4,1.2,1.7,3.3,0.5,4.8
	C582.5,114.6,582.5,114.7,582.4,114.7L582.4,114.7z"/>
<path class="st9" d="M566.5,91.2c1.6,1,8,0.9,8,0.9s-2.8-5.7-4.4-6.7c-1.6-1-3.7-0.6-4.7,1c-1,1.6-0.6,3.7,1,4.7
	C566.4,91.1,566.5,91.1,566.5,91.2L566.5,91.2z"/>
<path class="st9" d="M566.4,107.2c1.8,0.5,7.9-1.5,7.9-1.5s-4.4-4.6-6.2-5.1c-1.8-0.4-3.6,0.8-4,2.6
	C563.7,105,564.7,106.7,566.4,107.2z"/>
<path class="st9" d="M568.5,122.9c1.7,0.8,8-0.1,8-0.1s-3.6-5.3-5.3-6.1c-1.7-0.8-3.7,0-4.5,1.7C566,120.1,566.8,122.1,568.5,122.9
	L568.5,122.9z"/>
<path class="st9" d="M571.4,74.7c0.4,1.8-1.7,7.9-1.7,7.9s-4.5-4.6-4.9-6.4c-0.5-1.8,0.5-3.7,2.3-4.2c1.8-0.5,3.7,0.5,4.2,2.3
	C571.3,74.4,571.4,74.5,571.4,74.7L571.4,74.7z"/>
<path class="st9" d="M579.1,83.6c-0.7,1.8-5.7,5.7-5.7,5.7s-1.3-6.3-0.6-8c0.6-1.8,2.5-2.8,4.3-2.2c1.8,0.6,2.8,2.5,2.2,4.3
	C579.2,83.5,579.2,83.6,579.1,83.6L579.1,83.6z"/>
<path class="st9" d="M582.7,101c-1.5,1.2-7.8,2-7.8,2s2.1-6.1,3.5-7.2c1.4-1.2,3.6-1,4.8,0.4C584.4,97.6,584.2,99.8,582.7,101
	C582.7,101,582.7,101,582.7,101z"/>
<path class="st9" d="M582.4,114.7c-1.2,1.4-7.4,3.3-7.4,3.3s1-6.3,2.2-7.7c1.2-1.4,3.3-1.7,4.8-0.5c1.4,1.2,1.7,3.3,0.5,4.8
	C582.5,114.6,582.5,114.7,582.4,114.7L582.4,114.7z"/>
<path class="st9" d="M566.5,91.2c1.6,1,8,0.9,8,0.9s-2.8-5.7-4.4-6.7c-1.6-1-3.7-0.6-4.7,1c-1,1.6-0.6,3.7,1,4.7
	C566.4,91.1,566.5,91.1,566.5,91.2L566.5,91.2z"/>
<path class="st9" d="M566.4,107.2c1.8,0.5,7.9-1.5,7.9-1.5s-4.4-4.6-6.2-5.1c-1.8-0.4-3.6,0.8-4,2.6
	C563.7,105,564.7,106.7,566.4,107.2z"/>
<path class="st9" d="M568.5,122.9c1.7,0.8,8-0.1,8-0.1s-3.6-5.3-5.3-6.1c-1.7-0.8-3.7,0-4.5,1.7C566,120.1,566.8,122.1,568.5,122.9
	L568.5,122.9z"/>
<path class="st9" d="M576.4,168.8L576.4,168.8c-4.5,0-8.1-3.6-8.1-8.1c0-0.2,0-0.3,0-0.5l2.3-35.8h11.6l2.3,35.8
	c0.3,4.5-3.1,8.3-7.6,8.6C576.7,168.8,576.6,168.8,576.4,168.8z"/>
<rect x="334.7" y="-7" class="st0" width="6.6" height="27.3"/>
<rect x="343.2" y="-7" class="st0" width="6.6" height="27.3"/>
<rect x="351.7" y="-7" class="st0" width="6.6" height="27.3"/>
<rect x="360.2" y="-7" class="st0" width="6.6" height="27.3"/>
<rect x="377.1" y="-7" class="st0" width="6.6" height="27.3"/>
<rect x="385.6" y="-7" class="st0" width="6.6" height="27.3"/>
<rect x="334.7" y="-1.9" class="st0" width="6.6" height="1.4"/>
<rect x="334.7" y="15.1" class="st0" width="6.6" height="1.4"/>
<rect x="343.2" y="-1.9" class="st0" width="6.6" height="1.4"/>
<rect x="343.2" y="15.1" class="st0" width="6.6" height="1.4"/>
<rect x="351.7" y="-1.9" class="st0" width="6.6" height="1.4"/>
<rect x="351.7" y="15.1" class="st0" width="6.6" height="1.4"/>
<rect x="360.2" y="-1.9" class="st0" width="6.6" height="1.4"/>
<rect x="360.2" y="15.1" class="st0" width="6.6" height="1.4"/>
<rect x="368.7" y="-1.9" class="st0" width="6.6" height="1.4"/>
<rect x="368.7" y="15.1" class="st0" width="6.6" height="1.4"/>
<rect x="377.1" y="-1.9" class="st0" width="6.6" height="1.4"/>
<rect x="377.1" y="15.1" class="st0" width="6.6" height="1.4"/>
<rect x="385.6" y="-1.9" class="st0" width="6.6" height="1.4"/>
<rect x="385.6" y="15.1" class="st0" width="6.6" height="1.4"/>
<rect x="368.7" y="-7" class="st0" width="6.6" height="27.3"/>
<rect x="397.9" y="-7.1" transform="matrix(0.9075 -0.4201 0.4201 0.9075 34.3361 169.1353)" class="st0" width="6.6" height="27.3"/>
<rect x="394.6" y="-1.1" transform="matrix(0.9075 -0.4201 0.4201 0.9075 36.9962 167.1116)" class="st0" width="6.6" height="1.4"/>
<rect x="401.7" y="14.2" transform="matrix(0.9075 -0.4201 0.4201 0.9075 31.1889 171.5278)" class="st0" width="6.6" height="1.4"/>
<linearGradient id="SVGID_2_" gradientUnits="userSpaceOnUse" x1="471.5825" y1="224.8112" x2="471.5825" y2="465.8511" gradientTransform="matrix(1 0 0 -1 -39.7 512.8625)">
	<stop  offset="0" style="stop-color:#808080;stop-opacity:0.25"/>
	<stop  offset="0.54" style="stop-color:#808080;stop-opacity:0.12"/>
	<stop  offset="1" style="stop-color:#808080;stop-opacity:0.1"/>
</linearGradient>
<path class="st15" d="M478.7,274.8l-12-7.6c-0.1-10.8-0.2-60.7,2-67.4c0.6-1.9,0.6-4,0.1-5.9c-1.6-6.8-7.2-11.9-14.1-13
	c-6.5-1.1-15.8-2.8-23.3-5c6.7-0.7,11.7-1.3,11.7-1.3l0.1-1.2l4.3-0.2v-0.2l0.4,0c10.1-0.6,31.5-2.6,24.2-8.6c-2.5-2-5.7-3-9.2-3.3
	c10.5-2.4,26.9-7,19.6-11.4c-6.9-4.1-17.6-0.9-23.9,1.8l-0.4,0.2l-0.1-0.6l-2.5,0.5l0,0l-0.8,0.2l0-0.8l-35.6,5.5
	c-0.3-4.1-0.8-8.1-1.5-12.2c0.8-5.3,4.5-13,3.2-17.2c-1.5-4.8-7.7-6.4-10.4-10.8c-0.7-1.1-1.4-2.2-2-3.1c-1.5-2-3.1-3.8-5-5.4
	c0.1-2.8,0.7-5.6,1.8-8.1c0.7-1.7,1.5-3.4,2.5-5c8.6-2.1,14.1-10.6,12.5-19.3c2.3,1,5,1.1,6.4-0.8l-0.7-0.3c0.1-0.1,0.1-0.1,0.2-0.2
	c-1.4-0.5-2.8-1.1-3.9-2.1c-0.3-0.3-0.5-0.6-0.7-1c-0.7-1.3-0.6-2.9-1.2-4.2c-0.3-0.6-0.7-1.2-1.2-1.6c-1.1-1.1-2.5-1.9-4-2.3
	c-1.7-0.5-3.5-0.7-5.1-1.4c-4.5-5.3-11.8-7.3-18.4-5.2l-0.6,0.2c0.9-4.2-1.8-8.2-6-9.1c-4.1-0.8-8,1.7-9,5.7
	c0.1-1.7,0.9-3.3,2.1-4.6c-0.1,0.1-0.2,0.2-0.4,0.3c-3.1,2.9-3.2,7.8-0.3,10.9c0,0,0,0,0,0l0.1,0.1c0.5,0.7,1.2,1.2,1.9,1.7
	c-2.7-1-4.7-3.4-5.1-6.3c0,0.2,0,0.3,0,0.5c0.2,4.2,3.9,7.5,8.1,7.2c0,0,0,0,0.1,0l0.2,0l-0.1,0.2c-4.5,6.6-3.9,15.5,1.6,21.4
	c0.3,0.7,0.7,1.4,1.2,2c0.2,0.2,0.4,0.4,0.6,0.6c1.3,1.4,3.1,2.2,4.9,2.3c0.3,0.4,0.6,0.7,1,1.1c-0.3,1.3-0.7,2.6-1.2,3.9
	c-1,2.5-2.3,4.9-3.7,7.2c-10.2,2.9-11.1,20.2-10.7,20.8c0.4,0.8-1.5,27.9,6,60.7c-0.3,9.4,5.2,24.9,24.6,20.8
	c24.3,1.3,32.2,5,32.2,5s-2.3,42.2,1,48.4c2.1,3.8,0.6,9.5-0.9,13.5c-0.6,1-1,2-1.4,3.1c-0.5,1-0.8,1.6-0.8,1.6h0.3
	c-1.2,4.3-2.1,9.5-2.1,9.5s29.4,6,42.4,2.1c5-1.5,5.2-2.9,3.6-4.1c1.2-0.2,2.4-0.4,3.6-0.8C497.7,278,478.7,274.8,478.7,274.8z"/>
<path class="st16" d="M414.7,74.4c0,9.4-7.6,17-17,17c-9.4,0-17-7.6-17-17c0-9.4,7.6-17,17-17C407.1,57.4,414.7,65,414.7,74.4z"/>
<path class="st7" d="M452.9,154.1l1.7,8.6c0,0,1.9-0.3,4.7-0.9c9.7-2,30.1-7.1,22.2-11.8c-6.8-4.1-17.2-0.9-23.5,1.7
	c-2.3,0.9-4,1.8-4.8,2.2C453.1,154,452.9,154.1,452.9,154.1z"/>
<path class="st4" d="M453.4,156.5l1.2,6.2c0,0,1.9-0.3,4.7-0.9l-1.3-10.1c-2.3,0.9-4,1.8-4.8,2.2L453.4,156.5z"/>
<polygon class="st8" points="453.1,163.2 459,162 457.7,151.2 452.9,152.2 "/>
<polygon class="st4" points="453.1,163.2 455.6,162.7 455.2,151.7 452.9,152.2 "/>
<path class="st9" d="M398.6,116.3c0,0,11.5-6,15.7,12.8c4.2,18.8,4.2,27.4,4.2,27.4l35.8-5.5l0.6,13c0,0-38.5,10.6-43.2,9.5
	c-4.7-1.1-19.1-27.7-19.1-27.7S379.5,125.1,398.6,116.3z"/>
<g class="st10">
	<path d="M452.9,154.1l1.7,8.6c0,0,1.9-0.3,4.7-0.9c9.7-2,30.1-7.1,22.2-11.8c-6.8-4.1-17.2-0.9-23.5,1.7c-2.3,0.9-4,1.8-4.8,2.2
		C453.1,154,452.9,154.1,452.9,154.1z"/>
	<path class="st4" d="M453.4,156.5l1.2,6.2c0,0,1.9-0.3,4.7-0.9l-1.3-10.1c-2.3,0.9-4,1.8-4.8,2.2L453.4,156.5z"/>
	<polygon points="453.1,163.2 459,162 457.7,151.2 452.9,152.2 	"/>
	<polygon class="st4" points="453.1,163.2 455.6,162.7 455.2,151.7 452.9,152.2 	"/>
	<path d="M399.6,117.3c0,0,11.5-6,15.7,12.8c4.2,18.8,4.2,27.4,4.2,27.4l35.8-5.5l0.6,13c0,0-38.5,10.6-43.2,9.5
		c-4.7-1.1-19.1-27.7-19.1-27.7S380.4,126,399.6,117.3z"/>
</g>
<path class="st17" d="M463.7,263.7l14.1,9c0,0,18.7,3.1,6,7c-12.7,3.8-41.5-2-41.5-2s2.2-13,4.5-14.7
	C449.1,261.2,463.7,263.7,463.7,263.7z"/>
<path class="st18" d="M411.4,167.6c0,0,7,4.1,19.7,7.9c7.4,2.2,16.7,4,23.2,5c6.8,1,12.2,6.1,13.8,12.7c0.5,1.9,0.5,3.9-0.1,5.8
	c-2.5,7.4-2,68.1-2,68.1l-22.1,1.1c0,0,3.5-11-0.8-16.9c-4.3-5.8,2.9-48.4,2.9-48.4s-7.8-3.6-31.6-4.9
	c-22.3,4.7-30.3-19.9-26.6-26.5S411.4,167.6,411.4,167.6z"/>
<g class="st10">
	<path d="M463.7,263.7l14.1,9c0,0,18.7,3.1,6,7c-12.7,3.8-41.5-2-41.5-2s2.2-13,4.5-14.7C449.1,261.2,463.7,263.7,463.7,263.7z"/>
	<path d="M411.4,167.6c0,0,7,4.1,19.7,7.9c7.4,2.2,16.7,4,23.2,5c6.8,1,12.2,6.1,13.8,12.7c0.5,1.9,0.5,3.9-0.1,5.8
		c-2.5,7.4-2,68.1-2,68.1l-22.1,1.1c0,0,3.5-11-0.8-16.9c-4.3-5.8,2.9-48.4,2.9-48.4s-7.8-3.6-31.6-4.9
		c-22.3,4.7-30.3-19.9-26.6-26.5S411.4,167.6,411.4,167.6z"/>
</g>
<path class="st17" d="M456.7,268.5l14.1,9c0,0,18.7,3.1,6,7c-12.7,3.8-41.5-2-41.5-2s2.2-13,4.5-14.7S456.7,268.5,456.7,268.5z"/>
<path class="st18" d="M407.5,202.8c23.8,1.3,31.6,4.9,31.6,4.9s-2.3,41.4,0.9,47.4c3.4,6.4-3.1,17.9-3.1,17.9L459,272c0,0,0-0.7,0-2
	c-0.1-10.5-0.2-59.5,2-66.1c0.6-1.9,0.6-3.9,0.1-5.8c-1.6-6.7-7.1-11.7-13.8-12.7c-6.5-1-15.8-2.8-23.2-5l-0.4-0.1
	c-12.4-3.8-19.3-7.8-19.3-7.8s-14.7-1-18.4,5.6c-0.5,0.9-2.5,2.5-2.6,3.9C382.9,191,388,206.9,407.5,202.8z"/>
<path class="st7" d="M442.4,164.2l0.4,8.7c0,0,1.9-0.1,4.8-0.2c9.9-0.6,30.8-2.5,23.7-8.4c-6.1-5-16.9-3.4-23.5-1.8
	c-2.4,0.6-4.2,1.2-5,1.5C442.6,164.1,442.4,164.2,442.4,164.2z"/>
<path class="st7" d="M386.4,104.7c0,0,2.8,2.4,6.3,5.1c3.9,1.1,8.5,2,11.7,2.6c-1-3.8-0.1-8,1.4-11.7c1.6-3.8,3.8-7.4,6.4-10.6
	l-19.6-7.1c1.4,4,0.5,8.5-1,12.4C390.3,98.7,388.5,101.8,386.4,104.7z"/>
<path class="st4" d="M442.5,166.7l0.3,6.3c0,0,1.9-0.1,4.8-0.2l0.3-10.2c-2.4,0.6-4.2,1.2-5,1.5L442.5,166.7z"/>
<polygon class="st8" points="441.2,173.3 447.2,173 447.5,162.1 442.7,162.3 "/>
<path class="st9" d="M383.8,184.5c12.7,13.2,36.4-2.5,42.8-7.1c1-0.8,1.6-1.2,1.6-1.2c-2.4-2.4-6.1-4.6-7.6-10.6
	c-1.4-6.1-2.3-12.4-2.8-18.6c-0.4-5,4.7-14.4,3.3-19.2c-1.5-4.7-7.6-6.3-10.2-10.5c-0.7-1.1-1.3-2.2-2-3.1c-4.7-6.6-13-11-13-11
	c-17.6-6-19,19.1-18.5,19.9C377.9,123.7,375.9,151.4,383.8,184.5z"/>
<path class="st4" d="M383.7,148.3c0,0,10.2,28.5,14.7,30.3c2.6,1,16.7-0.1,28.2-1.2c1-0.8,1.6-1.2,1.6-1.2
	c-2.4-2.4-4.3-7.3-5.7-13.3l-14.8,0.1c0,0,1.2-8.5-0.1-27.7c-1.3-19.3-13.6-15-13.6-15C373.8,125.8,383.7,148.3,383.7,148.3z"/>
<polygon class="st4" points="441.2,173.3 443.8,173.1 445,162.2 442.7,162.3 "/>
<path class="st9" d="M394.4,118.8c0,0,12.3-4.2,13.6,15c1.3,19.2,0.1,27.7,0.1,27.7l36.2-0.1l-1.4,12.9c0,0-39.6,4.7-44.1,2.9
	c-4.5-1.8-14.7-30.3-14.7-30.3S374.1,124.6,394.4,118.8z"/>
<path class="st4" d="M394.8,90.4c0.7-2.8-2.4-2.9-3.3-5.7l19.7,7.1c-1.5,1.8-2.8,3.7-3.9,5.7c-1,0.3-2.1,0.4-3.2,0.5
	C399.2,98.2,398,93.5,394.8,90.4z"/>
<ellipse transform="matrix(0.9988 -4.797813e-02 4.797813e-02 0.9988 -3.368 19.4921)" class="st7" cx="404.4" cy="79.9" rx="16.5" ry="16.5"/>
<path class="st4" d="M395.8,131c0,0,5.2,24.7,11.4,27.2c6.2,2.5,3.4,3.1,3.4,3.1"/>
<path class="st4" d="M417.3,145c0,0-4.4,1.4-9.4-5.1"/>
<circle class="st16" cx="384.5" cy="57" r="7.5"/>
<path class="st16" d="M379.2,60.9c-2.7-2.9-2.7-7.4,0-10.3c-0.1,0.1-0.2,0.2-0.4,0.3c-3,2.9-3.2,7.6-0.3,10.7
	c2.9,3,7.6,3.2,10.7,0.3l0,0c0.1-0.1,0.2-0.2,0.3-0.3C386.5,64.1,382,63.8,379.2,60.9z"/>
<path class="st16" d="M383.5,63.8c-4,0.2-7.4-2.6-7.9-6.6c0,0.2,0,0.3,0,0.5c0.3,4.2,3.8,7.3,8,7.1c4.2-0.3,7.3-3.8,7.1-8
	c0-0.2,0-0.3-0.1-0.5C390.6,60.2,387.5,63.5,383.5,63.8z"/>
<path class="st4" d="M410.4,63.5c1.8,0.9,3.8,1.1,5.7,1.7c1.9,0.5,3.8,1.5,4.6,3.3c0.6,1.3,0.5,2.9,1.2,4.2c0.9,1.9,3,2.8,5,3.5
	c-1.7,2.2-5.2,1.6-7.6,0.1c-2.3-1.5-4.3-3.8-7.1-4.4c-2.7-0.5-5.5,0.7-7,3.1c-0.7,1.3-1,2.8-1.4,4.3c-0.9,3.8-2.8,7.6-6.1,9.8
	s-8.2,2.2-10.8-0.8c-1.5-1.7-2-4.1-2.5-6.3c-0.3-1.1-0.4-2.1-0.4-3.2c0.2-2.7,2-5,3.8-7c2.1-2.4,4.4-4.6,6.7-6.9
	c2-1.9,4.2-5.2,7.2-5.5C405.2,59.1,407.6,62.1,410.4,63.5z"/>
<path class="st16" d="M410,63c1.8,0.9,3.8,1.1,5.7,1.7c1.9,0.5,3.8,1.5,4.6,3.3c0.6,1.3,0.5,2.9,1.2,4.2c0.9,1.9,3,2.8,5,3.5
	c-1.7,2.2-5.2,1.6-7.6,0.1c-2.3-1.5-4.3-3.8-7.1-4.4c-2.7-0.5-5.5,0.7-7,3.1c-0.7,1.3-1,2.8-1.4,4.3c-0.9,3.8-2.8,7.6-6.1,9.8
	c-3.3,2.2-8.2,2.2-10.8-0.8c-1.5-1.7-2-4.1-2.5-6.3c-0.3-1.1-0.4-2.1-0.4-3.2c0.2-2.7,2-5,3.8-7c2.1-2.4,4.4-4.6,6.7-6.9
	c2-1.9,4.2-5.2,7.2-5.5C404.7,58.6,407.2,61.7,410,63z"/>
<path class="st1" d="M366.1,167.7h45.7c2.2,0,4,1.8,4,4v0.3c0,2.2-1.8,4-4,4h-45.7c-2.2,0-4-1.8-4-4v-0.3
	C362,169.5,363.8,167.7,366.1,167.7z"/>
<path class="st4" d="M362,171.9v0.7c0,1.9,1.5,3.4,3.4,3.4h46.9c1.9,0,3.4-1.5,3.4-3.4v-0.7H362z"/>
<rect x="456.7" y="176.4" class="st1" width="9.2" height="117.7"/>
<rect x="456.7" y="176.4" class="st4" width="9.2" height="7.6"/>
<rect x="452.3" y="167.9" class="st1" width="244.3" height="15.3"/>
</svg>
