<svg id="_Layer_" data-name="&lt;Layer&gt;" xmlns="http://www.w3.org/2000/svg" xmlns:xlink="http://www.w3.org/1999/xlink" viewBox="0 0 260.39 248.86"><defs><style>.cls-1,.cls-52,.cls-53{fill:none;}.cls-2{fill:#fff;}.cls-3{fill:#7af3f9;opacity:0.76;}.cls-4{fill:#fcecdb;}.cls-5{fill:#2db59b;opacity:0.42;}.cls-6{fill:#163560;}.cls-7{fill:#ed975d;}.cls-8{fill:#ed7d2b;}.cls-9{fill:#599dad;}.cls-10{fill:#6bb7bf;}.cls-11{fill:#5aa9ad;}.cls-12{fill:#ffb27d;}.cls-13{fill:#f99746;}.cls-14{fill:#4a75cb;}.cls-15{fill:#2b478b;}.cls-16{fill:#2e3552;}.cls-17,.cls-31{fill:#82b378;}.cls-18{fill:#a8d29f;}.cls-19{fill:#f1a34f;}.cls-20{fill:#ffb973;}.cls-21{fill:#d86713;}.cls-22{fill:#d39e7a;}.cls-23{fill:#e0b594;}.cls-24{fill:#233862;}.cls-25{clip-path:url(#clip-path);}.cls-26{fill:#2a4e96;}.cls-27{fill:#1e3d70;}.cls-28{fill:#ddebfd;}.cls-29{fill:#739af0;}.cls-30{fill:#a8c3f7;}.cls-31{opacity:0.5;}.cls-32{fill:#ffb93e;}.cls-33{fill:#ffa412;}.cls-34{fill:#e2810e;}.cls-35,.cls-40{font-size:12.96px;font-family:MyriadPro-Regular, Myriad Pro;}.cls-35{fill:#129182;}.cls-36{letter-spacing:-0.02em;}.cls-37{letter-spacing:-0.05em;}.cls-38{letter-spacing:-0.08em;}.cls-39{letter-spacing:0.01em;}.cls-40{fill:#1174ce;}.cls-41{letter-spacing:-0.03em;}.cls-42{letter-spacing:0em;}.cls-43{letter-spacing:0.01em;}.cls-44{letter-spacing:0.01em;}.cls-45{letter-spacing:0.01em;}.cls-46{letter-spacing:-0.01em;}.cls-47{letter-spacing:0em;}.cls-48{letter-spacing:0.01em;}.cls-49{letter-spacing:0em;}.cls-50{letter-spacing:-0.01em;}.cls-51{letter-spacing:0.03em;}.cls-52{stroke:#2e95a0;}.cls-52,.cls-53{stroke-miterlimit:10;}.cls-53{stroke:#0982cc;}</style><clipPath id="clip-path" transform="translate(-1.3)"><path class="cls-1" d="M155.94,112.13c-12.3,11.32-27.61,11.3-43.17,5h0c-9.11-3.67-18.75-10-24-18.24-7.09-11-4.62-20.37.85-32.15,7.25-15.64,19-24.92,36.26-23,22.17,2.45,36.16,18.57,40,40A31,31,0,0,1,155.94,112.13Z"/></clipPath></defs><title>paysjob-advertise</title><rect class="cls-2" y="65.6" width="260.39" height="148.8"/><rect class="cls-3" width="260.39" height="145.24"/><path class="cls-4" d="M155.94,112.13c-12.3,11.32-27.61,11.3-43.17,5h0c-9.11-3.67-18.75-10-24-18.24-7.09-11-4.62-20.37.85-32.15,7.25-15.64,19-24.92,36.26-23,22.17,2.45,36.16,18.57,40,40A31,31,0,0,1,155.94,112.13Z" transform="translate(-1.3)"/><path class="cls-5" d="M26.2,144.71S12.65,99,37.52,85.1s39.86,8.26,48.6,19.8,46.52,34.38,69.42,12.9c24.13-22.64,36.11-29.06,53.32-29.61s10.11,17.94,24.6,25.1,7.45,30.07-6,31.73Z" transform="translate(-1.3)"/><path class="cls-6" d="M185.9,139.85s-.3,4.72-1.21,4.78h-4.62l-5.75,0a1.87,1.87,0,0,1,1.72-1.68c1.68-.29,4.49-1.47,5.51-3.69S185.9,139.85,185.9,139.85Z" transform="translate(-1.3)"/><path class="cls-7" d="M189,84.14s-2.71,1.54-3.47,1.54-3.74-.58-4.57-.15a9.62,9.62,0,0,0-2.62,2.69c-.51,1,2,.56,3.25-.3a.75.75,0,0,1,.6-.12,6.12,6.12,0,0,0,2.55.14,45.74,45.74,0,0,1,5.28-.66Z" transform="translate(-1.3)"/><path class="cls-8" d="M209.6,63.12s-2.81,20-7.47,21.78A101.51,101.51,0,0,1,186.68,88s-.74-.6-.56-3c0,0,10.64-3.9,12.15-6,2.25-3.16-1.39-12.91,1.43-15.88S207.28,58.8,209.6,63.12Z" transform="translate(-1.3)"/><path class="cls-9" d="M208.66,105.24a35.37,35.37,0,0,1-2.75,3.93c-3,3.81-6.31,7-6.89,9.93a12.29,12.29,0,0,1-.53,1.91,22.61,22.61,0,0,1-.88,2.14,66.57,66.57,0,0,1-5.11,8.74c-3.31,4.91-6,8.2-6,8.2s-.87.68-3.35.68c-.69,0-3-.38-3-.38.23-.57,3-7.09,6.3-15.37,1.36-3.36,2.8-6.93,4.18-10.38.19-.46.37-.92.56-1.37.42-1.06.84-2.09,1.25-3.11,3.12-7.77,5.62-14,5.62-14s12.5-4.73,13.8-1.67C212.89,97.07,212,99.54,208.66,105.24Z" transform="translate(-1.3)"/><path class="cls-6" d="M199.12,126.39s4,2.56,3.58,3.39c0,.11-2.24,4-2.24,4l-2.83,5a1.87,1.87,0,0,1-.63-2.32c.56-1.61.9-4.64-.54-6.61S199.12,126.39,199.12,126.39Z" transform="translate(-1.3)"/><path class="cls-10" d="M196.86,131.29s2.8-2.6,3.23-4.2c0,0-10.22-12.26-12.44-15q-.15-.2.06-.42c1.67-1.89,20.28-5.73,22.71-9.51A11.78,11.78,0,0,0,212,98.54a8.67,8.67,0,0,0,.12-3.91l-18.59-.54s-15.47,9.64-17.22,16.21S196.86,131.29,196.86,131.29Z" transform="translate(-1.3)"/><path class="cls-11" d="M187.71,111.67c1.67-1.89,20.28-5.73,22.71-9.51A11.78,11.78,0,0,0,212,98.54V96.18l-7.9-1.24s-2.24,6.89-8.87,9.48C189,106.84,187.83,111.13,187.71,111.67Z" transform="translate(-1.3)"/><path class="cls-12" d="M198.61,61.86c3.76,1,10-2.51,10-2.51a9.21,9.21,0,0,1-3.32-5.2l-.12-.55-1.93-.41-2.87,2.57a23.82,23.82,0,0,0,.42,2.91l.22,1A8.83,8.83,0,0,0,198.61,61.86Z" transform="translate(-1.3)"/><path class="cls-13" d="M212.58,77.45c-.54,7.24.17,18.25-.44,20.16-.53,1.65-6.53.67-8.93.12-.89-.2-2-.49-3.07-.84-3.1-1-6.48-2.33-6.84-3.34l0-.12a.85.85,0,0,1,0-.42,7.44,7.44,0,0,0,.64-2.37c.06-1.43.05-3.12.1-4.93,0-.2,0-.43,0-.63v-.19c.06-2,.16-4.15.28-6.26.08-1.32.17-2.63.28-3.89a52.48,52.48,0,0,1,1.11-8,12.78,12.78,0,0,1,4.1-6.33l1.15-1a6.62,6.62,0,0,0,4.14-.55c1.48-.7,2-1.2,2.25-1C210.77,60.53,213.22,68.59,212.58,77.45Z" transform="translate(-1.3)"/><path class="cls-8" d="M200.14,96.89c-3.1-1-6.48-2.33-6.84-3.34l0-.12c0-.14,0-.28,0-.42a7.44,7.44,0,0,0,.64-2.37c.06-1.43.05-3.12.1-4.93,0-.2,0-.43,0-.63v-.19l12.52-16S215,86.46,200.14,96.89Z" transform="translate(-1.3)"/><path class="cls-7" d="M200.36,55.76a23.82,23.82,0,0,0,.42,2.91,7.59,7.59,0,0,0,4.5-4.52l-.12-.55-1.93-.41Z" transform="translate(-1.3)"/><path class="cls-12" d="M200,57.38s6.12-1,5.42-4.82-.37-6.49-4.3-6-4.43,2.07-4.51,3.4S198.37,57.55,200,57.38Z" transform="translate(-1.3)"/><polygon class="cls-14" points="189.63 88.79 174.36 89.12 170.02 75.76 169.48 75.94 174.07 90.06 189.65 89.72 189.63 88.79"/><path class="cls-12" d="M190.64,90.47s-5,1.32-6.89,1.18a5.49,5.49,0,0,1-3.67-1.5c-.24-.46-.73-1.29.55-1.14s3,.43,3.07.18-1-.22-1-.22-.33-.48.09-.5,1.63-.35,2.08-.12.87,1.06,1.2,1,4.19-1.74,4.19-1.74Z" transform="translate(-1.3)"/><path class="cls-13" d="M208.36,63.94s-.59,20.18-5,22.47a101.73,101.73,0,0,1-15,4.78s-.8-.52-.89-3c0,0,10.14-5.06,11.41-7.33,1.89-3.39-2.81-12.69-.33-16S205.57,59.91,208.36,63.94Z" transform="translate(-1.3)"/><path class="cls-15" d="M205.28,54.15a2.91,2.91,0,0,0-.73-2s.28-1.3-.24-1.52-.62.88-.86.71a5.23,5.23,0,0,1-1.74-2.19c-.46-1.21-4.59.25-5.08.47s-2-.58-2.33-1.23a9.48,9.48,0,0,0,1.25-1.2c.38-.52,3.1-4,6.89-3s4.31,2.8,4.09,4.35S206.84,53.63,205.28,54.15Z" transform="translate(-1.3)"/><rect class="cls-16" x="15.98" y="144.64" width="227.02" height="0.6" rx="0.3"/><path class="cls-17" d="M89.53,129.41s-2.44-2.85-.15-4.66a6.44,6.44,0,0,1,3-.93s-1.93,3.24-1.31,3.57,1.9-3.78,1.9-3.78,3.81-.37,5,.22c0,0-3.26,2.67-2.57,2.83s4.2-2.46,4.2-2.46,3.55.6,3.36,2.77-1.41,2.83-2,2.77-3.68-1.25-3.75-.81,1.83,1.88,3.15,1.94c0,0-2.5,2.76-4.16,2s-1.81-2.06-2.84-2.54-1.92-.47-1.5,0,2.31,1,2.9,2,1.12,1.75-.6,1.49-4.51-1.52-4.63-3Z" transform="translate(-1.3)"/><path class="cls-17" d="M101.3,127s-9.64-.37-11.77,2.38a7,7,0,0,1-1.92,2.7l-.22.61s1.67-1.76,2.27-1.87C89.66,130.85,88.72,127.44,101.3,127Z" transform="translate(-1.3)"/><path class="cls-17" d="M87.61,132.11a6,6,0,0,0-2.21,4.26l.38,0s.66-2.82,1.85-3.93S87.61,132.11,87.61,132.11Z" transform="translate(-1.3)"/><path class="cls-18" d="M81,125.83s3.88-2.18,2.07-5.14a7.73,7.73,0,0,0-3-2.28s.83,4.41,0,4.51-.57-5-.57-5-4.09-2-5.7-1.82c0,0,2.54,4.3,1.71,4.2s-3.68-4.46-3.68-4.46-4.2-.78-4.87,1.71.41,3.73,1,3.89,4.62.1,4.51.62-2.8,1.35-4.3.88c0,0,1.66,4.1,3.84,3.89s2.85-1.55,4.2-1.66,2.33.26,1.66.63-3,.11-4,1-2,1.5,0,1.91,5.65.16,6.38-1.4Z" transform="translate(-1.3)"/><path class="cls-17" d="M68.85,118.36s10.89,3.53,12.14,7.47a8.17,8.17,0,0,0,1,3.78v.78s-1.14-2.65-1.76-3C80.26,127.38,82.7,124,68.85,118.36Z" transform="translate(-1.3)"/><path class="cls-17" d="M82,129.61a7.17,7.17,0,0,1,.72,5.65l-.43-.11s.42-3.42-.46-5.14S82,129.61,82,129.61Z" transform="translate(-1.3)"/><path class="cls-18" d="M87.17,122.82s-5.12-2.87-2.73-6.76c0,0,1.91-2.4,4-3,0,0-1.09,5.81,0,6s.75-6.57.75-6.57,5.4-2.59,7.52-2.39c0,0-3.35,5.67-2.25,5.54s4.85-5.88,4.85-5.88,5.53-1,6.42,2.26-.54,4.92-1.36,5.12-6.09.14-6,.82,3.69,1.78,5.67,1.16c0,0-2.18,5.4-5.06,5.13s-3.75-2-5.53-2.19-3.08.34-2.19.82,3.9.16,5.33,1.38,2.6,2-.07,2.52-7.44.2-8.4-1.85Z" transform="translate(-1.3)"/><path class="cls-17" d="M103.16,113s-14.35,4.65-16,9.84a10.91,10.91,0,0,1-1.36,5v1s1.5-3.49,2.32-4C88.13,124.87,84.92,120.36,103.16,113Z" transform="translate(-1.3)"/><path class="cls-17" d="M85.81,127.81a9.45,9.45,0,0,0-1,7.45l.57-.15s-.55-4.51.61-6.77S85.81,127.81,85.81,127.81Z" transform="translate(-1.3)"/><path class="cls-19" d="M87,144.14a10,10,0,0,0,10-10H77A10,10,0,0,0,87,144.14Z" transform="translate(-1.3)"/><path class="cls-20" d="M89.47,144.06a10.23,10.23,0,0,1-1.25.08,10,10,0,0,1-10-10h2.5A10,10,0,0,0,89.47,144.06Z" transform="translate(-1.3)"/><path class="cls-19" d="M97.18,144.65H76.82a1.24,1.24,0,0,1,1.24-1.24H95.94a1.24,1.24,0,0,1,1.24,1.24Z" transform="translate(-1.3)"/><rect class="cls-21" x="75.33" y="134.1" width="20.64" height="0.31"/><path class="cls-22" d="M223.78,144.1c-2.39-2.44-6.59-4.12-11.45-4.32v-8.06h7.5c.19,0,.36-.17.46-.42a1.51,1.51,0,0,0,.12-.63v-.36c0-.57-.26-1-.58-1h-7.5V110.06a1,1,0,0,0-1-1h0a1,1,0,0,0-1,1v19.21h-7.51c-.32,0-.58.47-.58,1v.36a1.6,1.6,0,0,0,.13.65c.1.24.27.4.45.4h7.51v8.06c-4.86.2-9.07,1.88-11.46,4.32-.17.18-.34.36-.49.54h25.82C224.12,144.46,224,144.28,223.78,144.1Z" transform="translate(-1.3)"/><path class="cls-23" d="M212.33,139.82a11.09,11.09,0,0,0-8,4.28c-.12.18-.25.36-.36.54h-2.39l.36-.54a11.32,11.32,0,0,1,9.19-4.34A11.9,11.9,0,0,1,212.33,139.82Z" transform="translate(-1.3)"/><rect class="cls-8" x="195.78" y="102.63" width="27.89" height="7.16" rx="1.16"/><g id="man"><path class="cls-12" d="M82.27,65.77c-.43,1.15-1.17,2.49-2,2.82a3.06,3.06,0,0,0-1.25.91l-.72-.41-.85-.5s0-.1.06-.25a6,6,0,0,1,.2-.6.83.83,0,0,0,.1-.76A1.77,1.77,0,0,1,78,65.51c.28-.4.54-1.38.7-1.35.4.07-.19,1.41,0,1.66a.28.28,0,0,0,.38.13h0c1.12-.49,2.47-3.14,3.08-2.79A5.38,5.38,0,0,1,82.27,65.77Z" transform="translate(-1.3)"/><rect class="cls-15" x="77.68" y="64.05" width="6.68" height="2.15" rx="0.22" transform="translate(-20.16 93.97) rotate(-54.9)"/><rect class="cls-24" x="78.68" y="65.16" width="6.68" height="1.34" rx="0.17" transform="translate(-20.3 95.08) rotate(-54.9)"/><path class="cls-24" d="M58.3,60S65.43,72.48,68,74.77L77.5,67.7a3.45,3.45,0,0,1,2,1.8S73.72,81.24,68.05,81.73,54.42,67.67,54.42,67.67Z" transform="translate(-1.3)"/><path class="cls-24" d="M42.16,144.64H38a2.49,2.49,0,0,1-1.13-1.89c-.2-1.32-1.69-2.05-2-3.13S36.23,137,36.23,137l.27-.35.29-.37,2.74.64s.06.65.1,1.48c0,.6,0,1.29,0,1.9-.08,1.45.4,3,1.69,3.29C42.29,143.8,42.25,144.36,42.16,144.64Z" transform="translate(-1.3)"/><path class="cls-24" d="M66.07,144.64H56.65c-.45-.55-.29-2.59-.22-3.26,0-.13,0-.21,0-.21s3.21-2.57,3.65-.6c0,.06,0,.12,0,.18.56,1.84,3.06,2.68,4.5,2.91A1.62,1.62,0,0,1,66.07,144.64Z" transform="translate(-1.3)"/><path class="cls-13" d="M64.28,92s-.49,6.1-1.07,13.43c-.78,10-1.72,22.18-1.81,24.49-.16,4-.8,10.46-.8,10.46s-1.53,1.53-4.59.89a105.68,105.68,0,0,1-3.5-18.91c0-.16,0-.32,0-.48C51.75,112,50.62,91.2,50.62,91.2Z" transform="translate(-1.3)"/><path class="cls-8" d="M64.28,92s-.49,6.1-1.07,13.43L52.51,122.4c0-.16,0-.32,0-.48C51.75,112,50.62,91.2,50.62,91.2Z" transform="translate(-1.3)"/><path class="cls-13" d="M62.05,92.77s-8.81,22.07-14.6,32.45-7.6,13.27-7.6,13.27-3.32-1.33-3.62-2.23c0,0,2.21-20,6.09-24.91,2.19-2.76,4.77-11,4.89-13.94s.78-8.62.78-8.62Z" transform="translate(-1.3)"/><path class="cls-12" d="M59.85,60.58c-3.44,1.09-9.39-1.84-9.39-1.84a9,9,0,0,0,3-7.34l2.66,2.15L57.93,55a23.31,23.31,0,0,1-.2,2.37c-.06.39-.12.84-.2,1.32A8.13,8.13,0,0,1,59.85,60.58Z" transform="translate(-1.3)"/><path class="cls-7" d="M57.93,55a23.31,23.31,0,0,1-.2,2.37c-2-.35-4.28-3.58-4.28-3.58a6.25,6.25,0,0,1,2.67-.24Z" transform="translate(-1.3)"/><path class="cls-12" d="M59,54.92s-5.68.95-6.21-2.6-1.63-5.82,2-6.57,4.51.49,5,1.63S60.45,54.59,59,54.92Z" transform="translate(-1.3)"/><path class="cls-15" d="M64.66,92.55a.57.57,0,0,1-.37.14c-1.29,0-5.06.7-8.25.37a23.77,23.77,0,0,1-7.62-2.2c-.34-.15-1.12-.57-1.1-1s0-1,.1-1.77a94.7,94.7,0,0,0,.19-12.41c0-1-.08-1.94-.09-2.89,0-7.1,1.38-13.34,4.21-15.45.24-.17,1.72.55,3.09,1.23a5.56,5.56,0,0,0,3.7.44l1.19,1.06a11.85,11.85,0,0,1,3.72,5.94,66.6,66.6,0,0,1,1.12,11c.09,2,.16,4,.18,5.93v.07c0,.19,0,.4,0,.59C64.81,88.59,64.74,92.48,64.66,92.55Z" transform="translate(-1.3)"/><path class="cls-24" d="M47.42,88.14a94.7,94.7,0,0,0,.19-12.41c0-1-.08-1.94-.09-2.89,1.18-2.86,2.14-4.93,2.14-4.93h3S54.81,82.77,47.42,88.14Z" transform="translate(-1.3)"/><rect class="cls-24" x="33.57" y="90.73" width="11.59" height="18.83" rx="3.03" transform="translate(-66.63 124.99) rotate(-81.89)"/><path class="cls-15" d="M47.23,96.94h0a3.05,3.05,0,0,0-2.1-1.83h0l-.29-.06-2.52-.35.17-1.19a1,1,0,0,0-.2-.74,1,1,0,0,0-.66-.39l-.65-.1-2.65-.37-.48-.07a1,1,0,0,0-1.13.85l-.17,1.18-4.35-.62a3,3,0,0,0-3.43,2.58L28,101.38a3,3,0,0,0,2.58,3.43l12.63,1.8a2.92,2.92,0,0,0,.66,0h0a3.28,3.28,0,0,0,1-.25A3.05,3.05,0,0,0,46.62,104l.79-5.55A3,3,0,0,0,47.23,96.94Zm-9.89-4.16a.39.39,0,0,1,.31-.32h.12l.56.08,2.08.3,1.14.16a.37.37,0,0,1,.31.42l-.17,1.19L37.17,94Z" transform="translate(-1.3)"/><path class="cls-12" d="M41.14,90.09c0-.06,0-.13,0-.2a4.17,4.17,0,0,1,.69-1.24l-1.67-.87-.66,1.09c-1,.8-1,.81-.83,2.33.15,1.31-.71,1.33-.69,2.27s1.24.48,1.24.48c1.87-.88,2-1.33,2-2.22.18.25.38.4.55.29s-.15-.48-.28-1.37A1.6,1.6,0,0,0,41.14,90.09Z" transform="translate(-1.3)"/><path class="cls-15" d="M40.16,89.33a10.1,10.1,0,0,0,2.22.12s3.18-9.8,3.58-10.7,9.43-11.49,9.43-11.49l-3.76-9.4S41.88,74.15,40.89,76.44c-1.63,3.78-2.2,12.26-2.2,12.26A4.17,4.17,0,0,0,40.16,89.33Z" transform="translate(-1.3)"/><path class="cls-15" d="M52.76,52s.58-.1.49-.9-.09-1.86.56-1.66.69.72,1,.41S55,48.24,57,48.15s2.74.59,3.64.19,1-1.77,1-1.77a1.61,1.61,0,0,1-.64.65s1.5-2.07-.24-3.48-3.53-.49-4.54-.43c-2.22.14-3.66.27-4.39,1.73S51.33,50.57,52.76,52Z" transform="translate(-1.3)"/></g><g class="cls-25"><path class="cls-7" d="M133.27,90.54a63.8,63.8,0,0,0-6.71-1.06,13.56,13.56,0,0,0-4.33,1.86c0,.27.13.49.71.51s2.49-.27,2.37,0-5.6,1.46-5.63,2.57,3,3.1,5.6,3.17,7.5-3,7.93-3.08C136.85,94.07,133.27,90.54,133.27,90.54Z" transform="translate(-1.3)"/><path class="cls-8" d="M164.69,77.76a48,48,0,0,1-5.11,5.76,23.52,23.52,0,0,1-2.92,1.91c-8.2,4.62-24,9.32-24,9.32l0,0a7,7,0,0,1-2-2.37,2.73,2.73,0,0,1-.3-2.36,1.06,1.06,0,0,1,.24-.35S149.53,77.57,151,76.31c.86-.71,4-7.94,6.49-14.07.36.51.7,1,1,1.56A53.82,53.82,0,0,1,164.69,77.76Z" transform="translate(-1.3)"/><path class="cls-10" d="M164.82,99.15c-.12.34-.25.67-.38,1a31,31,0,0,1-2.21,4.52h0a29.36,29.36,0,0,1-1.64,2.52,34.31,34.31,0,0,1-4.51,5.07l0-.38c0-.2,0-.39,0-.58,0-.43.06-.84.09-1.25l0-.48q.1-1.52.21-2.88c0-.26,0-.51.05-.76l0-.22,0-.44c0-.13,0-.26,0-.38v0c0-.13,0-.26,0-.39s0-.42.05-.62l0-.38c0-.19,0-.38,0-.56a.53.53,0,0,1,0-.13c0-.09,0-.18,0-.26v-.15c0-.16,0-.32,0-.47v0c0-.11,0-.22,0-.33a.41.41,0,0,0,0-.11c0-.06,0-.12,0-.18a.76.76,0,0,0,0-.15c0-.34,0-.64.07-.92a.49.49,0,0,1,0-.12.37.37,0,0,1,0-.11c0-.08,0-.15,0-.21,0-.49.06-.85.07-1.06v-.22Z" transform="translate(-1.3)"/><path class="cls-9" d="M164.82,99.15c-.12.34-.25.67-.38,1a31,31,0,0,1-2.21,4.52h0a29.36,29.36,0,0,1-1.64,2.52,34.31,34.31,0,0,1-4.51,5.07l0-.38c0-.2,0-.39,0-.58,0-.43.06-.84.09-1.25l0-.48q.1-1.52.21-2.88c0-.26,0-.51.05-.76l0-.22,0-.44c0-.13,0-.26,0-.38v0c0-.13,0-.26,0-.39s0-.42.05-.62l0-.38c0-.19,0-.38,0-.56a.53.53,0,0,1,0-.13c0-.09,0-.18,0-.26v-.15c0-.16,0-.32,0-.47v0c0-.11,0-.22,0-.33a.41.41,0,0,0,0-.11c0-.06,0-.12,0-.18a.76.76,0,0,0,0-.15c0-.34,0-.64.07-.92a.49.49,0,0,1,0-.12.37.37,0,0,1,0-.11c0-.08,0-.15,0-.21,0-.49.06-.85.07-1.06v-.22Z" transform="translate(-1.3)"/><path class="cls-13" d="M166.06,83.75a30.1,30.1,0,0,1-1.24,15.4c-.12.34-.25.67-.38,1a31,31,0,0,1-2.21,4.52h0a29.36,29.36,0,0,1-1.64,2.52c-1.69-.25-3.06-.45-3.9-.47a.66.66,0,0,1-.21,0,1,1,0,0,1-.5-.27c-.17-.14,0-7.93.5-17.74a11.3,11.3,0,0,1,.08-1.16v-.14c0-.65.07-1.3.1-2,0-.38.05-.77.07-1.15.16-2.61.36-5.29.57-8l.06-.76c.34-4.11.73-8.15,1.2-11.76a53.82,53.82,0,0,1,6.13,14A61.35,61.35,0,0,1,166.06,83.75Z" transform="translate(-1.3)"/><path class="cls-26" d="M95.49,98.24c-.1-2.74-.24-6-.42-9.55,0-.37,0-.79-.08-1.16v-.14c0-.32,0-.63,0-1l0-.53-.09-1.63c-.16-2.61-.36-5.29-.57-8l-.06-.76c-.31-3.81-.68-7.55-1.1-11h0s0,0,0-.06c0-.43-.11-.85-.16-1.27-.11-.84-.23-1.65-.35-2.44l-.48.81q-1.41,2.41-2.62,5A79.37,79.37,0,0,0,85.23,78.2l0,.07a24.64,24.64,0,0,0-.81,3.94h0l-.06.55h0A25.13,25.13,0,0,0,88.61,99l.33.51.7,1c.16.23.34.46.51.69l.11.14a40.55,40.55,0,0,0,4.06,4.49l.73.68.19.17a1.19,1.19,0,0,0,.33-.22A81,81,0,0,0,95.49,98.24Z" transform="translate(-1.3)"/><path class="cls-27" d="M95.49,98.24a70.82,70.82,0,0,1-11.09-16h0a24.64,24.64,0,0,1,.81-3.94l0-.07a79.37,79.37,0,0,1,4.24-11.51c2.7,3.87,4.6,7.43,4.72,8.87l.06.76c.21,2.67.41,5.35.57,8l.09,1.63,0,.53c0,.32,0,.63,0,1v.14c.05.37.06.79.08,1.16C95.25,92.23,95.39,95.5,95.49,98.24Z" transform="translate(-1.3)"/><path class="cls-12" d="M115.51,90.89a63,63,0,0,1,6.79.28,13.55,13.55,0,0,1,3.87,2.69c0,.27-.22.45-.79.36s-2.39-.76-2.33-.51,5.21,2.55,5,3.65-3.6,2.43-6.12,2-6.75-4.45-7.16-4.59C111.3,93.64,115.51,90.89,115.51,90.89Z" transform="translate(-1.3)"/><path class="cls-26" d="M116.57,92.89a7,7,0,0,1-1.69,1.92,4.51,4.51,0,0,1-.47.33,182.18,182.18,0,0,1-19.47-8.7,35.09,35.09,0,0,1-6.58-4.36,31.66,31.66,0,0,1-3.13-3.88,79.37,79.37,0,0,1,4.24-11.51q1.22-2.62,2.62-5c.32,1,.66,2,1,3h0c1.79,5.23,3.63,10.24,4.28,10.87,1.43,1.36,19.45,14.71,19.45,14.71a1.26,1.26,0,0,1,.3.71A3.11,3.11,0,0,1,116.57,92.89Z" transform="translate(-1.3)"/><rect class="cls-28" x="106.69" y="51.4" width="30.78" height="27.92"/><rect class="cls-29" x="106.69" y="49.73" width="30.78" height="1.67"/><path class="cls-28" d="M109,50.23a.34.34,0,1,0,.34.34A.34.34,0,0,0,109,50.23Z" transform="translate(-1.3)"/><path class="cls-28" d="M110.34,50.23a.34.34,0,1,0,0,.67.34.34,0,0,0,0-.67Z" transform="translate(-1.3)"/><path class="cls-28" d="M111.66,50.23a.34.34,0,1,0,0,.67.34.34,0,0,0,0-.67Z" transform="translate(-1.3)"/><path class="cls-30" d="M117.24,55H129a.56.56,0,0,0,.56-.56h0a.57.57,0,0,0-.56-.56H117.24a.57.57,0,0,0-.56.56h0A.56.56,0,0,0,117.24,55Z" transform="translate(-1.3)"/><path class="cls-30" d="M114.56,57h17.12a.56.56,0,1,0,0-1.12H114.56a.56.56,0,1,0,0,1.12Z" transform="translate(-1.3)"/><path class="cls-30" d="M113.11,62h20.63a.41.41,0,0,0,.41-.41.41.41,0,0,0-.41-.41H113.11a.41.41,0,0,0-.41.41A.41.41,0,0,0,113.11,62Z" transform="translate(-1.3)"/><rect class="cls-30" x="111.4" y="63.07" width="21.45" height="0.82" rx="0.41"/><path class="cls-30" d="M133.74,65H113.11a.41.41,0,0,0-.41.41.41.41,0,0,0,.41.41h20.63a.41.41,0,0,0,.41-.41A.41.41,0,0,0,133.74,65Z" transform="translate(-1.3)"/><path class="cls-30" d="M115.18,71.83h-2.07a.41.41,0,0,0-.41.41.41.41,0,0,0,.41.41h2.07a.41.41,0,0,0,.41-.41A.41.41,0,0,0,115.18,71.83Z" transform="translate(-1.3)"/><path class="cls-30" d="M118.64,71.83h-2.07a.41.41,0,0,0-.41.41.42.42,0,0,0,.41.41h2.07a.41.41,0,0,0,.41-.41A.41.41,0,0,0,118.64,71.83Z" transform="translate(-1.3)"/><path class="cls-30" d="M130.28,71.83h-2.07a.41.41,0,0,0-.41.41.42.42,0,0,0,.41.41h2.07a.41.41,0,0,0,.41-.41A.41.41,0,0,0,130.28,71.83Z" transform="translate(-1.3)"/><path class="cls-30" d="M133.74,71.83h-2.07a.41.41,0,0,0-.41.41.42.42,0,0,0,.41.41h2.07a.41.41,0,0,0,.41-.41A.41.41,0,0,0,133.74,71.83Z" transform="translate(-1.3)"/><path class="cls-30" d="M115.76,73.14a2.19,2.19,0,1,0,2.18,2.19A2.19,2.19,0,0,0,115.76,73.14Zm0,4.26a2.08,2.08,0,1,1,2.07-2.07A2.08,2.08,0,0,1,115.76,77.4Z" transform="translate(-1.3)"/><path class="cls-30" d="M115.76,73.57a1.76,1.76,0,1,0,1.75,1.76A1.76,1.76,0,0,0,115.76,73.57Zm0,3.4a1.65,1.65,0,1,1,1.64-1.64A1.65,1.65,0,0,1,115.76,77Z" transform="translate(-1.3)"/><path class="cls-30" d="M115.16,76.05q-.36,0-.36-.33a.53.53,0,0,1,.16-.4.65.65,0,0,0,.3.47.2.2,0,0,0,.21-.08,1.27,1.27,0,0,0,.15-.26.12.12,0,0,0,.09,0c.08,0,.16-.06.23-.18l.06-.11h0a.06.06,0,0,0,.08,0,.74.74,0,0,0,.14-.2.08.08,0,0,0,0,0s0,0,.1,0a0,0,0,0,0,0-.06s0,0-.11,0h0c.06-.14.11-.29.08-.34s0,0,0,0-.07,0-.09.12a.92.92,0,0,0,0,.24h-.14s0-.07,0-.09,0,0-.05,0,0,0,0,.07v0a3.25,3.25,0,0,0-.45.08,1.51,1.51,0,0,0-.48.21c0-.07,0-.15.06-.18s.16,0,.19,0l0-.06a.28.28,0,0,0-.26,0c-.07,0-.09.13-.08.26v0a.59.59,0,0,0-.22.48c0,.23.16.37.42.39a1.65,1.65,0,0,0,.63-.09,1.68,1.68,0,0,0,1.07-.84A2.13,2.13,0,0,1,115.16,76.05Zm1.13-1.42a.25.25,0,0,1,0,.07A.64.64,0,0,1,116.29,74.63Zm-.23.34h.11a.56.56,0,0,1-.12.18s0,0,0,0A.89.89,0,0,0,116.06,75Zm-.37,0,.25,0a.32.32,0,0,0,0,.14c0,.06,0,.11-.07.16s-.12.16-.18.15a.07.07,0,0,1-.06,0A.46.46,0,0,0,115.69,75Zm-.07,0s0,.14,0,.25A.51.51,0,0,1,115.62,75Zm-.39.12a1.21,1.21,0,0,1,.32-.11.57.57,0,0,0,0,.26l0,.09a1,1,0,0,1-.17.28s-.08.07-.13,0a.58.58,0,0,1-.26-.45Z" transform="translate(-1.3)"/><path class="cls-30" d="M116.85,75.18a.06.06,0,0,0,0,0A.06.06,0,0,1,116.85,75.18Z" transform="translate(-1.3)"/><path class="cls-30" d="M130.92,73.2a2.24,2.24,0,1,0,2.23,2.24A2.24,2.24,0,0,0,130.92,73.2Zm0,4.36A2.13,2.13,0,1,1,133,75.44,2.12,2.12,0,0,1,130.92,77.56Z" transform="translate(-1.3)"/><path class="cls-30" d="M130.92,73.64a1.8,1.8,0,1,0,1.8,1.8A1.8,1.8,0,0,0,130.92,73.64Zm0,3.49a1.69,1.69,0,1,1,1.69-1.69A1.69,1.69,0,0,1,130.92,77.13Z" transform="translate(-1.3)"/><path class="cls-30" d="M132,75.29a.06.06,0,0,0,0,0A.06.06,0,0,1,132,75.29Z" transform="translate(-1.3)"/><path class="cls-30" d="M130.31,76.17c-.24,0-.37-.13-.37-.33a.48.48,0,0,1,.17-.4.6.6,0,0,0,.3.47.19.19,0,0,0,.21-.08,1,1,0,0,0,.16-.26.18.18,0,0,0,.09,0c.09,0,.17-.06.24-.19l.06-.11h0a.08.08,0,0,0,.09,0,.54.54,0,0,0,.13-.21l0,.05a.08.08,0,0,0,.1,0s0-.05,0-.06-.05,0-.11,0h0a.7.7,0,0,0,.08-.35,0,0,0,0,0-.06,0s-.07,0-.08.12a.68.68,0,0,0,0,.25h-.15s0-.07,0-.09a.05.05,0,0,0-.05,0,.07.07,0,0,0,0,.08s0,0,0,0a3.54,3.54,0,0,0-.45.08,1.6,1.6,0,0,0-.49.22c0-.07,0-.16.05-.19s.17,0,.2,0l0-.06s-.17-.09-.28,0a.27.27,0,0,0-.08.26v0a.61.61,0,0,0-.22.49c0,.24.16.38.43.4a1.54,1.54,0,0,0,.64-.1,1.67,1.67,0,0,0,1.1-.85A2.17,2.17,0,0,1,130.31,76.17Zm1.16-1.45s0,0,0,.08A.19.19,0,0,1,131.47,74.72Zm-.24.35h.11a.62.62,0,0,1-.12.19l0,0A.8.8,0,0,0,131.23,75.07Zm-.38,0,.25,0s0,.09,0,.14a.56.56,0,0,1-.07.16c-.06.1-.12.16-.17.16a.1.1,0,0,1-.07,0A.51.51,0,0,0,130.85,75.11Zm-.07,0a.33.33,0,0,1,0,.26A.55.55,0,0,1,130.78,75.13Zm-.4.12a2.55,2.55,0,0,1,.33-.11.62.62,0,0,0,0,.27.16.16,0,0,0,0,.09,1.38,1.38,0,0,1-.17.29.12.12,0,0,1-.14,0,.58.58,0,0,1-.26-.46Z" transform="translate(-1.3)"/><path class="cls-18" d="M141.48,101.14l-2.68,3.61-.26.36-.13.17-.33.45-.18.24-.33.45-.34.46-.33.44h0l-.31.41h0l-.05.06h0l-.06.07h0l-.33.41v0l-.31.41h0l-.4.54h0l-.3.41h0l-.33.44h0l-.55.75h0l-.06.07-.18.25h0l-.44.59-.57.74v0l-.3.4,0,0h0l-.42.56h0l-.38.52h0l-1,1.29h0l-1.43,1.92-2.38,3.22-.3.4-.18.24.28,0h0l1,.11.27,0,.16,0,.4,0,.17,0h.08l.27,0h0l.58,0h2a1.13,1.13,0,0,0,.26,0,.75.75,0,0,0,.15,0H133c.69,0,1.38-.05,2.06-.11h0c.78-.07,1.55-.16,2.32-.27s1.65-.27,2.45-.45h0l.76-.19.32-.07c1-.26,2-.55,2.93-.88l.48-.18.12,0,.89-.34.24-.09h0l.05,0h0l.28-.12.2-.09.25-.1.15-.07h0l.28-.12h0c.89-.4,1.76-.84,2.6-1.31l.27-.15h0l4.66-6.29Z" transform="translate(-1.3)"/><path class="cls-17" d="M134.43,114.1v.38l.27-.37h-.27Zm-.51.49-.27.14-.6.8-.46.62V117l.54-.73,1.3-1.75A1.42,1.42,0,0,0,133.92,114.59Zm-2.2,2.73-.06.09-.26.35-1.18,1.59v.8l.83-1.11.67-.9.34-.47.26-.35h-.6ZM141.64,104l-2.79,3.76,0,0-.17.23-.21.29-.12.15h0l-.51.7-.22.25v0l-.14.2-.19.25-.77,1h0v0l0,0h0l-.25.33v0l-.73,1-.28.38-.05.07-.79,1.06-.23.31h0l-.46.62-.6.8-.46.62-.33.44-.54.73-.06.09-.26.35-1.18,1.59-.32.44-.56.75-.65.87.17,0h.08l.27,0h0l.68-.92h0l.28-.39.83-1.11.67-.9.34-.47.26-.35h0l.27-.36.54-.73,1.3-1.75h0l.27-.37h0l.42-.53v0l.33-.44.26-.36.47-.63.33-.44.37-.5.15-.2.05-.07h0l.17-.23.33-.45.35-.47.35-.47,0,0h0l.33-.44.26-.34.11-.16h0l.3-.41,0,0,.07-.09,1.27-1.71a1.77,1.77,0,0,1,2.46-.37l6.49,4.82a1.93,1.93,0,0,1,.41,2.7l-3.92,5.29-.23.31.2-.09.25-.1.15-.07h0l.28-.12h0l5.09-6.87Zm-9.92,13.37-.06.09-.26.35-1.18,1.59v.8l.83-1.11.67-.9.34-.47.26-.35h-.6Zm2.2-2.73-.27.14-.6.8-.46.62V117l.54-.73,1.3-1.75A1.42,1.42,0,0,0,133.92,114.59Zm.51-.49v.38l.27-.37h-.27Z" transform="translate(-1.3)"/><path class="cls-17" d="M139.83,120.71h0c-.8.18-1.62.33-2.45.45s-1.54.2-2.32.27h0c-.68.06-1.37.09-2.06.11h-.21c0-.1,0-.2,0-.3a3.42,3.42,0,0,1,.07-.71,3.89,3.89,0,0,1,.71-1.6h0a3.5,3.5,0,0,1,.58-.63l.33-.26a3.53,3.53,0,0,1,1-.5l.33-.1a4.17,4.17,0,0,1,.78-.1,1.82,1.82,0,0,1,.33,0,3.57,3.57,0,0,1,.73.1l.33.1a2.92,2.92,0,0,1,.38.14l.32.17a2.56,2.56,0,0,1,.35.22l.06,0,.26.21h0l.18.17a3.8,3.8,0,0,1,.33.37h0l.13.18h0a5.3,5.3,0,0,1,.33.57h0c0,.09.08.19.11.28h0a3.62,3.62,0,0,1,.18.62Z" transform="translate(-1.3)"/><path class="cls-31" d="M136.48,107.89h0l-.33.42v0l-.31.41-.4.54h0l-.3.41h0l-.33.44h0l-.55.75h0l-.06.07-.18.25h0l-.44.59-.57.75v0l-.3.4,0,0h0l-.42.56-.38.52h0l-1,1.29h0l-1.43,1.92-2.38,3.22-.3.4-.18.24.28,0h0l1,.11.27,0,.16,0,.4,0,.17,0h.08l.27,0h0l.58,0h.52c.06-.32.14-.65.23-1,.14-.5.29-1,.46-1.5s.28-.78.43-1.17c.05-.15.11-.3.18-.46l0-.09h0l.57-1.34v0c.11-.24.22-.45.34-.69.18-.39.37-.78.55-1.15h0c.25-.51.51-1,.76-1.48a1.4,1.4,0,0,1,.1-.16v0l.33-.61c.16-.3.31-.58.47-.86a.25.25,0,0,1,0-.07l.28-.47v0c.22-.4.43-.76.61-1.08l.3-.54.1-.18c.14-.26.26-.48.33-.64l.06-.13Z" transform="translate(-1.3)"/><path class="cls-32" d="M140.42,118v1.82a.09.09,0,0,1,0,.05h0a.76.76,0,0,1-.11.34.7.7,0,0,1-.33.26l-.1,0H123.14l-1.11-.26-.27-.06L121,120l-.33-.08-.57-.15-.61-.17-.27-.08c-.5-.14-1-.29-1.51-.45h0l-.06,0-.46-.14-.26-.09c-1.43-.46-2.84-1-4.24-1.54h27.13l.13,0a.7.7,0,0,1,.33.26A.72.72,0,0,1,140.42,118Z" transform="translate(-1.3)"/><path class="cls-33" d="M126.19,120.54h-3l-1.11-.26-.27-.06L121,120l-.33-.08-.57-.15-.61-.17-.27-.08c-.5-.14-1-.29-1.51-.45h0l-.06,0-.46-.14-.26-.09c-1.43-.46-2.84-1-4.24-1.54h11.57a7.12,7.12,0,0,0,.56,1.54,5.43,5.43,0,0,0,1.14,1.5l.09.08,0,0Z" transform="translate(-1.3)"/><rect class="cls-33" x="135.26" y="117.33" width="0.33" height="3.22"/><rect class="cls-33" x="134.14" y="117.33" width="0.33" height="3.22"/><rect class="cls-33" x="134.11" y="117.32" width="0.33" height="3.22" transform="translate(-1.18 -0.14) rotate(0.06)"/><rect class="cls-33" x="130.76" y="117.32" width="0.33" height="3.22"/><rect class="cls-33" x="128.59" y="117.32" width="0.33" height="3.22"/><rect class="cls-33" x="125.27" y="117.32" width="0.33" height="3.22"/><rect class="cls-33" x="122.16" y="117.32" width="0.33" height="3.22"/><path class="cls-33" d="M121,117.31V120l-.33-.08v-2.64Z" transform="translate(-1.3)"/><rect class="cls-33" x="136.32" y="117.33" width="0.33" height="3.22"/><rect class="cls-33" x="137.02" y="117.33" width="0.33" height="3.22"/><rect class="cls-33" x="139" y="117.33" width="0.33" height="3.22" transform="translate(-1.18 -0.14) rotate(0.06)"/><path class="cls-33" d="M139.84,117.34v3.2h-.33v-3.22h.33Z" transform="translate(-1.3)"/><path class="cls-33" d="M140.3,117.64v2.6a.7.7,0,0,1-.33.26v-3.12A.7.7,0,0,1,140.3,117.64Z" transform="translate(-1.3)"/><path class="cls-32" d="M142.79,114.81v1.82a.75.75,0,0,1-.12.39.7.7,0,0,1-.33.26l-.13,0h-.13l-29,0a.71.71,0,0,1-.7-.67v-1.89a.71.71,0,0,1,.62-.66h.08l29,0h.12l.13,0a.7.7,0,0,1,.33.26A.75.75,0,0,1,142.79,114.81Z" transform="translate(-1.3)"/><path class="cls-33" d="M128.56,117.32H113a.67.67,0,0,1-.63-.67v-1.89a.69.69,0,0,1,.56-.66h13.69A5.71,5.71,0,0,0,128.56,117.32Z" transform="translate(-1.3)"/><rect class="cls-33" x="137.63" y="114.11" width="0.33" height="3.22"/><rect class="cls-33" x="136.51" y="114.11" width="0.33" height="3.22"/><rect class="cls-33" x="135.18" y="114.1" width="0.33" height="3.22"/><rect class="cls-33" x="133.13" y="114.1" width="0.33" height="3.22"/><rect class="cls-33" x="130.96" y="114.1" width="0.33" height="3.22"/><rect class="cls-33" x="127.64" y="114.1" width="0.33" height="3.22"/><rect class="cls-33" x="124.53" y="114.1" width="0.33" height="3.22"/><rect class="cls-33" x="121.75" y="114.1" width="0.33" height="3.22"/><rect class="cls-33" x="138.69" y="114.11" width="0.33" height="3.22"/><rect class="cls-33" x="139.39" y="114.11" width="0.33" height="3.22"/><rect class="cls-33" x="140.07" y="114.11" width="0.33" height="3.22"/><path class="cls-33" d="M142.21,114.12v3.2h-.33v-3.22h.33Z" transform="translate(-1.3)"/><path class="cls-33" d="M142.67,114.42V117a.7.7,0,0,1-.33.26v-3.12A.7.7,0,0,1,142.67,114.42Z" transform="translate(-1.3)"/><path class="cls-32" d="M139,111.59v1.82a.65.65,0,0,1-.12.39.66.66,0,0,1-.33.26l-.12,0h-.13l-29,0a.71.71,0,0,1-.7-.66v-1.9a.71.71,0,0,1,.7-.66l29,0h.12l.13,0,.06,0,0,0h0l0,0h0l0,0a.19.19,0,0,1,.07.06l0,0h0l0,0,0,0A.75.75,0,0,1,139,111.59Z" transform="translate(-1.3)"/><path class="cls-33" d="M124.76,114.1H109.24a.67.67,0,0,1-.63-.66v-1.9a.67.67,0,0,1,.63-.66h13.61s0,.05,0,.07a5.78,5.78,0,0,0,1.88,3.15Z" transform="translate(-1.3)"/><rect class="cls-33" x="133.83" y="110.89" width="0.33" height="3.22"/><rect class="cls-33" x="132.71" y="110.89" width="0.33" height="3.22"/><rect class="cls-33" x="131.38" y="110.89" width="0.33" height="3.22"/><rect class="cls-33" x="129.33" y="110.89" width="0.33" height="3.22"/><rect class="cls-33" x="127.16" y="110.88" width="0.33" height="3.22"/><rect class="cls-33" x="123.84" y="110.88" width="0.33" height="3.22"/><rect class="cls-33" x="120.73" y="110.88" width="0.33" height="3.22"/><rect class="cls-33" x="119.26" y="110.88" width="0.33" height="3.22" transform="translate(-1.19 -0.12) rotate(0.06)"/><rect class="cls-33" x="134.89" y="110.89" width="0.33" height="3.22"/><rect class="cls-33" x="135.59" y="110.89" width="0.33" height="3.22"/><rect class="cls-33" x="136.27" y="110.89" width="0.33" height="3.22"/><path class="cls-33" d="M138.41,110.9v3.2h-.33v-3.22h.33Z" transform="translate(-1.3)"/><path class="cls-33" d="M138.87,111.2v2.6a.66.66,0,0,1-.33.26v-3.12A.7.7,0,0,1,138.87,111.2Z" transform="translate(-1.3)"/><path class="cls-32" d="M141.12,108.45v1.82a.78.78,0,0,1-.12.39.77.77,0,0,1-.33.26.31.31,0,0,1-.13,0l-.12,0-29,0a.65.65,0,0,1-.31-.08.68.68,0,0,1-.38-.56v-1.92a.71.71,0,0,1,.62-.66h.09l29,0h.12a.5.5,0,0,1,.13,0,.72.72,0,0,1,.45.66Z" transform="translate(-1.3)"/><path class="cls-33" d="M126.89,111H111.37a.54.54,0,0,1-.28-.08.68.68,0,0,1-.34-.56v-1.92a.69.69,0,0,1,.56-.66H125a5.75,5.75,0,0,0,1.81,3.14Z" transform="translate(-1.3)"/><rect class="cls-33" x="135.96" y="107.74" width="0.33" height="3.22"/><rect class="cls-33" x="134.84" y="107.74" width="0.33" height="3.22"/><rect class="cls-33" x="133.51" y="107.74" width="0.33" height="3.22"/><rect class="cls-33" x="131.46" y="107.74" width="0.33" height="3.22"/><rect class="cls-33" x="129.29" y="107.74" width="0.33" height="3.22"/><rect class="cls-33" x="125.97" y="107.74" width="0.33" height="3.22"/><rect class="cls-33" x="122.86" y="107.73" width="0.33" height="3.22"/><rect class="cls-33" x="120.08" y="107.73" width="0.33" height="3.22"/><rect class="cls-33" x="137.02" y="107.74" width="0.33" height="3.22"/><rect class="cls-33" x="137.72" y="107.74" width="0.33" height="3.22"/><rect class="cls-33" x="138.4" y="107.74" width="0.33" height="3.22"/><path class="cls-33" d="M140.54,107.76V111l-.12,0h-.21v-3.23h.21Z" transform="translate(-1.3)"/><path class="cls-33" d="M141,108.05v2.61a.77.77,0,0,1-.33.26v-3.13A.77.77,0,0,1,141,108.05Z" transform="translate(-1.3)"/><path class="cls-32" d="M139,105.23v1.82a.75.75,0,0,1-.12.39.7.7,0,0,1-.33.26l-.13,0h-.12l-29,0a.7.7,0,0,1-.7-.67v-1.89a.69.69,0,0,1,.7-.66l29,0h.12l.13,0a.66.66,0,0,1,.33.26A.65.65,0,0,1,139,105.23Z" transform="translate(-1.3)"/><path class="cls-33" d="M124.76,107.74H109.24a.66.66,0,0,1-.62-.67v-1.89a.65.65,0,0,1,.62-.66h13.62a5.72,5.72,0,0,0,1.9,3.21Z" transform="translate(-1.3)"/><rect class="cls-33" x="135.13" y="104.53" width="0.33" height="3.22" transform="translate(-1.19 -0.14) rotate(0.06)"/><rect class="cls-33" x="132.72" y="104.53" width="0.33" height="3.22"/><rect class="cls-33" x="131.38" y="104.52" width="0.33" height="3.22"/><rect class="cls-33" x="129.33" y="104.52" width="0.33" height="3.22"/><rect class="cls-33" x="127.16" y="104.52" width="0.33" height="3.22"/><rect class="cls-33" x="123.84" y="104.52" width="0.33" height="3.22"/><rect class="cls-33" x="120.73" y="104.52" width="0.33" height="3.22"/><rect class="cls-33" x="117.96" y="104.51" width="0.33" height="3.22"/><rect class="cls-33" x="134.89" y="104.53" width="0.33" height="3.22"/><rect class="cls-33" x="135.59" y="104.53" width="0.33" height="3.22"/><rect class="cls-33" x="136.27" y="104.53" width="0.33" height="3.22"/><path class="cls-33" d="M138.41,104.54v3.2h-.33v-3.22h.33Z" transform="translate(-1.3)"/><path class="cls-33" d="M138.87,104.84v2.6a.7.7,0,0,1-.33.26v-3.12A.66.66,0,0,1,138.87,104.84Z" transform="translate(-1.3)"/><path class="cls-34" d="M142.91,119.88c-.66.21-1.33.4-2,.57l-.32.07c-.25.07-.5.12-.76.18h0c-.8.18-1.62.33-2.45.45s-1.54.2-2.32.27h0c-.68.06-1.37.09-2.06.11h-.73a.75.75,0,0,1-.15,0,1.13,1.13,0,0,1-.26,0h-2l-.58,0h0l-.27,0h-.08l-.17,0-.4,0-.16,0-.27,0-1-.11h0l-.28,0-.09,0h-.07l-.19,0h-.08l-.71-.11-.25,0-.25,0-.28,0-.26,0-1.3-.27h0l-1.11-.26-.27-.06-.13,0a10.32,10.32,0,0,1,5.29-9.9l.4-.2.39-.23a10.29,10.29,0,0,1,15.2,10Z" transform="translate(-1.3)"/><path class="cls-34" d="M144.89,112.6a10.22,10.22,0,0,0-3.77-3.89l-.12-.07a2.68,2.68,0,0,0-.33-.18l-.13-.07-.33-.16-.18-.08-.33-.14-.35-.13h0l-.3-.1-.07,0h0l-.08,0-.21-.06-.1,0-.13,0-.33-.08-.18,0-.33-.06-.35,0-.32,0h0l-.38,0h-.33c-.24,0-.48,0-.73,0l-.33,0q-.39,0-.78.09l-.33,0a9.24,9.24,0,0,0-1,.24l-.2.06h-.05a10.87,10.87,0,0,0-1.83.79h0l-.32.18-.06,0a10.4,10.4,0,0,0-2.49,2.11L128,111a10.26,10.26,0,0,0-1.8,3.14h0l0,.08a11.22,11.22,0,0,0-.33,1.17v0a9.62,9.62,0,0,0-.23,1.94h0a9.87,9.87,0,0,0,.38,3c0,.06,0,.12,0,.18s.13.39.2.58h0l.19,0h.07l.09,0,.28,0h0l1,.11.27,0,.16,0,.4,0,.17,0h.08l.27,0h0l.58,0h2a1.13,1.13,0,0,0,.26,0,.75.75,0,0,0,.15,0H133c.69,0,1.38-.05,2.06-.11h0c.78-.07,1.55-.16,2.32-.27s1.65-.27,2.45-.45h0l.76-.19.32-.07c1-.26,2-.55,2.93-.88l.48-.18.12,0,.89-.34.24-.09h0l.05,0h0l.28-.12.2-.09,0-.22A10.33,10.33,0,0,0,144.89,112.6Z" transform="translate(-1.3)"/><path class="cls-32" d="M144.1,113a10.17,10.17,0,0,0-3-3.38l-.12-.08-.33-.22-.13-.09-.33-.19L140,109l-.33-.18-.35-.16a3.27,3.27,0,0,0-.33-.14l-.11,0-.26-.1-.21-.08-.12,0-.73-.22-.33-.07c-.24,0-.48-.1-.72-.13h-.06l-.33,0h-.25l-.44,0h-.33q-.39,0-.78,0h-.23a9.13,9.13,0,0,0-1,.15l-.33.07a10.39,10.39,0,0,0-1.83.62l-.33.15-.06,0-.41.21a10.15,10.15,0,0,0-2.47,1.9l-.06.06v0h0a10.17,10.17,0,0,0-2,3.14h0a10.2,10.2,0,0,0-.74,3.22,9.88,9.88,0,0,0,.3,3.22c0,.14.07.28.11.42l.25,0,.71.11h.08l.19,0h.07l.09,0,.28,0h0l1,.11.27,0,.16,0,.4,0,.17,0h.08l.27,0h0l.58,0h2a1.13,1.13,0,0,0,.26,0,.75.75,0,0,0,.15,0H133c.69,0,1.38-.05,2.06-.11h0c.78-.07,1.55-.16,2.32-.27s1.65-.27,2.45-.45h0l.76-.19.32-.07c1-.26,2-.55,2.93-.88l.48-.18.12,0,.89-.34A10.21,10.21,0,0,0,144.1,113Z" transform="translate(-1.3)"/><path class="cls-33" d="M143.36,113.58a9.34,9.34,0,0,0-2.42-2.85l-.27-.21-.13-.09-.33-.22-.18-.11-.33-.19a3.9,3.9,0,0,0-.35-.19l-.33-.15-.37-.16-.33-.13h0c-.16,0-.32-.11-.48-.15l-.22-.07-.33-.08q-.39-.09-.78-.15l-.33,0h-.1l-.21,0h0l-.7,0h-.33a10.12,10.12,0,0,0-1.72.22l-.33.09a9.35,9.35,0,0,0-1.84.69l-.29.16,0,0a9.45,9.45,0,0,0-1.43,1l-.09.08-.29.25-.33.32a9,9,0,0,0-1.78,2.57h0s0,0,0,0a9.46,9.46,0,0,0-.5,1.32v0a0,0,0,0,1,0,0,8.94,8.94,0,0,0-.32,1.52h0c0,.08,0,.16,0,.24,0,.26,0,.53,0,.79a9.59,9.59,0,0,0,.29,2.33l0,.1c.05.2.11.39.18.59l.19,0h.07l.09,0,.28,0c0-.09-.07-.18-.1-.27s-.09-.27-.13-.4l-.11-.37v0a8.7,8.7,0,0,1,.12-4.48c.06-.23.14-.46.22-.68h0c.12-.3.24-.59.38-.87h0a9,9,0,0,1,1.16-1.75l.33-.36a8.38,8.38,0,0,1,1.19-1h0l.11-.08h0c.16-.11.32-.22.49-.32l.31-.18h0a8.28,8.28,0,0,1,1.84-.75c.11,0,.22-.06.33-.09a8.48,8.48,0,0,1,1.72-.24h.63l.31,0,.4,0,.33,0a7.2,7.2,0,0,1,.78.16l.19,0,.14,0,.35.11.38.14.33.13.37.18.33.16.35.2.33.21.18.12.12.09h0a8.82,8.82,0,0,1,3.51,8.6l.48-.18.12,0A9.31,9.31,0,0,0,143.36,113.58Z" transform="translate(-1.3)"/><path class="cls-33" d="M134.88,121.31a2.4,2.4,0,0,1-.45-.75l-1.69.69c0,.1,0,.2,0,.3H133c.69,0,1.38-.05,2.06-.11Zm0,0a2.4,2.4,0,0,1-.45-.75l-1.69.69c0,.1,0,.2,0,.3H133c.69,0,1.38-.05,2.06-.11Zm0,0a2.4,2.4,0,0,1-.45-.75l-1.69.69c0,.1,0,.2,0,.3H133c.69,0,1.38-.05,2.06-.11Zm0,0a2.4,2.4,0,0,1-.45-.75l-1.69.69c0,.1,0,.2,0,.3H133c.69,0,1.38-.05,2.06-.11Zm0,0a2.4,2.4,0,0,1-.45-.75l-1.69.69c0,.1,0,.2,0,.3H133c.69,0,1.38-.05,2.06-.11Zm0,0a2.4,2.4,0,0,1-.45-.75l-1.69.69c0,.1,0,.2,0,.3H133c.69,0,1.38-.05,2.06-.11Zm5-1.83a3,3,0,0,0-.16-.48,2.56,2.56,0,0,0-.17-.37c-.06-.11-.12-.2-.18-.29a0,0,0,0,0,0,0h0A2.27,2.27,0,0,0,139,118h0a2.33,2.33,0,0,0-.35-.27,3.37,3.37,0,0,0-.32-.19,3,3,0,0,0-.32-.12l-.06,0-.1,0h0a4.53,4.53,0,0,0-1-.17h-.33c-.38,0-.78,0-1.21,0h-.51l-.33,0h0a2.41,2.41,0,0,1-.6-.14,1,1,0,0,1-.4-.27,1.43,1.43,0,0,1-.26-.42.08.08,0,0,0,0,0,1.8,1.8,0,0,1-.09-.45,1,1,0,0,1,0-.25.83.83,0,0,1,.06-.21,1.11,1.11,0,0,1,.29-.41,1.8,1.8,0,0,1,.25-.18l.27-.14a1.42,1.42,0,0,1,.51-.11h0a.91.91,0,0,1,.33,0,1.11,1.11,0,0,1,.29.1,1.93,1.93,0,0,1,.85,1.06l.58-.24.33-.13,1-.41.17-.07c-.05-.13-.11-.26-.17-.38v0a2.2,2.2,0,0,0-.19-.3h0l-.06-.09c-.08-.12-.17-.23-.26-.34l-.09-.09h0a2.35,2.35,0,0,0-.33-.3,3,3,0,0,0-.37-.25l-.14-.08-.19-.08a3.68,3.68,0,0,0-.47-.15l-.26,0-.21,0h-.12a3.55,3.55,0,0,0-.79.06l-.32.07h0l-.07-.18-.34-.82-.19-.47-.38.16-.33.13-.45.18.45,1.1,0,.08.11.27-.14.07a4.28,4.28,0,0,0-.42.26h0a5.17,5.17,0,0,0-.51.42l-.09.1h0a3.23,3.23,0,0,0-.57.83,2.51,2.51,0,0,0-.16.46h0a2.51,2.51,0,0,0,.14,1.72,1.19,1.19,0,0,0,.08.2h0a2.69,2.69,0,0,0,.26.44.44.44,0,0,0,.08.11,1.55,1.55,0,0,0,.24.27l0,0a3.92,3.92,0,0,0,.32.25l.33.19.34.13a3.75,3.75,0,0,0,.8.19l.44,0h.47c.32,0,.65,0,1,0h.33a4.16,4.16,0,0,1,.51,0l.27,0,.33.1h0a1.15,1.15,0,0,1,.42.28,1.43,1.43,0,0,1,.28.47l0,0v0a1,1,0,0,1,.07.42,1.28,1.28,0,0,1,0,.19,1,1,0,0,1-.1.28,1.27,1.27,0,0,1-.24.33c.83-.12,1.65-.27,2.45-.45h0a1,1,0,0,0,0-.17,2.45,2.45,0,0,0,0-.39A2.56,2.56,0,0,0,139.84,119.48Zm-5,1.83a2.4,2.4,0,0,1-.45-.75l-1.69.69c0,.1,0,.2,0,.3H133c.69,0,1.38-.05,2.06-.11Zm0,0a2.4,2.4,0,0,1-.45-.75l-1.69.69c0,.1,0,.2,0,.3H133c.69,0,1.38-.05,2.06-.11Zm0,0a2.4,2.4,0,0,1-.45-.75l-1.69.69c0,.1,0,.2,0,.3H133c.69,0,1.38-.05,2.06-.11Zm0,0a2.4,2.4,0,0,1-.45-.75l-1.69.69c0,.1,0,.2,0,.3H133c.69,0,1.38-.05,2.06-.11Zm0,0a2.4,2.4,0,0,1-.45-.75l-1.69.69c0,.1,0,.2,0,.3H133c.69,0,1.38-.05,2.06-.11Zm0,0a2.4,2.4,0,0,1-.45-.75l-1.69.69c0,.1,0,.2,0,.3H133c.69,0,1.38-.05,2.06-.11Zm0,0a2.4,2.4,0,0,1-.45-.75l-1.69.69-.41.16.06.14H133c.69,0,1.38-.05,2.06-.11Z" transform="translate(-1.3)"/></g><text class="cls-35" transform="translate(165.19 187.65)"><tspan class="cls-36">P</tspan><tspan x="6.57" y="0">ost</tspan><tspan class="cls-37" x="23.1" y="0"> </tspan><tspan class="cls-38" x="25.25" y="0">Y</tspan><tspan x="31.28" y="0">our </tspan><tspan class="cls-39" x="52.51" y="0">C</tspan><tspan x="60.18" y="0">V</tspan></text><text class="cls-40" transform="translate(14.5 187.65)"><tspan class="cls-36">P</tspan><tspan x="6.57" y="0">ost</tspan><tspan class="cls-37" x="23.1" y="0"> </tspan><tspan class="cls-38" x="25.25" y="0">Y</tspan><tspan x="31.28" y="0">our Jobs</tspan></text><text class="cls-40" transform="translate(14.5 214.52)">- <tspan class="cls-41" x="6.72" y="0">P</tspan><tspan x="13.29" y="0">ost Jobs</tspan><tspan x="0" y="15.55">- </tspan><tspan class="cls-42" x="6.72" y="15.55">R</tspan><tspan x="13.75" y="15.55">eview </tspan><tspan class="cls-43" x="48.28" y="15.55">C</tspan><tspan x="55.95" y="15.55">V</tspan><tspan x="0" y="31.1">- </tspan><tspan class="cls-44" x="6.72" y="31.1">M</tspan><tspan x="17.22" y="31.1">eet Job </tspan><tspan class="cls-45" x="59.26" y="31.1">S</tspan><tspan x="65.73" y="31.1">eeker</tspan></text><text class="cls-35" transform="translate(165.19 214.52)">- <tspan class="cls-44" x="6.72" y="0">S</tspan><tspan x="13.19" y="0">ea</tspan><tspan class="cls-46" x="25.93" y="0">r</tspan><tspan x="30.03" y="0">ch Jobs</tspan><tspan x="0" y="15.55">- Upload </tspan><tspan class="cls-43" x="48.95" y="15.55">C</tspan><tspan x="56.62" y="15.55">V</tspan><tspan x="0" y="31.1">- </tspan><tspan class="cls-47" x="6.72" y="31.1">G</tspan><tspan x="15.16" y="31.1">et </tspan><tspan class="cls-48" x="28.69" y="31.1">I</tspan><tspan class="cls-49" x="31.91" y="31.1">n</tspan><tspan class="cls-50" x="39.05" y="31.1">t</tspan><tspan x="43.26" y="31.1">e</tspan><tspan class="cls-51" x="49.75" y="31.1">r</tspan><tspan x="54.31" y="31.1">view</tspan></text><line class="cls-52" x1="41.39" y1="194.66" x2="73.28" y2="194.66"/><line class="cls-53" x1="190.03" y1="194.66" x2="221.92" y2="194.66"/></svg>