<?xml version="1.0" encoding="utf-8"?>
<!-- Generator: Adobe Illustrator 21.0.0, SVG Export Plug-In . SVG Version: 6.00 Build 0)  -->
<svg version="1.1" id="_x39_5c6c890-4df0-4047-9b20-53c1698e0703"
	 xmlns="http://www.w3.org/2000/svg" xmlns:xlink="http://www.w3.org/1999/xlink" x="0px" y="0px" viewBox="0 0 1139.7 810.4"
	 style="enable-background:new 0 0 1139.7 810.4;" xml:space="preserve">
<style type="text/css">
	.st0{opacity:0.1;fill:#6C63FF;enable-background:new    ;}
	.st1{fill:#F5F5F5;}
	.st2{fill:url(#SVGID_1_);}
	.st3{fill:#FFFFFF;}
	.st4{fill:#FF5252;}
	.st5{fill:#FFFF00;}
	.st6{fill:#69F0AE;}
	.st7{fill:#6C63FF;}
	.st8{fill:url(#SVGID_2_);}
	.st9{fill:url(#SVGID_3_);}
	.st10{fill:url(#SVGID_4_);}
	.st11{fill:url(#SVGID_5_);}
	.st12{fill:url(#SVGID_6_);}
	.st13{fill:#FFFFFF;stroke:#FFFFFF;stroke-miterlimit:10;}
	.st14{opacity:0.1;enable-background:new    ;}
	.st15{fill:#E0E0E0;}
	.st16{fill:#BDBDBD;}
	.st17{fill:url(#SVGID_7_);}
	.st18{fill:#0AC48F;}
	.st19{fill:url(#SVGID_8_);}
	.st20{fill:url(#SVGID_9_);}
	.st21{fill:url(#SVGID_10_);}
	.st22{fill:#2196F3;}
	.st23{fill:url(#SVGID_11_);}
	.st24{fill:url(#SVGID_12_);}
	.st25{fill:url(#SVGID_13_);}
	.st26{fill:url(#SVGID_14_);}
	.st27{fill:url(#SVGID_15_);}
	.st28{fill:url(#SVGID_16_);}
	.st29{fill:url(#SVGID_17_);}
	.st30{fill:url(#SVGID_18_);}
	.st31{fill:#64FFDA;}
	.st32{fill:none;stroke:#535461;stroke-width:2;stroke-miterlimit:10;}
	.st33{opacity:0.2;fill:#F5F5F5;enable-background:new    ;}
	.st34{fill:#FFB9B9;}
	.st35{fill:#B96B6B;}
	.st36{fill:#777B9B;}
	.st37{fill:#CBCDDA;}
	.st38{opacity:5.000000e-02;}
	.st39{opacity:0.1;fill:none;stroke:#6C63FF;stroke-miterlimit:10;enable-background:new    ;}
	.st40{fill:#535461;}
	.st41{opacity:0.7;}
	.st42{fill:url(#SVGID_19_);}
	.st43{fill:#3E3F49;}
	.st44{opacity:0.1;fill:#FFFFFF;enable-background:new    ;}
	.st45{opacity:0.2;enable-background:new    ;}
	.st46{fill:none;stroke:#6C63FF;stroke-miterlimit:10;}
	.st47{fill:#F2F2F2;}
	.st48{fill:#3F3D56;}
	.st49{fill:#E6E6E6;}
	.st50{fill:#2F2E41;}
	.st51{fill:#D0CDE1;}
	.st52{fill:#575A89;}
</style>
<path class="st0" d="M1140.7,390.6c-7.1,35-43.8,52.6-64.4,78.7c-38.7,49.2-23.7,121.2,0.9,178.8c8.2,19.3,17.6,39.7,14.1,60.4
	c-4.2,25.3-26.8,43.8-50.5,53.6c-43.2,17.9-94.9,13.6-134.6-11.1c-34.3-21.3-58.9-56.1-93.8-76.4c-58.4-34.1-132.7-21.2-196.1,2.3
	c-44.9,16.6-93.9,38.2-138.5,20.9c-31.4-12.2-53.1-42-64.9-73.5c-5.7-15.2-9.8-31.7-20.7-43.8c-6.5-7.2-14.9-12.3-23.6-16.6
	c-79.1-39.2-178.9-18.2-255.7-61.7c-51.8-29.4-85.1-84.7-99.7-142.5s-13-118.3-9.3-177.8c2.7-42.3,7.4-87.4,34.4-120
	c28.6-34.5,77.5-47.3,121.9-40.8s84.5,29.9,119.8,57.5c44.2,34.4,85.1,77.3,139.3,91.2c36.9,9.5,75.8,4.3,113.9,2.5
	c63.7-3,127.4,3.7,190.7,11c30.8,3.6,61.8,7.3,92.4,12.7c6.9,1.2,13.7,2.5,20.6,3.9c3.4,0.7,6.9,1.4,10.3,2.2c2.7,0.6,5.3,1.2,8,1.8
	c4.2,1,8.4,2,12.6,3.1c12,3.1,23.9,6.6,35.6,10.6c40.9,14,73.6,39.3,112.2,57c25.2,11.5,52.6,14.7,76.4,29.4
	C1121.3,322.3,1148.2,353.7,1140.7,390.6z"/>
<g>
	
		<rect x="76.1" y="96.7" transform="matrix(0.9647 -0.2634 0.2634 0.9647 -58.9863 130.8385)" class="st1" width="764.9" height="377.5"/>
	
		<linearGradient id="SVGID_1_" gradientUnits="userSpaceOnUse" x1="0.4646" y1="305.4253" x2="0.4646" y2="692.1553" gradientTransform="matrix(0.9647 -0.2634 -0.2634 -0.9647 590.0602 770.8687)">
		<stop  offset="0" style="stop-color:#808080;stop-opacity:0.25"/>
		<stop  offset="0.54" style="stop-color:#808080;stop-opacity:0.12"/>
		<stop  offset="1" style="stop-color:#808080;stop-opacity:0.1"/>
	</linearGradient>
	<polygon class="st2" points="34.6,205 781.8,1 883.7,374.1 136.5,578.1 	"/>
	
		<rect x="81.1" y="134.1" transform="matrix(0.9647 -0.2634 0.2634 0.9647 -63.6173 132.7945)" class="st3" width="764.9" height="339.1"/>
	<ellipse transform="matrix(0.9652 -0.2614 0.2614 0.9652 -54.3943 23.28)" class="st4" cx="60.3" cy="216.1" rx="9.6" ry="9.6"/>
	<ellipse transform="matrix(0.9647 -0.2634 0.2634 0.9647 -51.9571 31.1391)" class="st5" cx="90.2" cy="209.4" rx="9.6" ry="9.6"/>
	<ellipse transform="matrix(0.9647 -0.2634 0.2634 0.9647 -48.9646 38.22)" class="st6" cx="118.1" cy="201.7" rx="9.6" ry="9.6"/>
	
		<rect x="90.9" y="207.9" transform="matrix(0.9647 -0.2634 0.2634 0.9647 -92.7006 63.8056)" class="st7" width="201.4" height="339.6"/>
	
		<linearGradient id="SVGID_2_" gradientUnits="userSpaceOnUse" x1="-280.7538" y1="500.0774" x2="-280.7538" y2="598.8898" gradientTransform="matrix(0.9647 -0.2634 -0.2634 -0.9647 590.0601 770.871)">
		<stop  offset="0" style="stop-color:#000000;stop-opacity:0.12"/>
		<stop  offset="0.55" style="stop-color:#000000;stop-opacity:9.000000e-02"/>
		<stop  offset="1" style="stop-color:#000000;stop-opacity:2.000000e-02"/>
	</linearGradient>
	<path class="st8" d="M226.6,302.1c-7.4-27.1-36.5-42.8-65.1-35s-45.6,36.1-38.3,63.2c5.8,21.3,25,35.5,46.8,36.9l-3.5-12.6
		c-2.5-9.1,3.3-18.8,13-21.4l0,0c9.6-2.6,19.5,2.7,22,11.9l3.5,12.6C223.1,345.3,232.4,323.3,226.6,302.1z"/>
	
		<linearGradient id="SVGID_3_" gradientUnits="userSpaceOnUse" x1="-280.7554" y1="516.7453" x2="-280.7554" y2="538.3253" gradientTransform="matrix(0.9647 -0.2634 -0.2634 -0.9647 590.0605 770.8665)">
		<stop  offset="0" style="stop-color:#000000;stop-opacity:0.12"/>
		<stop  offset="0.55" style="stop-color:#000000;stop-opacity:9.000000e-02"/>
		<stop  offset="1" style="stop-color:#000000;stop-opacity:2.000000e-02"/>
	</linearGradient>
	<path class="st9" d="M177.1,325.6l0.7-0.2c1.5-0.4,3.1,0.5,3.5,2l4.2,15.3c0.4,1.5-0.5,3.1-2,3.5l-0.7,0.2c-1.5,0.4-3.1-0.5-3.5-2
		l-4.2-15.3C174.7,327.6,175.6,326,177.1,325.6z"/>
	
		<linearGradient id="SVGID_4_" gradientUnits="userSpaceOnUse" x1="-280.7254" y1="535.4253" x2="-280.7254" y2="574.5453" gradientTransform="matrix(0.9647 -0.2634 -0.2634 -0.9647 590.0587 770.8667)">
		<stop  offset="0" style="stop-color:#000000;stop-opacity:0.12"/>
		<stop  offset="0.55" style="stop-color:#000000;stop-opacity:9.000000e-02"/>
		<stop  offset="1" style="stop-color:#000000;stop-opacity:2.000000e-02"/>
	</linearGradient>
	<path class="st10" d="M167.9,290.5c11-3,22.2,3,25,13.4c2.8,10.4-3.7,21.3-14.7,24.3c-11,3-22.2-3-25-13.4
		C150.4,304.4,157,293.5,167.9,290.5z"/>
	
		<linearGradient id="SVGID_5_" gradientUnits="userSpaceOnUse" x1="-280.7885" y1="497.1051" x2="-280.7885" y2="530.4354" gradientTransform="matrix(0.9647 -0.2634 -0.2634 -0.9647 590.0601 770.871)">
		<stop  offset="0" style="stop-color:#000000;stop-opacity:0.12"/>
		<stop  offset="0.55" style="stop-color:#000000;stop-opacity:9.000000e-02"/>
		<stop  offset="1" style="stop-color:#000000;stop-opacity:2.000000e-02"/>
	</linearGradient>
	<path class="st11" d="M179.5,333.1L179.5,333.1c-9.6,2.6-15.5,12.3-13,21.4l3.5,12.6c12.4,0.8,24.7-2.6,35-9.5l-3.5-12.6
		C199.1,335.8,189.1,330.5,179.5,333.1z"/>
	
		<linearGradient id="SVGID_6_" gradientUnits="userSpaceOnUse" x1="-280.7087" y1="552.697" x2="-280.7087" y2="589.3763" gradientTransform="matrix(0.9647 -0.2634 -0.2634 -0.9647 590.0601 770.871)">
		<stop  offset="0" style="stop-color:#000000;stop-opacity:0.12"/>
		<stop  offset="0.55" style="stop-color:#000000;stop-opacity:9.000000e-02"/>
		<stop  offset="1" style="stop-color:#000000;stop-opacity:2.000000e-02"/>
	</linearGradient>
	<path class="st12" d="M152.8,313.8c-2.4-2.5-4-5.6-4.7-8.9c-0.7-3.4,0.1-6.9,2-9.8c2.2-3.1,6-5,9.7-6.4s7.6-2.2,11.1-3.9
		c5.8-2.8,10.3-7.8,12.5-13.9c1.1,2.7,1.9,5.5,2.2,8.3c0.3,3-0.7,5.9-2.6,8.1c2.6-2.1,3.2,1,3,3.1c2,1.3,5.7,0.6,6.5,2.8
		c0.9,2.1,1.2,4.5,1,6.8c-0.4,2.3,1.6,5.6-0.7,6.4"/>
	<path class="st7" d="M222,295.5c-7.4-27.1-35.4-43.1-62.5-35.7c-27.1,7.4-43.1,35.4-35.7,62.5c5.7,20.7,23.7,35.6,45.1,37.3
		l-3.5-12.6c-2.5-9.2,2.9-18.6,12.1-21.2l0,0c9.2-2.5,18.6,2.9,21.2,12.1l3.5,12.6C219.7,338.3,227.6,316.3,222,295.5z"/>
	<path class="st13" d="M175.2,318.3l0.4-0.1c1.5-0.4,3.1,0.5,3.5,2l4.2,15.3c0.4,1.5-0.5,3.1-2,3.5l-0.4,0.1c-1.5,0.4-3.1-0.5-3.5-2
		l-4.2-15.3C172.8,320.3,173.7,318.7,175.2,318.3z"/>
	
		<ellipse transform="matrix(0.9647 -0.2634 0.2634 0.9647 -73.5485 55.7227)" class="st13" cx="171.1" cy="302.2" rx="19.6" ry="19.6"/>
	<path class="st13" d="M177.5,325.9L177.5,325.9c-9.2,2.5-14.6,12-12.1,21.2l3.4,12.6c11.8,0.9,23.5-2.3,33.2-9.1l-3.5-12.6
		C196.1,328.8,186.7,323.4,177.5,325.9z"/>
	<path class="st13" d="M151.8,306.3c-2.3-2.5-3.9-5.6-4.6-8.9c-0.7-3.4,0-6.9,1.8-9.8c2.1-3.1,5.6-4.9,9.1-6.2s7.2-2.1,10.6-3.8
		c5.6-2.8,9.8-7.8,11.7-13.7c1.1,2.7,1.8,5.5,2.2,8.3c0.3,2.9-0.6,5.8-2.4,8c2.5-2.1,3,1.1,2.9,3.1c1.9,1.3,5.4,0.7,6.2,2.8
		c0.9,2.1,1.3,4.4,1.1,6.8c-0.3,2.3,1.6,5.6-0.6,6.4"/>
	<path class="st3" d="M181.1,279.6c0,0,13.5-2.5,9.4,19.6"/>
	
		<rect x="112.7" y="374.8" transform="matrix(0.9647 -0.2634 0.2634 0.9647 -113.4691 72.4287)" class="st14" width="201.4" height="169.3"/>
	
		<rect x="140.3" y="416.2" transform="matrix(0.9647 -0.2634 0.2634 0.9647 -104.1822 64.7955)" class="st3" width="98.6" height="9.6"/>
	
		<rect x="145.8" y="434.8" transform="matrix(0.9647 -0.2634 0.2634 0.9647 -108.4699 70.0065)" class="st3" width="122.1" height="9.6"/>
	
		<rect x="289.5" y="177.9" transform="matrix(0.9647 -0.2634 0.2634 0.9647 -43.5187 102.9893)" class="st1" width="145.7" height="71.8"/>
	
		<rect x="307.9" y="245.1" transform="matrix(0.9647 -0.2634 0.2634 0.9647 -60.5611 110.1916)" class="st15" width="145.7" height="71.8"/>
	
		<rect x="623.4" y="86.8" transform="matrix(0.9647 -0.2634 0.2634 0.9647 -7.7334 187.6881)" class="st1" width="145.7" height="71.8"/>
	
		<rect x="641.7" y="154" transform="matrix(0.9647 -0.2634 0.2634 0.9647 -24.7762 194.8878)" class="st15" width="145.7" height="71.8"/>
	
		<rect x="455.9" y="132.5" transform="matrix(0.9647 -0.2634 0.2634 0.9647 -25.6801 145.2076)" class="st1" width="145.7" height="71.8"/>
	
		<rect x="474.3" y="199.7" transform="matrix(0.9647 -0.2634 0.2634 0.9647 -42.726 152.4084)" class="st15" width="145.7" height="71.8"/>
	
		<rect x="328.7" y="334.7" transform="matrix(0.9652 -0.2614 0.2614 0.9652 -82.8891 117.7563)" class="st15" width="144.9" height="71.4"/>
	
		<rect x="350.8" y="402.2" transform="matrix(0.9647 -0.2634 0.2634 0.9647 -100.42 127.0305)" class="st16" width="145.7" height="71.8"/>
	
		<rect x="666.2" y="243.9" transform="matrix(0.9647 -0.2634 0.2634 0.9647 -47.5899 204.5259)" class="st1" width="145.7" height="71.8"/>
	
		<rect x="684.6" y="311.1" transform="matrix(0.9647 -0.2634 0.2634 0.9647 -64.6347 211.7293)" class="st16" width="145.7" height="71.8"/>
	
		<rect x="498.8" y="289.6" transform="matrix(0.9647 -0.2634 0.2634 0.9647 -65.5389 162.0464)" class="st1" width="145.7" height="71.8"/>
	
		<rect x="517.2" y="356.8" transform="matrix(0.9647 -0.2634 0.2634 0.9647 -82.5814 169.2487)" class="st16" width="145.7" height="71.8"/>
	
		<linearGradient id="SVGID_7_" gradientUnits="userSpaceOnUse" x1="-140.4154" y1="562.5353" x2="-108.2754" y2="562.5353" gradientTransform="matrix(0.9647 -0.2634 -0.2634 -0.9647 590.0567 770.8693)">
		<stop  offset="0" style="stop-color:#000000;stop-opacity:9.000000e-02"/>
		<stop  offset="0.55" style="stop-color:#000000;stop-opacity:7.000000e-02"/>
		<stop  offset="1" style="stop-color:#000000;stop-opacity:2.000000e-02"/>
	</linearGradient>
	<path class="st17" d="M318,246.5c8.6-2.3,17.3,2.2,19.5,10.2c2.2,8-3,16.4-11.6,18.7c-8.6,2.3-17.3-2.2-19.5-10.2
		C304.3,257.2,309.4,248.8,318,246.5z"/>
	
		<ellipse transform="matrix(0.9652 -0.2614 0.2614 0.9652 -56.819 92.25)" class="st18" cx="318.3" cy="259.7" rx="13.9" ry="13.9"/>
	
		<linearGradient id="SVGID_8_" gradientUnits="userSpaceOnUse" x1="29.9146" y1="562.5353" x2="62.0546" y2="562.5353" gradientTransform="matrix(0.9647 -0.2634 -0.2634 -0.9647 590.0642 770.8658)">
		<stop  offset="0" style="stop-color:#000000;stop-opacity:9.000000e-02"/>
		<stop  offset="0.55" style="stop-color:#000000;stop-opacity:7.000000e-02"/>
		<stop  offset="1" style="stop-color:#000000;stop-opacity:2.000000e-02"/>
	</linearGradient>
	<path class="st19" d="M482.3,201.6c8.6-2.3,17.3,2.2,19.5,10.2c2.2,8-3,16.4-11.6,18.7c-8.6,2.3-17.3-2.2-19.5-10.2
		C468.6,212.3,473.8,203.9,482.3,201.6z"/>
	
		<ellipse transform="matrix(0.9647 -0.2634 0.2634 0.9647 -39.4796 135.5865)" class="st18" cx="486" cy="215" rx="13.9" ry="13.9"/>
	
		<linearGradient id="SVGID_9_" gradientUnits="userSpaceOnUse" x1="205.6146" y1="562.5353" x2="237.7546" y2="562.5353" gradientTransform="matrix(0.9647 -0.2634 -0.2634 -0.9647 590.0574 770.8649)">
		<stop  offset="0" style="stop-color:#000000;stop-opacity:9.000000e-02"/>
		<stop  offset="0.55" style="stop-color:#000000;stop-opacity:7.000000e-02"/>
		<stop  offset="1" style="stop-color:#000000;stop-opacity:2.000000e-02"/>
	</linearGradient>
	<path class="st20" d="M651.8,155.3c8.6-2.3,17.3,2.2,19.5,10.2c2.2,8-3,16.4-11.6,18.7c-8.6,2.3-17.3-2.2-19.5-10.2
		C638.1,166,643.2,157.7,651.8,155.3z"/>
	
		<ellipse transform="matrix(0.9647 -0.2634 0.2634 0.9647 -21.3085 178.5911)" class="st18" cx="655.5" cy="168.8" rx="13.9" ry="13.9"/>
	
		<linearGradient id="SVGID_10_" gradientUnits="userSpaceOnUse" x1="-140.4155" y1="398.6253" x2="-108.2754" y2="398.6253" gradientTransform="matrix(0.9647 -0.2634 -0.2634 -0.9647 590.0578 770.8641)">
		<stop  offset="0" style="stop-color:#000000;stop-opacity:9.000000e-02"/>
		<stop  offset="0.55" style="stop-color:#000000;stop-opacity:7.000000e-02"/>
		<stop  offset="1" style="stop-color:#000000;stop-opacity:2.000000e-02"/>
	</linearGradient>
	<path class="st21" d="M361.2,404.6c8.6-2.3,17.3,2.2,19.5,10.2c2.2,8-3,16.4-11.6,18.7c-8.6,2.3-17.3-2.2-19.5-10.2
		S352.6,406.9,361.2,404.6z"/>
	
		<ellipse transform="matrix(0.9647 -0.2634 0.2634 0.9647 -97.2162 110.8446)" class="st22" cx="364.8" cy="418" rx="13.9" ry="13.9"/>
	
		<linearGradient id="SVGID_11_" gradientUnits="userSpaceOnUse" x1="29.9246" y1="398.6253" x2="62.0646" y2="398.6253" gradientTransform="matrix(0.9647 -0.2634 -0.2634 -0.9647 590.0556 770.8633)">
		<stop  offset="0" style="stop-color:#000000;stop-opacity:9.000000e-02"/>
		<stop  offset="0.55" style="stop-color:#000000;stop-opacity:7.000000e-02"/>
		<stop  offset="1" style="stop-color:#000000;stop-opacity:2.000000e-02"/>
	</linearGradient>
	<path class="st23" d="M525.5,359.7c8.6-2.3,17.3,2.2,19.5,10.2c2.2,8-3,16.4-11.6,18.7c-8.6,2.3-17.3-2.2-19.5-10.2
		C511.8,370.4,516.9,362.1,525.5,359.7z"/>
	
		<ellipse transform="matrix(0.9647 -0.2634 0.2634 0.9647 -79.5998 152.5358)" class="st22" cx="529.2" cy="373.2" rx="13.9" ry="13.9"/>
	
		<linearGradient id="SVGID_12_" gradientUnits="userSpaceOnUse" x1="205.6046" y1="398.6253" x2="237.7446" y2="398.6253" gradientTransform="matrix(0.9647 -0.2634 -0.2634 -0.9647 590.0585 770.8597)">
		<stop  offset="0" style="stop-color:#000000;stop-opacity:9.000000e-02"/>
		<stop  offset="0.55" style="stop-color:#000000;stop-opacity:7.000000e-02"/>
		<stop  offset="1" style="stop-color:#000000;stop-opacity:2.000000e-02"/>
	</linearGradient>
	<path class="st24" d="M695,313.5c8.6-2.3,17.3,2.2,19.5,10.2s-3,16.4-11.6,18.7s-17.3-2.2-19.5-10.2S686.4,315.8,695,313.5z"/>
	
		<ellipse transform="matrix(0.9647 -0.2634 0.2634 0.9647 -61.4287 195.5404)" class="st22" cx="698.6" cy="326.9" rx="13.9" ry="13.9"/>
	<rect x="147.9" y="301.3" class="st1" width="764.9" height="377.5"/>
	
		<linearGradient id="SVGID_13_" gradientUnits="userSpaceOnUse" x1="529.8427" y1="122.4571" x2="529.8427" y2="509.1872" gradientTransform="matrix(1 0 0 -1 0 810)">
		<stop  offset="0" style="stop-color:#808080;stop-opacity:0.25"/>
		<stop  offset="0.54" style="stop-color:#808080;stop-opacity:0.12"/>
		<stop  offset="1" style="stop-color:#808080;stop-opacity:0.1"/>
	</linearGradient>
	<rect x="142.6" y="300.8" class="st25" width="774.5" height="386.7"/>
	<rect x="147.9" y="339.4" class="st3" width="764.9" height="339.1"/>
	<circle class="st4" cx="166.1" cy="319.6" r="9.6"/>
	<circle class="st5" cx="195" cy="319.6" r="9.6"/>
	<circle class="st6" cx="224" cy="319.6" r="9.6"/>
	<rect x="147.9" y="338.9" class="st7" width="201.4" height="339.6"/>
	
		<linearGradient id="SVGID_14_" gradientUnits="userSpaceOnUse" x1="407.3777" y1="210.3771" x2="407.3777" y2="309.1572" gradientTransform="matrix(1 0 0 -1 -158.75 703.26)">
		<stop  offset="0" style="stop-color:#000000;stop-opacity:0.12"/>
		<stop  offset="0.55" style="stop-color:#000000;stop-opacity:9.000000e-02"/>
		<stop  offset="1" style="stop-color:#000000;stop-opacity:2.000000e-02"/>
	</linearGradient>
	<path class="st26" d="M302.2,445c0-28.1-24-50.9-53.6-50.9s-53.6,22.8-53.6,50.9c0,22.1,14.8,40.8,35.4,47.9v-13.1
		c0-9.5,8.2-17.2,18.1-17.2l0,0c10,0,18.1,7.8,18.1,17.2v13.1C287.4,485.8,302.2,467,302.2,445z"/>
	
		<linearGradient id="SVGID_15_" gradientUnits="userSpaceOnUse" x1="248.6226" y1="333.7672" x2="248.6226" y2="355.3472" gradientTransform="matrix(1 0 0 -1 0 810)">
		<stop  offset="0" style="stop-color:#000000;stop-opacity:0.12"/>
		<stop  offset="0.55" style="stop-color:#000000;stop-opacity:9.000000e-02"/>
		<stop  offset="1" style="stop-color:#000000;stop-opacity:2.000000e-02"/>
	</linearGradient>
	<path class="st27" d="M248.3,454.7h0.7c1.6,0,2.9,1.3,2.9,2.9v15.9c0,1.6-1.3,2.9-2.9,2.9h-0.7c-1.6,0-2.9-1.3-2.9-2.9v-15.9
		C245.4,455.9,246.7,454.7,248.3,454.7z"/>
	
		<linearGradient id="SVGID_16_" gradientUnits="userSpaceOnUse" x1="248.6626" y1="352.4472" x2="248.6626" y2="391.5672" gradientTransform="matrix(1 0 0 -1 0 810)">
		<stop  offset="0" style="stop-color:#000000;stop-opacity:0.12"/>
		<stop  offset="0.55" style="stop-color:#000000;stop-opacity:9.000000e-02"/>
		<stop  offset="1" style="stop-color:#000000;stop-opacity:2.000000e-02"/>
	</linearGradient>
	<ellipse class="st28" cx="248.7" cy="438" rx="20.6" ry="19.6"/>
	
		<linearGradient id="SVGID_17_" gradientUnits="userSpaceOnUse" x1="407.3777" y1="207.3837" x2="407.3777" y2="240.7171" gradientTransform="matrix(1 0 0 -1 -158.75 703.26)">
		<stop  offset="0" style="stop-color:#000000;stop-opacity:0.12"/>
		<stop  offset="0.55" style="stop-color:#000000;stop-opacity:9.000000e-02"/>
		<stop  offset="1" style="stop-color:#000000;stop-opacity:2.000000e-02"/>
	</linearGradient>
	<path class="st29" d="M248.6,462.5L248.6,462.5c-10,0-18.1,7.8-18.1,17.2v13.1c11.8,4,24.5,4,36.3,0v-13.1
		C266.8,470.3,258.6,462.5,248.6,462.5z"/>
	
		<linearGradient id="SVGID_18_" gradientUnits="userSpaceOnUse" x1="407.4085" y1="263.0073" x2="407.4085" y2="299.6772" gradientTransform="matrix(1 0 0 -1 -158.75 703.26)">
		<stop  offset="0" style="stop-color:#000000;stop-opacity:0.12"/>
		<stop  offset="0.55" style="stop-color:#000000;stop-opacity:9.000000e-02"/>
		<stop  offset="1" style="stop-color:#000000;stop-opacity:2.000000e-02"/>
	</linearGradient>
	<path class="st30" d="M227.9,436.9c-1.6-3-2.4-6.4-2.2-9.8c0.3-3.5,1.9-6.7,4.6-8.9c3-2.4,7.1-3.3,11-3.6s7.9-0.1,11.8-0.8
		c6.4-1.2,12-4.8,15.7-10.1c0.4,2.9,0.4,5.8-0.1,8.6c-0.5,2.9-2.2,5.5-4.7,7.1c3.1-1.4,2.8,1.8,2.1,3.8c1.5,1.8,5.3,2.1,5.5,4.4
		c0.3,2.3,0,4.6-0.8,6.8c-1,2.1,0.1,5.9-2.4,6"/>
	<path class="st7" d="M299.5,437.5c0-28.1-22.8-50.9-50.9-50.9s-50.9,22.8-50.9,50.9c0,21.5,13.5,40.6,33.7,47.9v-13.1
		c0-9.5,7.7-17.2,17.2-17.2l0,0c9.5,0,17.3,7.7,17.3,17.2v13.1C286,478.1,299.5,459,299.5,437.5z"/>
	<path class="st13" d="M248.4,447.2h0.4c1.6,0,2.9,1.3,2.9,2.9v15.9c0,1.6-1.3,2.9-2.9,2.9h-0.4c-1.6,0-2.9-1.3-2.9-2.9V450
		C245.5,448.4,246.8,447.2,248.4,447.2z"/>
	<circle class="st13" cx="248.6" cy="430.5" r="19.6"/>
	<path class="st13" d="M248.6,455L248.6,455c-9.5,0-17.2,7.7-17.2,17.2v13.1c11.1,4,23.3,4,34.5,0v-13.1
		C265.8,462.8,258.1,455.1,248.6,455z"/>
	<path class="st13" d="M228.9,429.4c-1.6-3-2.3-6.4-2.1-9.8c0.2-3.4,1.8-6.6,4.3-8.9c2.9-2.4,6.7-3.3,10.4-3.6s7.5-0.1,11.2-0.8
		c6.1-1.2,11.5-4.9,14.9-10.1c0.4,2.9,0.3,5.8-0.1,8.6c-0.4,2.9-2.1,5.5-4.5,7.1c3-1.4,2.6,1.8,2,3.8c1.5,1.8,5,2.1,5.2,4.4
		c0.3,2.3,0,4.6-0.8,6.8c-0.9,2.1,0.1,5.9-2.2,6"/>
	<path class="st3" d="M264.3,411.3c0,0,13.6,1.2,3.9,21.5"/>
	<rect x="147.4" y="508.7" class="st31" width="201.4" height="169.3"/>
	<rect x="185.9" y="545.2" class="st3" width="98.6" height="9.6"/>
	<rect x="424.8" y="396.2" class="st16" width="98.6" height="9.6"/>
	<rect x="424.8" y="454.1" class="st15" width="352.5" height="9.6"/>
	<rect x="424.8" y="511.9" class="st15" width="352.5" height="9.6"/>
	<rect x="424.8" y="569.8" class="st31" width="98.6" height="9.6"/>
	<rect x="551.2" y="569.8" class="st1" width="98.6" height="9.6"/>
	<rect x="678.7" y="569.8" class="st31" width="98.6" height="9.6"/>
	<rect x="185.9" y="567.7" class="st3" width="122.1" height="9.6"/>
</g>
<title>freelancer</title>
<g>
	<ellipse class="st0" cx="381.7" cy="769.1" rx="162.8" ry="38.5"/>
	<path class="st7" d="M258.7,664c0,0,15.2,15.2,6.6,37.7c-8.6,22.5,14.7,59.9,14.7,59.9s-0.2,0-0.7-0.1
		c-31.1-5.5-46.6-41.1-29.3-67.6C256.5,684,261.7,672.5,258.7,664z"/>
	<path class="st32" d="M258.7,664c0,0,8.6,18.6,0,33.8c-8.6,15.2-1.5,57.7,21.3,63.8"/>
	<path class="st7" d="M231.7,725.3c0,0,17.3-2.8,18.9,12.8c1.6,15.5,33.3,17.7,33.3,17.7s-0.2,0.1-0.6,0.4
		c-26.2,17.2-51.2,10.9-47.4-11.9C237.3,735.8,237.2,727.2,231.7,725.3z"/>
	<path class="st33" d="M231.7,725.3c0,0,17.3-2.8,18.9,12.8c1.6,15.5,33.3,17.7,33.3,17.7s-0.2,0.1-0.6,0.4
		c-26.2,17.2-51.2,10.9-47.4-11.9C237.3,735.8,237.2,727.2,231.7,725.3z"/>
	<path class="st32" d="M231.7,725.3c0,0,13.4,2.9,12.3,15.2c-1.1,12.2,19.9,26.9,39.8,15.2"/>
	<path class="st34" d="M412.8,754.4c0,0,13.1-1,16.9,3.5c3.8,4.5,17.3,14.9,11.7,17.2s-35.5-6.9-35.5-6.9L412.8,754.4z"/>
	<path class="st35" d="M358.7,596.9c-0.2-3.1-2.5-5.7-5.6-6.2c-2-0.3-4.2,0.2-6-0.8c-0.8-0.5-1.3-1.3-2-1.9
		c-2.5-2.6-6.1-3.8-9.7-3.9c-3.6-0.1-7.1,0.8-10.6,1.8c-6.9,2-14.2,4.9-17.9,11.1c-5.6,9.4-0.4,22-4.8,32c-1.9,4.4-5.6,7.9-6.8,12.5
		c-1.6,6.2,1.6,12.4,4,18.3c2.2,5.3,3.8,10.8,4.9,16.4c1,5,1.5,10.1,0.4,15c-0.5,2.2-1.3,4.4-0.9,6.5c0.6,3.3,3.8,5.4,6.7,7l0.8,0.4
		c4.2,2.4,8.4,4.9,13.2,5.5c3,0.4,6.1,0,8.6-1.6c2.6-1.5,4.5-4.2,4.7-7.2c0.2-3.4-1.6-6.5-2-9.9c-0.1-0.5-0.1-1,0.1-1.5
		c0.3-0.6,0.9-1.1,1.5-1.4c8.2-5.7,12.6-16.4,10.8-26.3c-1.2-6.7-5.1-13.4-3.2-19.9c1-3.6,3.7-6.6,5.2-10c1.6-3.7,1.8-7.8,0.6-11.6
		c-0.8-2.6-2.4-5.3-1.9-8c0.9-4.8,7.4-6.4,9.8-10.6c1.8-3.2,0.7-7.7-2.3-9.7"/>
	<path class="st14" d="M358.7,596.9c-0.2-3.1-2.5-5.7-5.6-6.2c-2-0.3-4.2,0.2-6-0.8c-0.8-0.5-1.3-1.3-2-1.9
		c-2.5-2.6-6.1-3.8-9.7-3.9c-3.6-0.1-7.1,0.8-10.6,1.8c-6.9,2-14.2,4.9-17.9,11.1c-5.6,9.4-0.4,22-4.8,32c-1.9,4.4-5.6,7.9-6.8,12.5
		c-1.6,6.2,1.6,12.4,4,18.3c2.2,5.3,3.8,10.8,4.9,16.4c1,5,1.5,10.1,0.4,15c-0.5,2.2-1.3,4.4-0.9,6.5c0.6,3.3,3.8,5.4,6.7,7l0.8,0.4
		c4.2,2.4,8.4,4.9,13.2,5.5c3,0.4,6.1,0,8.6-1.6c2.6-1.5,4.5-4.2,4.7-7.2c0.2-3.4-1.6-6.5-2-9.9c-0.1-0.5-0.1-1,0.1-1.5
		c0.3-0.6,0.9-1.1,1.5-1.4c8.2-5.7,12.6-16.4,10.8-26.3c-1.2-6.7-5.1-13.4-3.2-19.9c1-3.6,3.7-6.6,5.2-10c1.6-3.7,1.8-7.8,0.6-11.6
		c-0.8-2.6-2.4-5.3-1.9-8c0.9-4.8,7.4-6.4,9.8-10.6c1.8-3.2,0.7-7.7-2.3-9.7"/>
	<polygon class="st36" points="372,764.6 303.2,764.6 303.2,727.8 341.6,742.5 372,727.8 	"/>
	<polygon class="st14" points="372,764.6 303.2,764.6 303.2,727.8 341.6,742.5 372,727.8 	"/>
	<path class="st34" d="M363.7,768.1c0,0-12.5,3-13.8,8.4c-1.3,5.5,7.4,5,7.4,5s12.2-2.5,13.8-12.4
		C372.6,759.2,363.7,768.1,363.7,768.1z"/>
	<path class="st14" d="M363.7,768.1c0,0-12.5,3-13.8,8.4c-1.3,5.5,7.4,5,7.4,5s12.2-2.5,13.8-12.4
		C372.6,759.2,363.7,768.1,363.7,768.1z"/>
	<path class="st37" d="M330.2,784.8c0,0-11.8,0.8-11.9,10.3c0,1.3,12.3,1.7,26.8-6.2c14.6-7.8,15.6-8.7,15.6-8.7s-5.6-9.1-9.6-10.3
		C347.1,768.7,330.2,784.8,330.2,784.8z"/>
	<path class="st36" d="M261.3,748.3c0,0-13.4,11.2,11.5,26.9s48.9,12.8,48.9,12.8s26-3.1,30-15.3c3.9-12.2-19.4-22.4-19.4-22.4
		s-25.6,0-37.1-7.4C283.7,735.5,261.3,748.3,261.3,748.3z"/>
	<path class="st36" d="M333.9,729.1c0,0,11.5,6.7,27.2,0c12.1-5.2,38.5-3.1,50.1-1.9c5.4,0.6,10.1,4.3,11.5,9.5
		c1.2,4.3,0.3,9.5-6.9,14.5c-16,10.9-27.2,14.1-31.3,18.6c-4.2,4.5-16,6.7-16,6.7s-15-2.2-15-5.4s13.8-18.9,13.8-18.9
		s-20.2,18.6-40.9-6.4C305.4,720.8,333.9,729.1,333.9,729.1z"/>
	<path class="st34" d="M328.1,684l-40.6-27.8c0,0,19.5-13.2,21.2-25c0.4-2.3-0.1-4.7-1.3-6.6c-8-12.8,28.1,0,28.1,0
		c0.2,3.3,0.7,6.6,1.4,9.9c1.6,7.8,4.9,18.2,11.8,23.3C360.5,666.7,328.1,684,328.1,684z"/>
	<path class="st14" d="M336.9,634.4c-9.1,5.3-20.5,4-28.2-3.3c0.4-2.3-0.1-4.7-1.3-6.6c-8-12.8,28.1,0,28.1,0
		C335.7,627.8,336.2,631.1,336.9,634.4z"/>
	<circle class="st34" cx="324.9" cy="613.3" r="23.7"/>
	<path class="st14" d="M339.7,644.6c0,0-4.8,28.1-12.8,26.5c-8-1.6-32.9-29.7-32.9-29.7s-25.9,8.6-21.7,29.7s8.3,39-0.3,45.7
		c-8.6,6.7-14.1,38.1-14.1,38.1s27.5-11.5,41.9-7c14.4,4.5,29.1,2.2,32.6-1.9c3.5-4.2,8.6-13.1,8.6-13.1s-7.4-10.9-3.8-16.3
		c3.5-5.4,8-5.8,10.6-21.1c2.6-15.4,22.7-20.8,18.9-29.4C362.7,657.4,355.3,644.6,339.7,644.6z"/>
	<path class="st37" d="M339.7,643.4c0,0-4.8,28.1-12.8,26.5c-8-1.6-32.9-29.7-32.9-29.7s-25.9,8.6-21.7,29.7s8.3,39-0.3,45.7
		c-8.6,6.7-14.1,38.1-14.1,38.1s27.5-11.5,41.9-7c14.4,4.5,29.1,2.2,32.6-1.9c3.5-4.2,8.6-13.1,8.6-13.1s-7.4-10.9-3.8-16.3
		c3.5-5.4,8-5.8,10.6-21.1s22.7-20.8,18.9-29.4C362.7,656.2,355.3,643.4,339.7,643.4z"/>
	<path class="st34" d="M358.9,758.8c0,0,12.8-3.2,17.3,0.6s19.5,11.8,14.4,15c-5.1,3.2-36.1-1-36.1-1L358.9,758.8z"/>
	<g class="st38">
		<path d="M323.7,669.9c0.7,0.1,1.5,0,2.2-0.3c-8.9-3.4-31.9-29.4-31.9-29.4s-0.9,0.3-2.4,0.9C296,646,316.5,668.5,323.7,669.9z"/>
		<path d="M363.3,664.8c8.8-3.4-16.3,14.1-18.9,29.4s-7,15.7-10.6,21.1c-3.5,5.4,3.8,16.3,3.8,16.3s-5.1,9-8.6,13.1
			c-2,2.4-7.7,4.1-14.9,4.3c8.7,0.3,15.8-1.6,18.1-4.3c3.5-4.2,8.6-13.1,8.6-13.1s-7.4-10.9-3.8-16.3c3.5-5.4,8-5.8,10.6-21.1
			S361.3,665.6,363.3,664.8z"/>
		<path d="M258,752.4c-0.2,0.9-0.2,1.3-0.2,1.3s17.9-7.5,32.4-8C279,745.2,264.5,750,258,752.4z"/>
	</g>
	<path class="st37" d="M364.3,663.2c0,0,2.9,0.3,5.8,15.4c2.9,15,14.1,29.4,14.1,29.4c4.4,5.9,7.9,12.5,10.2,19.5
		c3.8,11.5,21,26.7,27,27.3c0,0-11.7,11.7-10.4,14.9s-1.3,0-1.3,0s-16-6.1-19.5-16c-3.5-9.9-18.9-25.9-18.9-25.9
		s-20.5-39.7-21.4-46.1C348.9,675.3,364.3,663.2,364.3,663.2z"/>
	<path class="st14" d="M276.2,717.1c0,0,24.6,2.9,30.1,10.6c5.4,7.7,30.6-4.5,30.6-4.5"/>
	<path class="st14" d="M300.3,673.4c0,0,10.6,38.7,14.4,43.5c3.8,4.8,33.6,44.1,47.7,41.6c0,0-4.2,17.9-7,18.6
		c0,0-29.1-28.8-39-28.5c0,0-18.2-15-20.2-22.4s-17.3-31.3-17.3-31.3s-7.7-17-4.5-24.3S294.6,666.4,300.3,673.4z"/>
	<path class="st37" d="M300.6,672.8c0,0,10.6,38.7,14.4,43.5c3.8,4.8,33.6,44.1,47.7,41.6c0,0-4.2,17.9-7,18.6
		c0,0-29.1-28.8-39-28.5c0,0-18.2-15-20.2-22.4c-1.9-7.4-17.3-31.3-17.3-31.3s-7.7-17-4.5-24.3C277.9,662.5,294.9,665.7,300.6,672.8
		z"/>
	<path class="st14" d="M342.1,590.9c-0.2-3.1-2.5-5.7-5.6-6.2c-2-0.3-4.2,0.2-6-0.8c-0.8-0.5-1.3-1.3-2-1.9
		c-2.5-2.6-6.1-3.8-9.7-3.9c-3.6-0.1-7.1,0.8-10.6,1.8c-6.9,2-14.2,4.9-17.9,11.1c-5.6,9.4-0.4,22-4.8,32c-1.9,4.4-5.6,7.9-6.8,12.5
		c-1.6,6.2,1.6,12.4,4,18.3c2.2,5.3,3.8,10.8,4.9,16.4c1,5,1.5,10.1,0.4,15c-0.5,2.2-1.3,4.4-0.9,6.5c0.6,3.3,3.8,5.4,6.7,7l0.8,0.4
		c4.2,2.4,8.4,4.9,13.2,5.5c3,0.4,6.1,0,8.6-1.6c2.6-1.5,4.5-4.2,4.7-7.2c0.2-3.4-1.6-6.5-2-9.9c-0.1-0.5-0.1-1,0.1-1.5
		c0.3-0.6,0.9-1.1,1.5-1.4c8.2-5.7,12.6-16.4,10.8-26.3c-1.2-6.7-5.1-13.4-3.2-19.9c1-3.6,3.7-6.6,5.2-10c1.6-3.7,1.8-7.8,0.6-11.6
		c-0.8-2.6-2.4-5.3-1.9-8c0.9-4.8,7.4-6.4,9.8-10.6c1.8-3.2,0.7-7.7-2.3-9.7"/>
	<path class="st35" d="M341.5,590.5c-0.2-3.1-2.5-5.7-5.6-6.2c-2-0.3-4.2,0.2-6-0.8c-0.8-0.5-1.3-1.3-2-1.9
		c-2.5-2.6-6.1-3.8-9.7-3.9c-3.6-0.1-7.1,0.8-10.6,1.8c-6.9,2-14.2,4.9-17.9,11.1c-5.6,9.4-0.4,22-4.8,32c-1.9,4.4-5.6,7.9-6.8,12.5
		c-1.6,6.2,1.6,12.4,4,18.3c2.2,5.3,3.8,10.8,4.9,16.4c1,5,1.5,10.1,0.4,15c-0.5,2.2-1.3,4.4-0.9,6.5c0.6,3.3,3.8,5.4,6.7,7l0.8,0.4
		c4.2,2.4,8.4,4.9,13.2,5.5c3,0.4,6.1,0,8.6-1.6s4.5-4.2,4.7-7.2c0.2-3.4-1.6-6.5-2-9.9c-0.1-0.5-0.1-1,0.1-1.5
		c0.3-0.6,0.9-1.1,1.5-1.4c8.2-5.7,12.6-16.4,10.8-26.3c-1.2-6.7-5.1-13.4-3.2-19.9c1-3.6,3.7-6.6,5.2-10c1.6-3.7,1.8-7.8,0.6-11.6
		c-0.8-2.6-2.4-5.3-1.9-8c0.9-4.8,7.4-6.4,9.8-10.6c1.8-3.2,0.7-7.7-2.3-9.7"/>
	<path class="st7" d="M363.2,793.8c0.6-0.5,1-1.1,1.2-1.8c0.2-0.7-0.2-1.6-0.9-1.9c-0.8-0.3-1.6,0.2-2.3,0.8
		c-0.6,0.6-1.4,1.2-2.2,1.1c0.9-0.8,1.3-2,1-3.1c0-0.2-0.1-0.5-0.3-0.6c-0.4-0.5-1.2-0.3-1.8,0.1c-1.7,1.2-2.1,3.4-2.1,5.5
		c-0.2-0.7,0-1.5,0-2.2c0-0.7-0.2-1.6-0.8-2c-0.4-0.2-0.8-0.3-1.3-0.3c-0.7,0-1.6,0-2.1,0.6c-0.6,0.7-0.5,1.8,0.1,2.6
		c0.6,0.7,1.4,1.2,2.2,1.7c0.6,0.4,1.1,0.9,1.5,1.5c0,0.1,0.1,0.2,0.1,0.3h4.7C361.4,795.2,362.4,794.6,363.2,793.8z"/>
	<circle class="st0" cx="265.8" cy="600.1" r="11.9"/>
	<circle class="st0" cx="265.8" cy="600.1" r="10.1"/>
	<circle class="st0" cx="265.8" cy="600.1" r="0.7"/>
	<line class="st39" x1="270.2" y1="592.5" x2="266.2" y2="599.5"/>
	<line class="st39" x1="270.4" y1="602.5" x2="266.5" y2="600.4"/>
	<path class="st40" d="M370.8,777.2h33.4c1.1,0,2.1,0.9,2.1,2.1v1.1c0,1.1-0.9,2.1-2.1,2.1h-33.4c-1.1,0-2.1-0.9-2.1-2.1v-1.1
		C368.7,778.2,369.6,777.2,370.8,777.2z"/>
	<g class="st41">
		
			<linearGradient id="SVGID_19_" gradientUnits="userSpaceOnUse" x1="438.2246" y1="27.3909" x2="438.2246" y2="91.9363" gradientTransform="matrix(1 0 0 -1 0 810)">
			<stop  offset="0" style="stop-color:#808080;stop-opacity:0.25"/>
			<stop  offset="0.54" style="stop-color:#808080;stop-opacity:0.12"/>
			<stop  offset="1" style="stop-color:#808080;stop-opacity:0.1"/>
		</linearGradient>
		<path class="st42" d="M400.6,718.1h75.3c5,0,9,4,9,9v46.5c0,5-4,9-9,9h-75.3c-5,0-9-4-9-9v-46.5
			C391.6,722.1,395.6,718.1,400.6,718.1z"/>
	</g>
	<path class="st43" d="M401.8,719.3h71.3c4.7,0,8.6,3.8,8.6,8.6V774c0,4.7-3.8,8.6-8.6,8.6h-71.3c-4.7,0-8.6-3.8-8.6-8.6v-46.2
		C393.2,723.1,397.1,719.3,401.8,719.3z"/>
	<path class="st40" d="M403,719.3h71.3c4.7,0,8.6,3.8,8.6,8.6V774c0,4.7-3.8,8.6-8.6,8.6H403c-4.7,0-8.6-3.8-8.6-8.6v-46.2
		C394.4,723.1,398.3,719.3,403,719.3z"/>
	<circle class="st15" cx="442.8" cy="750.5" r="2.9"/>
	<path class="st7" d="M290.1,778.8c0,0-5.1-1.7-7.5,2.8c-1.3,2.5-1.3,5.4,0.1,7.9c1.6,2.9,4.9,6.7,11.2,6.3c5.3-0.3,7.1-4.3,7.6-8.1
		c0.6-4.6-2.6-8.7-7.2-9.3c-1.3-0.2-2.6,0-3.9,0.4L290.1,778.8z"/>
	<path class="st44" d="M283.8,789.8c-1.4-2.4-1.4-5.4-0.1-7.9c2.4-4.5,7.5-2.8,7.5-2.8l0.3-0.1c1.9-0.7,4.1-0.7,6,0.1
		c-2.1-1.3-4.7-1.5-7-0.7l-0.3,0.1c0,0-5.1-1.7-7.5,2.8c-1.3,2.5-1.3,5.4,0.1,7.9c1.1,1.9,2.9,4.2,5.8,5.4
		C286.5,793.5,284.9,791.8,283.8,789.8z"/>
	<path class="st45" d="M287.5,780.9c0,0,1.9,1.5,6.5,0"/>
	<path class="st7" d="M287.1,770.2c0,0,3.2,8.7,3,11l2.6-0.3c0,0-4.3-7.7-3.2-10.8H287.1z"/>
	<path class="st45" d="M287.1,770.2c0,0,3.2,8.7,3,11l2.6-0.3c0,0-4.3-7.7-3.2-10.8H287.1z"/>
	<path class="st7" d="M300.3,770.9c0,0-5.1-2.6-7.4-0.5c-2.3,2.1-2.6,7.6-2.6,7.6S298.6,779.2,300.3,770.9z"/>
	<path class="st44" d="M300.3,770.9c0,0-5.1-2.6-7.4-0.5c-2.3,2.1-2.6,7.6-2.6,7.6S298.6,779.2,300.3,770.9z"/>
	<path class="st46" d="M290.3,778.1c0,0,1.3-6.4,10-7.2"/>
</g>
<g>
	<path class="st47" d="M733.3,579.3C733.3,579.3,733.3,579.3,733.3,579.3L733.3,579.3L733.3,579.3c-0.9,0.9-10.4,10.2-14.1,19.7
		c-1.2-1.4-2.1-2.2-2.1-2.2s0,0,0,0l0,0l0,0c-0.7,0.7-10.1,10-10.1,17.4c0,7.1,3.9,9.9,9,10.3l-0.4,7h1l0.1-7c0.1,0,0.3,0,0.4,0
		c3.7,0,7-1.2,8.8-4.3c1.8,0.7,3.7,1.1,5.6,1.2l-0.6,10.7h1.6l0.2-10.7c0.2,0,0.4,0,0.6,0c8.6,0,15.5-4.1,15.5-15.8
		S733.3,579.3,733.3,579.3z"/>
	<path class="st47" d="M841.3,579.7C841.3,579.7,841.3,579.7,841.3,579.7L841.3,579.7L841.3,579.7c-0.9,0.9-11.1,10.9-14.4,20.7
		v-4.9l-32.3-48.8l-32.3,48.8v36.7h64.6v-19c2.1,5.8,6.9,8.3,12.7,8.7l-0.6,10.7h1.6l0.2-10.7c0.2,0,0.4,0,0.6,0
		c8.6,0,15.5-4.1,15.5-15.8S841.3,579.7,841.3,579.7z"/>
	<ellipse class="st47" cx="828.4" cy="691.2" rx="19" ry="1.7"/>
	<path class="st7" d="M836.5,684.2c0,4.9-2.9,6.6-6.5,6.6c-0.1,0-0.2,0-0.2,0c-0.2,0-0.3,0-0.5,0c-3.2-0.2-5.8-2-5.8-6.6
		c0-4.7,6-10.7,6.5-11.1l0,0c0,0,0,0,0,0S836.5,679.3,836.5,684.2z"/>
	<path class="st48" d="M829.7,690l2.4-3.3l-2.4,3.7l0,0.4c-0.2,0-0.3,0-0.5,0l0.3-4.9l0,0l0,0l0-0.5l-2.4-3.7l2.4,3.4l0,0.1l0.2-3.7
		l-2-3.8l2.1,3.2l0.2-7.7l0,0v0l0,6.1l2-2.4l-2,2.9l-0.1,3.3l1.9-3.2l-1.9,3.7l0,1.8l2.8-4.4l-2.8,5.1L829.7,690z"/>
	<ellipse class="st47" cx="576.4" cy="751.8" rx="35.4" ry="3.3"/>
	<path class="st7" d="M591.5,738.7c0,9.2-5.4,12.3-12.1,12.3c-0.2,0-0.3,0-0.5,0c-0.3,0-0.6,0-0.9,0c-6.1-0.4-10.8-3.8-10.8-12.3
		c0-8.8,11.3-19.9,12.1-20.7l0,0c0,0,0,0,0,0S591.5,729.5,591.5,738.7z"/>
	<path class="st48" d="M578.9,749.6l4.4-6.2l-4.5,6.9l0,0.7c-0.3,0-0.6,0-0.9,0l0.5-9.2l0-0.1l0,0l0-0.9L574,734l4.5,6.3l0,0.2
		l0.4-6.9l-3.8-7.1l3.9,5.9l0.4-14.3l0,0v0l-0.1,11.3l3.8-4.5l-3.8,5.5l-0.1,6.2l3.6-5.9l-3.6,6.9l-0.1,3.4l5.2-8.3L579,742
		L578.9,749.6z"/>
	<ellipse class="st47" cx="724.9" cy="788.4" rx="81.7" ry="4.8"/>
	<path class="st49" d="M684.8,774.6l-17.2,15.5c-7.7-3.4-12.9-9.2-15.5-17.2l17.2-15.5C669.4,767.5,674.7,773.2,684.8,774.6z"/>
	
		<rect x="654" y="769.3" transform="matrix(0.7604 -0.6494 0.6494 0.7604 -341.1684 614.0748)" class="st48" width="15.3" height="0.3"/>
	
		<rect x="655.5" y="771.4" transform="matrix(0.7425 -0.6699 0.6699 0.7425 -346.1226 642.9147)" class="st48" width="15.1" height="0.3"/>
	<path class="st47" d="M693.3,718.4l-23,2.4c-4.3-7.3-5.1-15-2.4-23l23-2.4C685,703.7,685.9,711.4,693.3,718.4z"/>
	
		<rect x="669.9" y="700.5" transform="matrix(0.9967 -8.091706e-02 8.091706e-02 0.9967 -54.4775 57.1267)" class="st48" width="15.3" height="0.3"/>
	
		<rect x="669.9" y="703.1" transform="matrix(0.9941 -0.108 0.108 0.9941 -72.0023 77.2903)" class="st48" width="15.1" height="0.3"/>
	
		<rect x="677.3" y="638.9" transform="matrix(0.763 -0.6464 0.6464 0.763 -257.3479 591.0989)" class="st48" width="0.3" height="15.3"/>
	
		<rect x="675.1" y="640.3" transform="matrix(0.7452 -0.6669 0.6669 0.7452 -259.9811 615.4641)" class="st48" width="0.3" height="15.1"/>
	<rect x="683.7" y="589.1" transform="matrix(0.866 -0.5 0.5 0.866 -212.9377 428.3399)" class="st48" width="18.2" height="44.7"/>
	
		<rect x="678.8" y="600.7" transform="matrix(0.8578 -0.5139 0.5139 0.8578 -211.2637 438.0282)" class="st7" width="14.6" height="0.3"/>
	
		<rect x="680.8" y="603.5" transform="matrix(0.8578 -0.5139 0.5139 0.8578 -212.4097 439.4471)" class="st7" width="14.6" height="0.3"/>
	
		<rect x="682.2" y="605.8" transform="matrix(0.8578 -0.5139 0.5139 0.8578 -213.4285 440.4733)" class="st7" width="14.6" height="0.3"/>
	
		<rect x="684.2" y="608.9" transform="matrix(0.8578 -0.5139 0.5139 0.8578 -214.6974 441.9409)" class="st7" width="14.6" height="0.3"/>
	
		<rect x="687.2" y="613.2" transform="matrix(0.8578 -0.5139 0.5139 0.8578 -216.5145 444.1185)" class="st7" width="14.6" height="0.3"/>
	<path class="st50" d="M746.6,636.7c0,0,8.7-4.2,14.8-2.6l-14.8-40V590l21,49.9l0,0c5.2,9.9,11.9,32.4,0.6,34.2
		c-12.8,2.1-35.9,9.7-35.9,9.7l-5.1-44.6L746.6,636.7z"/>
	<path class="st34" d="M696,623.4c0,0-13.9-17.4-17.4-11.3c-3.6,6.2,16.1,16.5,16.1,16.5L696,623.4z"/>
	<path class="st51" d="M700.6,623.9l-5.6-3.1c0,0-3.6,9.2-3.6,10.8c0,1.5,5.6,2.1,5.6,2.1L700.6,623.9z"/>
	<circle class="st34" cx="722.2" cy="571.5" r="13.3"/>
	<path class="st34" d="M732.5,570c0,0,5.6,16.9,9.7,18c4.1,1-15.9,8.7-15.9,8.7s-6.2-14.4-9.2-18C714,575.1,732.5,570,732.5,570z"/>
	<path class="st14" d="M764.5,669c11.1-1.8,5-23.4-0.2-33.6c0.5,0.4,0.9,0.8,1.3,1.2c5.1,6.7,15.4,35.4,2.6,37.5s-35.9,9.7-35.9,9.7
		l-0.7-6.1C738.1,675.7,754.5,670.6,764.5,669z"/>
	<path class="st50" d="M782.2,757.3c0,0,12.8,10.3,11.8,11.3c-1,1-11.8,17.4-21,19c-9.2,1.5-13.3,1.5-13.3,0c0-1.5,2.6-5.1,7.2-6.7
		c4.6-1.5,5.1-11.8,4.6-13.9C770.9,765,782.2,757.3,782.2,757.3z"/>
	<path class="st50" d="M743.7,680.8l8.2,38.5c0,0,33.9,38,32.8,38.5c-1,0.5-11.3,10.8-13.3,10.8s-37.5-40-37.5-40l-12.8-33.3
		L743.7,680.8z"/>
	<path class="st14" d="M743.7,680.8l8.2,38.5c0,0,33.9,38,32.8,38.5c-1,0.5-11.3,10.8-13.3,10.8s-37.5-40-37.5-40l-12.8-33.3
		L743.7,680.8z"/>
	<path class="st50" d="M751.9,668.5c0,0-4.1,17.4-15.4,29.2c-11.3,11.8-16.4,35.9-16.4,35.9l-11.3,48.2c0,0-20-2.6-19-7.7l10.8-42.6
		c0,0,12.3-59,19-63.1C726.3,664.4,751.9,668.5,751.9,668.5z"/>
	<path class="st50" d="M707.8,777.8c0,0,3.1,9.7,1,10.8c-2.1,1-38.5,3.1-40.5-4.1c0,0-1-3.6,7.2-3.6c8.2,0,16.9-7.7,16.9-7.7
		L707.8,777.8z"/>
	<path class="st52" d="M723.2,594.6c0,0,13.3-13.3,16.9-12.3c3.6,1,3.6,6.2,3.6,6.2S755,590,754,626.9c-1,36.9,9.2,41,5.6,43.1
		c-3.6,2.1-44.6,11.3-46.2,2.1c-1.5-9.2-1-44.6,3.1-55.9C720.7,604.9,725.8,597.7,723.2,594.6z"/>
	<path class="st52" d="M740.1,597.7c0,0,15.4,7.2,6.7,21c-8.7,13.9-15.4,28.7-24.6,28.2s-23.6-9.2-27.7-9.2s1.5-14.9,4.6-15.4
		c3.1-0.5,17.4,8.2,17.4,8.2S721.7,595.6,740.1,597.7z"/>
	<path class="st50" d="M729.9,573c-1.1-0.1-2.2,0.3-3.4,0.5c-4,0.5-8.2-2.4-9.1-6.4c-0.1-0.5-0.2-1-0.5-1.5c-0.6-1-2-1.2-3.2-1
		c-1.2,0.2-2.3,0.8-3.5,0.8c-1.8,0.1-3.6-1-4.6-2.6c-1-1.6-1.3-3.5-1.1-5.3l0.9,0.9c0.4-0.8,0.5-1.6,0.4-2.4c0.9-0.3,2,0,2.7,0.7
		c0.8,0.1,0.2-1.4,0.8-2c0.2-0.2,0.6-0.2,0.9-0.2c1.7,0,3-1.2,4.3-2.3c2.3-1.8,4.9-3,7.7-3.5c1.9-0.4,3.8-0.4,5.6,0.3
		c1.5,0.6,2.7,1.6,3.8,2.7c2.8,2.7,5.2,5.8,6.4,9.5c0.9,3,1,6.2,0.1,9.2c-0.5,1.6-1.9,6.9-3.9,7.1
		C731.5,577.7,733.1,573.2,729.9,573z"/>
</g>
</svg>
