<?xml version="1.0" encoding="utf-8"?>
<!-- Generator: Adobe Illustrator 21.0.0, SVG Export Plug-In . SVG Version: 6.00 Build 0)  -->
<svg version="1.1" id="Layer_1" xmlns="http://www.w3.org/2000/svg" xmlns:xlink="http://www.w3.org/1999/xlink" x="0px" y="0px"
	 viewBox="0 0 1280 120" style="enable-background:new 0 0 1280 120;" xml:space="preserve">
<style type="text/css">
	.st0{opacity:0.1;fill:#6C63FF;enable-background:new    ;}
	.st1{fill:#D6D6E3;}
	.st2{fill:#AEBEE1;}
	.st3{fill:#535461;}
	.st4{opacity:0.1;enable-background:new    ;}
	.st5{fill:#E3EDF9;}
	.st6{fill:url(#SVGID_1_);}
	.st7{fill:#F8B9BF;}
	.st8{fill:#D9DFE8;}
	.st9{fill:#6C63FF;}
	.st10{opacity:0.1;}
	.st11{fill:#68739D;}
	.st12{fill:#6394E2;}
	.st13{fill:#B96B6B;}
	.st14{fill:none;stroke:#535461;stroke-width:2;stroke-miterlimit:10;}
	.st15{fill:url(#SVGID_2_);}
	.st16{fill:#FA595F;}
	.st17{fill:#F37291;}
	.st18{fill:#96A2D0;}
	.st19{fill:#F2F2F2;}
	.st20{fill:#3F3D56;}
	.st21{fill:none;stroke:#3F3D56;stroke-miterlimit:10;}
	.st22{fill:#46455B;}
	.st23{fill:#A8A8A8;}
	.st24{opacity:0.2;enable-background:new    ;}
	.st25{fill:#A0616A;}
	.st26{fill:#605D82;}
	.st27{fill:#535070;}
	.st28{fill:#FFFFFF;}
	.st29{fill:#57B894;}
</style>
<path class="st0" d="M1185.7,74c-7.3,10.9-5.4,26.2-1.8,38.2c1.2,4,2.6,8.3,1.8,12.8c-1,5.5-5.1,9.7-9.4,12
	c-7.7,4.3-16.7,3.9-23.3-0.9c-5.7-4.2-9.6-11.3-15.5-15.3c-9.8-6.6-22.9-3.1-34.2,2.6c-8,4-16.8,9.2-24.3,6
	c-5.3-2.3-8.8-8.4-10.5-15c-0.8-3.2-1.4-6.7-3.1-9.1c-1.1-1.5-2.5-2.5-3.9-3.3c-13.3-7.5-31-2-43.9-10.4
	c-8.7-5.7-13.9-17.2-15.8-29.4c-1.9-12.2-1-25.2,0.3-37.9c0.9-9.1,2.2-18.8,7.3-26c5.3-7.7,14-11,21.7-10c7.7,0.9,14.4,5.5,20.2,11
	c7.3,6.9,14,15.6,23.3,18c6.3,1.6,13.2,0.1,19.8-0.7c11.1-1.3,22.1-0.6,33.1,0.3c10.5,0.8,21,1.8,30.9,5.4c7,2.5,12.4,7.6,18.9,11
	c4.3,2.2,9,2.6,13,5.5c4.9,3.6,9.3,10,7.5,18C1196.1,64.1,1189.5,68.2,1185.7,74z"/>
<rect x="1155.8" y="33.2" class="st0" width="7.2" height="10.9"/>
<rect x="1156.5" y="34.2" class="st0" width="5.8" height="8.8"/>
<rect x="1141.2" y="25.6" class="st0" width="11.1" height="10.9"/>
<rect x="1142.3" y="26.7" class="st0" width="8.9" height="8.8"/>
<rect x="1012" y="9.4" class="st0" width="33.8" height="0.9"/>
<rect x="1012" y="13.8" class="st0" width="33.8" height="0.9"/>
<rect x="1069.1" y="67.8" class="st1" width="3.5" height="38.6"/>
<path class="st2" d="M1173.5,71.8V36.2c0-2.1,1.7-3.7,3.7-3.7l0,0c2.1,0,3.7,1.7,3.7,3.7v43.1c0,2.1-1.7,3.7-3.7,3.7l0,0H1154
	c-2.1,0-3.7-1.7-3.7-3.7l0,0l0,0c0-2.1,1.7-3.7,3.7-3.7l0,0h15.7C1171.8,75.6,1173.5,73.9,1173.5,71.8z"/>
<path class="st3" d="M1173.5,71.8V36.2c0-2.1,1.7-3.7,3.7-3.7l0,0c2.1,0,3.7,1.7,3.7,3.7v43.1c0,2.1-1.7,3.7-3.7,3.7l0,0H1154
	c-2.1,0-3.7-1.7-3.7-3.7l0,0l0,0c0-2.1,1.7-3.7,3.7-3.7l0,0h15.7C1171.8,75.6,1173.5,73.9,1173.5,71.8z"/>
<path class="st1" d="M1150.3,79.1c0.1-2,1.7-3.5,3.7-3.5h15.7c2.1,0,3.7-1.7,3.7-3.7l0,0V36.2c0-2,1.6-3.6,3.6-3.7v46.7H1150.3z"/>
<path class="st2" d="M1034.5,73V37.4c0-2.1-1.7-3.7-3.7-3.7l0,0c-2.1,0-3.7,1.7-3.7,3.7v43.1c0,2.1,1.7,3.7,3.7,3.8c0,0,0,0,0,0
	h23.2c2.1,0,3.7-1.7,3.7-3.7l0,0c0-2.1-1.7-3.7-3.7-3.7h-15.7C1036.2,76.8,1034.5,75.1,1034.5,73C1034.5,73,1034.5,73,1034.5,73z"/>
<path class="st3" d="M1034.5,73V37.4c0-2.1-1.7-3.7-3.7-3.7l0,0c-2.1,0-3.7,1.7-3.7,3.7v43.1c0,2.1,1.7,3.7,3.7,3.8c0,0,0,0,0,0
	h23.2c2.1,0,3.7-1.7,3.7-3.7l0,0c0-2.1-1.7-3.7-3.7-3.7h-15.7C1036.2,76.8,1034.5,75.1,1034.5,73C1034.5,73,1034.5,73,1034.5,73z"/>
<path class="st1" d="M1057.7,80.3c-0.1-2-1.7-3.5-3.7-3.5h-15.7c-2.1,0-3.7-1.7-3.7-3.7c0,0,0,0,0,0V37.4c0-2-1.6-3.6-3.6-3.7v46.7
	H1057.7z"/>
<rect x="1137.4" y="67.8" class="st1" width="3.5" height="39.5"/>
<rect x="1069.1" y="67.8" class="st4" width="3.5" height="2.9"/>
<rect x="1137.4" y="67.8" class="st4" width="3.5" height="2.9"/>
<path class="st4" d="M1081.4,44.2c-0.1,0.6-0.1,1.2-0.2,1.9h-0.5v-1.9H1081.4z"/>
<path class="st3" d="M1095.6,63.5c0,0.6-0.4,1.1-1,1.1H1084v-1.1h8.8c0.4,0,0.6-0.5,0.4-0.8l-8-16.2c-0.1-0.2-0.4-0.4-0.6-0.4h-3.9
	v-1.9h5c0.2,0,0.4,0.1,0.4,0.3l9.1,17.6C1095.4,62.5,1095.6,63,1095.6,63.5z"/>
<path class="st3" d="M1076.2,60.5l-0.1,0.2l-1.4-0.9l4.2-32.2h1.1c0,0,0,0.1,0.1,0.4C1080.8,30.9,1084.3,46.7,1076.2,60.5z"/>
<path class="st4" d="M1080.1,28.1l-3.9,32.4l-0.1,0.2l-1.4-0.9l4.2-32.2h1.1C1079.9,27.7,1080,27.9,1080.1,28.1z"/>
<rect x="1060" y="42.8" transform="matrix(0.1189 -0.9929 0.9929 0.1189 904.8985 1107.9164)" class="st1" width="33.4" height="2.6"/>
<path class="st5" d="M1064.8,63.5c0,0.2-0.1,0.3-0.3,0.3h-0.5c-0.2,0-0.3-0.1-0.3-0.3c0,0,0,0,0,0c0-0.2,0.1-0.3,0.3-0.3h0.5
	C1064.6,63.2,1064.7,63.3,1064.8,63.5C1064.8,63.4,1064.8,63.4,1064.8,63.5z"/>
<path class="st5" d="M1066.1,63.5c0,0.2-0.1,0.3-0.3,0.3h-0.5c-0.2,0-0.3-0.1-0.3-0.3c0,0,0-0.1,0-0.1c0,0,0-0.1,0.1-0.1
	c0.1-0.1,0.1-0.1,0.2-0.1h0.5c0.1,0,0.2,0.1,0.3,0.2C1066.1,63.4,1066.1,63.4,1066.1,63.5z"/>
<path class="st5" d="M1067.3,63.5c0,0.2-0.1,0.3-0.3,0.3h-0.5c-0.2,0-0.3-0.1-0.3-0.3c0,0,0-0.1,0-0.1c0-0.1,0.2-0.2,0.3-0.2h0.5
	C1067.2,63.2,1067.3,63.3,1067.3,63.5C1067.3,63.5,1067.3,63.5,1067.3,63.5L1067.3,63.5z"/>
<path class="st5" d="M1068.7,63.5c0,0.2-0.1,0.3-0.3,0.3h-0.5c-0.2,0-0.3-0.1-0.3-0.3c0-0.1,0-0.1,0.1-0.2l0,0
	c0.1-0.1,0.1-0.1,0.2-0.1h0.5c0.1,0,0.2,0,0.2,0.1C1068.6,63.3,1068.7,63.4,1068.7,63.5z"/>
<path class="st4" d="M1064.8,63.4C1064.8,63.4,1064.8,63.4,1064.8,63.4c0,0.2-0.1,0.4-0.3,0.4h-0.5c-0.2,0-0.3-0.1-0.3-0.3
	c0,0,0,0,0,0L1064.8,63.4z"/>
<path class="st4" d="M1066.1,63.4c0,0,0,0.1,0,0.1c0,0.2-0.1,0.3-0.3,0.3h-0.5c-0.2,0-0.3-0.1-0.3-0.3c0,0,0-0.1,0-0.1L1066.1,63.4z
	"/>
<path class="st4" d="M1067.3,63.3c0,0,0,0.1,0,0.2c0,0.2-0.1,0.3-0.3,0.3h-0.5c-0.2,0-0.3-0.1-0.3-0.3c0,0,0-0.1,0-0.1L1067.3,63.3z
	"/>
<path class="st4" d="M1068.7,63.5c0,0.2-0.1,0.3-0.3,0.3h-0.5c-0.2,0-0.3-0.1-0.3-0.3c0-0.1,0-0.1,0.1-0.2l0.9,0
	C1068.6,63.3,1068.7,63.4,1068.7,63.5z"/>
<path class="st1" d="M1071.4,64.7h-8.7v-0.4c0-0.4,0.3-0.7,0.7-0.7l7-0.2c0.6,0,1.1,0.4,1.1,1c0,0,0,0,0,0L1071.4,64.7z"/>
<path class="st3" d="M1114.4,63.5c0,0.6,0.4,1.1,1,1.1h10.6v-1.1h-8.8c-0.4,0-0.6-0.5-0.4-0.8l8-16.2c0.1-0.2,0.4-0.4,0.6-0.4h3.9
	v-1.9h-5c-0.2,0-0.3,0.1-0.4,0.3l-9.1,17.6C1114.5,62.5,1114.4,63,1114.4,63.5z"/>
<path class="st3" d="M1133.8,60.5l0.1,0.2l1.4-0.9l-4.2-32.2h-1.1c0,0,0,0.1-0.1,0.4C1129.2,30.9,1125.6,46.7,1133.8,60.5z"/>
<path class="st4" d="M1129.9,28.1l3.9,32.4l0.1,0.2l1.4-0.9l-4.2-32.2h-1.1C1130,27.7,1129.9,27.9,1129.9,28.1z"/>
<rect x="1131.9" y="27.4" transform="matrix(0.9929 -0.1189 0.1189 0.9929 2.7999 135.0804)" class="st1" width="2.6" height="33.4"/>
<path class="st5" d="M1145.2,63.5c0,0.2,0.1,0.3,0.3,0.3h0.5c0.2,0,0.3-0.1,0.3-0.3l0,0c0,0,0,0,0,0c0-0.2-0.1-0.3-0.3-0.3h-0.5
	C1145.3,63.2,1145.2,63.3,1145.2,63.5C1145.2,63.4,1145.2,63.4,1145.2,63.5z"/>
<path class="st5" d="M1143.8,63.5c0,0.2,0.1,0.3,0.3,0.3h0.5c0.2,0,0.3-0.1,0.3-0.3l0,0c0,0,0-0.1,0-0.1c0,0,0-0.1-0.1-0.1
	c-0.1-0.1-0.1-0.1-0.2-0.1h-0.5c-0.1,0-0.2,0.1-0.3,0.2C1143.8,63.4,1143.8,63.4,1143.8,63.5z"/>
<path class="st5" d="M1142.6,63.5c0,0.2,0.1,0.3,0.3,0.3h0.5c0.2,0,0.3-0.1,0.3-0.3l0,0c0,0,0-0.1,0-0.1c0-0.1-0.2-0.2-0.3-0.2h-0.5
	C1142.8,63.2,1142.6,63.3,1142.6,63.5C1142.6,63.5,1142.6,63.5,1142.6,63.5L1142.6,63.5z"/>
<path class="st5" d="M1141.3,63.5c0,0.2,0.1,0.3,0.3,0.3h0.5c0.2,0,0.3-0.1,0.3-0.3c0-0.1,0-0.1-0.1-0.2l0,0
	c-0.1-0.1-0.1-0.1-0.2-0.1h-0.5c-0.1,0-0.2,0-0.2,0.1C1141.3,63.3,1141.3,63.4,1141.3,63.5z"/>
<path class="st4" d="M1145.2,63.4C1145.2,63.4,1145.2,63.4,1145.2,63.4c0,0.2,0.1,0.4,0.3,0.4h0.5c0.2,0,0.3-0.1,0.3-0.3l0,0
	c0,0,0,0,0,0L1145.2,63.4z"/>
<path class="st4" d="M1143.8,63.4c0,0,0,0.1,0,0.1c0,0.2,0.1,0.3,0.3,0.3h0.5c0.2,0,0.3-0.1,0.3-0.3l0,0c0,0,0-0.1,0-0.1
	L1143.8,63.4z"/>
<path class="st4" d="M1142.7,63.3c0,0,0,0.1,0,0.2c0,0.2,0.1,0.3,0.3,0.3h0.5c0.2,0,0.3-0.1,0.3-0.3l0,0c0,0,0-0.1,0-0.1
	L1142.7,63.3z"/>
<path class="st4" d="M1141.3,63.5c0,0.2,0.1,0.3,0.3,0.3h0.5c0.2,0,0.3-0.1,0.3-0.3c0-0.1,0-0.1-0.1-0.2l-0.9,0
	C1141.3,63.3,1141.3,63.4,1141.3,63.5z"/>
<path class="st1" d="M1138.6,64.7h8.7v-0.4c0-0.4-0.3-0.7-0.7-0.7l-7-0.2c-0.6,0-1.1,0.4-1.1,1c0,0,0,0,0,0L1138.6,64.7z"/>
<linearGradient id="SVGID_1_" gradientUnits="userSpaceOnUse" x1="1196.7598" y1="16.0375" x2="1196.7598" y2="106.7781" gradientTransform="matrix(1 9.000000e-02 9.000000e-02 -1 -46.14 18.55)">
	<stop  offset="0" style="stop-color:#808080;stop-opacity:0.25"/>
	<stop  offset="0.54" style="stop-color:#808080;stop-opacity:0.12"/>
	<stop  offset="1" style="stop-color:#808080;stop-opacity:0.1"/>
</linearGradient>
<path class="st6" d="M1175,69.5c4.1-6.9,2.6-20.8,2.8-21.1c0.1-0.2-0.4-6.8-4.2-8.4c-0.7-1.3-1.3-2.8-1.3-2.8
	c-0.1,0.1-0.1,0.1-0.2,0.2c0-0.1-0.1-0.2-0.1-0.2c0-0.1-0.1-0.3-0.1-0.4c0.1,0,0.2,0.1,0.3,0.1c0.3,0.1,0.6,0,0.9-0.1
	c0.1,0,0.2-0.1,0.2-0.2c0.3-0.2,0.5-0.5,0.6-0.9l1.1-2.6c0.5-1.2,1-2.4,1.2-3.6c0.4-1.9,0.2-3.8-0.4-5.6c-0.3-0.7-0.6-1.4-1.2-1.8
	c-1.2-0.8-2.9-0.3-4.3-0.7c-0.5-0.2-0.9-0.4-1.3-0.6c-1-0.4-2.1-0.2-3,0.3c-0.9,0.4-1.7,1.1-2.5,1.8c-0.4,0.3-1.1,0.6-1.5,1.1
	c-0.5,0.4-0.8,0.8-0.8,1.4c0.1,0.7,0.8,1.1,1.4,1.2c0.1,0,0.2,0,0.3,0.1c-2.5,2.5-2.4,6.5,0.1,9c0.7,0.7,1.7,1.3,2.7,1.6
	c0.3,0.6,0.6,1.3,0.9,1.9c0,0.1,0.1,0.2,0.1,0.3c-1.1,0.3-1.9,0.6-2.1,0.7c-0.5,0.4,0.6,4.1,0.6,4.1c-0.3,0.3-0.5,0.7-0.8,1.1
	c-2.1,3.2-3.4,6.9-3.9,10.7c-0.2,1.4-0.4,2.8-0.7,4.2l-12.6-2.5l0,0.3l-0.3-0.1l0,0l-0.9-0.2l0,0.2l-0.1-0.1c-2.3-1.1-6.3-2.5-9-1.1
	c-2.8,1.5,3.3,3.5,7.2,4.6c-1.3,0.1-2.5,0.4-3.5,1.1c-2.8,2.1,5.2,3.2,9,3.6l0.2,0v0.1l1.3,0.1l0.3,0l0,0.5c0,0,1.9,0.3,4.4,0.7
	c-2.9,0.7-6.4,1.2-8.9,1.5c-2.6,0.3-4.8,2.1-5.5,4.7c-0.2,0.7-0.2,1.5-0.1,2.2c0.7,2.6-0.2,21.4-0.4,25.5l-4.6,2.7
	c0,0-7.2,0.9-2.4,2.6c0.4,0.1,0.9,0.3,1.3,0.4c-0.6,0.4-0.6,0.9,1.3,1.6c4.8,1.7,16-0.1,16-0.1s-0.2-2-0.6-3.6l0.1,0
	c0,0-1.2-4.3,0.6-6.5c1.8-2.2-0.3-18.7-0.3-18.7s3.1-1.3,12.2-1.4c7.4,1.9,11-4.9,11-8.4C1175.1,69.6,1175,69.5,1175,69.5z"/>
<path class="st7" d="M1147.7,58.8l-0.8,3.2c0,0-0.7-0.2-1.8-0.4c-3.6-0.9-11.1-3.2-8.1-4.8c2.6-1.4,6.5,0,8.7,1
	c0.8,0.4,1.5,0.7,1.7,0.9C1147.6,58.7,1147.7,58.8,1147.7,58.8z"/>
<path class="st4" d="M1147.5,59.7l-0.6,2.3c0,0-0.7-0.2-1.8-0.4l0.6-3.8c0.8,0.4,1.5,0.7,1.7,0.9L1147.5,59.7z"/>
<polygon class="st8" points="1147.5,62.2 1145.3,61.6 1146,57.6 1147.7,58 "/>
<polygon class="st4" points="1147.5,62.2 1146.5,61.9 1146.9,57.8 1147.7,58 "/>
<path class="st9" d="M1168.6,45.6c0,0-4.2-2.4-6.1,4.5c-1.9,7-2,10.2-2,10.2l-13.3-2.7l-0.4,4.8c0,0,14.2,4.6,16,4.2s7.6-10,7.6-10
	S1175.6,49.1,1168.6,45.6z"/>
<g class="st10">
	<path d="M1147.7,58.8l-0.8,3.2c0,0-0.7-0.2-1.8-0.4c-3.6-0.9-11.1-3.2-8.1-4.8c2.6-1.4,6.5,0,8.7,1c0.8,0.4,1.5,0.7,1.7,0.9
		C1147.6,58.7,1147.7,58.8,1147.7,58.8z"/>
	<path class="st4" d="M1147.5,59.7l-0.6,2.3c0,0-0.7-0.2-1.8-0.4l0.6-3.8c0.8,0.4,1.5,0.7,1.7,0.9L1147.5,59.7z"/>
	<polygon points="1147.5,62.2 1145.3,61.6 1146,57.6 1147.7,58 	"/>
	<polygon class="st4" points="1147.5,62.2 1146.5,61.9 1146.9,57.8 1147.7,58 	"/>
	<path d="M1168.6,45.7c0,0-4.2-2.4-6.1,4.5c-1.9,7-2,10.2-2,10.2l-13.3-2.7l-0.4,4.8c0,0,14.2,4.6,16,4.2s7.6-10,7.6-10
		S1175.6,49.3,1168.6,45.7z"/>
</g>
<path class="st11" d="M1141.8,99.5l-5.4,3.1c0,0-7,0.9-2.3,2.5c4.7,1.6,15.6-0.1,15.6-0.1s-0.6-4.9-1.4-5.6S1141.8,99.5,1141.8,99.5
	z"/>
<path class="st12" d="M1163,64.5c0,0-2.7,1.4-7.5,2.6c-2.8,0.7-6.3,1.2-8.8,1.5c-2.5,0.3-4.7,2.1-5.4,4.5c-0.2,0.7-0.2,1.5-0.1,2.2
	c0.8,2.8-0.4,25.5-0.4,25.5l8.2,0.8c0,0-1.1-4.2,0.6-6.3c1.7-2.1-0.3-18.1-0.3-18.1s3-1.2,11.9-1.3c8.3,2.1,11.7-6.9,10.4-9.5
	S1163,64.5,1163,64.5z"/>
<g class="st10">
	<path d="M1141.8,99.5l-5.4,3.1c0,0-7,0.9-2.3,2.5c4.7,1.6,15.6-0.1,15.6-0.1s-0.6-4.9-1.4-5.6S1141.8,99.5,1141.8,99.5z"/>
	<path d="M1163,64.5c0,0-2.7,1.4-7.5,2.6c-2.8,0.7-6.3,1.2-8.8,1.5c-2.5,0.3-4.7,2.1-5.4,4.5c-0.2,0.7-0.2,1.5-0.1,2.2
		c0.8,2.8-0.4,25.5-0.4,25.5l8.2,0.8c0,0-1.1-4.2,0.6-6.3c1.7-2.1-0.3-18.1-0.3-18.1s3-1.2,11.9-1.3c8.3,2.1,11.7-6.9,10.4-9.5
		S1163,64.5,1163,64.5z"/>
</g>
<path class="st11" d="M1144.4,101.4l-5.4,3.1c0,0-7,0.9-2.3,2.5s15.6-0.1,15.6-0.1s-0.6-4.9-1.4-5.6
	C1149.9,100.7,1144.4,101.4,1144.4,101.4z"/>
<path class="st12" d="M1163.9,77.7c-8.9,0.1-11.9,1.3-11.9,1.3s2,16,0.3,18.1c-1.7,2.1-0.6,6.3-0.6,6.3l-8.2-0.8c0,0,0-0.3,0-0.7
	c0.2-3.9,1.1-22.2,0.4-24.7c-0.2-0.7-0.2-1.5,0.1-2.2c0.7-2.5,2.8-4.2,5.4-4.5c2.4-0.3,5.9-0.8,8.7-1.5l0.1,0
	c4.7-1.2,7.4-2.6,7.4-2.6s7.5-0.7,8.7,1.9c0.2,0.4,0.3,0.8,0.3,1.3C1174.6,73,1171,79.6,1163.9,77.7z"/>
<path class="st7" d="M1151.4,62.7l-0.3,3.3c0,0-0.7-0.1-1.8-0.2c-3.7-0.4-11.5-1.5-8.7-3.5c2.4-1.8,6.4-1,8.8-0.3
	c0.9,0.3,1.6,0.5,1.9,0.6C1151.4,62.7,1151.4,62.7,1151.4,62.7z"/>
<path class="st7" d="M1173.3,41.4c0,0-1.1,0.9-2.5,1.8c-1.5,0.3-3.2,0.6-4.4,0.8c0.4-1.4,0.2-3-0.3-4.4c-0.5-1.5-1.3-2.8-2.2-4.1
	l7.5-2.3c-0.6,1.5-0.3,3.2,0.2,4.6C1172,39.1,1172.6,40.3,1173.3,41.4z"/>
<path class="st4" d="M1151.4,63.6l-0.2,2.3c0,0-0.7-0.1-1.8-0.2l0.1-3.8c0.9,0.3,1.6,0.5,1.9,0.6L1151.4,63.6z"/>
<polygon class="st8" points="1151.7,66.1 1149.5,65.9 1149.6,61.8 1151.4,62 "/>
<path class="st4" d="M1173.3,41.4c0,0-1.1,0.9-2.5,1.8c-1.5,0.3-3.2,0.6-4.4,0.8c0.4-1.4,0.2-3-0.3-4.4c1.8-0.5,4.4-1.2,5.4-1.8
	C1172,39.1,1172.6,40.3,1173.3,41.4z"/>
<path class="st8" d="M1171.8,37.9c0,0,1.2,2.8,2,4.1c0.8,1.3-9.1,2.5-9.1,2.5s-1-3.6-0.5-4S1171,38.8,1171.8,37.9z"/>
<path class="st4" d="M1174.5,69.6c-0.4,0.7-0.9,1.4-1.5,2c-4.4,4.2-11.6-0.2-14.8-2.5c4.7-1.2,7.3-2.6,7.3-2.6s7.5-0.7,8.7,1.9
	C1174.4,68.7,1174.5,69.1,1174.5,69.6z"/>
<path class="st9" d="M1173,71.3c-5,4.7-13.6-1.5-15.9-3.4c-0.4-0.3-0.6-0.5-0.6-0.5c0.9-0.9,1.7-2.7,2.4-4.9c0.6-2.1,1-4.3,1.3-6.5
	c0.4-3.7,1.7-7.3,3.8-10.4c0.3-0.4,0.5-0.8,0.8-1.1c1.9-2.4,5-3.9,5-3.9c6.7-1.9,7.6,7.9,7.4,8.2C1177,49.1,1178.8,65.7,1173,71.3z"
	/>
<path class="st4" d="M1173.6,57.7c0,0-4.3,10.5-6,11.1c-1,0.3-6.2-0.3-10.5-0.9c-0.4-0.3-0.6-0.5-0.6-0.5c0.9-0.9,1.7-2.7,2.4-4.9
	l5.5,0.3c0,0-0.3-3.2,0.5-10.4s5.3-5.4,5.3-5.4C1177.7,49.5,1173.6,57.7,1173.6,57.7z"/>
<polygon class="st4" points="1151.7,66.1 1150.8,66 1150.5,61.9 1151.4,62 "/>
<path class="st9" d="M1170.1,46.5c0,0-4.5-1.8-5.3,5.4c-0.8,7.2-0.5,10.4-0.5,10.4l-13.5-0.6l0.3,4.9c0,0,14.7,2.4,16.4,1.8
	c1.7-0.6,6-11.1,6-11.1S1177.6,49,1170.1,46.5z"/>
<path class="st4" d="M1170.4,35.9c-0.2-1.1,0.9-1.1,1.3-2.1l-7.5,2.3c0.5,0.7,1,1.4,1.4,2.2c0.4,0.1,0.8,0.2,1.2,0.2
	C1168.7,38.8,1169.2,37,1170.4,35.9z"/>
<ellipse transform="matrix(9.202299e-02 -0.9958 0.9958 9.202299e-02 1027.9513 1190.9977)" class="st7" cx="1167" cy="31.8" rx="6.2" ry="6.2"/>
<path class="st4" d="M1161,26.3c0.1,0.6,0.8,1,1.4,1.2c0.6,0.1,1.3,0.2,1.9,0.5c0.9,0.5,1.1,1.7,1,2.8c-0.1,0.6-0.1,1.3,0.3,1.6
	c0.2,0.1,0.3,0.2,0.5,0.2c0.5,0.1,1,0.1,1.5,0.1c0.3,0,0.6-0.1,0.9,0c0.5,0.1,0.7,0.6,0.8,1.1c0.1,0.5,0,1,0.1,1.4
	c0.2,1.2,1.1,2.2,2.3,2.4c0.3,0.1,0.6,0,0.8-0.1c0.3-0.2,0.5-0.6,0.7-0.9l1.1-2.5c0.5-1.1,1-2.3,1.2-3.5c0.4-1.8,0.2-3.7-0.4-5.5
	c-0.3-0.7-0.6-1.3-1.2-1.7c-1.2-0.8-2.8-0.2-4.2-0.7c-0.4-0.2-0.8-0.4-1.3-0.6c-1-0.3-2-0.2-2.9,0.3s-1.7,1.1-2.5,1.7
	C1162.3,24.6,1160.8,25.2,1161,26.3z"/>
<path class="st13" d="M1161.1,26.1c0.1,0.6,0.8,1,1.4,1.2c0.6,0.1,1.3,0.2,1.9,0.5c0.9,0.5,1.1,1.7,1,2.8c-0.1,0.6-0.1,1.3,0.3,1.6
	c0.2,0.1,0.3,0.2,0.5,0.2c0.5,0.1,1,0.1,1.5,0.1c0.3,0,0.6-0.1,0.9,0c0.5,0.1,0.7,0.6,0.8,1.1c0.1,0.5,0,1,0.1,1.4
	c0.2,1.2,1.1,2.2,2.3,2.4c0.3,0.1,0.6,0,0.8-0.1c0.3-0.2,0.5-0.6,0.7-0.9l1.1-2.5c0.5-1.1,1-2.3,1.2-3.5c0.4-1.8,0.2-3.7-0.4-5.5
	c-0.3-0.7-0.6-1.3-1.2-1.7c-1.2-0.8-2.8-0.2-4.2-0.7c-0.4-0.2-0.8-0.4-1.3-0.6c-1-0.3-2-0.2-2.9,0.3c-0.9,0.4-1.7,1.1-2.5,1.7
	C1162.5,24.4,1161,25,1161.1,26.1z"/>
<path class="st4" d="M1166.2,50.5c0,0-2.4,9.1-4.7,10c-2.3,0.8-1.3,1.1-1.3,1.1"/>
<rect x="1163.8" y="84" class="st1" width="2.6" height="16.8"/>
<rect x="1163.8" y="84" class="st4" width="2.6" height="1.2"/>
<path class="st1" d="M1158.7,83.9v0.4c0,0.5,0.4,0.8,0.8,0.8l0,0h11.1c0.5,0,0.8-0.4,0.8-0.8l0,0v-0.4c0-0.5-0.4-0.8-0.8-0.8l0,0
	h-11.1C1159,83,1158.7,83.4,1158.7,83.9L1158.7,83.9z"/>
<path class="st4" d="M1158.9,83.3h12.4c-0.2-0.2-0.4-0.3-0.6-0.3h-11.1C1159.2,83,1159,83.2,1158.9,83.3z"/>
<path class="st1" d="M1155.5,99.9h19.1c0.5,0,1,0.4,1,1v0.1c0,0.5-0.4,1-1,1h-19.1c-0.5,0-1-0.4-1-1v-0.1
	C1154.6,100.3,1155,99.9,1155.5,99.9z"/>
<circle class="st3" cx="1174.4" cy="103.1" r="1.3"/>
<circle class="st3" cx="1155.7" cy="103.1" r="1.3"/>
<circle class="st3" cx="1165.1" cy="103.1" r="1.3"/>
<path class="st1" d="M1163.8,63.3h17.1c0.8,0,1.5,0.7,1.5,1.5v0.1c0,0.8-0.7,1.5-1.5,1.5h-17.1c-0.8,0-1.5-0.7-1.5-1.5v-0.1
	C1162.3,64,1163,63.3,1163.8,63.3z"/>
<path class="st4" d="M1166.3,99.9c0,0-1,1-2.6,0"/>
<path class="st4" d="M1182.4,64.9v0.2c0,0.7-0.6,1.3-1.3,1.3h-17.5c-0.7,0-1.3-0.6-1.3-1.3v-0.2H1182.4z"/>
<rect x="1145.5" y="67.8" class="st1" width="3.5" height="44"/>
<rect x="1145.5" y="67.8" class="st4" width="3.5" height="2.9"/>
<rect x="1041.6" y="85.2" class="st1" width="2.6" height="16.8"/>
<rect x="1041.6" y="85.2" class="st4" width="2.6" height="1.2"/>
<path class="st1" d="M1049.3,85.1v0.4c0,0.5-0.4,0.8-0.8,0.8l0,0h-11.1c-0.5,0-0.8-0.4-0.8-0.8l0,0v-0.4c0-0.5,0.4-0.8,0.8-0.8h11.1
	C1048.9,84.3,1049.3,84.6,1049.3,85.1L1049.3,85.1L1049.3,85.1z"/>
<path class="st4" d="M1049.1,84.5h-12.4c0.2-0.2,0.4-0.3,0.6-0.3h11.1C1048.7,84.3,1049,84.4,1049.1,84.5z"/>
<path class="st1" d="M1033.4,101.1h19.1c0.5,0,1,0.4,1,1v0.1c0,0.5-0.4,1-1,1h-19.1c-0.5,0-1-0.4-1-1V102
	C1032.4,101.5,1032.9,101.1,1033.4,101.1z"/>
<circle class="st3" cx="1033.6" cy="104.3" r="1.3"/>
<circle class="st3" cx="1052.2" cy="104.3" r="1.3"/>
<circle class="st3" cx="1042.9" cy="104.3" r="1.3"/>
<path class="st4" d="M1041.6,101.1c0,0,1,1,2.6,0"/>
<path class="st14" d="M1106.9,50.5c0,0-2.9-5.2-1.8-9.7c0.5-1.9,0.3-3.9-0.5-5.7c-0.4-0.8-0.8-1.7-1.3-2.4"/>
<path class="st9" d="M1103.9,29.7c0.1,0.7-0.7,2.9-0.7,2.9s-1.7-1.7-1.8-2.4c-0.2-0.7,0.2-1.4,0.8-1.6c0.7-0.2,1.4,0.2,1.6,0.8
	C1103.8,29.6,1103.8,29.7,1103.9,29.7L1103.9,29.7z"/>
<path class="st9" d="M1106.7,33.1c-0.2,0.7-2.1,2.1-2.1,2.1s-0.5-2.3-0.2-3c0.2-0.7,0.9-1,1.6-0.8
	C1106.6,31.6,1107,32.3,1106.7,33.1C1106.8,33,1106.8,33,1106.7,33.1L1106.7,33.1z"/>
<path class="st9" d="M1108.1,39.6c-0.5,0.4-2.9,0.7-2.9,0.7s0.8-2.3,1.3-2.7c0.5-0.4,1.3-0.4,1.8,0.2
	C1108.7,38.3,1108.6,39.1,1108.1,39.6C1108.1,39.6,1108.1,39.6,1108.1,39.6z"/>
<path class="st9" d="M1108,44.7c-0.5,0.5-2.7,1.2-2.7,1.2s0.4-2.4,0.8-2.9c0.4-0.5,1.2-0.6,1.8-0.2
	C1108.4,43.3,1108.5,44.1,1108,44.7C1108,44.7,1108,44.7,1108,44.7L1108,44.7z"/>
<path class="st9" d="M1102,35.9c0.6,0.4,3,0.4,3,0.4s-1.1-2.1-1.7-2.5c-0.6-0.4-1.4-0.2-1.8,0.4C1101.2,34.7,1101.4,35.5,1102,35.9
	C1102,35.9,1102,35.9,1102,35.9L1102,35.9z"/>
<path class="st9" d="M1102,41.9c0.7,0.2,3-0.5,3-0.5s-1.7-1.7-2.3-1.9c-0.7-0.1-1.4,0.3-1.5,1C1101,41.1,1101.4,41.7,1102,41.9z"/>
<path class="st9" d="M1102.8,47.7c0.6,0.3,3,0,3,0s-1.3-2-2-2.3c-0.6-0.3-1.4,0-1.7,0.6C1101.8,46.7,1102.1,47.5,1102.8,47.7
	L1102.8,47.7z"/>
<path class="st9" d="M1103.9,29.7c0.1,0.7-0.7,2.9-0.7,2.9s-1.7-1.7-1.8-2.4c-0.2-0.7,0.2-1.4,0.8-1.6c0.7-0.2,1.4,0.2,1.6,0.8
	C1103.8,29.6,1103.8,29.7,1103.9,29.7L1103.9,29.7z"/>
<path class="st9" d="M1106.7,33.1c-0.2,0.7-2.1,2.1-2.1,2.1s-0.5-2.3-0.2-3c0.2-0.7,0.9-1,1.6-0.8
	C1106.6,31.6,1107,32.3,1106.7,33.1C1106.8,33,1106.8,33,1106.7,33.1L1106.7,33.1z"/>
<path class="st9" d="M1108.1,39.6c-0.5,0.4-2.9,0.7-2.9,0.7s0.8-2.3,1.3-2.7c0.5-0.4,1.3-0.4,1.8,0.2
	C1108.7,38.3,1108.6,39.1,1108.1,39.6C1108.1,39.6,1108.1,39.6,1108.1,39.6z"/>
<path class="st9" d="M1108,44.7c-0.5,0.5-2.7,1.2-2.7,1.2s0.4-2.4,0.8-2.9c0.4-0.5,1.2-0.6,1.8-0.2
	C1108.4,43.3,1108.5,44.1,1108,44.7C1108,44.7,1108,44.7,1108,44.7L1108,44.7z"/>
<path class="st9" d="M1102,35.9c0.6,0.4,3,0.4,3,0.4s-1.1-2.1-1.7-2.5c-0.6-0.4-1.4-0.2-1.8,0.4C1101.2,34.7,1101.4,35.5,1102,35.9
	C1102,35.9,1102,35.9,1102,35.9L1102,35.9z"/>
<path class="st9" d="M1102,41.9c0.7,0.2,3-0.5,3-0.5s-1.7-1.7-2.3-1.9c-0.7-0.1-1.4,0.3-1.5,1C1101,41.1,1101.4,41.7,1102,41.9z"/>
<path class="st9" d="M1102.8,47.7c0.6,0.3,3,0,3,0s-1.3-2-2-2.3c-0.6-0.3-1.4,0-1.7,0.6C1101.8,46.7,1102.1,47.5,1102.8,47.7
	L1102.8,47.7z"/>
<path class="st9" d="M1105.7,64.9L1105.7,64.9c-1.7,0-3-1.4-3-3c0-0.1,0-0.1,0-0.2l0.8-13.4h4.3l0.8,13.4c0.1,1.7-1.2,3.1-2.8,3.2
	C1105.9,64.9,1105.8,64.9,1105.7,64.9z"/>
<rect x="1015.3" y="-0.8" class="st0" width="2.5" height="10.2"/>
<rect x="1018.5" y="-0.8" class="st0" width="2.5" height="10.2"/>
<rect x="1021.7" y="-0.8" class="st0" width="2.5" height="10.2"/>
<rect x="1024.8" y="-0.8" class="st0" width="2.5" height="10.2"/>
<rect x="1031.2" y="-0.8" class="st0" width="2.5" height="10.2"/>
<rect x="1034.4" y="-0.8" class="st0" width="2.5" height="10.2"/>
<rect x="1015.3" y="1.1" class="st0" width="2.5" height="0.5"/>
<rect x="1015.3" y="7.4" class="st0" width="2.5" height="0.5"/>
<rect x="1018.5" y="1.1" class="st0" width="2.5" height="0.5"/>
<rect x="1018.5" y="7.4" class="st0" width="2.5" height="0.5"/>
<rect x="1021.7" y="1.1" class="st0" width="2.5" height="0.5"/>
<rect x="1021.7" y="7.4" class="st0" width="2.5" height="0.5"/>
<rect x="1024.8" y="1.1" class="st0" width="2.5" height="0.5"/>
<rect x="1024.8" y="7.4" class="st0" width="2.5" height="0.5"/>
<rect x="1028" y="1.1" class="st0" width="2.5" height="0.5"/>
<rect x="1028" y="7.4" class="st0" width="2.5" height="0.5"/>
<rect x="1031.2" y="1.1" class="st0" width="2.5" height="0.5"/>
<rect x="1031.2" y="7.4" class="st0" width="2.5" height="0.5"/>
<rect x="1034.4" y="1.1" class="st0" width="2.5" height="0.5"/>
<rect x="1034.4" y="7.4" class="st0" width="2.5" height="0.5"/>
<rect x="1028" y="-0.8" class="st0" width="2.5" height="10.2"/>
<rect x="1038.9" y="-0.8" transform="matrix(0.9075 -0.4201 0.4201 0.9075 94.4419 437.356)" class="st0" width="2.5" height="10.2"/>
<rect x="1037.7" y="1.4" transform="matrix(0.9075 -0.4201 0.4201 0.9075 95.4369 436.599)" class="st0" width="2.5" height="0.5"/>
<rect x="1040.4" y="7.1" transform="matrix(0.9075 -0.4201 0.4201 0.9075 93.2647 438.2509)" class="st0" width="2.5" height="0.5"/>
<linearGradient id="SVGID_2_" gradientUnits="userSpaceOnUse" x1="1091.3629" y1="-6.2754" x2="1091.3629" y2="83.8869" gradientTransform="matrix(1 0 0 -1 -39.7 103.26)">
	<stop  offset="0" style="stop-color:#808080;stop-opacity:0.25"/>
	<stop  offset="0.54" style="stop-color:#808080;stop-opacity:0.12"/>
	<stop  offset="1" style="stop-color:#808080;stop-opacity:0.1"/>
</linearGradient>
<path class="st15" d="M1069.2,104.6l-4.5-2.9c0-4-0.1-22.7,0.8-25.2c0.2-0.7,0.2-1.5,0-2.2c-0.6-2.5-2.7-4.4-5.3-4.9
	c-2.4-0.4-5.9-1-8.7-1.9c2.5-0.3,4.4-0.5,4.4-0.5l0-0.5l1.6-0.1v-0.1l0.2,0c3.8-0.2,11.8-1,9-3.2c-0.9-0.8-2.1-1.1-3.4-1.2
	c3.9-0.9,10.1-2.6,7.3-4.3c-2.6-1.5-6.6-0.3-9,0.7l-0.1,0.1l0-0.2l-0.9,0.2l0,0l-0.3,0.1l0-0.3l-13.3,2.1c-0.1-1.5-0.3-3-0.5-4.5
	c0.3-2,1.7-4.9,1.2-6.4c-0.6-1.8-2.9-2.4-3.9-4c-0.3-0.4-0.5-0.8-0.8-1.2c-0.5-0.7-1.2-1.4-1.9-2c0-1,0.3-2.1,0.7-3
	c0.3-0.6,0.6-1.3,0.9-1.9c3.2-0.8,5.3-4,4.7-7.2c0.8,0.4,1.9,0.4,2.4-0.3l-0.3-0.1c0,0,0-0.1,0.1-0.1c-0.5-0.2-1.1-0.4-1.5-0.8
	c-0.1-0.1-0.2-0.2-0.3-0.4c-0.2-0.5-0.2-1.1-0.4-1.6c-0.1-0.2-0.3-0.4-0.5-0.6c-0.4-0.4-0.9-0.7-1.5-0.9c-0.6-0.2-1.3-0.3-1.9-0.5
	c-1.7-2-4.4-2.7-6.9-1.9l-0.2,0.1c0.3-1.6-0.7-3.1-2.2-3.4c-1.5-0.3-3,0.6-3.4,2.1c0.1-0.6,0.3-1.2,0.8-1.7c0,0-0.1,0.1-0.1,0.1
	c-1.2,1.1-1.2,2.9-0.1,4.1c0,0,0,0,0,0l0.1,0c0.2,0.2,0.4,0.5,0.7,0.6c-1-0.4-1.8-1.3-1.9-2.4c0,0.1,0,0.1,0,0.2
	c0.1,1.6,1.5,2.8,3,2.7c0,0,0,0,0,0l0.1,0l0,0.1c-1.7,2.5-1.4,5.8,0.6,8c0.1,0.3,0.3,0.5,0.5,0.7c0.1,0.1,0.1,0.1,0.2,0.2
	c0.5,0.5,1.1,0.8,1.8,0.8c0.1,0.1,0.2,0.3,0.4,0.4c-0.1,0.5-0.3,1-0.5,1.5c-0.4,0.9-0.8,1.8-1.4,2.7c-3.8,1.1-4.1,7.5-4,7.8
	c0.2,0.3-0.6,10.4,2.3,22.7c-0.1,3.5,1.9,9.3,9.2,7.8c9.1,0.5,12.1,1.9,12.1,1.9s-0.9,15.8,0.4,18.1c0.8,1.4,0.2,3.6-0.4,5
	c-0.2,0.4-0.4,0.8-0.5,1.2c-0.2,0.4-0.3,0.6-0.3,0.6h0.1c-0.5,1.6-0.8,3.6-0.8,3.6s11,2.2,15.8,0.8c1.9-0.6,2-1.1,1.3-1.5
	c0.4-0.1,0.9-0.2,1.3-0.3C1076.3,105.8,1069.2,104.6,1069.2,104.6z"/>
<path class="st16" d="M1045.2,29.6c0,3.5-2.8,6.3-6.3,6.3c-3.5,0-6.3-2.8-6.3-6.3s2.8-6.3,6.3-6.3
	C1042.4,23.3,1045.2,26.1,1045.2,29.6z"/>
<path class="st7" d="M1059.5,59.4l0.6,3.2c0,0,0.7-0.1,1.8-0.4c3.6-0.8,11.3-2.7,8.3-4.4c-2.5-1.5-6.4-0.3-8.8,0.6
	c-0.9,0.4-1.5,0.7-1.8,0.8C1059.6,59.4,1059.5,59.4,1059.5,59.4z"/>
<path class="st4" d="M1059.7,60.3l0.5,2.3c0,0,0.7-0.1,1.8-0.4l-0.5-3.8c-0.9,0.4-1.5,0.7-1.8,0.8L1059.7,60.3z"/>
<polygon class="st8" points="1059.6,62.8 1061.8,62.4 1061.3,58.4 1059.5,58.7 "/>
<polygon class="st4" points="1059.6,62.8 1060.5,62.6 1060.4,58.5 1059.5,58.7 "/>
<path class="st9" d="M1039.2,45.3c0,0,4.3-2.2,5.9,4.8c1.6,7,1.6,10.3,1.6,10.3l13.4-2.1l0.2,4.9c0,0-14.4,4-16.2,3.5
	c-1.8-0.4-7.1-10.4-7.1-10.4S1032.1,48.6,1039.2,45.3z"/>
<g class="st10">
	<path d="M1059.5,59.4l0.6,3.2c0,0,0.7-0.1,1.8-0.4c3.6-0.8,11.3-2.7,8.3-4.4c-2.5-1.5-6.4-0.3-8.8,0.6c-0.9,0.4-1.5,0.7-1.8,0.8
		C1059.6,59.4,1059.5,59.4,1059.5,59.4z"/>
	<path class="st4" d="M1059.7,60.3l0.5,2.3c0,0,0.7-0.1,1.8-0.4l-0.5-3.8c-0.9,0.4-1.5,0.7-1.8,0.8L1059.7,60.3z"/>
	<polygon points="1059.6,62.8 1061.8,62.4 1061.3,58.4 1059.5,58.7 	"/>
	<polygon class="st4" points="1059.6,62.8 1060.5,62.6 1060.4,58.5 1059.5,58.7 	"/>
	<path d="M1039.6,45.7c0,0,4.3-2.2,5.9,4.8s1.6,10.3,1.6,10.3l13.4-2.1l0.2,4.9c0,0-14.4,4-16.2,3.5c-1.8-0.4-7.1-10.4-7.1-10.4
		S1032.4,48.9,1039.6,45.7z"/>
</g>
<path class="st17" d="M1063.6,100.4l5.3,3.3c0,0,7,1.2,2.2,2.6c-4.7,1.4-15.5-0.8-15.5-0.8s0.8-4.9,1.7-5.5
	C1058.1,99.5,1063.6,100.4,1063.6,100.4z"/>
<path class="st18" d="M1044,64.5c0,0,2.6,1.5,7.4,3c2.8,0.8,6.3,1.5,8.7,1.9c2.5,0.4,4.6,2.3,5.2,4.8c0.2,0.7,0.2,1.5,0,2.2
	c-0.9,2.8-0.7,25.5-0.7,25.5l-8.3,0.4c0,0,1.3-4.1-0.3-6.3s1.1-18.1,1.1-18.1s-2.9-1.4-11.8-1.8c-8.3,1.8-11.3-7.4-10-9.9
	C1036.6,63.5,1044,64.5,1044,64.5z"/>
<g class="st10">
	<path d="M1063.6,100.4l5.3,3.3c0,0,7,1.2,2.2,2.6c-4.7,1.4-15.5-0.8-15.5-0.8s0.8-4.9,1.7-5.5
		C1058.1,99.5,1063.6,100.4,1063.6,100.4z"/>
	<path d="M1044,64.5c0,0,2.6,1.5,7.4,3c2.8,0.8,6.3,1.5,8.7,1.9c2.5,0.4,4.6,2.3,5.2,4.8c0.2,0.7,0.2,1.5,0,2.2
		c-0.9,2.8-0.7,25.5-0.7,25.5l-8.3,0.4c0,0,1.3-4.1-0.3-6.3s1.1-18.1,1.1-18.1s-2.9-1.4-11.8-1.8c-8.3,1.8-11.3-7.4-10-9.9
		C1036.6,63.5,1044,64.5,1044,64.5z"/>
</g>
<path class="st17" d="M1060.9,102.2l5.3,3.3c0,0,7,1.2,2.2,2.6c-4.7,1.4-15.5-0.8-15.5-0.8s0.8-4.9,1.7-5.5
	C1055.5,101.3,1060.9,102.2,1060.9,102.2z"/>
<path class="st18" d="M1042.5,77.7c8.9,0.5,11.8,1.8,11.8,1.8s-0.8,15.5,0.4,17.7c1.3,2.4-1.1,6.7-1.1,6.7l8.3-0.4c0,0,0-0.3,0-0.7
	c0-3.9-0.1-22.3,0.7-24.7c0.2-0.7,0.2-1.5,0-2.2c-0.6-2.5-2.6-4.4-5.2-4.8c-2.4-0.4-5.9-1-8.7-1.9l-0.1,0c-4.6-1.4-7.2-2.9-7.2-2.9
	s-5.5-0.4-6.9,2.1c-0.2,0.3-0.9,1-1,1.5C1033.3,73.2,1035.3,79.2,1042.5,77.7z"/>
<path class="st7" d="M1055.6,63.2l0.2,3.3c0,0,0.7,0,1.8-0.1c3.7-0.2,11.5-1,8.9-3.1c-2.3-1.9-6.3-1.3-8.8-0.7
	c-0.9,0.2-1.6,0.5-1.9,0.6C1055.7,63.2,1055.6,63.2,1055.6,63.2z"/>
<path class="st7" d="M1034.7,40.9c0,0,1.1,0.9,2.4,1.9c1.5,0.4,3.2,0.8,4.4,1c-0.4-1.4,0-3,0.5-4.4c0.6-1.4,1.4-2.8,2.4-4l-7.4-2.7
	c0.5,1.5,0.2,3.2-0.4,4.6C1036.1,38.7,1035.4,39.9,1034.7,40.9z"/>
<path class="st4" d="M1055.6,64.1l0.1,2.3c0,0,0.7,0,1.8-0.1l0.1-3.8c-0.9,0.2-1.6,0.5-1.9,0.6L1055.6,64.1z"/>
<polygon class="st8" points="1055.2,66.6 1057.4,66.5 1057.5,62.4 1055.7,62.5 "/>
<path class="st9" d="M1033.7,70.8c4.8,4.9,13.6-0.9,16-2.7c0.4-0.3,0.6-0.5,0.6-0.5c-0.9-0.9-2.3-1.7-2.8-4c-0.5-2.3-0.9-4.6-1-7
	c-0.1-1.9,1.8-5.4,1.2-7.2c-0.6-1.8-2.8-2.3-3.8-3.9c-0.3-0.4-0.5-0.8-0.7-1.1c-1.8-2.5-4.9-4.1-4.9-4.1c-6.6-2.2-7.1,7.2-6.9,7.4
	C1031.5,48.1,1030.7,58.4,1033.7,70.8z"/>
<path class="st4" d="M1033.6,57.2c0,0,3.8,10.6,5.5,11.3c1,0.4,6.2,0,10.6-0.5c0.4-0.3,0.6-0.5,0.6-0.5c-0.9-0.9-1.6-2.7-2.1-5
	l-5.6,0c0,0,0.4-3.2,0-10.4s-5.1-5.6-5.1-5.6C1029.9,48.9,1033.6,57.2,1033.6,57.2z"/>
<polygon class="st4" points="1055.2,66.6 1056.1,66.5 1056.6,62.5 1055.7,62.5 "/>
<path class="st9" d="M1037.6,46.2c0,0,4.6-1.6,5.1,5.6c0.5,7.2,0.1,10.4,0.1,10.4l13.5,0l-0.5,4.8c0,0-14.8,1.8-16.5,1.1
	s-5.5-11.3-5.5-11.3S1030.1,48.4,1037.6,46.2z"/>
<path class="st4" d="M1037.8,35.6c0.2-1.1-0.9-1.1-1.2-2.1l7.4,2.6c-0.5,0.7-1,1.4-1.5,2.1c-0.4,0.1-0.8,0.2-1.2,0.2
	C1039.5,38.5,1039,36.8,1037.8,35.6z"/>
<ellipse transform="matrix(0.9988 -4.797813e-02 4.797813e-02 0.9988 -0.3205 49.9992)" class="st7" cx="1041.4" cy="31.7" rx="6.2" ry="6.2"/>
<path class="st4" d="M1038.2,50.8c0,0,1.9,9.2,4.3,10.2c2.3,0.9,1.3,1.1,1.3,1.1"/>
<path class="st4" d="M1046.2,56c0,0-1.6,0.5-3.5-1.9"/>
<circle class="st16" cx="1034" cy="23.1" r="2.8"/>
<path class="st16" d="M1032,24.6c-1-1.1-1-2.8,0-3.9c0,0-0.1,0.1-0.1,0.1c-1.1,1.1-1.2,2.9-0.1,4c1.1,1.1,2.9,1.2,4,0.1l0,0
	c0,0,0.1-0.1,0.1-0.1C1034.7,25.8,1033,25.7,1032,24.6z"/>
<path class="st16" d="M1033.6,25.6c-1.5,0.1-2.8-1-3-2.5c0,0.1,0,0.1,0,0.2c0.1,1.6,1.4,2.7,3,2.6s2.7-1.4,2.6-3c0-0.1,0-0.1,0-0.2
	C1036.2,24.3,1035.1,25.6,1033.6,25.6z"/>
<path class="st4" d="M1043.6,25.5c0.7,0.3,1.4,0.4,2.1,0.6c0.7,0.2,1.4,0.6,1.7,1.2c0.2,0.5,0.2,1.1,0.4,1.6c0.3,0.7,1.1,1,1.9,1.3
	c-0.6,0.8-2,0.6-2.8,0c-0.9-0.6-1.6-1.4-2.6-1.6c-1-0.2-2.1,0.3-2.6,1.2c-0.3,0.5-0.4,1.1-0.5,1.6c-0.4,1.4-1.1,2.9-2.3,3.7
	c-1.2,0.8-3.1,0.8-4-0.3c-0.6-0.6-0.8-1.5-0.9-2.4c-0.1-0.4-0.1-0.8-0.1-1.2c0.1-1,0.7-1.9,1.4-2.6c0.8-0.9,1.7-1.7,2.5-2.6
	c0.7-0.7,1.6-2,2.7-2C1041.7,23.9,1042.6,25,1043.6,25.5z"/>
<path class="st16" d="M1043.5,25.4c0.7,0.3,1.4,0.4,2.1,0.6c0.7,0.2,1.4,0.6,1.7,1.2c0.2,0.5,0.2,1.1,0.4,1.6c0.3,0.7,1.1,1,1.9,1.3
	c-0.6,0.8-2,0.6-2.8,0s-1.6-1.4-2.6-1.6c-1-0.2-2.1,0.3-2.6,1.2c-0.3,0.5-0.4,1.1-0.5,1.6c-0.4,1.4-1.1,2.9-2.3,3.7
	c-1.2,0.8-3.1,0.8-4-0.3c-0.6-0.6-0.8-1.5-0.9-2.4c-0.1-0.4-0.1-0.8-0.1-1.2c0.1-1,0.7-1.9,1.4-2.6c0.8-0.9,1.7-1.7,2.5-2.6
	c0.7-0.7,1.6-2,2.7-2C1041.5,23.7,1042.4,24.9,1043.5,25.4z"/>
<path class="st1" d="M1027,64.5h17.1c0.8,0,1.5,0.7,1.5,1.5v0.1c0,0.8-0.7,1.5-1.5,1.5H1027c-0.8,0-1.5-0.7-1.5-1.5V66
	C1025.5,65.2,1026.2,64.5,1027,64.5z"/>
<path class="st4" d="M1025.5,66.1v0.2c0,0.7,0.6,1.3,1.3,1.3h17.5c0.7,0,1.3-0.6,1.3-1.3v-0.2H1025.5z"/>
<rect x="1060.9" y="67.8" class="st1" width="3.5" height="44"/>
<rect x="1060.9" y="67.8" class="st4" width="3.5" height="2.9"/>
<rect x="1059.3" y="64.6" class="st1" width="91.4" height="5.7"/>
<path class="st19" d="M938.8,56.2l1.6-0.3c0.2,0,0.3-0.1,0.5-0.1c-6.2-3.9-8.2-12.1-4.3-18.3c2.7-4.4,7.7-6.8,12.8-6.2l-2.1,5l5-4.4
	c0,0,0,0,0,0c6.9,2.4,10.6,10,8.1,16.9c0,0,0,0,0,0c-0.1,0.2-0.2,0.5-0.3,0.7c1.4-0.7,2.8-1.5,3.9-2.6c2.2-2.2,3.5-5.1,4.9-8.8
	c2.7-7.3,5.4-14.6,7.9-22c-5.7-3.1-8.4-9.9-6.2-16.1c0.1-0.4,0.3-0.8,0.5-1.1c0-0.1,0.1-0.2,0.1-0.3c0.2-0.3,0.3-0.7,0.5-1
	c0-0.1,0.1-0.1,0.1-0.2c0.2-0.3,0.3-0.5,0.5-0.8c0.1-0.1,0.1-0.2,0.2-0.3c0.2-0.3,0.4-0.6,0.7-0.8c0.1-0.1,0.2-0.2,0.2-0.3
	c0.2-0.2,0.4-0.4,0.6-0.6c0.1-0.1,0.2-0.2,0.3-0.3c0,0,0.1,0,0.1-0.1c0,0,0,0,0,0c4.8-4.2,12-4.4,17-0.4l-2.8,6.6l5-4.3
	c3.6,4.5,3.8,10.9,0.5,15.7c0,0,0,0,0,0c-0.1,0.1-0.1,0.2-0.2,0.2c-0.1,0.1-0.2,0.3-0.3,0.4c-0.1,0.2-0.3,0.4-0.4,0.5
	c-0.1,0.1-0.2,0.3-0.3,0.4c-0.2,0.2-0.4,0.4-0.5,0.5c-0.1,0.1-0.2,0.2-0.3,0.3c-0.3,0.3-0.6,0.5-0.9,0.7c-0.1,0.1-0.2,0.2-0.3,0.2
	c-0.2,0.2-0.4,0.3-0.7,0.4c-0.1,0.1-0.3,0.2-0.4,0.2c-0.2,0.1-0.4,0.2-0.6,0.3c-0.1,0.1-0.3,0.1-0.5,0.2c-0.2,0.1-0.4,0.2-0.7,0.3
	c-0.1,0.1-0.3,0.1-0.4,0.2c-0.2,0.1-0.5,0.2-0.8,0.2c-0.1,0-0.3,0.1-0.4,0.1c-0.4,0.1-0.8,0.2-1.1,0.2c-0.1,0-0.1,0-0.2,0
	c-0.3,0-0.6,0.1-1,0.1c-0.1,0-0.3,0-0.4,0c-0.3,0-0.5,0-0.8,0c-0.2,0-0.3,0-0.5,0c-0.3,0-0.5,0-0.8-0.1c-0.2,0-0.3,0-0.5-0.1
	c-0.3,0-0.6-0.1-0.8-0.2c0,0,0,0-0.1,0c-1.1,3.1-2.1,6.2-3.3,9.3c5.5-4.9,13.8-4.5,18.8,1c0.2,0.2,0.3,0.4,0.5,0.6l-4.6,5.1l6.2-2.5
	c1.5,3.2,1.7,6.8,0.5,10.1c-0.4,1.2-1,2.3-1.7,3.3c-4.2,6-12.5,7.4-18.5,3.2c-3-2.1-5-5.4-5.5-9c-0.1,0.3-0.2,0.6-0.3,0.9
	c-1.2,3.2-2.7,7.3-5.8,10.2c-2.1,2-4.6,3.2-7,4.3c-1.6,0.7-3.2,1.3-4.8,1.9c-1.8,1.1-3.8,1.7-5.9,1.9c-2.6,0.7-5.2,1.3-7.8,1.8
	l-1.6,0.3c-1.5,0.3-3,0.5-4.5,0.8c0.2,0.1,0.4,0.1,0.6,0.2c5.5,1.9,9,7.2,8.9,12.9l-10.2,3.1l9.3,1.5c-2.8,6.8-10.5,10.1-17.3,7.3
	c-1.8-0.7-3.5-1.9-4.8-3.4c0.1,0.3,0.2,0.6,0.3,0.9c0.2,0.6,0.4,1.2,0.6,1.9c2.4,8.4,1.4,15-3,18.5l-2.4-2.9
	c4.2-3.5,2.9-10.7,1.8-14.7c-0.2-0.6-0.4-1.2-0.5-1.8c-1.6-5.3-3.4-11.2-1.1-16.7C920.5,59.3,930.6,57.6,938.8,56.2z"/>
<path class="st20" d="M935.8,104.8h-71.7c-4.9,0-8.9-4-8.9-8.9l0,0V63.1c0-1,0.4-1.9,1.1-2.5l38-36c3.2-3,8.1-3,11.2,0l36.2,34.3
	c1.8,1.7,2.9,4.1,2.9,6.7v30.4C944.6,100.8,940.7,104.8,935.8,104.8L935.8,104.8z"/>
<path class="st4" d="M855.2,63.6h88.7l0,0v35.8c0,3-2.4,5.4-5.4,5.4c0,0,0,0,0,0h-78c-3,0-5.4-2.4-5.4-5.4l0,0V63.6L855.2,63.6
	L855.2,63.6z"/>
<path class="st21" d="M855.1,61.4"/>
<path class="st9" d="M871.7,35.4h56.2c2.7,0,4.9,2.2,4.9,4.9v56.2c0,2.7-2.2,4.9-4.9,4.9h-56.2c-2.7,0-4.9-2.2-4.9-4.9V40.2
	C866.9,37.6,869,35.4,871.7,35.4z"/>
<polygon class="st4" points="932.8,65.1 932.8,101.3 866.9,101.3 866.9,65.1 899.8,81 "/>
<path class="st20" d="M899.8,83.1l-42.2-20.4c-0.9-0.4-1.9-0.1-2.3,0.8c-0.1,0.2-0.2,0.5-0.2,0.7v35.1c0,3,2.4,5.4,5.4,5.4l0,0h78.7
	c3,0,5.4-2.4,5.4-5.4c0,0,0,0,0,0V64.8c0-1.2-0.9-2.1-2.1-2.1c-0.3,0-0.6,0.1-0.9,0.2L899.8,83.1z"/>
<rect x="872.5" y="41.4" class="st19" width="18.4" height="2.6"/>
<rect x="871.1" y="50.9" class="st19" width="54.8" height="1.5"/>
<rect x="871.1" y="56" class="st19" width="54.8" height="1.5"/>
<rect x="871.1" y="61" class="st19" width="54.8" height="1.5"/>
<line class="st21" x1="821.7" y1="104.7" x2="975.2" y2="104.7"/>
<path class="st22" d="M810.3,81.7c0,11,6.9,19.9,15.4,19.9"/>
<path class="st9" d="M825.7,101.6c0-11.1,7.7-20.1,17.2-20.1"/>
<path class="st9" d="M815.9,82.7c0,10.4,4.4,18.9,9.8,18.9"/>
<path class="st22" d="M825.7,101.6c0-14.2,8.9-25.7,19.9-25.7"/>
<path class="st23" d="M822.5,101.7c0,0,2.2-0.1,2.8-0.5c0.7-0.5,3.4-1,3.5-0.3c0.2,0.8,3.3,3.7,0.8,3.8s-5.7-0.4-6.4-0.8
	S822.5,101.7,822.5,101.7z"/>
<path class="st24" d="M829.7,104.4c-2.5,0-5.7-0.4-6.4-0.8c-0.5-0.3-0.7-1.4-0.8-1.9c0,0-0.1,0-0.1,0s0.1,1.8,0.8,2.2
	s3.9,0.8,6.4,0.8c0.7,0,1-0.3,0.9-0.6C830.5,104.3,830.3,104.4,829.7,104.4z"/>
<path class="st25" d="M944.4,21.6c-0.1,1-0.9,1.8-1.2,2.8c-0.4,1.4,0.3,3,1.3,4.1c1.6,1.8,3.9,2.9,6.4,3c0.4,0,0.7,0,1.1-0.1
	c0.3-0.1,0.6-0.3,0.8-0.5c0.8-0.8,1.2-1.8,1.3-2.9c0.2-1.1,0.1-2.1,0-3.2c0-0.2,0-0.4-0.1-0.6c-0.1-0.2-0.2-0.4-0.4-0.5
	c-0.5-0.5-1.1-0.9-1.8-1.3c-0.3-0.1-0.5-0.3-0.7-0.6c-0.1-0.2-0.2-0.4-0.2-0.7l-0.2-1c0-0.3-0.1-0.6-0.3-0.8c-0.3-0.5-1-0.5-1.6-0.6
	l-2.1-0.1c-0.7,0-1.5-0.2-2.2-0.1c-0.6,0.1-0.4,0.7-0.3,1.2C944.3,20.4,944.4,21,944.4,21.6z"/>
<path class="st4" d="M944.4,21.6c-0.1,1-0.9,1.8-1.2,2.8c-0.4,1.4,0.3,3,1.3,4.1c1.6,1.8,3.9,2.9,6.4,3c0.4,0,0.7,0,1.1-0.1
	c0.3-0.1,0.6-0.3,0.8-0.5c0.8-0.8,1.2-1.8,1.3-2.9c0.2-1.1,0.1-2.1,0-3.2c0-0.2,0-0.4-0.1-0.6c-0.1-0.2-0.2-0.4-0.4-0.5
	c-0.5-0.5-1.1-0.9-1.8-1.3c-0.3-0.1-0.5-0.3-0.7-0.6c-0.1-0.2-0.2-0.4-0.2-0.7l-0.2-1c0-0.3-0.1-0.6-0.3-0.8c-0.3-0.5-1-0.5-1.6-0.6
	l-2.1-0.1c-0.7,0-1.5-0.2-2.2-0.1c-0.6,0.1-0.4,0.7-0.3,1.2C944.3,20.4,944.4,21,944.4,21.6z"/>
<path class="st26" d="M958,66.5c-0.3,3.3-0.6,6.7-0.9,10c-0.2,2.6-0.5,5.2-0.9,7.8c-0.2,0.9-0.3,1.8-0.6,2.7
	c-0.6,2.4-1.5,4.8-1.8,7.3c0,0.1,0,0.1,0,0.2c0,0.6-0.1,1.1-0.3,1.6c-0.1,0.4-0.4,0.7-0.5,1.1c-0.3,0.8-0.4,1.6-0.4,2.4
	c-1.1-0.6-2.3-1-3.6-1.2c-0.6-0.1-1.3-0.2-1.7-0.6c-0.5-0.5-0.4-1.3-0.3-1.9c0.2-2.1,0.5-4.2,0.7-6.3c0.1-0.9,0.2-1.8,0.5-2.7
	c0.1-0.3,0.2-0.6,0.3-0.9c0.1-0.4,0.3-0.8,0.4-1.2c0.2-0.7,0.3-1.3,0.3-2c0.2-2.1,0.5-4.2,0.8-6.3l0-0.1c0.4-3.2,0.7-6.4,0.6-9.6
	c0-0.5,0-0.9-0.1-1.4c0-0.7-0.1-1.1,0.5-1.5c0.6-0.5,1.5-0.8,2.2-1.1c0.4-0.2,4.7-1.7,4.8-1.4c0.2,0.7,0.3,1.4,0.3,2.2
	C958.2,64.7,958.1,65.6,958,66.5z"/>
<path class="st4" d="M956.2,84.4c-0.2,0.9-0.3,1.8-0.6,2.7c-0.6,2.4-1.5,4.8-1.8,7.3c0,0.1,0,0.1,0,0.2c-1.9-2.7-3.5-5.6-5.4-8.4
	c0.1-0.4,0.3-0.8,0.4-1.2c0.2-0.7,0.3-1.3,0.3-2c0.2-2.1,0.5-4.2,0.8-6.3l0-0.1c0.1,0.4,0.3,0.9,0.5,1.3c1.2,2.5,4.2,3.8,5.7,6.2
	C956.1,84.2,956.1,84.3,956.2,84.4z"/>
<path class="st26" d="M940.7,62c0.1,2,0.4,4.1,0.7,6.1l0.7,4.1c0.4,2.3,0.7,4.6,1.8,6.6c0.8,1.5,2,2.8,3,4.2
	c2.6,3.4,4.5,7.2,6.9,10.6c0.7,1,1.7,2.1,2.9,1.9c0.8-0.1,1.4-0.8,2-1.3c0.7-0.6,1.6-1,2.2-1.8c0.6-0.8,0.7-2-0.1-2.5
	c-0.3-0.2-0.6-0.3-0.9-0.4c-1.2-0.5-2-1.7-2.5-2.9c-0.5-1.2-0.8-2.5-1.5-3.6c-1.5-2.4-4.4-3.7-5.7-6.2c-0.7-1.4-0.8-3.1-0.8-4.6
	l-0.1-4c0-0.4,0-0.9,0.2-1.3c0.5-1.1,1.9-1.2,3.1-1.3c1.3-0.2,2.6-0.6,3.8-1.2c0.7-0.4,1.3-0.8,1.7-1.5c0.3-0.6,0.4-1.3,0.4-2
	l0.4-7.3c0-0.6,0.1-1.3-0.2-1.9c-0.6-1.5-2.4-2-4-1.9c-2.9,0.1-5.7,1.4-8.4,2.3c-0.7,0.2-1.4,0.4-2.1,0.5c-0.6,0.1-1.4,0.1-2,0.3
	c-1.1,0.4-1,2.7-1.2,3.6C940.8,58.3,940.7,60.2,940.7,62z"/>
<path class="st27" d="M956.4,95.8c0.3,0.3,0.3,0.6,0.4,1c0.4,2,0.6,4,0.6,6.1c0,0.2,0,0.4,0.1,0.6c0.1,0.1,0.2,0.2,0.3,0.2
	c0.7,0.4,1.6-0.1,2.2-0.7c1.2-1,2.1-2.4,2.2-3.9c0-0.4,0-0.8,0-1.2c0.1-0.6,0.4-1.1,0.7-1.6c0.5-0.9,0.9-1.8,1.2-2.7
	c0.1-0.4,0.2-0.8-0.1-1.1c-0.1-0.1-0.2-0.1-0.3-0.2l-3.4-1.3c-0.3-0.1-1,1.8-1.1,2c-0.3,0.5-0.6,0.8-1.1,0.9
	c-0.6,0.1-1.3-0.1-1.8,0.2C955.4,94.7,955.9,95.3,956.4,95.8z"/>
<path class="st27" d="M951.2,97c-0.1-0.1-0.2-0.2-0.3-0.3c-0.2-0.1-0.3-0.2-0.5-0.2c-0.6-0.1-1.4-0.2-1.9,0.3
	c-0.4,0.4-0.3,1.2-0.7,1.7c-0.1,0.2-0.3,0.3-0.4,0.5c-0.1,0.3-0.2,0.5-0.2,0.8c0,0.8,0,1.6,0,2.3c0,0.7,0.2,1.3,0.6,1.9
	c0.7,0.8,1.8,0.9,2.9,1l0.9,0c0.2,0,0.5,0,0.7-0.1c0.3-0.1,0.5-0.4,0.6-0.7c0.4-1.1-0.3-2.3-0.7-3.4C951.8,99.6,951.9,98.2,951.2,97
	z"/>
<path class="st20" d="M944.2,16c0-0.1,0-0.2,0-0.3c0.1-0.2,0.4-0.2,0.7-0.1c1,0.2,2,0,3,0.1c1,0.1,2.2,0.6,2.4,1.6
	c0.7-0.5,1.4-1.2,1.9-1.9c0.3-0.4,0.5-0.9,0.5-1.4c-0.1-0.7-0.7-1.3-1.2-1.7l-1.7-1.4c-0.2-0.2-0.5-0.4-0.8-0.5
	c-0.4-0.1-0.8-0.1-1.2-0.1c-1.2,0-2.5-0.6-3.6,0c-0.5,0.2-0.8,0.6-1.1,1l-1.5,1.8c-0.1,0.1-0.2,0.3-0.2,0.4c0,0.2,0.1,0.4,0.1,0.7
	c0.1,0.4-0.1,0.8,0,1.2c0.2,0.6,1,0.7,1.5,1.1c0.2,0.1,0.5,0.6,0.7,0.6C943.9,17,944.1,16.3,944.2,16z"/>
<circle class="st25" cx="946.7" cy="16.5" r="4.8"/>
<path class="st20" d="M947.8,27c-0.3-1-1.3-1.6-2.3-1.6c-0.1,0-0.3,0-0.4-0.1c-0.1-0.1-0.1-0.1-0.2-0.2c-0.3-0.5-0.5-1.1-0.7-1.7
	c-0.1-0.3-0.2-0.6-0.4-0.6c-0.2,0-0.4,0.1-0.6,0.2c-0.1,0.2-0.3,0.3-0.4,0.5c-0.6,0.5-1.7,0-2.3,0.5c-0.1,0.1-0.2,0.2-0.3,0.3
	c-0.1,0.1-0.2,0.1-0.4,0.2c-1.2,0.4-2.5,0.9-3.7,1.4c0.4,2.6,0.9,5.2,1.9,7.6c0.5,1.2,1,2.3,1.4,3.5c0.8,2.6,0.9,5.4,0.9,8.2
	c0,1.9,0,3.8-0.6,5.6c-0.2,0.4-0.3,0.8-0.3,1.2c0,0.4,0.1,0.9,0.4,1.1c0.2,0.1,0.4,0.2,0.7,0.2c1.1,0.2,2.1-0.1,3.2-0.4
	c2.8-0.6,5.6-1,8.5-1.4l4.8-0.6c0.3,0,0.7-0.1,1-0.3c0.9-0.5,1-1.8,0.4-2.6c-0.3-0.4-0.6-0.7-0.8-1.2c-0.2-0.4-0.2-1,0.1-1.3
	c0.8-0.6,0.5-1.7,0.6-2.7c0.1-2.7,0.1-5.4,0-8.1c0-0.6,0-1.1,0-1.7c0.1-1,0.3-1.9,0.5-2.8l1.4-5.7c-0.4-0.6-1.1-1-1.8-1.1
	c-0.7-0.2-1.4-0.2-2.1-0.4c-1.4-0.4-2.6-1.5-4.1-1.4c-0.1,0-0.2,0-0.3,0.1c-0.3,0.2-0.3,0.7-0.3,1c0,0.8-0.7,1.5-1.3,2
	c-0.7,0.5-1.4,0.8-2.1,1.4C948,26.5,947.9,26.7,947.8,27z"/>
<path class="st25" d="M928.7,32.4c-0.3,0.2-0.7,0.4-1,0.5c-0.3,0.1-0.7,0.3-1,0.5c-0.1,0.1-0.3,0.3-0.3,0.4c-0.5,0.9-0.2,2,0.7,2.5
	c0.3,0.2,0.7,0.3,1,0.2c0.4,0,0.9-0.2,1.3-0.4l3.4-1.5c0.6-0.2,1.2-0.5,1.5-1.1c0-0.1,0-0.1,0-0.2c0-0.1-0.1-0.1-0.1-0.1
	c-0.8-0.5-1.4-1.1-2-1.9c-0.1-0.2-0.3-0.6-0.5-0.8C930.9,30.3,929.3,32.1,928.7,32.4z"/>
<path class="st25" d="M965.1,31.2l1.3,1.4c0.3,0.3,0.5,0.6,0.8,0.9c0.6,0.8,1.1,1.7,1.4,2.7c0.3,0.7,0.5,1.5,0.4,2.2
	c-0.1,0.4-0.2,0.8-0.3,1.1c-0.2,0.7-0.5,1.4-0.9,2.1c-0.3,0.5-0.6,1-1,1.4c-1,1.3-2,2.5-3.2,3.6c-0.4,0.4-0.6,1.1-0.8,1.7
	c-0.3,1.1-1.2,1.9-2,2.7c-0.3,0.3-0.5,0.5-0.8,0.7c-0.5,0.3-1,0.4-1.5,0.4c-0.2,0-0.5,0-0.7-0.1c-0.5-0.3-0.8-0.9-0.9-1.5
	c-0.1-0.5,0-1.1,0.3-1.6c0.7-1.6,2.6-2.3,3.9-3.5c0.8-0.7,1.4-1.5,1.9-2.4c0.4-0.5,0.7-1.1,1-1.7c0.3-0.8,0.2-1.7,0.4-2.5
	c0.1-0.3,0.3-0.6,0.4-1s0.1-0.7-0.1-1c-0.2-0.2-0.3-0.3-0.6-0.4c-0.8-0.4-1.8-1-1.9-1.9c-0.1-0.5,0.1-1,0.4-1.4
	c0.3-0.4,0.7-0.8,1.1-1.1C964.1,31.9,964.8,31.5,965.1,31.2z"/>
<path class="st25" d="M927.9,34.4c-0.2-0.4-0.5-0.9-0.9-1.1c-0.4-0.2-0.9-0.2-1.4,0c-0.4,0.2-0.8,0.4-1.2,0.7l-1.1,0.8
	c-0.2,0.2-0.5,0.4-0.6,0.6c-0.2,0.3-0.3,0.6-0.3,0.9c-0.2,0.7-0.2,1.5-0.2,2.3c0.2,1.2,0.9,2.3,1.7,3.2c0.5,0.6,1.1,1.2,1.9,1.2
	c0.3,0,0.7-0.1,0.8-0.4c0-0.1,0.1-0.2,0.1-0.4c0.1-1.4-0.4-2.7-1-3.9c-0.2-0.3-0.3-0.7-0.3-1.1c0-0.1,0-0.1,0-0.2
	c0-0.1,0.1-0.1,0.2-0.1c0.8-0.2,2.1,0.5,2.7-0.4C928.6,36,928.1,34.9,927.9,34.4z"/>
<path class="st20" d="M943.9,14.5c0-0.1,0-0.2,0-0.3c0.1-0.2,0.4-0.2,0.7-0.1c1,0.2,2,0,3,0.1s2.2,0.6,2.4,1.6
	c0.7-0.5,1.4-1.2,1.9-1.9c0.3-0.4,0.5-0.9,0.5-1.4c-0.1-0.7-0.7-1.3-1.2-1.7l-1.7-1.4c-0.2-0.2-0.5-0.4-0.8-0.5
	c-0.4-0.1-0.8-0.1-1.2-0.1c-1.2,0-2.5-0.6-3.6,0c-0.5,0.2-0.8,0.6-1.1,1l-1.5,1.8c-0.1,0.1-0.2,0.3-0.2,0.4c0,0.2,0.1,0.4,0.1,0.7
	c0.1,0.4-0.1,0.8,0,1.2c0.2,0.6,1,0.7,1.5,1.1c0.2,0.1,0.5,0.6,0.7,0.6C943.6,15.5,943.9,14.8,943.9,14.5z"/>
<path class="st20" d="M933.6,27.7c-0.2,0.1-0.4,0.3-0.5,0.5c-0.2,0.3-0.2,0.6-0.4,0.9c-0.3,0.6-1.1,0.8-1.6,1.3
	c-0.1,0.1-0.1,0.2-0.2,0.3c0,0.1,0,0.3,0.1,0.4l2.3,3.6c0.8,0.1,1.5-0.4,2.3-0.3c0.3,0,0.6,0.1,0.8,0c0.2-0.1,0.4-0.2,0.5-0.3
	c0.5-0.3,1.1-0.3,1.4-0.7c0.4-0.4,0.4-0.9,0.4-1.5c0-0.4,0-0.9-0.1-1.3c-0.3-1.4-1.4-2.4-2.1-3.7c-0.3-0.6-0.5-0.9-1.2-0.5
	C934.9,26.7,934.3,27.3,933.6,27.7z"/>
<path class="st20" d="M961.5,25.9c0.4,0.3,0.8,0.6,1.2,1c0.3,0.4,0.5,1,0.9,1.5c0.3,0.4,0.8,0.8,1.1,1.2c0.6,0.6,0.9,1.4,1.3,2.1
	c-0.9,1.2-1.9,2.3-3,3.3c-0.1,0.1-0.3,0.2-0.4,0.3c-0.2,0-0.5-0.1-0.6-0.3c-0.2-0.2-0.3-0.4-0.4-0.6c-0.4-0.4-0.9-0.6-1.4-0.7
	c-0.5-0.1-1.1-0.1-1.6,0c-0.1,0-0.2,0-0.3-0.1c-0.1-0.1-0.1-0.1-0.2-0.2c-0.6-1.1-0.4-2.4-0.2-3.6l0.5-2.8c0.1-0.5,0.2-1,0.4-1.5
	c0.2-0.4,0.6-1.1,1.1-1C960.3,24.8,961,25.6,961.5,25.9z"/>
<ellipse class="st28" cx="869.6" cy="36.4" rx="7.6" ry="7.7"/>
<path class="st29" d="M869.6,27.5c-5,0-9.1,4.1-9.1,9.1s4.1,9.1,9.1,9.1s9.1-4.1,9.1-9.1C878.7,31.5,874.6,27.5,869.6,27.5z
	 M867.7,41.4l-4.7-4.7l1.3-1.3l3.4,3.4l7.1-7.1l1.3,1.3L867.7,41.4L867.7,41.4z"/>
</svg>
