<?xml version="1.0" encoding="utf-8"?>
<!-- Generator: Adobe Illustrator 23.0.2, SVG Export Plug-In . SVG Version: 6.00 Build 0)  -->
<svg version="1.1" id="Layer_1" xmlns="http://www.w3.org/2000/svg" xmlns:xlink="http://www.w3.org/1999/xlink" x="0px" y="0px"
	 viewBox="0 0 178 40" style="enable-background:new 0 0 178 40;" xml:space="preserve">
<style type="text/css">
	.st0{fill-rule:evenodd;clip-rule:evenodd;fill:#FFFFFF;}
	.st1{fill-rule:evenodd;clip-rule:evenodd;fill:#00AFB3;}
	.st2{fill:#00AFB3;}
	.st3{font-family:'ProximaNova-Bold';}
	.st4{font-size:7.1162px;}
	.st5{font-size:31.1047px;}
	.st6{fill:#585D5F;}
	.st7{font-family:'ProximaNova-Light';}
	.st8{font-size:7.9325px;}
</style>
<g>
	<path class="st0" d="M153.2,3.24c-0.02-0.02-0.03-0.05-0.05-0.07c-0.37,0.25-0.78,0.46-1.09,0.77c-0.55,0.56-1.1,1.15-1.55,1.8
		c-1.21,1.74-2.36,3.51-3.53,5.27c-0.11,0.16-0.16,0.38-0.19,0.58c-0.12,0.79,0.45,1.54,1.17,1.53c0.4,0,0.72-0.19,0.97-0.48
		c1.27-1.42,2.55-2.84,3.82-4.27c0.54-0.61,0.8-0.68,1.53-0.32c3.44,1.73,6.87,3.47,10.31,5.21c0.48,0.24,0.53,0.23,0.73-0.26
		c0.47-1.12,0.95-2.24,1.43-3.35c0.3-0.7,0.22-1.06-0.35-1.55c-0.8-0.68-1.61-1.35-2.39-2.04c-1.3-1.13-2.58-2.28-3.87-3.42
		c-0.13-0.12-0.26-0.27-0.42-0.03c-0.58,0.86-1.41,1.02-2.35,0.83c-0.61-0.12-1.21-0.25-1.81-0.37
		C154.74,2.94,153.96,2.88,153.2,3.24z M161.9-0.92c-0.03,0.02-0.11,0.05-0.16,0.1c-0.48,0.54-0.98,1.07-1.44,1.63
		c-0.23,0.28-0.18,0.58,0.06,0.85c0.08,0.1,0.18,0.18,0.27,0.27c2.18,1.95,4.36,3.9,6.55,5.85c0.16,0.14,0.33,0.28,0.51,0.39
		c0.29,0.18,0.47,0.16,0.7-0.09c0.47-0.51,0.94-1.03,1.4-1.54c0.25-0.28,0.26-0.55,0.03-0.84c-0.09-0.12-0.19-0.22-0.3-0.32
		c-1.77-1.59-3.55-3.17-5.32-4.75c-0.51-0.45-1.02-0.91-1.54-1.36C162.46-0.91,162.24-1.05,161.9-0.92z M138.13,18.23
		c0.14,0.35,0.27,0.58,0.59,0.58c0.65,0,1.31-0.01,1.97-0.03c0.1,0,0.26-0.07,0.29-0.14c0.12-0.24,0.26-0.5,0.26-0.76
		c0.02-0.88,0-1.76-0.02-2.64c-0.03-2.22-0.05-4.44-0.09-6.66c-0.01-0.58-0.19-0.74-0.78-0.74c-0.48,0-0.96,0.02-1.44,0.04
		c-0.72,0.02-0.92,0.23-0.91,0.95c0.02,2.95,0.04,5.9,0.07,8.85C138.08,17.9,138.12,18.12,138.13,18.23z M150.24,4.63
		c-0.48-0.22-0.98-0.2-1.48-0.06c-0.69,0.2-1.21,0.66-1.69,1.18c-0.54,0.58-1.05,1.19-1.61,1.75c-0.56,0.57-1.24,0.71-2,0.42
		c-0.14-0.05-0.27-0.11-0.41-0.15c-0.5-0.12-0.9,0.16-0.98,0.67c-0.02,0.14-0.02,0.27-0.02,0.41c0.01,1.38,0.02,2.76,0.03,4.14
		c0.01,1.54,0.03,3.07,0.04,4.61c0,0.3,0.14,0.51,0.39,0.64c1.04,0.55,2.08,1.1,3.12,1.64c0.07,0.04,0.18,0.05,0.24,0.01
		c0.31-0.18,0.28-0.77-0.04-0.93c-0.8-0.4-1.61-0.81-2.42-1.21c-0.31-0.15-0.45-0.37-0.45-0.72c0.01-0.88-0.01-1.76-0.01-2.64
		c-0.01-1.77-0.02-3.54-0.04-5.31c0-0.19-0.01-0.37,0.28-0.28c1.32,0.4,2.38-0.03,3.26-1.02c0.39-0.44,0.77-0.89,1.16-1.32
		c0.52-0.57,1.13-0.98,1.92-1.09C149.91,5.32,150.17,5.02,150.24,4.63z M165.78,13.73c-0.09,0.17-0.18,0.32-0.24,0.48
		c-0.15,0.37-0.28,0.76-0.45,1.12c-0.21,0.45-0.51,0.6-1,0.5c-0.24-0.05-0.47-0.13-0.69-0.24c-1.2-0.6-2.39-1.23-3.59-1.83
		c-0.2-0.1-0.44-0.14-0.67-0.16c-0.18-0.02-0.27,0.09-0.25,0.3c0.04,0.38,0.27,0.59,0.59,0.75c1.02,0.51,2.03,1.03,3.04,1.55
		c0.4,0.21,0.67,0.53,0.75,0.99c0.07,0.46-0.02,0.89-0.39,1.2c-0.36,0.3-0.76,0.25-1.16,0.09c-0.1-0.04-0.2-0.09-0.29-0.14
		c-1.13-0.57-2.26-1.14-3.38-1.71c-0.25-0.13-0.5-0.13-0.75-0.04c0.03,0.64,0.05,0.69,0.59,0.98c0.35,0.19,0.69,0.37,1.04,0.55
		c0.54,0.29,1.1,0.57,1.63,0.88c0.5,0.28,0.65,0.74,0.63,1.3c-0.02,0.51-0.31,0.79-0.75,0.98c-0.38,0.16-0.53,0.55-0.39,1.07
		c0.34-0.13,0.68-0.24,1.01-0.39c0.53-0.23,0.85-0.64,0.92-1.23c0.03-0.26,0.07-0.53,0.07-0.79c0-0.29,0.09-0.41,0.4-0.44
		c0.87-0.07,1.26-0.41,1.49-1.25c0.09-0.34,0.17-0.68,0.25-1.03c0.07-0.3,0.22-0.52,0.54-0.59c0.1-0.02,0.21-0.07,0.3-0.11
		C166.15,16.03,166.52,14.78,165.78,13.73z M155.02,17.96c-0.02-0.02-0.04-0.04-0.06-0.06c-0.19,0.21-0.41,0.4-0.55,0.65
		c-0.34,0.62-0.64,1.25-0.96,1.89c-0.22,0.45-0.47,0.89-0.64,1.35c-0.27,0.7,0.11,1.52,0.79,1.81c0.59,0.25,1.12,0,1.52-0.72
		c0.02-0.04,0.04-0.07,0.05-0.1c0.39-0.77,0.81-1.52,1.17-2.3c0.17-0.37,0.27-0.77,0.36-1.17
		C156.93,18.39,155.74,17.62,155.02,17.96z M151.61,22.42c0.11-0.12,0.36-0.32,0.51-0.58c0.39-0.71,0.76-1.44,1.1-2.17
		c0.12-0.27,0.16-0.58,0.23-0.87c0.1-0.41-0.07-0.72-0.35-1c-0.59-0.6-1.5-0.5-1.9,0.24c-0.44,0.82-0.84,1.66-1.27,2.48
		c-0.26,0.5-0.2,0.96,0.1,1.41C150.35,22.41,150.99,22.65,151.61,22.42z M157.61,19.89c-0.17,0.19-0.4,0.36-0.5,0.58
		c-0.29,0.66-0.58,1.33-0.79,2.02c-0.26,0.85,0.47,1.69,1.37,1.6c0.13-0.01,0.28-0.06,0.37-0.15c0.88-0.84,1.26-1.9,1.2-3.09
		C159.23,20.22,158.24,19.71,157.61,19.89z M146.71,21c0.04,0.09,0.06,0.19,0.11,0.27c0.35,0.72,1.29,0.91,1.84,0.35
		c0.35-0.36,0.59-0.81,0.68-1.31c0.11-0.59-0.24-1.2-0.79-1.43c-0.58-0.23-1.07-0.08-1.46,0.47c-0.07,0.09-0.13,0.19-0.2,0.29
		C146.58,20.07,146.47,20.52,146.71,21z"/>
	<g>
		<path class="st1" d="M138.13,18.23c-0.01-0.11-0.05-0.33-0.05-0.54c-0.03-2.95-0.05-5.9-0.07-8.85c-0.01-0.72,0.19-0.93,0.91-0.95
			c0.48-0.02,0.96-0.04,1.44-0.04c0.59,0,0.77,0.16,0.78,0.74c0.04,2.22,0.06,4.44,0.09,6.66c0.01,0.88,0.04,1.76,0.02,2.64
			c-0.01,0.26-0.15,0.52-0.26,0.76c-0.04,0.08-0.19,0.14-0.29,0.14c-0.65,0.02-1.31,0.02-1.97,0.03
			C138.4,18.81,138.27,18.58,138.13,18.23z"/>
		<path class="st1" d="M150.24,4.63c-0.07,0.39-0.33,0.69-0.69,0.74c-0.79,0.1-1.4,0.51-1.92,1.09c-0.39,0.44-0.77,0.88-1.16,1.32
			c-0.88,0.99-1.95,1.42-3.26,1.02c-0.29-0.09-0.28,0.09-0.28,0.28c0.01,1.77,0.03,3.54,0.04,5.31c0.01,0.88,0.02,1.76,0.01,2.64
			c0,0.35,0.14,0.57,0.45,0.72c0.81,0.4,1.61,0.81,2.42,1.21c0.32,0.16,0.35,0.75,0.04,0.93c-0.06,0.03-0.18,0.02-0.24-0.01
			c-1.04-0.54-2.08-1.09-3.12-1.64c-0.25-0.13-0.39-0.34-0.39-0.64c-0.01-1.54-0.03-3.07-0.04-4.61c-0.01-1.38-0.02-2.76-0.03-4.14
			c0-0.14,0-0.27,0.02-0.41c0.07-0.51,0.47-0.78,0.98-0.67c0.14,0.03,0.28,0.09,0.41,0.15c0.76,0.29,1.44,0.15,2-0.42
			c0.56-0.56,1.07-1.17,1.61-1.75c0.48-0.52,1-0.97,1.69-1.18C149.26,4.42,149.75,4.41,150.24,4.63z"/>
		<g>
			<path class="st1" d="M165.78,13.73c0.74,1.06,0.37,2.3-0.78,2.8c-0.1,0.04-0.2,0.09-0.3,0.11c-0.32,0.07-0.47,0.28-0.54,0.59
				c-0.08,0.34-0.16,0.69-0.25,1.03c-0.23,0.84-0.62,1.18-1.49,1.25c-0.31,0.03-0.4,0.15-0.4,0.44c0,0.26-0.04,0.53-0.07,0.79
				c-0.07,0.59-0.39,1-0.92,1.23c-0.33,0.14-0.67,0.26-1.01,0.39c-0.14-0.51,0.01-0.91,0.39-1.07c0.44-0.19,0.73-0.47,0.75-0.98
				c0.02-0.55-0.13-1.01-0.63-1.3c-0.54-0.31-1.09-0.58-1.63-0.88c-0.35-0.18-0.69-0.37-1.04-0.55c-0.54-0.29-0.57-0.33-0.59-0.98
				c0.25-0.09,0.5-0.08,0.75,0.04c1.13,0.57,2.25,1.14,3.38,1.71c0.1,0.05,0.19,0.1,0.29,0.14c0.4,0.16,0.81,0.21,1.16-0.09
				c0.37-0.31,0.46-0.73,0.39-1.2c-0.07-0.46-0.34-0.78-0.75-0.99c-1.01-0.52-2.02-1.04-3.04-1.55c-0.32-0.16-0.54-0.37-0.59-0.75
				c-0.03-0.21,0.06-0.32,0.25-0.3c0.23,0.02,0.47,0.06,0.67,0.16c1.2,0.6,2.39,1.23,3.59,1.83c0.21,0.11,0.45,0.19,0.69,0.24
				c0.49,0.1,0.79-0.05,1-0.5c0.17-0.36,0.29-0.75,0.45-1.12C165.6,14.04,165.69,13.9,165.78,13.73z"/>
		</g>
	</g>
	<g>
		<path class="st1" d="M153.2,3.24c0.76-0.36,1.54-0.31,2.33-0.16c0.61,0.11,1.21,0.25,1.81,0.37c0.95,0.19,1.77,0.02,2.35-0.83
			c0.16-0.24,0.29-0.08,0.42,0.03c1.29,1.14,2.58,2.29,3.87,3.42c0.79,0.69,1.59,1.36,2.39,2.04c0.58,0.49,0.65,0.85,0.35,1.55
			c-0.48,1.12-0.95,2.23-1.43,3.35c-0.2,0.48-0.26,0.5-0.73,0.26c-3.43-1.74-6.87-3.48-10.31-5.21c-0.73-0.37-0.98-0.3-1.53,0.32
			c-1.27,1.43-2.54,2.85-3.82,4.27c-0.26,0.29-0.58,0.47-0.97,0.48c-0.71,0.01-1.29-0.74-1.17-1.53c0.03-0.2,0.09-0.42,0.19-0.58
			c1.16-1.77,2.32-3.54,3.53-5.27c0.45-0.65,1-1.24,1.55-1.8c0.31-0.31,0.72-0.51,1.09-0.77C153.17,3.2,153.18,3.22,153.2,3.24z"/>
		<path class="st1" d="M161.9-0.92c0.34-0.14,0.56,0.01,0.77,0.18c0.52,0.45,1.03,0.9,1.54,1.36c1.78,1.58,3.55,3.17,5.32,4.75
			c0.11,0.1,0.21,0.2,0.3,0.32c0.23,0.3,0.23,0.56-0.03,0.84c-0.46,0.52-0.93,1.03-1.4,1.54c-0.23,0.25-0.41,0.27-0.7,0.09
			c-0.18-0.12-0.35-0.25-0.51-0.39c-2.18-1.95-4.36-3.9-6.55-5.85c-0.09-0.09-0.19-0.17-0.27-0.27c-0.24-0.27-0.29-0.57-0.06-0.85
			c0.46-0.56,0.95-1.09,1.44-1.63C161.79-0.87,161.87-0.9,161.9-0.92z"/>
		<path class="st1" d="M155.02,17.96c0.72-0.34,1.91,0.43,1.69,1.34c-0.1,0.4-0.19,0.81-0.36,1.17c-0.36,0.78-0.78,1.54-1.17,2.3
			c-0.02,0.03-0.03,0.07-0.05,0.1c-0.4,0.72-0.93,0.97-1.52,0.72c-0.68-0.29-1.06-1.11-0.79-1.81c0.18-0.47,0.42-0.9,0.64-1.35
			c0.31-0.63,0.62-1.27,0.96-1.89c0.13-0.24,0.36-0.43,0.55-0.65C154.98,17.92,155,17.94,155.02,17.96z"/>
		<path class="st1" d="M151.61,22.42c-0.62,0.23-1.26-0.01-1.58-0.5c-0.3-0.45-0.36-0.91-0.1-1.41c0.43-0.82,0.83-1.66,1.27-2.48
			c0.4-0.74,1.32-0.85,1.9-0.24c0.27,0.28,0.45,0.59,0.35,1c-0.07,0.29-0.11,0.6-0.23,0.87c-0.34,0.74-0.71,1.46-1.1,2.17
			C151.97,22.09,151.72,22.29,151.61,22.42z"/>
		<path class="st1" d="M157.61,19.89c0.63-0.18,1.62,0.34,1.65,0.96c0.06,1.19-0.33,2.25-1.2,3.09c-0.09,0.09-0.24,0.13-0.37,0.15
			c-0.89,0.09-1.63-0.75-1.37-1.6c0.21-0.69,0.5-1.36,0.79-2.02C157.21,20.25,157.44,20.08,157.61,19.89z"/>
		<path class="st1" d="M146.71,21c-0.23-0.48-0.13-0.93,0.17-1.35c0.07-0.1,0.13-0.19,0.2-0.29c0.4-0.55,0.88-0.71,1.46-0.47
			c0.55,0.22,0.9,0.83,0.79,1.43c-0.09,0.5-0.32,0.95-0.68,1.31c-0.55,0.56-1.49,0.37-1.84-0.35
			C146.77,21.19,146.74,21.09,146.71,21z"/>
	</g>
</g>
<text transform="matrix(1 0 0 1 138.0098 28.1182)" class="st2 st3 st4">.com</text>
<text transform="matrix(1 0 0 1 3.106 29.3877)" class="st2 st3 st5">PAYSJOB</text>
<text transform="matrix(0.99 0 0 1 4.9224 37.6436)" class="st6 st7 st8">Professionalism, Confident, Partnership</text>
</svg>
