<svg id="Layer_1" data-name="Layer 1" xmlns="http://www.w3.org/2000/svg" viewBox="0 0 166.89 40.72"><defs><style>.cls-1{fill:#fff;}.cls-1,.cls-2{fill-rule:evenodd;}.cls-2,.cls-3,.cls-5{fill:#00afb3;}.cls-3{font-size:7.12px;}.cls-3,.cls-5{font-family:ProximaNova-Bold, Proxima Nova;font-weight:700;}.cls-4{letter-spacing:0em;}.cls-5{font-size:31.1px;letter-spacing:-0.07em;}.cls-6{letter-spacing:-0.07em;}.cls-7{letter-spacing:-0.02em;}.cls-8{letter-spacing:0em;}.cls-9{font-size:7.93px;fill:#585d5f;font-family:ProximaNova-Light, Proxima Nova;font-weight:300;}.cls-10{letter-spacing:-0.02em;}</style></defs><title>paysjob_green</title><path class="cls-1" d="M153.2,3.24l0-.07a7.11,7.11,0,0,0-1.09.77,14,14,0,0,0-1.55,1.8c-1.2,1.74-2.36,3.51-3.53,5.27a1.65,1.65,0,0,0-.19.58A1.29,1.29,0,0,0,148,13.12a1.32,1.32,0,0,0,1-.48l3.82-4.26c.54-.62.8-.69,1.53-.32l10.3,5.21c.48.24.53.23.74-.26.47-1.11.94-2.23,1.42-3.35a1.1,1.1,0,0,0-.35-1.55c-.8-.68-1.6-1.35-2.39-2-1.3-1.13-2.59-2.28-3.88-3.42-.13-.11-.26-.27-.42,0a2.08,2.08,0,0,1-2.36.83c-.6-.12-1.2-.25-1.81-.36A3.65,3.65,0,0,0,153.2,3.24Zm8.7-4.16a.79.79,0,0,0-.16.1c-.48.54-1,1.07-1.43,1.63a.6.6,0,0,0,.06.85,3.44,3.44,0,0,0,.27.27l6.55,5.85a4.91,4.91,0,0,0,.51.39.46.46,0,0,0,.7-.09l1.4-1.54a.58.58,0,0,0,0-.85,3,3,0,0,0-.3-.32L164.21.62,162.67-.74A.71.71,0,0,0,161.9-.92ZM138.13,18.23c.14.35.27.58.59.58.66,0,1.31,0,2,0a.37.37,0,0,0,.29-.14,1.81,1.81,0,0,0,.26-.76c0-.88,0-1.76,0-2.64q0-3.33-.1-6.66c0-.58-.18-.73-.77-.73s-1,0-1.44,0c-.72,0-.91.23-.91,1q0,4.44.07,8.86A5,5,0,0,0,138.13,18.23Zm12.11-13.6a2,2,0,0,0-1.48-.06,3.72,3.72,0,0,0-1.69,1.18c-.54.58-1,1.18-1.61,1.75a1.76,1.76,0,0,1-2,.42,2.26,2.26,0,0,0-.41-.15.76.76,0,0,0-1,.67,2.75,2.75,0,0,0,0,.41l0,4.13c0,1.54,0,3.08,0,4.61a.67.67,0,0,0,.38.64c1,.56,2.08,1.1,3.13,1.65a.29.29,0,0,0,.24,0,.58.58,0,0,0,0-.93c-.81-.41-1.61-.82-2.42-1.21A.73.73,0,0,1,143,17c0-.88,0-1.76,0-2.64,0-1.77,0-3.54,0-5.31,0-.2,0-.37.28-.28a2.94,2.94,0,0,0,3.26-1c.39-.44.77-.89,1.17-1.33a3.09,3.09,0,0,1,1.92-1.08A.85.85,0,0,0,150.24,4.63Zm15.54,9.1a4.19,4.19,0,0,0-.24.47c-.16.37-.28.76-.45,1.12a.78.78,0,0,1-1,.5,2.69,2.69,0,0,1-.69-.24c-1.2-.6-2.39-1.23-3.59-1.83a1.87,1.87,0,0,0-.67-.15c-.18,0-.27.09-.25.3a.94.94,0,0,0,.59.75c1,.5,2,1,3,1.54a1.31,1.31,0,0,1,.74,1,1.17,1.17,0,0,1-.39,1.19,1.06,1.06,0,0,1-1.16.09l-.29-.13L158,16.63a.9.9,0,0,0-.75-.05c0,.65.06.69.59,1l1,.55c.55.3,1.1.58,1.63.88a1.28,1.28,0,0,1,.63,1.3,1.06,1.06,0,0,1-.75,1,.82.82,0,0,0-.39,1.07c.34-.13.68-.24,1-.39a1.46,1.46,0,0,0,.92-1.23,5.16,5.16,0,0,0,.06-.79c0-.28.09-.41.4-.43a1.45,1.45,0,0,0,1.49-1.25c.09-.34.17-.69.25-1a.69.69,0,0,1,.54-.59,1.82,1.82,0,0,0,.3-.11A1.79,1.79,0,0,0,165.78,13.73ZM155,18l-.06-.05a3.66,3.66,0,0,0-.55.64c-.34.62-.64,1.26-1,1.89-.22.45-.46.89-.64,1.35a1.45,1.45,0,0,0,.79,1.81c.59.25,1.12,0,1.52-.72l.06-.11c.39-.76.81-1.52,1.17-2.3a5.87,5.87,0,0,0,.36-1.17A1.28,1.28,0,0,0,155,18Zm-3.41,4.46a3.66,3.66,0,0,0,.51-.59c.39-.71.76-1.44,1.1-2.17a5.06,5.06,0,0,0,.23-.87,1,1,0,0,0-.34-1,1.15,1.15,0,0,0-1.9.25c-.45.82-.85,1.65-1.28,2.48a1.29,1.29,0,0,0,.1,1.41A1.32,1.32,0,0,0,151.61,22.42Zm6-2.53a2.7,2.7,0,0,0-.5.58,16.57,16.57,0,0,0-.79,2,1.26,1.26,0,0,0,1.36,1.6.65.65,0,0,0,.37-.15,3.88,3.88,0,0,0,1.21-3.09C159.23,20.22,158.24,19.71,157.61,19.89ZM146.71,21c0,.09.06.19.1.28a1.15,1.15,0,0,0,1.84.35,2.51,2.51,0,0,0,.68-1.31,1.33,1.33,0,0,0-.79-1.43,1.15,1.15,0,0,0-1.47.48l-.2.28A1.25,1.25,0,0,0,146.71,21Z" transform="translate(-3.11 0.97)"/><path class="cls-2" d="M138.13,18.23a5,5,0,0,1,0-.54q0-4.43-.07-8.86c0-.72.19-.92.91-1,.48,0,1,0,1.44,0s.76.15.77.73q.06,3.33.1,6.66c0,.88,0,1.76,0,2.64a1.81,1.81,0,0,1-.26.76.37.37,0,0,1-.29.14c-.66,0-1.31,0-2,0C138.4,18.81,138.27,18.58,138.13,18.23Z" transform="translate(-3.11 0.97)"/><path class="cls-2" d="M150.24,4.63a.85.85,0,0,1-.69.74,3.09,3.09,0,0,0-1.92,1.08c-.4.44-.78.89-1.17,1.33a2.94,2.94,0,0,1-3.26,1c-.29-.09-.28.08-.28.28,0,1.77,0,3.54,0,5.31,0,.88,0,1.76,0,2.64a.73.73,0,0,0,.45.72c.81.39,1.61.8,2.42,1.21a.58.58,0,0,1,0,.93.29.29,0,0,1-.24,0c-1-.55-2.09-1.09-3.13-1.65a.67.67,0,0,1-.38-.64c0-1.53,0-3.07,0-4.61l0-4.13a2.75,2.75,0,0,1,0-.41.76.76,0,0,1,1-.67,2.26,2.26,0,0,1,.41.15,1.76,1.76,0,0,0,2-.42c.56-.57,1.07-1.17,1.61-1.75a3.72,3.72,0,0,1,1.69-1.18A2,2,0,0,1,150.24,4.63Z" transform="translate(-3.11 0.97)"/><path class="cls-2" d="M165.78,13.73a1.79,1.79,0,0,1-.78,2.79,1.82,1.82,0,0,1-.3.11.69.69,0,0,0-.54.59c-.08.34-.16.69-.25,1a1.45,1.45,0,0,1-1.49,1.25c-.31,0-.4.15-.4.43a5.16,5.16,0,0,1-.06.79A1.46,1.46,0,0,1,161,22c-.33.15-.67.26-1,.39a.82.82,0,0,1,.39-1.07,1.06,1.06,0,0,0,.75-1,1.28,1.28,0,0,0-.63-1.3c-.53-.3-1.08-.58-1.63-.88l-1-.55c-.53-.29-.56-.33-.59-1a.9.9,0,0,1,.75.05l3.39,1.71.29.13a1.06,1.06,0,0,0,1.16-.09,1.17,1.17,0,0,0,.39-1.19,1.31,1.31,0,0,0-.74-1c-1-.52-2-1-3-1.54a.94.94,0,0,1-.59-.75c0-.21.07-.32.25-.3a1.87,1.87,0,0,1,.67.15c1.2.6,2.39,1.23,3.59,1.83a2.69,2.69,0,0,0,.69.24.78.78,0,0,0,1-.5c.17-.36.29-.75.45-1.12A4.19,4.19,0,0,1,165.78,13.73Z" transform="translate(-3.11 0.97)"/><path class="cls-2" d="M153.2,3.24a3.65,3.65,0,0,1,2.33-.15c.61.11,1.21.24,1.81.36a2.08,2.08,0,0,0,2.36-.83c.16-.24.29-.08.42,0,1.29,1.14,2.58,2.29,3.88,3.42.79.69,1.59,1.36,2.39,2a1.1,1.1,0,0,1,.35,1.55c-.48,1.12-1,2.24-1.42,3.35-.21.49-.26.5-.74.26l-10.3-5.21c-.73-.37-1-.3-1.53.32l-3.82,4.26a1.32,1.32,0,0,1-1,.48,1.29,1.29,0,0,1-1.17-1.53A1.65,1.65,0,0,1,147,11c1.17-1.76,2.33-3.53,3.53-5.27a14,14,0,0,1,1.55-1.8,7.11,7.11,0,0,1,1.09-.77Z" transform="translate(-3.11 0.97)"/><path class="cls-2" d="M161.9-.92a.71.71,0,0,1,.77.18L164.21.62l5.32,4.75a3,3,0,0,1,.3.32.58.58,0,0,1,0,.85l-1.4,1.54a.46.46,0,0,1-.7.09,4.91,4.91,0,0,1-.51-.39l-6.55-5.85a3.44,3.44,0,0,1-.27-.27.6.6,0,0,1-.06-.85c.46-.56.95-1.09,1.43-1.63A.79.79,0,0,1,161.9-.92Z" transform="translate(-3.11 0.97)"/><path class="cls-2" d="M155,18a1.28,1.28,0,0,1,1.69,1.34,5.87,5.87,0,0,1-.36,1.17c-.36.78-.78,1.54-1.17,2.3l-.06.11c-.4.72-.93,1-1.52.72a1.45,1.45,0,0,1-.79-1.81c.18-.46.42-.9.64-1.35.32-.63.62-1.27,1-1.89a3.66,3.66,0,0,1,.55-.64Z" transform="translate(-3.11 0.97)"/><path class="cls-2" d="M151.61,22.42a1.32,1.32,0,0,1-1.58-.5,1.29,1.29,0,0,1-.1-1.41c.43-.83.83-1.66,1.28-2.48a1.15,1.15,0,0,1,1.9-.25,1,1,0,0,1,.34,1,5.06,5.06,0,0,1-.23.87c-.34.73-.71,1.46-1.1,2.17A3.66,3.66,0,0,1,151.61,22.42Z" transform="translate(-3.11 0.97)"/><path class="cls-2" d="M157.61,19.89c.63-.18,1.62.33,1.65,1a3.88,3.88,0,0,1-1.21,3.09.65.65,0,0,1-.37.15,1.26,1.26,0,0,1-1.36-1.6,16.57,16.57,0,0,1,.79-2A2.7,2.7,0,0,1,157.61,19.89Z" transform="translate(-3.11 0.97)"/><path class="cls-2" d="M146.71,21a1.25,1.25,0,0,1,.16-1.35l.2-.28a1.15,1.15,0,0,1,1.47-.48,1.33,1.33,0,0,1,.79,1.43,2.51,2.51,0,0,1-.68,1.31,1.15,1.15,0,0,1-1.84-.35C146.77,21.19,146.74,21.09,146.71,21Z" transform="translate(-3.11 0.97)"/><text class="cls-3" transform="translate(134.9 29.09)"><tspan class="cls-4">.</tspan><tspan x="1.79" y="0">com</tspan></text><text class="cls-5" transform="translate(0 30.36)">P<tspan class="cls-6" x="17.11" y="0">A</tspan><tspan class="cls-7" x="36.3" y="0">Y</tspan><tspan class="cls-8" x="55.74" y="0">SJOB</tspan></text><text class="cls-9" transform="translate(1.82 38.62) scale(0.99 1)">Professionalism, Confident, <tspan class="cls-10" x="94.4" y="0">P</tspan><tspan x="98.77" y="0">artnership</tspan></text></svg>