<?xml version="1.0" encoding="utf-8"?>
<!-- Generator: Adobe Illustrator 21.0.0, SVG Export Plug-In . SVG Version: 6.00 Build 0)  -->
<svg version="1.1" id="Layer_1" xmlns="http://www.w3.org/2000/svg" xmlns:xlink="http://www.w3.org/1999/xlink" x="0px" y="0px"
	 viewBox="0 0 788.1 240.8" style="enable-background:new 0 0 788.1 240.8;" xml:space="preserve">
<style type="text/css">
	.st0{fill-rule:evenodd;clip-rule:evenodd;fill:#FFFFFF;}
	.st1{fill-rule:evenodd;clip-rule:evenodd;fill:#3FA798;}
	.st2{fill:#3FA798;}
	.st3{font-family:'ProximaNova-Bold';}
	.st4{font-size:26.9129px;}
	.st5{font-size:117.6356px;}
	.st6{fill:#474444;}
	.st7{font-family:'ProximaNova-Light';}
	.st8{font-size:30px;}
</style>
<g>
	<path class="st0" d="M641.2,40.2c-0.1-0.1-0.1-0.2-0.2-0.3c-1.4,1-3,1.7-4.1,2.9c-2.1,2.1-4.2,4.4-5.9,6.8
		c-4.6,6.6-8.9,13.3-13.3,19.9c-0.4,0.6-0.6,1.4-0.7,2.2c-0.4,3,1.7,5.8,4.4,5.8c1.5,0,2.7-0.7,3.7-1.8c4.8-5.4,9.6-10.7,14.4-16.1
		c2.1-2.3,3-2.6,5.8-1.2c13,6.6,26,13.1,39,19.7c1.8,0.9,2,0.9,2.8-1c1.8-4.2,3.6-8.5,5.4-12.7c1.1-2.6,0.8-4-1.3-5.9
		c-3-2.6-6.1-5.1-9.1-7.7c-4.9-4.3-9.8-8.6-14.6-12.9c-0.5-0.4-1-1-1.6-0.1c-2.2,3.2-5.3,3.9-8.9,3.2c-2.3-0.4-4.6-1-6.9-1.4
		C647.1,39,644.1,38.8,641.2,40.2z M674.1,24.4c-0.1,0.1-0.4,0.2-0.6,0.4c-1.8,2-3.7,4-5.4,6.2c-0.9,1.1-0.7,2.2,0.2,3.2
		c0.3,0.4,0.7,0.7,1,1c8.2,7.4,16.5,14.8,24.8,22.1c0.6,0.5,1.3,1,1.9,1.5c1.1,0.7,1.8,0.6,2.7-0.3c1.8-1.9,3.6-3.9,5.3-5.8
		c1-1.1,1-2.1,0.1-3.2c-0.3-0.4-0.7-0.8-1.1-1.2c-6.7-6-13.4-12-20.1-18c-1.9-1.7-3.9-3.4-5.8-5.1C676.3,24.5,675.4,23.9,674.1,24.4
		z M584.2,96.9c0.5,1.3,1,2.2,2.2,2.2c2.5,0,5,0,7.4-0.1c0.4,0,1-0.2,1.1-0.5c0.4-0.9,1-1.9,1-2.9c0.1-3.3,0-6.7-0.1-10
		c-0.1-8.4-0.2-16.8-0.3-25.2c0-2.2-0.7-2.8-2.9-2.8c-1.8,0-3.6,0.1-5.4,0.1c-2.7,0.1-3.5,0.9-3.4,3.6c0.1,11.2,0.2,22.3,0.3,33.5
		C584.1,95.6,584.2,96.4,584.2,96.9z M630,45.4c-1.8-0.8-3.7-0.8-5.6-0.2c-2.6,0.8-4.6,2.5-6.4,4.4c-2,2.2-4,4.5-6.1,6.6
		c-2.1,2.1-4.7,2.7-7.6,1.6c-0.5-0.2-1-0.4-1.6-0.5c-1.9-0.4-3.4,0.6-3.7,2.5c-0.1,0.5-0.1,1-0.1,1.6c0,5.2,0.1,10.4,0.1,15.7
		c0.1,5.8,0.1,11.6,0.2,17.4c0,1.1,0.5,1.9,1.5,2.4c3.9,2.1,7.9,4.2,11.8,6.2c0.2,0.1,0.7,0.2,0.9,0.1c1.2-0.7,1.1-2.9-0.2-3.5
		c-3-1.5-6.1-3.1-9.1-4.6c-1.2-0.6-1.7-1.4-1.7-2.7c0-3.3,0-6.7,0-10c0-6.7-0.1-13.4-0.1-20.1c0-0.7,0-1.4,1.1-1.1
		c5,1.5,9-0.1,12.3-3.9c1.5-1.7,2.9-3.4,4.4-5c2-2.2,4.3-3.7,7.3-4.1C628.8,48,629.8,46.9,630,45.4z M688.8,79.8
		c-0.3,0.6-0.7,1.2-0.9,1.8c-0.6,1.4-1,2.9-1.7,4.2c-0.8,1.7-1.9,2.3-3.8,1.9c-0.9-0.2-1.8-0.5-2.6-0.9c-4.5-2.3-9-4.6-13.6-6.9
		c-0.8-0.4-1.7-0.5-2.5-0.6c-0.7-0.1-1,0.4-0.9,1.1c0.2,1.4,1,2.2,2.2,2.8c3.8,1.9,7.7,3.9,11.5,5.9c1.5,0.8,2.6,2,2.8,3.8
		c0.3,1.7-0.1,3.4-1.5,4.5c-1.3,1.1-2.9,1-4.4,0.3c-0.4-0.2-0.7-0.3-1.1-0.5c-4.3-2.2-8.5-4.3-12.8-6.5c-0.9-0.5-1.9-0.5-2.8-0.2
		c0.1,2.4,0.2,2.6,2.2,3.7c1.3,0.7,2.6,1.4,3.9,2.1c2.1,1.1,4.1,2.2,6.2,3.3c1.9,1.1,2.5,2.8,2.4,4.9c-0.1,1.9-1.2,3-2.9,3.7
		c-1.4,0.6-2,2.1-1.5,4c1.3-0.5,2.6-0.9,3.8-1.5c2-0.9,3.2-2.4,3.5-4.7c0.1-1,0.3-2,0.2-3c0-1.1,0.3-1.6,1.5-1.7
		c3.3-0.3,4.8-1.6,5.6-4.7c0.4-1.3,0.7-2.6,0.9-3.9c0.3-1.1,0.8-2,2-2.2c0.4-0.1,0.8-0.3,1.1-0.4C690.2,88.5,691.6,83.8,688.8,79.8z
		 M648.1,95.8c-0.1-0.1-0.2-0.1-0.2-0.2c-0.7,0.8-1.6,1.5-2.1,2.4c-1.3,2.3-2.4,4.7-3.6,7.1c-0.8,1.7-1.8,3.4-2.4,5.1
		c-1,2.7,0.4,5.7,3,6.8c2.2,1,4.2,0,5.8-2.7c0.1-0.1,0.1-0.3,0.2-0.4c1.5-2.9,3.1-5.8,4.4-8.7c0.6-1.4,1-2.9,1.4-4.4
		C655.3,97.5,650.9,94.6,648.1,95.8z M635.2,112.7c0.4-0.5,1.4-1.2,1.9-2.2c1.5-2.7,2.9-5.4,4.2-8.2c0.5-1,0.6-2.2,0.9-3.3
		c0.4-1.5-0.3-2.7-1.3-3.8c-2.2-2.3-5.7-1.9-7.2,0.9c-1.7,3.1-3.2,6.3-4.8,9.4c-1,1.9-0.8,3.6,0.4,5.3
		C630.5,112.7,632.9,113.6,635.2,112.7z M657.9,103.1c-0.6,0.7-1.5,1.4-1.9,2.2c-1.1,2.5-2.2,5-3,7.6c-1,3.2,1.8,6.4,5.2,6.1
		c0.5-0.1,1.1-0.2,1.4-0.6c3.3-3.2,4.8-7.2,4.5-11.7C664,104.4,660.3,102.4,657.9,103.1z M616.7,107.3c0.1,0.3,0.2,0.7,0.4,1
		c1.3,2.7,4.9,3.5,6.9,1.3c1.3-1.4,2.2-3.1,2.6-5c0.4-2.2-0.9-4.6-3-5.4c-2.2-0.9-4-0.3-5.5,1.8c-0.3,0.4-0.5,0.7-0.8,1.1
		C616.2,103.8,615.8,105.5,616.7,107.3z"/>
	<g>
		<path class="st1" d="M584.2,96.9c0-0.4-0.2-1.2-0.2-2c-0.1-11.2-0.2-22.3-0.3-33.5c0-2.7,0.7-3.5,3.4-3.6c1.8-0.1,3.6-0.1,5.4-0.1
			c2.2,0,2.9,0.6,2.9,2.8c0.1,8.4,0.2,16.8,0.3,25.2c0,3.3,0.2,6.7,0.1,10c0,1-0.6,2-1,2.9c-0.1,0.3-0.7,0.5-1.1,0.5
			c-2.5,0.1-5,0.1-7.4,0.1C585.3,99.1,584.8,98.2,584.2,96.9z"/>
		<path class="st1" d="M630,45.4c-0.3,1.5-1.2,2.6-2.6,2.8c-3,0.4-5.3,1.9-7.3,4.1c-1.5,1.6-2.9,3.3-4.4,5
			c-3.3,3.7-7.4,5.4-12.3,3.9c-1.1-0.3-1.1,0.3-1.1,1.1c0,6.7,0.1,13.4,0.1,20.1c0,3.3,0.1,6.7,0,10c0,1.3,0.5,2.2,1.7,2.7
			c3.1,1.5,6.1,3,9.1,4.6c1.2,0.6,1.3,2.8,0.2,3.5c-0.2,0.1-0.7,0.1-0.9-0.1c-3.9-2.1-7.9-4.1-11.8-6.2c-0.9-0.5-1.5-1.3-1.5-2.4
			c0-5.8-0.1-11.6-0.2-17.4c0-5.2-0.1-10.4-0.1-15.7c0-0.5,0-1,0.1-1.6c0.3-1.9,1.8-3,3.7-2.5c0.5,0.1,1.1,0.4,1.6,0.5
			c2.9,1.1,5.4,0.6,7.6-1.6c2.1-2.1,4.1-4.4,6.1-6.6c1.8-2,3.8-3.7,6.4-4.4C626.3,44.6,628.2,44.6,630,45.4z"/>
		<g>
			<path class="st1" d="M688.8,79.8c2.8,4,1.4,8.7-3,10.6c-0.4,0.2-0.8,0.3-1.1,0.4c-1.2,0.3-1.8,1.1-2,2.2
				c-0.3,1.3-0.6,2.6-0.9,3.9c-0.9,3.2-2.3,4.5-5.6,4.7c-1.2,0.1-1.5,0.6-1.5,1.7c0,1-0.1,2-0.2,3c-0.3,2.2-1.5,3.8-3.5,4.7
				c-1.2,0.5-2.5,1-3.8,1.5c-0.5-1.9,0-3.4,1.5-4c1.7-0.7,2.8-1.8,2.9-3.7c0.1-2.1-0.5-3.8-2.4-4.9c-2-1.2-4.1-2.2-6.2-3.3
				c-1.3-0.7-2.6-1.4-3.9-2.1c-2-1.1-2.1-1.3-2.2-3.7c1-0.3,1.9-0.3,2.8,0.2c4.3,2.2,8.5,4.3,12.8,6.5c0.4,0.2,0.7,0.4,1.1,0.5
				c1.5,0.6,3.1,0.8,4.4-0.3c1.4-1.2,1.7-2.8,1.5-4.5c-0.3-1.7-1.3-3-2.8-3.8c-3.8-2-7.6-3.9-11.5-5.9c-1.2-0.6-2-1.4-2.2-2.8
				c-0.1-0.8,0.2-1.2,0.9-1.1c0.9,0.1,1.8,0.2,2.5,0.6c4.5,2.3,9,4.6,13.6,6.9c0.8,0.4,1.7,0.7,2.6,0.9c1.9,0.4,3-0.2,3.8-1.9
				c0.6-1.4,1.1-2.8,1.7-4.2C688.1,81,688.5,80.5,688.8,79.8z"/>
		</g>
	</g>
	<g>
		<path class="st1" d="M641.2,40.2c2.9-1.4,5.8-1.2,8.8-0.6c2.3,0.4,4.6,0.9,6.9,1.4c3.6,0.7,6.7,0.1,8.9-3.2
			c0.6-0.9,1.1-0.3,1.6,0.1c4.9,4.3,9.7,8.6,14.6,12.9c3,2.6,6,5.1,9.1,7.7c2.2,1.8,2.5,3.2,1.3,5.9c-1.8,4.2-3.6,8.5-5.4,12.7
			c-0.8,1.8-1,1.9-2.8,1c-13-6.6-26-13.2-39-19.7c-2.7-1.4-3.7-1.1-5.8,1.2c-4.8,5.4-9.6,10.8-14.4,16.1c-1,1.1-2.2,1.8-3.7,1.8
			c-2.7,0-4.9-2.8-4.4-5.8c0.1-0.8,0.3-1.6,0.7-2.2c4.4-6.7,8.8-13.4,13.3-19.9c1.7-2.4,3.8-4.7,5.9-6.8c1.2-1.2,2.7-1.9,4.1-2.9
			C641.1,40,641.2,40.1,641.2,40.2z"/>
		<path class="st1" d="M674.1,24.4c1.3-0.5,2.1,0,2.9,0.7c2,1.7,3.9,3.4,5.8,5.1c6.7,6,13.4,12,20.1,18c0.4,0.4,0.8,0.8,1.1,1.2
			c0.9,1.1,0.9,2.1-0.1,3.2c-1.8,2-3.5,3.9-5.3,5.8c-0.9,0.9-1.6,1-2.7,0.3c-0.7-0.4-1.3-0.9-1.9-1.5c-8.3-7.4-16.5-14.7-24.8-22.1
			c-0.4-0.3-0.7-0.6-1-1c-0.9-1-1.1-2.2-0.2-3.2c1.7-2.1,3.6-4.1,5.4-6.2C673.7,24.6,674,24.5,674.1,24.4z"/>
		<path class="st1" d="M648.1,95.8c2.7-1.3,7.2,1.6,6.4,5c-0.4,1.5-0.7,3-1.4,4.4c-1.4,3-2.9,5.8-4.4,8.7c-0.1,0.1-0.1,0.3-0.2,0.4
			c-1.5,2.7-3.5,3.7-5.8,2.7c-2.6-1.1-4-4.2-3-6.8c0.7-1.8,1.6-3.4,2.4-5.1c1.2-2.4,2.3-4.8,3.6-7.1c0.5-0.9,1.4-1.6,2.1-2.4
			C648,95.7,648.1,95.8,648.1,95.8z"/>
		<path class="st1" d="M635.2,112.7c-2.3,0.9-4.8,0-6-1.9c-1.1-1.7-1.4-3.4-0.4-5.3c1.6-3.1,3.1-6.3,4.8-9.4c1.5-2.8,5-3.2,7.2-0.9
			c1,1.1,1.7,2.2,1.3,3.8c-0.3,1.1-0.4,2.3-0.9,3.3c-1.3,2.8-2.7,5.5-4.2,8.2C636.6,111.5,635.6,112.2,635.2,112.7z"/>
		<path class="st1" d="M657.9,103.1c2.4-0.7,6.1,1.3,6.2,3.6c0.2,4.5-1.2,8.5-4.5,11.7c-0.3,0.3-0.9,0.5-1.4,0.6
			c-3.4,0.3-6.2-2.8-5.2-6.1c0.8-2.6,1.9-5.1,3-7.6C656.4,104.5,657.3,103.9,657.9,103.1z"/>
		<path class="st1" d="M616.7,107.3c-0.9-1.8-0.5-3.5,0.6-5.1c0.3-0.4,0.5-0.7,0.8-1.1c1.5-2.1,3.3-2.7,5.5-1.8
			c2.1,0.8,3.4,3.1,3,5.4c-0.3,1.9-1.2,3.6-2.6,5c-2.1,2.1-5.6,1.4-6.9-1.3C616.9,108,616.8,107.7,616.7,107.3z"/>
	</g>
</g>
<text transform="matrix(1 0 0 1 583.8008 134.2549)" class="st2 st3 st4">.com</text>
<text transform="matrix(1 0 0 1 73.5977 139.0548)" class="st2 st3 st5">PAYSJOB</text>
<text transform="matrix(0.99 0 0 1 80.4697 177.8398)" class="st6 st7 st8">Professionalism, Confident, Partnership</text>
</svg>
